<svg width="27" height="25" viewBox="0 0 27 25" fill="none" xmlns="http://www.w3.org/2000/svg">
<g clip-path="url(#clip0_2722_8)">
<path d="M12.7002 21.22C12.1588 21.76 11.4699 22.128 10.7201 22.2778C9.97023 22.4275 9.19284 22.3524 8.48554 22.0618C7.77825 21.7712 7.1726 21.2781 6.74465 20.6444C6.31671 20.0107 6.08555 19.2646 6.08022 18.5L3.81022 17.6C3.60223 18.9813 3.86757 20.3923 4.56308 21.6037C5.2586 22.8151 6.34341 23.7557 7.64117 24.2724C8.93892 24.7892 10.3733 24.8519 11.7112 24.4502C13.0491 24.0485 14.2117 23.2061 15.0102 22.06L12.7902 21.15L12.7002 21.22Z" fill="#83CF8D"/>
<path d="M21.8298 0.210036L1.87982 7.15004C1.31345 7.34887 0.825971 7.72446 0.489279 8.22139C0.152586 8.71833 -0.015498 9.31031 0.00981629 9.91004L0.0998163 12.98C0.11333 13.5318 0.290777 14.0671 0.609554 14.5176C0.928331 14.9682 1.37401 15.3137 1.88982 15.51L2.82982 15.87L4.13982 16.38L6.30982 17.22L13.5598 20.02L15.7398 20.86L18.3398 21.86L21.1698 22.95C21.7075 23.1579 22.2872 23.2341 22.8604 23.172C23.4336 23.1099 23.9835 22.9115 24.4643 22.5933C24.945 22.275 25.3426 21.8463 25.6236 21.343C25.9047 20.8396 26.0611 20.2762 26.0798 19.7L26.6298 3.70004C26.6431 3.11683 26.5148 2.53909 26.256 2.01629C25.9972 1.49348 25.6155 1.04119 25.1437 0.698135C24.6719 0.355077 24.1239 0.131473 23.5468 0.0464675C22.9697 -0.0385384 22.3805 0.0175862 21.8298 0.210036Z" fill="#22838F"/>
</g>
<defs>
<clipPath id="clip0_2722_8">
<rect width="26.63" height="24.69" fill="white"/>
</clipPath>
</defs>
</svg>
