<svg width="27" height="27" viewBox="0 0 27 27" fill="none" xmlns="http://www.w3.org/2000/svg">
<g clip-path="url(#clip0_2188_27)">
<path d="M13.7103 0.220215C14.0061 0.331442 14.1804 0.551861 14.3066 0.834676C14.4647 1.18938 14.6547 1.52984 14.8161 1.88319C14.84 1.94513 14.8815 1.99872 14.9355 2.03729C14.9896 2.07587 15.0537 2.09775 15.1201 2.10022C15.5814 2.15787 16.0414 2.22976 16.5007 2.29962C16.645 2.31471 16.7816 2.37245 16.893 2.46545C17.0044 2.55846 17.0856 2.68253 17.1262 2.82184C17.1747 2.95493 17.1826 3.09939 17.1491 3.23699C17.1155 3.37459 17.0419 3.49917 16.9376 3.59501C16.6045 3.93411 16.253 4.25084 15.9281 4.59469C15.8463 4.69138 15.8061 4.81643 15.8161 4.94262C15.8718 5.36989 15.9579 5.79242 16.0332 6.21698C16.0936 6.55609 16.0414 6.86264 15.7422 7.07628C15.4559 7.27974 15.1615 7.25668 14.8602 7.09052C14.4681 6.87485 14.0719 6.66528 13.6682 6.47199C13.5657 6.42964 13.4506 6.42964 13.348 6.47199C12.9376 6.67003 12.5339 6.88841 12.133 7.10273C11.8392 7.25872 11.5509 7.27092 11.2734 7.07289C10.9959 6.87485 10.922 6.58796 10.9756 6.26445C11.0488 5.82294 11.1411 5.38278 11.1994 4.94058C11.2096 4.81428 11.1696 4.68905 11.0882 4.59198C10.7809 4.26576 10.4525 3.95988 10.1296 3.64858C9.89144 3.41867 9.78221 3.1501 9.8894 2.8232C9.9966 2.4963 10.2286 2.3376 10.5678 2.29351C11.0203 2.23315 11.4729 2.17144 11.9247 2.09005C12.0329 2.0647 12.1268 1.99768 12.1859 1.90354C12.3758 1.55562 12.5529 1.19956 12.7144 0.836711C12.8406 0.554574 13.0136 0.33212 13.3107 0.222249L13.7103 0.220215Z" fill="#39B349"/>
<path d="M26.5108 19.512C26.4769 19.5676 26.443 19.6225 26.4104 19.6788C26.3301 19.8238 26.2042 19.9383 26.0523 20.0047C25.9004 20.071 25.7308 20.0854 25.5698 20.0457C25.4039 20.0062 25.2562 19.9119 25.1505 19.7781C25.0448 19.6442 24.9873 19.4787 24.9873 19.3082C24.9873 19.1377 25.0448 18.9721 25.1505 18.8383C25.2562 18.7045 25.4039 18.6102 25.5698 18.5706C25.7309 18.5315 25.9003 18.5462 26.0522 18.6126C26.204 18.679 26.3299 18.7934 26.4104 18.9382C26.4436 18.9945 26.4782 19.0501 26.5108 19.1057V19.512Z" fill="#39B349"/>
<path d="M11.2222 10.2727C11.2269 8.89728 12.3429 7.85623 13.6699 7.94236C14.9691 8.02646 15.9209 9.21401 15.773 10.5243C15.5756 12.3229 15.4094 14.1243 15.2303 15.9243C15.0521 17.6985 14.8712 19.4729 14.6876 21.2476C14.5474 22.6361 14.4081 24.0239 14.2697 25.4111C14.2208 25.9076 13.9237 26.2175 13.4929 26.2114C13.0621 26.2053 12.7853 25.8994 12.7364 25.4159C12.4732 22.7998 12.2084 20.1841 11.942 17.5689C11.7023 15.197 11.4641 12.825 11.2276 10.4531C11.2242 10.3771 11.2235 10.3012 11.2222 10.2727Z" fill="#22838F"/>
<path d="M21.9462 16.3509C21.8349 16.7009 21.7711 17.0759 21.607 17.3981C20.1723 20.1756 18.7284 22.9472 17.2752 25.713C17.0507 26.1423 16.687 26.305 16.2969 26.164C15.9068 26.0229 15.746 25.6757 15.822 25.2145C16.3227 22.172 16.8216 19.1295 17.3186 16.0871C17.4916 15.0216 18.1816 14.2559 19.1504 14.0735C19.6181 13.9796 20.1035 14.0346 20.5383 14.2308C20.9731 14.4271 21.3355 14.7546 21.5744 15.1674C21.7847 15.5316 21.8838 15.9175 21.9462 16.3509Z" fill="#22838F"/>
<path d="M7.43063 14.0293C8.59481 14.034 9.49644 14.8628 9.69522 16.087C10.1927 19.1385 10.6936 22.1891 11.1979 25.2388C11.2712 25.6851 11.084 26.0405 10.6952 26.17C10.3194 26.2955 9.96116 26.1381 9.75221 25.738C8.29359 22.9458 6.82616 20.1576 5.38654 17.3559C5.2052 17.0071 5.11728 16.6174 5.13134 16.2245C5.1454 15.8317 5.26096 15.4492 5.46676 15.1143C5.67257 14.7793 5.96162 14.5034 6.30577 14.3132C6.64992 14.1231 7.03745 14.0253 7.43063 14.0293Z" fill="#22838F"/>
<path d="M1.82208 12.5691C1.88992 12.1622 1.9693 11.6752 2.0636 11.1944C2.08402 11.1224 2.08282 11.046 2.06014 10.9748C2.03746 10.9035 1.99431 10.8405 1.93606 10.7935C1.61855 10.5019 1.31869 10.1906 1.00661 9.89286C0.760342 9.6582 0.638903 9.38895 0.747451 9.04984C0.855999 8.71074 1.11177 8.55746 1.44759 8.51067C1.86618 8.45234 2.28409 8.38926 2.70335 8.3384C2.88517 8.3167 3.00322 8.25023 3.08327 8.06711C3.25627 7.67375 3.46251 7.29395 3.64908 6.90601C3.71343 6.77078 3.81472 6.6565 3.94125 6.57634C4.06779 6.49619 4.21442 6.45343 4.36421 6.45301C4.51401 6.45258 4.66088 6.4945 4.78787 6.57394C4.91486 6.65337 5.0168 6.76708 5.08192 6.90194C5.26509 7.28242 5.46794 7.65408 5.63687 8.04066C5.72303 8.23802 5.84854 8.31195 6.05139 8.3384C6.51271 8.39537 6.9754 8.45166 7.43063 8.54525C8.0039 8.66258 8.21353 9.33402 7.83293 9.77892C7.78884 9.83047 7.73931 9.87659 7.69114 9.92406C7.39535 10.2143 7.1043 10.51 6.79969 10.7915C6.74101 10.8377 6.69727 10.9002 6.67398 10.9711C6.65069 11.0421 6.64887 11.1183 6.66876 11.1903C6.75424 11.6128 6.82208 12.0387 6.89603 12.4633C6.95369 12.7956 6.8906 13.092 6.60159 13.2975C6.31258 13.503 6.01814 13.4765 5.71963 13.3145C5.32547 13.1022 4.93062 12.8892 4.52764 12.6952C4.47754 12.6744 4.42382 12.6637 4.36957 12.6637C4.31531 12.6637 4.26159 12.6744 4.21149 12.6952C3.77798 12.9055 3.36075 13.1476 2.92723 13.3565C2.37703 13.6217 1.80241 13.2432 1.82208 12.5691Z" fill="#39B349"/>
<path d="M20.103 12.5752C20.1742 12.1649 20.2543 11.6725 20.3465 11.1828C20.3658 11.115 20.3649 11.0429 20.3438 10.9756C20.3227 10.9082 20.2824 10.8485 20.2278 10.8037C19.9049 10.5053 19.5982 10.1893 19.278 9.88475C19.0392 9.65619 18.9225 9.39169 19.0229 9.06343C19.1233 8.73518 19.3757 8.56155 19.7136 8.5134C20.1403 8.45304 20.5663 8.38793 20.9944 8.33774C21.0731 8.33506 21.1492 8.30924 21.2133 8.26352C21.2774 8.2178 21.3266 8.15421 21.3547 8.0807C21.5358 7.68055 21.742 7.29194 21.934 6.89722C21.9931 6.75994 22.0928 6.64398 22.2196 6.56483C22.3464 6.48569 22.4944 6.44714 22.6437 6.45434C22.9707 6.45434 23.2102 6.58999 23.356 6.89111C23.5494 7.28516 23.7549 7.67377 23.9347 8.0746C23.9622 8.14825 24.0109 8.21211 24.0746 8.25811C24.1384 8.3041 24.2144 8.33016 24.2929 8.33299C24.6878 8.38047 25.0792 8.44761 25.4741 8.49644C25.8316 8.54053 26.1328 8.66057 26.2604 9.03359C26.3879 9.40661 26.2326 9.68535 25.9653 9.93494C25.6566 10.2239 25.3513 10.5182 25.0616 10.8261C24.9836 10.9159 24.9443 11.033 24.9524 11.1517C25.0087 11.5782 25.0921 12.0021 25.1695 12.426C25.2319 12.7651 25.1885 13.0717 24.8927 13.2907C24.5969 13.5098 24.2963 13.4779 23.9876 13.3111C23.6009 13.1022 23.2068 12.9042 22.8228 12.6939C22.7712 12.6601 22.7108 12.6421 22.6491 12.6421C22.5874 12.6421 22.527 12.6601 22.4754 12.6939C22.0602 12.9211 21.643 13.1456 21.2183 13.3538C20.6708 13.621 20.0901 13.2548 20.103 12.5752Z" fill="#39B349"/>
<path d="M8.18224 25.3548C8.15782 25.7326 8.04655 25.9652 7.78468 26.111C7.66748 26.1803 7.53326 26.2156 7.39711 26.2129C7.26097 26.2101 7.12829 26.1694 7.01399 26.0954C6.94945 26.0553 6.89019 26.0072 6.8376 25.9523C5.59337 24.7098 4.34959 23.4664 3.10626 22.2222C2.64628 21.7596 2.82403 21.0549 3.43122 20.9064C3.74126 20.8298 3.99024 20.9505 4.20734 21.1682C5.32403 22.2873 6.44208 23.405 7.56148 24.5213C7.69309 24.6529 7.84167 24.7722 7.94954 24.9208C8.0393 25.0586 8.11715 25.2038 8.18224 25.3548Z" fill="#22838F"/>
<path d="M19.6762 26.2202C19.3139 26.1938 19.0812 26.0798 18.9387 25.8174C18.8677 25.6962 18.8332 25.557 18.8396 25.4166C18.846 25.2763 18.8929 25.1408 18.9747 25.0266C19.0176 24.9638 19.0672 24.9058 19.1226 24.8536C20.3533 23.6211 21.5846 22.3894 22.8166 21.1587C23.0419 20.9336 23.2997 20.8244 23.6199 20.918C23.7519 20.952 23.8717 21.0226 23.9653 21.1217C24.059 21.2208 24.1227 21.3444 24.1491 21.4782C24.223 21.7888 24.0988 22.0363 23.8818 22.2527C22.6547 23.4766 21.4279 24.7015 20.2013 25.9272C20.1639 25.9732 20.1195 26.013 20.0697 26.0452C19.9231 26.1178 19.7691 26.1795 19.6762 26.2202Z" fill="#22838F"/>
<path d="M2.02965 19.3181C2.02774 19.4688 1.9811 19.6155 1.89565 19.7397C1.8102 19.8639 1.68978 19.9599 1.54967 20.0156C1.40956 20.0713 1.25607 20.0841 1.10866 20.0524C0.961247 20.0208 0.826562 19.9461 0.72168 19.8378C0.616798 19.7295 0.546442 19.5925 0.519539 19.4442C0.492637 19.2959 0.5104 19.143 0.57057 19.0048C0.630741 18.8666 0.73061 18.7493 0.857514 18.6679C0.984419 18.5866 1.13264 18.5447 1.28339 18.5476C1.48352 18.554 1.67333 18.6379 1.81262 18.7817C1.95192 18.9255 2.02975 19.1179 2.02965 19.3181Z" fill="#39B349"/>
</g>
<defs>
<clipPath id="clip0_2188_27">
<rect width="26" height="26" fill="white" transform="translate(0.507324 0.220215)"/>
</clipPath>
</defs>
</svg>
