<svg width="28" height="28" viewBox="0 0 28 28" fill="none" xmlns="http://www.w3.org/2000/svg">
<path d="M1.49575 27.0439C1.46231 27.022 1.4275 26.9974 1.39474 26.9756C1.04802 26.7954 0.871251 26.4534 0.951105 26.1149C1.0371 25.749 1.33604 25.5135 1.7319 25.5087C2.08135 25.5039 2.43012 25.5087 2.77888 25.5087H8.59663C8.59663 24.9702 8.60072 24.4534 8.59117 23.9388C8.59117 23.8855 8.5161 23.8227 8.46218 23.7838C8.18303 23.5791 7.86497 23.4166 7.62268 23.1763C5.62655 21.1991 3.63862 19.2137 1.65888 17.2201C0.594154 16.1512 0.720416 14.5034 1.91959 13.6638C2.8328 13.0236 4.04699 13.1246 4.86396 13.9321C6.06314 15.117 7.25276 16.3143 8.44238 17.5061C9.00204 18.0658 9.56648 18.6214 10.1186 19.1887C10.1768 19.2536 10.2487 19.3048 10.3291 19.3386C10.4095 19.3723 10.4963 19.3878 10.5834 19.3839C15.2491 19.3784 19.9145 19.3771 24.5798 19.3798C25.9257 19.3798 26.7174 19.9941 27.0586 21.304C27.0673 21.3278 27.0783 21.3506 27.0914 21.3723V21.9866C27.0783 22.0082 27.0674 22.0311 27.0586 22.0548C26.7174 23.3606 25.9229 23.9784 24.5825 23.9791H24.0406V25.5142C24.7231 25.5142 25.3947 25.534 26.0635 25.5074C26.5413 25.4889 26.8887 25.6336 27.0914 26.0766V26.4862C26.9746 26.7329 26.7762 26.9316 26.5297 27.0486L1.49575 27.0439ZM22.481 23.9954H14.7993V25.4971H22.481V23.9954ZM13.2289 25.4971V23.9954H10.1432V25.4971H13.2289Z" fill="#39B349"/>
<path d="M13.2479 17.829V10.0803H12.9995C12.3525 10.0803 11.7054 10.0803 11.0584 10.0803C10.5124 10.0803 10.2346 10.3376 10.1814 10.8892C10.1688 11.0825 10.0841 11.264 9.94403 11.3979C9.80399 11.5317 9.61882 11.6081 9.42515 11.612C9.02997 11.6161 8.65937 11.3069 8.65869 10.9069C8.65869 9.65572 8.59658 8.39771 8.70919 7.15609C8.92146 4.81619 10.7485 2.93635 13.0773 2.51997L13.2472 2.48789C13.2472 2.23465 13.2472 1.9896 13.2472 1.74455C13.2472 1.2292 13.5632 0.880401 14.0192 0.883814C14.4751 0.887227 14.7774 1.23466 14.7795 1.75547C14.7795 1.99301 14.7795 2.22987 14.7795 2.47151C15.0525 2.53977 15.3071 2.59028 15.5575 2.664C16.6523 2.98369 17.6148 3.64768 18.3025 4.55752C18.9903 5.46736 19.3665 6.57461 19.3755 7.71513C19.3851 8.73901 19.3796 9.75879 19.3755 10.7806C19.3755 11.2584 19.0595 11.5997 18.6248 11.6093C18.1982 11.6161 17.8842 11.3035 17.8453 10.8318C17.8092 10.3943 17.515 10.0857 17.0946 10.081C16.337 10.0714 15.5794 10.081 14.7945 10.081V17.829H13.2479Z" fill="#22838F"/>
<path d="M9.709 2.43273C8.7214 3.25729 8.0068 4.21496 7.56317 5.36784C7.28236 6.091 7.13238 6.85834 7.12022 7.63403C7.10998 8.35688 7.11612 9.08111 7.11544 9.80465V10.0777H4.95529C4.46797 10.0777 4.16425 10.2825 4.06802 10.6804C4.04891 10.7623 4.05368 10.8497 4.04208 10.9336C4.01764 11.1212 3.92558 11.2933 3.78319 11.4177C3.6408 11.5422 3.45788 11.6103 3.26879 11.6094C2.89341 11.6026 2.53168 11.3111 2.5269 10.9336C2.51052 9.71114 2.44637 8.48658 2.81492 7.28727C3.71106 4.36581 6.50732 2.33443 9.56157 2.41361C9.5957 2.41771 9.6271 2.42385 9.709 2.43273Z" fill="#22838F"/>
<path d="M20.9099 10.0804C20.9099 9.30296 20.9099 8.55553 20.9099 7.80742C20.9099 6.546 20.6042 5.36649 19.949 4.28323C19.5258 3.58426 18.9859 2.98632 18.3662 2.39929C18.7798 2.42864 19.1982 2.4266 19.6057 2.49212C22.6865 2.98768 24.9484 5.22247 25.4186 8.31594C25.5483 9.16713 25.4971 10.0483 25.4971 10.9152C25.4971 11.307 25.1368 11.6081 24.7504 11.6128C24.5609 11.6123 24.378 11.5427 24.236 11.4171C24.0941 11.2914 24.0028 11.1184 23.9792 10.9302C23.8905 10.2756 23.6666 10.0784 23.0141 10.0777L20.9099 10.0804Z" fill="#22838F"/>
</svg>
