<svg width="22" height="27" viewBox="0 0 22 27" fill="none" xmlns="http://www.w3.org/2000/svg">
<g clip-path="url(#clip0_2187_23)">
<path d="M0.942216 26.5947C0.750623 26.4816 0.539873 26.3913 0.371544 26.2477C0.106051 26.0242 0.012991 25.7029 0.0123067 25.3607C0.00956964 23.6085 0.00956964 21.8558 0.0123067 20.1027C0.0163045 20.062 0.0231596 20.0216 0.0328295 19.9819C0.120415 20.0277 0.192268 20.0617 0.260694 20.1013C1.52179 20.8259 2.81641 20.889 4.10967 20.229C4.51065 20.0208 4.86646 19.7071 5.20449 19.3961C5.61504 19.0248 5.97976 18.6084 6.38484 18.1913C6.78582 18.6001 7.15942 18.9853 7.53713 19.367C8.8256 20.6683 10.6464 21.0132 12.2832 20.2193C12.6937 20.0194 13.0667 19.7071 13.4136 19.3968C13.8241 19.029 14.1888 18.607 14.5926 18.1892C15.0031 18.6105 15.3945 19.0047 15.7811 19.401C16.384 20.018 17.0922 20.4421 17.9407 20.5996C18.9087 20.7936 19.9132 20.6128 20.7564 20.093C20.807 20.0631 20.8577 20.034 20.9097 20.0069C20.9363 20.0017 20.9633 19.9996 20.9904 20.0006V20.2685C20.9904 21.86 20.9678 23.4521 21 25.0435C21.0157 25.7903 20.7947 26.3275 20.0756 26.5905L0.942216 26.5947Z" fill="#22838F"/>
<path d="M14.593 15.7039C14.1242 16.1856 13.6637 16.6617 13.1998 17.135C12.8652 17.4772 12.5292 17.8193 12.1885 18.1559C11.2134 19.1199 9.79698 19.1206 8.82601 18.1525C8.02884 17.3571 7.24057 16.552 6.4482 15.7518C6.433 15.7406 6.41724 15.7301 6.40099 15.7206C6.34351 15.7754 6.27781 15.8351 6.21623 15.8975C5.47175 16.6499 4.73002 17.4064 3.98212 18.1559C3.15417 18.9853 2.10176 19.1463 1.12737 18.5654C0.476642 18.1781 0.0763526 17.5847 0.0455609 16.8144C0.0113478 15.9537 -0.0365503 15.0793 0.0715631 14.2305C0.301475 12.4385 1.77674 11.2336 3.6352 11.226C5.42933 11.2176 7.22347 11.226 9.0176 11.226H9.33715V8.88013H11.6636V11.226H11.9893C13.7835 11.226 15.5776 11.2197 17.3718 11.226C18.9004 11.2329 20.0171 11.929 20.6918 13.3282C20.904 13.7814 21.0112 14.2778 21.0052 14.7794C21.0052 15.4735 21.0127 16.1675 20.9744 16.8615C20.9108 18.0123 19.7345 18.9929 18.6062 18.8972C18.0022 18.8494 17.4368 18.5776 17.018 18.1337C16.2384 17.3444 15.4583 16.5555 14.6778 15.7671C14.6641 15.7546 14.6498 15.7462 14.593 15.7039Z" fill="#22838F"/>
<path d="M10.4921 0.594727C10.5435 0.670377 10.5736 0.708549 10.5975 0.750191C11.2311 1.86065 11.873 2.97111 12.495 4.08851C13.0294 5.04905 12.9213 6.07206 12.2288 6.89103C11.6383 7.58853 10.6488 7.84116 9.71755 7.53232C8.91012 7.26511 8.2806 6.43782 8.19644 5.56819C8.14991 5.09 8.21286 4.6368 8.44414 4.22107C9.11267 3.02316 9.79282 1.8315 10.4921 0.594727Z" fill="#39B349"/>
</g>
<defs>
<clipPath id="clip0_2187_23">
<rect width="21" height="26" fill="white" transform="translate(0.00537109 0.594727)"/>
</clipPath>
</defs>
</svg>
