<svg width="26" height="25" viewBox="0 0 26 25" fill="none" xmlns="http://www.w3.org/2000/svg">
<path d="M0.0591366 5.75635H21.6733V11.1391C16.0199 9.09454 10.079 14.5044 12.1146 20.7077C12.0202 20.7119 11.9299 20.7195 11.8368 20.7202C8.7874 20.7202 5.73753 20.7202 2.6872 20.7202C1.12731 20.7202 0.0563586 19.651 0.0556641 18.0941C0.0556641 14.0725 0.0556641 10.051 0.0556641 6.02938L0.0591366 5.75635ZM5.8806 10.7348C6.16605 10.7348 6.45219 10.7431 6.73764 10.7348C6.95192 10.7279 7.15528 10.6386 7.30546 10.4855C7.45563 10.3324 7.54105 10.1274 7.54398 9.91293C7.54528 9.69407 7.45998 9.48358 7.30671 9.32739C7.15343 9.1712 6.94461 9.082 6.72583 9.07925C6.16327 9.06953 5.60048 9.06953 5.03745 9.07925C4.92887 9.07989 4.82149 9.10199 4.72147 9.14429C4.62146 9.18659 4.5308 9.24826 4.4547 9.32573C4.3786 9.40321 4.31856 9.49498 4.27805 9.59576C4.23753 9.69653 4.21733 9.80432 4.21862 9.91293C4.22081 10.1326 4.30959 10.3425 4.46565 10.4971C4.62171 10.6516 4.83244 10.7383 5.05204 10.7383C5.32568 10.7411 5.60349 10.7355 5.8806 10.7348ZM10.8992 9.07161C10.6131 9.07161 10.3276 9.06605 10.0415 9.07161C9.82213 9.0705 9.61129 9.15636 9.45509 9.31039C9.29889 9.46442 9.21006 9.67408 9.20805 9.89348C9.20649 10.0022 9.22639 10.1101 9.26663 10.2111C9.30687 10.3121 9.36664 10.4042 9.44252 10.482C9.5184 10.5599 9.6089 10.622 9.70882 10.6647C9.80874 10.7075 9.91612 10.7302 10.0248 10.7313C10.5874 10.742 11.1502 10.742 11.7132 10.7313C11.9324 10.7295 12.142 10.6406 12.2958 10.4843C12.4496 10.328 12.5351 10.117 12.5334 9.89765C12.5312 9.67799 12.4424 9.46808 12.2864 9.31353C12.1303 9.15898 11.9196 9.0723 11.7 9.07231C11.4361 9.06605 11.1673 9.07161 10.8992 9.07161ZM5.87574 14.0633C6.16119 14.0633 6.44733 14.0709 6.73278 14.0633C6.95163 14.0574 7.15941 13.9657 7.3112 13.8079C7.46299 13.6501 7.54661 13.4388 7.54398 13.2199C7.54093 13.0049 7.45431 12.7996 7.30249 12.6475C7.15066 12.4953 6.94557 12.4083 6.73069 12.4049C6.16813 12.3943 5.60511 12.3943 5.04162 12.4049C4.93301 12.4051 4.8255 12.4268 4.72528 12.4686C4.62505 12.5105 4.53409 12.5718 4.45761 12.6489C4.38113 12.7261 4.32065 12.8176 4.27964 12.9182C4.23862 13.0188 4.21788 13.1265 4.21862 13.2351C4.2197 13.4542 4.30694 13.664 4.46147 13.8193C4.61601 13.9745 4.82541 14.0626 5.0444 14.0647C5.32151 14.0702 5.59863 14.0633 5.87574 14.0633ZM5.8813 17.3917C6.15008 17.3917 6.41816 17.3959 6.68694 17.3917C7.1731 17.3834 7.5405 17.0291 7.54398 16.5671C7.54399 16.4567 7.52207 16.3473 7.47949 16.2455C7.43691 16.1436 7.37453 16.0512 7.29596 15.9736C7.21739 15.8961 7.12419 15.8349 7.02179 15.7936C6.91939 15.7524 6.80982 15.7319 6.69944 15.7334C6.15355 15.7265 5.60789 15.7265 5.06246 15.7334C4.95191 15.7312 4.84203 15.7511 4.73933 15.7921C4.63663 15.8331 4.54318 15.8942 4.46451 15.972C4.38584 16.0497 4.32355 16.1424 4.28131 16.2446C4.23908 16.3468 4.21776 16.4565 4.21862 16.5671C4.21862 17.0291 4.58741 17.3834 5.07565 17.3917C5.34443 17.3959 5.61252 17.3917 5.8813 17.3917Z" fill="#22838F"/>
<path d="M25.0155 18.2171C25.0162 19.7604 24.4051 21.241 23.3162 22.3342C22.2272 23.4273 20.7493 24.0439 19.2065 24.0487C18.4406 24.0495 17.682 23.8993 16.9741 23.6066C16.2663 23.314 15.623 22.8846 15.0812 22.343C14.5393 21.8015 14.1095 21.1584 13.8164 20.4506C13.5232 19.7427 13.3724 18.984 13.3726 18.2178C13.3749 16.6745 13.9893 15.1952 15.0808 14.1045C16.1724 13.0139 17.6519 12.4009 19.1947 12.4001C20.7371 12.4014 22.2161 13.0145 23.3072 14.105C24.3984 15.1954 25.0127 16.6743 25.0155 18.2171ZM20.0427 17.3925C20.0346 17.3636 20.0285 17.3341 20.0247 17.3043C20.0247 16.802 20.0247 16.2997 20.0247 15.7974C20.0247 15.2701 19.6719 14.8942 19.1912 14.8942C18.7106 14.8942 18.3641 15.268 18.3627 15.7974C18.3627 16.5769 18.3627 17.3566 18.3627 18.1366C18.3627 18.7167 18.7009 19.0501 19.2857 19.0515C20.0395 19.0515 20.793 19.0515 21.5464 19.0515C22.1409 19.0515 22.5236 18.7208 22.5187 18.2123C22.5145 17.7142 22.1353 17.3883 21.5568 17.3876L20.0427 17.3925Z" fill="#39B349"/>
<path d="M0.0773477 5.75632C-0.00391114 4.79411 0.0704025 3.89374 0.801732 3.16844C1.52264 2.45286 2.42482 2.3945 3.38604 2.45773C3.38604 2.19442 3.38604 1.96307 3.38604 1.73173C3.38604 1.15857 3.72219 0.779946 4.22363 0.78342C4.72507 0.786893 5.04803 1.16691 5.04942 1.74424C5.04942 1.96794 5.04942 2.19164 5.04942 2.43133H10.0409C10.0409 2.16594 10.0409 1.90819 10.0409 1.65114C10.0479 1.14676 10.4056 0.778557 10.8806 0.78342C11.3418 0.788283 11.6939 1.15441 11.7022 1.6435C11.7071 1.90194 11.7022 2.15969 11.7022 2.43202H16.6951C16.6951 2.19373 16.6951 1.94571 16.6951 1.69977C16.6986 1.15302 17.0459 0.776472 17.5383 0.78342C18.0182 0.790367 18.355 1.16483 18.3585 1.69908C18.3585 1.93945 18.3585 2.17983 18.3585 2.42438C18.794 2.44661 19.2107 2.43549 19.617 2.49385C20.74 2.65989 21.6165 3.64085 21.6776 4.77674C21.695 5.09562 21.6776 5.4159 21.6776 5.75423L0.0773477 5.75632Z" fill="#22838F"/>
</svg>
