<svg width="103" height="98" viewBox="0 0 103 98" fill="none" xmlns="http://www.w3.org/2000/svg">
<path d="M51.6194 67.7199C70.2318 67.7199 85.4792 52.4724 85.4792 33.8601C85.4792 15.2477 70.2318 0.000244141 51.6194 0.000244141C32.9554 0.000244141 17.708 15.2477 17.708 33.8601C17.708 52.4724 32.9554 67.7199 51.6194 67.7199ZM51.6194 65.4759C42.4908 65.4759 34.0764 61.2439 28.162 54.768C29.9457 54.2065 31.8325 53.391 33.8225 52.6672C37.5961 51.4947 40.9095 52.1058 44.4808 53.5343C48.6096 56.0322 52.5876 56.3989 56.77 53.5343C60.7461 51.4431 64.9819 51.699 69.1604 53.5343C70.946 54.3497 72.6801 55.0621 74.3626 55.5223C68.3965 61.601 60.4405 65.4759 51.6194 65.4759ZM51.6194 2.24228C68.6009 2.24228 82.5726 15.9103 83.0825 32.7982C78.2771 33.0856 73.4795 32.1189 69.1604 29.9928C64.98 28.2091 60.7461 27.9036 56.77 29.9928C52.5876 32.8994 48.6096 32.4927 44.4808 29.9928C40.9095 28.5662 37.5961 27.9532 33.8225 29.1258C28.8762 31.0126 24.6939 33.0026 20.1047 32.6455C20.7159 15.8588 34.6379 2.24228 51.6194 2.24228ZM20.1086 35.3382C24.692 35.5425 28.88 33.5545 33.8263 31.6677C37.5999 30.4932 40.9134 31.1062 44.4846 32.5347C48.6135 35.0326 52.5914 35.4413 56.7738 32.5347C60.7499 30.4435 64.9857 30.6975 69.1642 32.5347C73.4896 34.6339 78.2778 35.5986 83.0786 35.3382C83.1302 36.358 82.9755 37.225 82.9259 38.092C78.1685 38.3204 73.431 37.3381 69.1566 35.237C64.9762 33.4514 60.7422 33.1458 56.7662 35.237C52.5838 38.1436 48.6058 37.7349 44.4769 35.237C40.9057 33.8085 37.5923 33.1974 33.8187 34.37C28.8724 36.2568 24.6901 38.2448 20.2021 37.8877C20.2575 37.0723 20.057 36.2568 20.1047 35.3382H20.1086ZM20.7712 40.4372C25.1637 40.4888 29.1856 38.7051 33.8263 36.9195C37.5999 35.7469 40.9134 36.358 44.4846 37.7865C48.6135 40.2844 52.5914 40.6931 56.7738 37.7865C60.7499 35.6953 64.9857 35.9512 69.1642 37.7865C73.2964 39.7627 77.8462 40.7077 82.4236 40.5403C82.2192 41.5086 81.9137 42.3241 81.7609 43.2426C77.3975 43.3696 73.0695 42.424 69.1566 40.4888C64.9762 38.7051 60.7422 38.3976 56.7662 40.4888C52.5838 43.3954 48.6058 42.9886 44.4769 40.4888C40.9057 39.0603 37.5923 38.4492 33.8187 39.6218C29.3823 41.2546 25.5055 43.1911 21.4778 43.1911C21.2773 42.2228 20.9202 41.3558 20.7674 40.4372H20.7712ZM22.3525 45.6909C26.0746 45.4866 29.6439 43.701 33.8263 42.1713C37.5999 40.9987 40.9134 41.6117 44.4846 43.0383C48.6135 45.5382 52.5914 45.9029 56.7738 43.0383C60.7499 40.9471 64.9857 41.203 69.1642 43.0383C72.8863 44.8239 76.8147 45.7922 80.7908 45.7922C80.3324 46.7107 79.8225 47.5778 79.517 48.4429C75.9151 48.276 72.3882 47.3554 69.1642 45.7406C64.9838 43.9053 60.7499 43.6513 56.7738 45.7406C52.5914 48.6472 48.6135 48.2404 44.4846 45.7406C40.9134 44.314 37.5999 43.701 33.8263 44.8736C30.1538 46.2505 26.8404 47.7802 23.6263 48.2404C23.2622 47.361 22.8352 46.509 22.3487 45.6909H22.3525ZM24.902 50.534C27.6559 49.9745 30.6141 48.6472 33.8263 47.425C37.5999 46.2505 40.9134 46.8635 44.4846 48.2901C48.6135 50.79 52.5914 51.1547 56.7738 48.2901C60.7499 46.2008 64.9857 46.4548 69.1642 48.2901C72.1224 49.667 75.0844 50.6372 78.0885 50.8912C77.421 51.6401 76.8394 52.4613 76.3544 53.3395C73.9577 52.9823 71.561 52.1153 69.1642 50.9943C64.9838 49.159 60.7499 48.8936 56.7738 50.9943C52.5914 53.8494 48.6135 53.4923 44.4846 50.9943C40.9134 49.5658 37.5999 48.9547 33.8263 50.1273C31.2252 51.0955 28.8285 52.1669 26.4833 52.7283C26.03 51.9455 25.4989 51.2104 24.8982 50.534H24.902Z" fill="white"/>
<path d="M51.515 21.8759C53.7386 21.879 55.8728 21.0006 57.45 19.433C59.0271 17.8655 59.9187 15.7368 59.9293 13.5132C59.9293 8.87249 56.1557 5.15039 51.7174 5.15039C53.4854 5.49699 55.0612 6.48883 56.1384 7.93296C57.2155 9.37709 57.717 11.1703 57.5453 12.9637C57.3735 14.7571 56.5408 16.4225 55.2092 17.6359C53.8775 18.8494 52.1421 19.5241 50.3405 19.5289C46.8227 19.5289 44.0173 17.0309 43.2534 13.6087C43.2038 18.1023 46.9832 21.8759 51.515 21.8759Z" fill="white"/>
<path d="M46.825 11.2692L48.0988 14.0747L48.7119 11.0649L51.8228 10.6581L49.1702 9.12841L49.8329 6.11865L47.5393 8.15826L44.837 6.62855L46.1108 9.48363L43.7656 11.6264L46.825 11.2692Z" fill="white"/>
<path d="M19.0698 63.7746L19.1997 64.5271C21.5773 64.1165 24.6425 65.9689 27.8852 67.9302C30.4061 69.458 33.011 71.0297 35.5108 71.66L35.7018 70.919C33.3127 70.3174 30.7575 68.7724 28.2844 67.2771C24.9117 65.2394 21.7301 63.3144 19.0698 63.7746Z" fill="white"/>
<path d="M74.853 67.2766C72.3818 68.77 69.8246 70.3169 67.4355 70.9185L67.6265 71.6595C70.1264 71.0293 72.7332 69.4537 75.2522 67.9298C78.4987 65.9684 81.5543 64.1103 83.9396 64.5266L84.0694 63.7741C81.4053 63.3158 78.2218 65.2389 74.853 67.2766Z" fill="white"/>
<path d="M96.1714 47.956L95.4565 49.2825L95.6247 49.3731L96.3395 48.0466L96.1714 47.956Z" fill="white"/>
<path d="M88.2498 67.1509L87.0269 67.6101L87.094 67.7889L88.3169 67.3297L88.2498 67.1509Z" fill="white"/>
<path d="M89.817 33.902L89.626 33.9172L89.7323 35.2464L89.9233 35.2311L89.817 33.902Z" fill="white"/>
<path d="M99.1661 53.1348L98.2284 54.6149L98.1253 54.5691H98.1005C98.9102 53.7479 99.0171 52.6364 99.0171 51.819V51.4886H98.9598L99.5881 50.1862L99.4163 50.1041L98.7612 51.4619L98.6906 51.4505C98.3975 51.4086 98.1003 51.4047 97.8064 51.439C98.2418 50.3371 98.2609 49.3631 97.8522 48.5897L97.7472 48.3987L98.3602 46.8709L98.1826 46.8002L97.5753 48.328L97.3423 48.4369C96.6433 48.7379 96.0464 49.2346 95.6235 49.8673C95.5614 49.7482 95.4906 49.6339 95.4115 49.5254L95.232 49.2791L94.9513 49.4013C94.0709 49.7832 93.2325 50.2989 92.8716 51.4123L92.8334 51.3836L92.7589 51.3263L93.5075 49.6897L93.3337 49.6095L92.6023 51.2098L92.5679 51.185L92.3349 51.418C91.8214 51.92 91.4645 52.5602 91.3075 53.2609L91.5768 51.9107L91.3858 51.8744L91.0802 53.4022L91.1757 53.4213L91.0401 53.5283C90.3951 54.0006 89.9042 54.6531 89.6288 55.4036C90.0599 53.7575 90.3361 52.0747 90.4538 50.3772C92.4934 49.8482 93.7539 48.2765 94.2007 45.6849L94.281 45.217L93.8074 45.2381L93.6488 45.2495C94.1874 44.1724 94.2714 43.2023 93.9315 42.1825L93.8226 41.8521H93.8685L94.0728 40.5267L93.9983 40.5152C93.9933 40.2119 93.9575 39.9099 93.8914 39.6138L93.8188 39.2758H93.773L93.8685 37.6583L93.6775 37.6468L93.5801 39.2987L93.4712 39.3121H93.4483C93.6851 38.468 93.4731 37.5322 92.8181 36.522L92.6863 36.3195L92.5412 34.6829L92.3502 34.6982L92.4954 36.331L92.3827 36.3654C92.1209 36.4486 91.8721 36.5681 91.6436 36.7206C91.4794 35.611 90.9962 34.7249 90.2667 34.2226L90.0757 34.0985L89.8847 32.5879L89.6937 32.6127L89.8847 34.0775L89.7224 34.3334C89.2392 35.0973 88.991 35.7619 88.9585 36.4131C88.8526 36.3464 88.7429 36.2858 88.63 36.2317L88.3493 36.0999L88.1583 36.3463C87.4842 37.2324 87.0812 38.065 87.3104 39.1651L87.2321 39.1555L87.15 39.146L86.8215 37.8798L86.6305 37.9275L86.9399 39.123H86.8788L86.8081 39.4649C86.6829 40.0247 86.6712 40.604 86.7737 41.1684L86.5064 40.4274L86.3269 40.4923L86.7871 41.768L86.852 41.7432L86.7737 41.959C86.3574 43.0819 86.367 44.0597 86.8272 45.091L86.705 45.0776L86.2218 45.0356L86.2944 45.515C86.6973 48.1886 87.7764 49.7164 89.6766 50.3161C89.2755 55.1076 88.1831 58.8354 85.0569 60.9514C81.331 60.0768 77.8228 62.4315 73.5239 65.3171C70.1991 67.5477 66.4349 70.0724 61.5842 71.9229C58.8208 70.2214 55.6506 69.045 51.537 71.2564C47.4234 69.0469 44.2532 70.2214 41.4898 71.9229C36.6391 70.0724 32.875 67.5477 29.5501 65.3171C25.2513 62.4315 21.743 60.0768 18.0171 60.9514C14.8909 58.8354 13.7985 55.1095 13.3975 50.3161C15.3072 49.7202 16.3767 48.1848 16.7796 45.515L16.8522 45.0356L16.369 45.0776L16.2468 45.091C16.7071 44.0616 16.7166 43.0819 16.3022 41.959L16.222 41.7432L16.2888 41.768L16.7472 40.4923L16.5676 40.4274L16.3003 41.1703C16.4028 40.6052 16.3912 40.0253 16.2659 39.4649L16.1953 39.123H16.1341L16.4435 37.9275L16.2525 37.8798L15.9241 39.146L15.842 39.1555L15.7636 39.1651C15.9928 38.0746 15.5898 37.2324 14.9157 36.3463L14.7247 36.0999L14.4459 36.2317C14.3324 36.2858 14.2221 36.3463 14.1155 36.4131C14.0812 35.7619 13.8329 35.0992 13.3516 34.3334L13.1893 34.0756L13.3803 32.6127L13.1893 32.5879L12.9983 34.0985L12.8074 34.2226C12.0759 34.7249 11.5927 35.611 11.4285 36.7187C11.2 36.5679 10.952 36.4491 10.6914 36.3654L10.5768 36.331L10.7219 34.6982L10.5309 34.6829L10.3877 36.3195L10.2559 36.522C9.59899 37.5322 9.38891 38.468 9.62572 39.3121H9.60089L9.49205 39.2987L9.39656 37.6468L9.20559 37.6583L9.30107 39.2758H9.25522L9.18267 39.6138C9.11653 39.9099 9.08069 40.2119 9.07571 40.5152L9.00314 40.5267L9.20559 41.8521H9.25142L9.14255 42.1825C8.80261 43.2023 8.88855 44.1724 9.42519 45.2495L9.26669 45.2381L8.79307 45.217L8.87327 45.6849C9.32015 48.2707 10.5806 49.8482 12.6202 50.3772C12.7379 52.0741 13.0141 53.7563 13.4452 55.4017C13.17 54.6516 12.679 53.9997 12.0339 53.5283L11.8983 53.4213L11.9957 53.4022L11.6883 51.8744L11.4973 51.9107L11.7685 53.2685C11.6126 52.5647 11.2549 51.9216 10.7391 51.418L10.5061 51.185L10.4717 51.2098L9.7403 49.6095L9.56651 49.6897L10.3151 51.3263L10.2407 51.3836L10.2025 51.4123C9.84916 50.2989 9.00505 49.7852 8.12275 49.4013L7.84394 49.2791L7.65296 49.5254C7.57584 49.6318 7.50627 49.7435 7.44478 49.8596C7.03207 49.2188 6.43192 48.7207 5.72601 48.4331L5.5045 48.3338L4.89336 46.806L4.71768 46.8766L5.32879 48.4044L5.22566 48.5954C4.81697 49.3593 4.83416 50.3409 5.26958 51.4409C4.97601 51.4088 4.67956 51.4139 4.38728 51.4562L4.3147 51.4676L3.65967 50.1098L3.48779 50.1919L4.11611 51.4944H4.05881V51.8248C4.05881 52.6421 4.16576 53.7536 4.97549 54.5748H4.95067L4.84753 54.6206L3.90984 53.1406L3.74752 53.2437L4.66994 54.6989L4.63938 54.7123L4.73869 55.037C4.83335 55.3545 4.96675 55.6592 5.13591 55.9441L4.91628 55.7245L4.78069 55.8601L5.84633 56.9238L5.96473 57.3267C6.24767 58.3378 6.87789 59.2169 7.74463 59.8094C7.68924 59.8342 7.63386 59.8591 7.5823 59.8877L7.15261 60.1131L7.47152 60.4778C9.25713 62.5174 11.1745 63.226 13.1683 62.5785L13.6782 63.3959C13.0888 63.9358 12.5315 64.5097 12.0091 65.1147L12.3509 65.743C17.5359 65.0173 22.3752 67.3854 27.056 69.6752C31.0989 71.6537 34.9432 73.5329 38.9613 73.5634C38.2356 74.0619 37.5176 74.5374 36.7938 74.9346L36.7823 74.8869C34.3302 75.5171 31.6757 75.1561 28.7041 74.2567C28.9466 72.3278 27.923 70.653 25.6485 69.2703L25.2226 69.0125L25.0832 69.4899C25.0698 69.5377 25.0565 69.5854 25.045 69.6351C24.6801 69.2289 24.2305 68.9077 23.728 68.6942C23.2254 68.4807 22.6822 68.3801 22.1365 68.3995H21.9665L22.0563 68.304L21.088 67.4026L20.9562 67.542L21.7774 68.3192C21.2538 67.898 20.6313 67.6173 19.9689 67.5038L19.6385 67.4446L18.6359 66.6253L18.5156 66.7743L19.5755 67.6413L19.5392 67.7559C19.5259 67.7941 19.5144 67.8323 19.5048 67.8685C18.7409 67.2517 17.8548 67.1505 16.5867 67.5057L16.3079 67.584V67.8724C16.3077 67.9899 16.316 68.1074 16.3327 68.2238C15.6125 67.9778 14.8344 67.9572 14.1022 68.1646L13.81 68.2333L13.831 68.1989L12.5056 67.435L12.4101 67.6012L13.7355 68.3651L13.7661 68.3116L13.8138 68.6C13.9551 69.446 14.5529 70.2099 15.5536 70.8363C15.2995 70.9879 15.0626 71.1666 14.847 71.3691L14.8164 71.3997L13.4147 70.7465L13.3345 70.9184L14.6713 71.541L14.5949 71.6116L14.8164 71.8867C15.4027 72.62 16.1532 73.3552 17.2609 73.4966L17.2265 73.5558L17.1788 73.6474L15.5536 73.0879L15.4925 73.2789L17.0852 73.827L17.0718 73.8518L17.3277 74.0428C17.5712 74.2325 17.8374 74.391 18.1203 74.5145L18.1012 74.5985L19.375 74.9041L19.3922 74.8372L19.6691 75.0588C20.4931 75.7489 21.5533 76.0913 22.6254 76.0136C22.5872 76.0824 22.5509 76.153 22.5184 76.2237L22.316 76.6668L22.7934 76.7584C25.4461 77.2683 27.3768 76.6687 28.5227 74.9766C30.4477 75.5495 32.2753 75.9315 34.0075 75.9621C33.4108 76.0444 32.8046 76.0256 32.2142 75.9067L31.8762 76.5579C36.1846 80.6409 40.1874 77.9138 44.0585 75.2745C44.5092 74.969 44.9637 74.6596 45.4182 74.3598C46.4886 74.5835 47.5416 74.8835 48.5693 75.2574C46.9792 76.1605 45.5152 77.2695 44.215 78.5555L43.8999 78.8591L45.7295 80.3067L45.9701 80.0737C47.3909 78.6968 49.295 77.4421 51.6306 76.3402C53.6568 77.1728 55.3699 78.3301 57.1688 80.0737L57.4095 80.3067L59.2428 78.8553L58.9182 78.5517C57.5415 77.244 55.9869 76.1375 54.3004 75.265C55.4208 74.8975 56.5616 74.5953 57.7169 74.3598C58.1734 74.6577 58.6279 74.9671 59.0786 75.2745C62.9496 77.9138 66.9544 80.6409 71.2609 76.5579L70.9228 75.9067C70.3323 76.0247 69.7263 76.0434 69.1296 75.9621C70.8617 75.9277 72.6894 75.5553 74.6144 74.9766C75.7717 76.6687 77.7005 77.2683 80.3436 76.7584L80.8211 76.6668L80.6301 76.2256C80.5976 76.153 80.5613 76.0823 80.5212 76.0136C81.5932 76.0907 82.6532 75.7483 83.4775 75.0588L83.7544 74.8372L83.7716 74.9041L85.0473 74.5985L85.0263 74.5145C85.3092 74.391 85.5754 74.2325 85.8189 74.0428L86.0767 73.8518L86.0614 73.8251L87.656 73.2789L87.593 73.0879L85.9697 73.6455L85.9201 73.5558L85.8876 73.4966C87.0029 73.3552 87.7439 72.62 88.3302 71.8867L88.5517 71.6116L88.4753 71.5391L89.8121 70.9184L89.7319 70.7465L88.3321 71.3997L88.2996 71.3691C88.0832 71.1664 87.8449 70.9884 87.5892 70.8382C88.5937 70.2118 89.1915 69.446 89.3328 68.6L89.3805 68.3135L89.4111 68.3651L90.7365 67.6012L90.641 67.435L89.3156 68.1989L89.3366 68.2333L89.0444 68.1646C88.1965 67.9621 87.4689 67.9736 86.8158 68.2238C86.8309 68.1072 86.8386 67.9899 86.8387 67.8724V67.5935L86.5599 67.5153C85.2918 67.16 84.4057 67.2612 83.6418 67.8781C83.6322 67.8418 83.6208 67.8036 83.6093 67.7654L83.5711 67.6508L84.631 66.7838L84.5107 66.6348L83.5081 67.4541L83.1777 67.5133C82.4682 67.6328 81.8065 67.9491 81.268 68.4262L82.1903 67.5515L82.0586 67.4121L81.0903 68.3307L81.1801 68.4262H80.9509C80.4064 68.4072 79.8643 68.5074 79.3625 68.7198C78.8608 68.9323 78.4115 69.2518 78.0462 69.6561C78.0328 69.6045 78.0176 69.5529 78.0004 69.5033L77.8476 69.0488L77.4389 69.297C75.1682 70.6797 74.1446 72.3526 74.3833 74.2834C71.4117 75.1829 68.7572 75.5457 66.307 74.9136L66.2936 74.9613C65.5698 74.5641 64.8518 74.0886 64.1261 73.5902C68.1365 73.5596 71.9885 71.6804 76.0314 69.7019C80.7122 67.4102 85.5534 65.044 90.7365 65.7697L91.0783 65.1414C90.5564 64.536 89.9991 63.9621 89.4092 63.4227L89.9191 62.6053C91.9148 63.2489 93.8303 62.5404 95.6159 60.5046L95.9348 60.1398L95.5051 59.9144C95.4535 59.8858 95.3982 59.861 95.3428 59.8362C96.2101 59.2442 96.8405 58.3649 97.1227 57.3535L97.2411 56.9505L98.3067 55.8868L98.1711 55.7512L97.9572 55.967C98.1226 55.6822 98.2539 55.3791 98.3487 55.0637L98.448 54.739L98.4175 54.7257L99.3399 53.2704L99.1661 53.1348ZM90.5264 49.5331C90.5493 49.195 90.5703 48.8494 90.5856 48.5037C91.4565 47.2605 92.4954 46.3648 93.349 46.0726C92.9155 47.9021 91.9683 49.069 90.5264 49.5331ZM92.6004 45.5321L92.6271 45.5493C91.8654 45.9645 91.1905 46.5221 90.6391 47.1917C90.662 46.529 90.6773 45.8549 90.6887 45.1636C91.2658 44.1989 92.1013 43.415 93.1007 42.9005L93.1198 42.9158L93.1523 42.8738L93.3261 42.7898C93.5037 43.6587 93.2764 44.5028 92.6042 45.5321H92.6004ZM93.221 40.1199C93.2733 40.4991 93.2495 40.8848 93.1512 41.2546C93.0528 41.6245 92.8818 41.971 92.6481 42.2741C91.9131 42.6705 91.2563 43.1973 90.7097 43.8287C90.7097 43.2672 90.7097 42.6981 90.725 42.1213C91.4259 41.0633 92.3139 40.3548 93.2249 40.1199H93.221ZM92.354 37.1866C92.8773 38.0975 92.9269 38.848 92.545 39.5317H92.5565C91.8589 39.832 91.2371 40.2841 90.7365 40.8552C90.7365 40.3052 90.7479 39.7475 90.7556 39.1861L90.8453 39.2109C91.1318 38.2274 91.6722 37.5169 92.3578 37.1866H92.354ZM90.1635 35.1068C90.6333 35.6072 90.9122 36.3921 90.9523 37.3451C90.753 37.5878 90.5819 37.8524 90.4424 38.1338C90.2779 37.7726 90.0653 37.4353 89.8102 37.1312C89.6498 36.4647 89.7491 35.8707 90.1674 35.1068H90.1635ZM88.5937 37.0586C89.2908 37.5499 89.7861 38.2773 89.9879 39.1059C89.9879 39.7093 89.9726 40.3052 89.9668 40.8934C89.5095 40.2588 88.9019 39.7476 88.1984 39.4057C87.8929 38.5654 87.9922 37.9333 88.5976 37.0586H88.5937ZM87.5205 39.9691C88.6109 40.2708 89.4646 41.3288 89.9248 42.2856L89.9554 42.3486C89.9554 42.9387 89.9554 43.5212 89.9382 44.0922C89.4081 43.3861 88.7813 42.758 88.0762 42.2264C87.6065 41.574 87.4085 40.7646 87.5243 39.9691H87.5205ZM87.3715 42.6599C88.4057 43.3752 89.2637 44.3162 89.8809 45.4118L89.9191 45.4806C89.9076 46.0535 89.8943 46.6264 89.8752 47.1726C89.3339 46.4928 88.6794 45.9113 87.9406 45.4539C87.2951 44.4627 87.1213 43.6377 87.3753 42.6599H87.3715ZM87.1805 45.9408C87.9597 46.2464 88.8783 47.0733 89.8332 48.3395C89.8141 48.7354 89.7918 49.1244 89.7663 49.5063C88.3894 49.0098 87.572 47.8811 87.1805 45.9408ZM10.7773 37.1866C11.4705 37.5169 12.0033 38.2274 12.2917 39.2185L12.3815 39.1918C12.3891 39.7558 12.3955 40.3128 12.4006 40.8628C11.9001 40.2915 11.2783 39.8394 10.5806 39.5394H10.594C10.1967 38.848 10.254 38.0975 10.7773 37.1866ZM9.91027 40.1199C10.8212 40.3548 11.7092 41.0633 12.4101 42.1213C12.4101 42.6943 12.4101 43.2672 12.4254 43.8287C11.8794 43.1967 11.2225 42.6699 10.487 42.2741C10.2531 41.9711 10.0816 41.6247 9.98261 41.2549C9.8836 40.8851 9.85901 40.4993 9.91027 40.1199ZM9.80523 42.7936L9.97902 42.8776L10.0115 42.9196L10.0325 42.9043C11.0311 43.4199 11.8664 44.2036 12.4445 45.1674C12.456 45.8568 12.4693 46.5329 12.4923 47.1955C11.9408 46.5259 11.2659 45.9684 10.5042 45.5532L10.5309 45.536C9.86062 44.5028 9.63144 43.6587 9.80523 42.7898V42.7936ZM9.78231 46.0764C10.6436 46.3686 11.6749 47.2643 12.5457 48.5056C12.5629 48.8532 12.582 49.197 12.6049 49.5369C11.1669 49.069 10.2196 47.9021 9.78231 46.0726V46.0764ZM12.1791 37.3489C12.2192 36.394 12.498 35.611 12.9697 35.1107C13.386 35.8746 13.4853 36.4704 13.3211 37.135C13.0674 37.4401 12.8549 37.7772 12.689 38.1376C12.5504 37.8545 12.3792 37.5885 12.1791 37.3451V37.3489ZM13.1454 39.1097C13.3464 38.2812 13.841 37.5538 14.5376 37.0624C15.143 37.9371 15.2423 38.5673 14.9329 39.4095C14.2298 39.752 13.6223 40.2631 13.1645 40.8972C13.1594 40.3064 13.153 39.7093 13.1454 39.1059V39.1097ZM13.1759 42.3562L13.2065 42.2932C13.6667 41.3383 14.5204 40.2784 15.6109 39.9767C15.7255 40.7727 15.5262 41.5822 15.0551 42.234C14.3505 42.7661 13.7238 43.3941 13.1931 44.0998C13.1817 43.5307 13.1817 42.9387 13.1817 42.3486L13.1759 42.3562ZM13.2141 45.4882L13.2504 45.4195C13.8676 44.3239 14.7256 43.3829 15.7598 42.6675C16.0138 43.6453 15.84 44.4722 15.1869 45.4691C14.4486 45.9273 13.7942 46.5086 13.2523 47.1879C13.2358 46.6252 13.2231 46.0561 13.2141 45.4806V45.4882ZM13.302 48.3528C14.2569 47.0867 15.1754 46.2521 15.9565 45.9542C15.5631 47.8945 14.7457 49.0232 13.3688 49.5197C13.3434 49.1288 13.3211 48.7354 13.302 48.3395V48.3528ZM25.0431 70.8306C25.1561 71.6889 25.4267 72.5189 25.8414 73.2789C25.341 73.0917 24.8318 72.8956 24.3136 72.6907L24.2716 72.6391C23.5115 71.7045 22.9723 70.6104 22.6941 69.4384L22.7228 69.4212C22.7056 69.3925 22.6884 69.3639 22.6693 69.3371C22.6502 69.3104 22.6521 69.2512 22.6445 69.2111C23.6528 69.3123 24.4052 69.8241 25.0431 70.8172V70.8306ZM20.1828 68.3479C20.9133 68.5509 21.5447 69.0133 21.9589 69.6484C22.1753 70.5366 22.527 71.3862 23.0016 72.1674C22.4745 71.9535 21.9398 71.732 21.3936 71.5085L21.3057 71.4092C20.6469 70.6587 20.0033 69.4594 20.1828 68.3288V68.3479ZM19.3597 68.8081L19.3864 68.7833C19.4135 69.547 19.635 70.291 20.03 70.9451C19.5208 70.7313 18.9981 70.5167 18.4621 70.3016C17.7097 69.6733 17.2055 68.8864 17.0928 68.1818C18.1355 67.9239 18.7505 68.1034 19.3597 68.789V68.8081ZM14.6694 68.8483C15.014 68.7777 15.3696 68.78 15.7132 68.8549C16.0569 68.9299 16.3811 69.076 16.665 69.2837C16.8591 69.6634 17.1032 70.0153 17.3908 70.3302C17.0678 70.3418 16.7473 70.3911 16.4359 70.4773C15.5288 69.9941 14.9157 69.4269 14.6694 68.8291V68.8483ZM15.6452 71.7129C16.3289 71.1992 17.1597 71.0082 18.1718 71.1285L18.1852 71.0158L19.6748 71.6269C18.9824 71.8696 18.3515 72.2606 17.8262 72.7728C17.0012 72.8033 16.3557 72.492 15.6452 71.6919V71.7129ZM18.0725 73.6532C18.6149 72.9026 19.5869 72.3488 20.8111 72.0948L22.4649 72.7766C21.7039 73.025 20.9899 73.3994 20.3528 73.8843C19.501 74.1249 18.7505 74.0485 18.0725 73.6322V73.6532ZM23.2823 75.181C22.2281 75.4235 21.3344 75.286 20.5017 74.7513C21.2981 74.0676 22.4688 73.4145 23.7368 73.298C24.3518 73.5424 24.9591 73.7792 25.5587 74.0027C24.7297 74.258 23.9602 74.6768 23.2957 75.2344L23.2823 75.181ZM23.4847 76.1358C24.0787 75.4044 25.2666 74.799 26.7982 74.4514C27.119 74.5622 27.4373 74.6692 27.753 74.7723C26.844 75.922 25.4384 76.3784 23.4943 76.1053L23.4847 76.1358ZM28.0166 74.0638C27.6652 73.9492 27.3093 73.8282 26.949 73.7009C26.1336 72.3908 25.7325 71.2011 25.7879 70.2634C27.4093 71.3538 28.1426 72.6009 28.0166 74.0332V74.0638ZM75.3783 74.7723C75.6928 74.6692 76.0111 74.5622 76.3332 74.4514C77.861 74.7933 79.0546 75.4063 79.6485 76.1358C77.6967 76.3784 76.2911 75.922 75.3821 74.7417L75.3783 74.7723ZM79.849 75.181L79.8375 75.2344C79.1722 74.677 78.4021 74.2582 77.5726 74.0027C78.1723 73.7792 78.7795 73.5424 79.3964 73.298C80.6645 73.4125 81.8332 74.0619 82.6296 74.7513C81.8008 75.2554 80.907 75.393 79.8528 75.1504L79.849 75.181ZM82.7786 73.8919C82.1409 73.4084 81.427 73.0347 80.6664 72.7861L82.3202 72.1044C83.5444 72.3584 84.5164 72.9122 85.0607 73.6627C84.3827 74.0485 83.6341 74.1249 82.7824 73.8613L82.7786 73.8919ZM85.3071 72.7785C84.7807 72.2668 84.1492 71.8758 83.4565 71.6327L84.9461 71.0215L84.9595 71.1342C85.9716 71.0139 86.8024 71.203 87.488 71.7186C86.7795 72.492 86.134 72.8052 85.3109 72.7499L85.3071 72.7785ZM88.462 68.8597C88.2137 69.4594 87.5988 70.0266 86.6859 70.4925C86.3743 70.4066 86.054 70.3566 85.731 70.3436C86.0204 70.029 86.2652 69.6763 86.4586 69.2951C86.7416 69.0806 87.0666 68.9282 87.4125 68.8479C87.7583 68.7676 88.1173 68.7612 88.4658 68.8291L88.462 68.8597ZM83.7449 68.7948L83.7716 68.8196C84.3808 68.134 84.9958 67.9545 86.0385 68.1932C85.9258 68.8979 85.4235 69.6847 84.6692 70.313C84.1383 70.5295 83.615 70.744 83.0994 70.9566C83.5023 70.2945 83.7261 69.539 83.7487 68.7642L83.7449 68.7948ZM81.1686 69.6484C81.5878 69.0129 82.2183 68.5461 82.9485 68.3307C83.128 69.4594 82.4844 70.6587 81.8256 71.3863L81.7377 71.4856C81.1916 71.711 80.6568 71.9306 80.1297 72.1445C80.6003 71.3698 80.9505 70.5282 81.1686 69.6484ZM78.113 70.7733C78.7452 69.8184 79.4919 69.3085 80.483 69.1977C80.483 69.2417 80.4659 69.2856 80.4563 69.3314L80.4124 69.3944L80.4372 69.4116C80.1592 70.5885 79.6186 71.6873 78.8559 72.6257L78.8139 72.6773C78.2983 72.8816 77.7922 73.0783 77.2861 73.2636C77.7191 72.4943 77.9998 71.6488 78.113 70.7733ZM77.3491 70.229C77.4427 71.3328 76.8068 72.6525 76.1708 73.6665C75.8118 73.7945 75.4547 73.9148 75.1033 74.0294C74.9925 72.5952 75.7316 71.3443 77.3644 70.229H77.3491ZM97.2983 49.2867C97.4645 49.9227 97.2983 50.7477 96.8419 51.6663C96.5468 51.7869 96.2657 51.9393 96.0036 52.1208C96.0424 51.7005 96.0276 51.2769 95.9596 50.8603C96.2034 50.1879 96.6851 49.6281 97.3136 49.2867H97.2983ZM95.7935 53.1253L95.8737 53.2093C96.6376 52.497 97.4206 52.1418 98.2303 52.1609C98.173 53.217 97.8484 53.8797 97.1857 54.3132C96.4111 54.2232 95.6262 54.3161 94.894 54.5844L95.7935 53.1253ZM94.9704 50.2148C95.2931 50.847 95.3638 51.7617 95.1614 52.7376L94.2886 54.1375C94.203 53.3916 93.9411 52.6767 93.5247 52.052C93.6412 51.1888 94.048 50.6656 94.9704 50.2148ZM92.6481 52.1991C93.2803 52.8618 93.6316 54.0172 93.5705 55.2776L92.6309 56.7844C92.5313 55.9298 92.3101 55.0938 91.974 54.3017C91.9759 53.4175 92.186 52.7605 92.6481 52.1914V52.1991ZM91.1795 54.4067L91.2101 54.4717V54.6397H91.2769C91.707 55.6748 91.9283 56.7846 91.9281 57.9054L91.0248 59.353C90.8859 58.5382 90.5992 57.7557 90.1788 57.0441C90.1445 55.9154 90.4519 55.0981 91.1795 54.3991V54.4067ZM89.5371 55.7569C89.5016 55.9068 89.4742 56.0586 89.455 56.2115L89.4054 56.1714C89.4512 56.0262 89.4951 55.8887 89.5371 55.7531V55.7569ZM88.2003 58.7667C88.1029 60.1035 88.4639 61.2207 89.2889 62.1336L88.8095 62.8975C87.9706 62.187 87.021 61.6186 85.9984 61.215C86.8754 60.5351 87.6231 59.7033 88.206 58.7591L88.2003 58.7667ZM51.5485 72.0738H51.5867C52.7955 71.9802 54.0121 72.3374 55.2247 72.9179C54.0089 73.217 52.8124 73.5901 51.6421 74.0351C50.6452 73.55 49.2186 73.1738 47.941 72.9026C49.1441 72.3297 50.3492 71.986 51.5485 72.0738ZM17.131 61.2093C16.1084 61.6129 15.1588 62.1812 14.3199 62.8918L13.8405 62.1279C14.6655 61.215 15.0265 60.1016 14.9291 58.7629C15.5116 59.7029 16.2573 60.5314 17.131 61.2093ZM13.7317 56.1637L13.6801 56.2038C13.6618 56.0516 13.635 55.9005 13.5999 55.7512C13.6419 55.8887 13.6858 56.0281 13.7317 56.1637ZM11.8525 54.6359H11.9193V54.4698C11.9193 54.4469 11.9403 54.4258 11.9499 54.4029C12.6775 55.1019 12.985 55.9193 12.9449 57.0384C12.5242 57.7492 12.2375 58.5311 12.0988 59.3453L11.1955 57.8978C11.1945 56.7758 11.4151 55.6647 11.8448 54.6283L11.8525 54.6359ZM10.487 52.1991C10.9492 52.772 11.1593 53.4251 11.1612 54.2998C10.8249 55.0918 10.6036 55.9278 10.5042 56.7825L9.56462 55.2757C9.50351 54.0095 9.85489 52.8541 10.487 52.1914V52.1991ZM8.16476 50.2148C9.09099 50.6751 9.50158 51.2022 9.61999 52.0635C9.209 52.6874 8.94758 53.3978 8.85609 54.1394L7.98143 52.7376C7.77136 51.7541 7.83437 50.8393 8.16476 50.2148ZM5.82341 49.2848C6.45647 49.6214 6.93532 50.1891 7.16023 50.8699C7.0932 51.2802 7.07845 51.6973 7.11631 52.1112C6.85288 51.9279 6.56897 51.7761 6.27031 51.6586C5.80815 50.7343 5.65535 49.9112 5.82341 49.2772V49.2848ZM4.89145 52.1685C5.72028 52.1513 6.54339 52.5142 7.23854 53.2093L7.32256 53.1253L8.23542 54.592C7.67994 54.3932 7.09515 54.2886 6.5052 54.2826C6.31358 54.2824 6.12217 54.2952 5.93228 54.3208C5.26769 53.8739 4.94683 53.217 4.89145 52.1609V52.1685ZM5.65535 55.1592C6.59686 54.8937 7.77518 55.0981 8.95922 55.7436L9.89309 57.2389C9.10426 56.9335 8.26764 56.7699 7.42187 56.7557C6.53574 56.4521 5.97812 55.9441 5.64964 55.1515L5.65535 55.1592ZM6.90624 57.5368C8.2111 57.4401 9.51265 57.7633 10.6207 58.4592L10.678 58.4993L11.652 60.0596C10.8595 59.7514 10.0194 59.5833 9.16929 59.5631C9.06998 59.5631 8.97831 59.5631 8.87709 59.5726C7.90121 59.0703 7.26145 58.4153 6.90051 57.5292L6.90624 57.5368ZM8.49132 60.4014C9.39654 60.199 10.7143 60.4434 12.1504 61.0966L12.3528 61.1883L12.8112 61.9235C11.3082 62.3169 9.88927 61.8185 8.48561 60.3862L8.49132 60.4014ZM13.4223 61.4614L12.731 60.3518C12.8818 59.015 13.2122 57.9818 13.703 57.2962C13.7412 57.2427 13.7813 57.1931 13.8195 57.1453C14.4134 58.971 14.2836 60.3652 13.4166 61.4461L13.4223 61.4614ZM27.4532 69.0125C23.2785 66.971 18.9816 64.8683 14.3562 64.8683C14.0105 64.8683 13.661 64.8817 13.3096 64.9046C18.8479 59.0283 22.7953 61.6714 29.1605 65.9435C32.3975 68.1168 36.049 70.567 40.7278 72.4252C40.5522 72.5417 40.3765 72.6582 40.2046 72.7766C35.9325 73.149 31.8093 71.1323 27.4475 68.9972L27.4532 69.0125ZM43.6345 74.6653C40.153 77.0373 36.8473 79.2888 33.3371 76.7947C35.7587 76.768 37.8842 75.3032 39.9487 73.8785C42.9031 71.8427 45.9472 69.7439 50.1009 71.3958C47.8722 71.7587 45.7218 73.2235 43.6288 74.6596L43.6345 74.6653ZM53.1832 74.8735L53.1603 75.5801C54.9614 76.3976 56.6228 77.4932 58.0836 78.8267L57.4706 79.3098C55.6411 77.5796 53.8745 76.4261 51.7757 75.5858L51.623 75.5247L51.4721 75.5954C49.1231 76.6878 47.1809 77.9367 45.697 79.3117L45.0763 78.8209C46.4366 77.5198 47.981 76.4259 49.6597 75.5744L50.3912 75.2096L49.6406 74.883C48.5717 74.4337 47.4673 74.074 46.3387 73.8079C46.5182 73.6971 46.6977 73.5901 46.8791 73.487C48.3477 73.7582 50.2957 74.2013 51.453 74.8067L51.6038 74.885L51.7624 74.8258C53.2298 74.2566 54.7417 73.8094 56.2827 73.4889C56.4584 73.5882 56.6322 73.6933 56.8079 73.8002C55.5738 74.0737 54.3581 74.4246 53.1679 74.8506L53.1832 74.8735ZM69.819 76.7947C66.3089 79.2888 63.0031 77.0373 59.5217 74.6653C57.4209 73.2388 55.2782 71.774 53.0553 71.4016C57.209 69.7439 60.2531 71.8427 63.2075 73.8843C65.2566 75.2879 67.3822 76.7603 69.8037 76.7794L69.819 76.7947ZM89.8465 64.9046C84.822 64.5532 80.1908 66.8144 75.7029 69.0125C71.3411 71.1476 67.216 73.1662 62.9516 72.7766C62.7778 72.6582 62.6021 72.5417 62.4264 72.4252C67.1053 70.567 70.7567 68.1168 73.9956 65.9435C80.3455 61.6542 84.2834 59.0131 89.8312 64.8893L89.8465 64.9046ZM89.7338 61.4671C88.8668 60.3862 88.7389 58.9844 89.3309 57.1549C89.371 57.2007 89.4092 57.2504 89.4474 57.3019V57.3134C89.9382 57.9894 90.2686 59.0321 90.4213 60.3575L89.7338 61.4671ZM90.345 61.9292L90.8052 61.194L91.0077 61.1023C92.4438 60.4492 93.7596 60.2066 94.6648 60.4072C93.2459 61.8185 91.825 62.3188 90.3354 61.9082L90.345 61.9292ZM94.2561 59.5726C93.3101 59.5438 92.3683 59.7096 91.4889 60.0596L92.461 58.4993L92.5221 58.4592C93.63 57.763 94.9317 57.4397 96.2365 57.5368C95.8737 58.4153 95.2358 59.0703 94.2561 59.5726ZM95.7706 56.7538C94.9073 56.7629 94.0528 56.9272 93.2478 57.2389L94.1817 55.7436C95.3657 55.0981 96.544 54.8937 97.4855 55.1592C97.3361 55.5349 97.1046 55.8724 96.8079 56.147C96.5111 56.4216 96.1567 56.6263 95.7706 56.7462V56.7538Z" fill="white"/>
<path d="M6.98115 47.9466L6.81299 48.0371L7.52711 49.3639L7.69527 49.2734L6.98115 47.9466Z" fill="white"/>
<path d="M14.489 34.6632L14.3877 35.9885L14.5781 36.0031L14.6794 34.6778L14.489 34.6632Z" fill="white"/>
<path d="M14.8772 67.1606L14.8101 67.3394L16.033 67.7983L16.1001 67.6195L14.8772 67.1606Z" fill="white"/>
<path d="M39.0751 60.5278C38.8211 60.6806 38.5136 60.885 38.3112 61.0377L38.21 61.0893C38.21 61.1409 38.2615 61.1905 38.3112 61.2421C38.391 61.354 38.4595 61.4736 38.5155 61.5992L38.6702 61.752C38.6702 61.8532 38.7714 61.8532 38.8726 61.8532C38.9966 61.7503 39.1342 61.6648 39.2813 61.5992C39.4341 61.5476 39.5353 61.3949 39.6384 61.3949V61.2917C39.5353 61.0358 39.2298 60.7303 39.1285 60.5278H39.0751Z" fill="white"/>
<path d="M52.6382 59.5611L52.8426 59.7635C52.8703 59.7604 52.8983 59.7635 52.9247 59.7724C52.9511 59.7813 52.9752 59.7959 52.9953 59.8151C53.0966 59.9182 53.1481 59.9182 53.1978 59.9182H53.2494C53.2494 59.8151 53.3506 59.7139 53.4537 59.6107C53.5151 59.5801 53.5695 59.5372 53.6135 59.4846C53.6576 59.4321 53.6902 59.371 53.7096 59.3052C53.7592 59.3567 53.8108 59.5095 53.8624 59.5611C53.954 59.5995 54.0395 59.651 54.1164 59.7138C54.1724 59.7392 54.224 59.7734 54.2692 59.8151C54.3723 59.8151 54.4219 59.9182 54.5251 59.9182C54.5763 59.8207 54.6456 59.7338 54.7294 59.6623C54.8001 59.5716 54.8521 59.4677 54.8822 59.3567C54.9749 59.2992 55.0602 59.2306 55.1362 59.1524V59.0512C54.9902 58.9837 54.8535 58.8977 54.7294 58.7953C54.6327 58.683 54.5101 58.5958 54.3723 58.5413H54.3207C54.1418 58.6858 53.9871 58.8579 53.8624 59.0512H53.8108C53.6599 58.9919 53.5213 58.9051 53.4021 58.7953C53.3094 58.7002 53.207 58.6151 53.0966 58.5413H52.9438L52.4339 59.2555L52.3823 59.3052C52.4339 59.3567 52.4854 59.5095 52.6382 59.5611Z" fill="white"/>
<path d="M43.3555 59.3055C43.2027 59.3055 42.9983 59.5614 42.8971 59.611C42.7318 59.6652 42.5607 59.6998 42.3872 59.7142C41.9603 59.7054 41.5343 59.671 41.1115 59.611C40.638 59.5588 40.1743 59.4391 39.7346 59.2558C39.1731 59.103 38.7148 58.9483 38.3061 58.7956C38.0228 58.6256 37.7505 58.4381 37.4907 58.2341C37.4907 58.1844 37.3894 58.1329 37.3379 58.0298C37.3379 57.9801 37.3894 57.8273 37.3894 57.7242L37.4907 57.5218C37.4968 57.4677 37.5144 57.4157 37.5422 57.369C37.5425 57.3621 37.5413 57.3553 37.5388 57.3489C37.5363 57.3426 37.5325 57.3368 37.5277 57.3319C37.5229 57.3271 37.5171 57.3233 37.5107 57.3208C37.5043 57.3183 37.4975 57.3172 37.4907 57.3174H37.3379C37.2786 57.5242 37.1743 57.7153 37.0323 57.877C37.0282 58.0422 36.975 58.2024 36.8795 58.3372C36.8795 58.4384 36.828 58.49 36.828 58.5912C36.8065 58.6755 36.7899 58.7609 36.7783 58.8471C36.828 58.9483 36.828 59.0515 36.8795 59.1527C37.0323 59.3055 37.1335 59.357 37.2863 59.5098C37.7156 59.7198 38.163 59.8904 38.6231 60.0197C39.1033 60.1749 39.5989 60.2774 40.1013 60.3253C40.5596 60.4781 41.0695 60.4781 41.4782 60.5296C41.896 60.5308 42.3046 60.4064 42.6508 60.1725C43.008 59.9777 43.2937 59.674 43.4662 59.3055C43.5178 59.2558 43.5178 59.2558 43.4662 59.2558C43.4242 59.2572 43.3845 59.275 43.3555 59.3055Z" fill="white"/>
<path d="M46.3672 57.2138C46.4168 57.2138 46.4684 57.2654 46.52 57.2654C46.5458 57.295 46.5821 57.3134 46.6212 57.317C46.8538 57.1257 47.075 56.921 47.2838 56.7039C47.2799 56.6649 47.2616 56.6288 47.2323 56.6027C47.1311 56.5512 47.0795 56.5512 47.0795 56.4996C46.9538 56.322 46.7988 56.167 46.6212 56.0413H46.5696L45.9585 56.7039C45.9585 56.8071 46.0597 56.8586 46.1113 57.0114C46.1628 57.0611 46.2641 57.1126 46.3672 57.2138Z" fill="white"/>
<path d="M46.06 58.9485C46.2907 58.8107 46.5553 58.7399 46.8239 58.7442C46.8755 58.7442 46.9767 58.7958 47.1295 58.9485C47.2285 58.991 47.3306 59.0254 47.4351 59.0517H47.5382C47.7502 58.9784 47.9304 58.834 48.0481 58.643C48.1991 58.486 48.3353 58.3153 48.4548 58.1331C48.5064 58.03 48.5064 57.9803 48.4548 57.9803H48.3536C48.2604 58.0748 48.158 58.1599 48.0481 58.2343C47.9955 58.3241 47.9213 58.3992 47.8323 58.4529C47.7432 58.5067 47.6421 58.5372 47.5382 58.5418H47.4351C47.3274 58.4268 47.2076 58.3237 47.0779 58.2343C46.9045 58.2486 46.7334 58.2833 46.568 58.3374C46.4668 58.3374 46.1612 58.5418 45.9053 58.643C45.5998 58.8473 45.3954 59.0517 45.1911 59.1529C45.0327 59.3872 44.9122 59.645 44.834 59.9168C44.8625 59.9435 44.8985 59.9608 44.9371 59.9664H45.0383C45.4986 60.018 45.9569 60.018 46.4153 60.0696C46.3946 60.1282 46.361 60.1814 46.3171 60.2254C46.2731 60.2693 46.2199 60.3029 46.1612 60.3236C46.1612 60.4267 46.0581 60.4763 45.9053 60.6291C45.7591 60.6963 45.6224 60.7823 45.4986 60.885C45.3439 60.885 45.1911 60.9366 45.0383 60.9366C44.9512 60.9412 44.8642 60.925 44.7846 60.8895C44.7049 60.854 44.6348 60.8001 44.58 60.7322C44.4376 60.6183 44.3457 60.453 44.3241 60.272C44.3369 60.0302 44.3025 59.7883 44.2229 59.5597V58.1312C44.2483 57.6197 44.2993 57.1098 44.3756 56.6034C44.3703 56.5643 44.3521 56.528 44.3241 56.5002C44.2228 56.5002 44.2229 56.5518 44.1713 56.5518C44.1713 56.5518 44.1216 56.7562 44.0185 57.1133C43.9582 57.2233 43.9273 57.3469 43.9288 57.4723V60.3369C43.9288 60.95 43.9784 61.2555 44.03 61.3071C44.0542 61.4571 44.1128 61.5996 44.2012 61.7232C44.2897 61.8467 44.4056 61.9482 44.5399 62.0194C44.643 62.0194 44.6927 62.071 44.8454 62.071C45.0677 62.0807 45.2856 62.0071 45.4566 61.8647C45.6795 61.718 45.8705 61.5276 46.018 61.3052L46.9863 59.9282V59.7239C46.9863 59.6723 46.9347 59.6723 46.9347 59.6208C46.4062 59.6143 45.8784 59.5805 45.3534 59.5196C45.3534 59.5196 45.3534 59.468 45.4566 59.3668C45.623 59.1829 45.8295 59.0399 46.06 58.9485Z" fill="white"/>
<path d="M65.8457 53.7976C65.6566 53.8866 65.4842 54.0074 65.3358 54.1547L63.9074 54.7677L63.1435 55.1745C62.9704 55.2903 62.8303 55.4488 62.7367 55.6348C62.5605 55.9148 62.4392 56.226 62.3796 56.5514V58.4898C62.3761 58.6706 62.3232 58.8469 62.2268 58.9997C62.2268 59.1029 62.1256 59.2041 62.0224 59.3053C61.9709 59.3053 61.9709 59.3569 61.9212 59.3569H61.8696C61.8696 59.2041 61.7684 59.1029 61.7169 58.9482C61.7169 58.847 61.6137 58.7438 61.5641 58.6426C61.461 58.5414 61.4113 58.5414 61.2566 58.5414H61.1038C61.0542 58.5911 61.0026 58.5911 61.0026 58.6426C61.0026 58.6942 60.9511 58.7438 60.9014 58.7954C60.8668 58.9701 60.815 59.1409 60.7467 59.3053C60.6998 59.4549 60.666 59.6082 60.6455 59.7636C60.6455 59.9183 60.6455 59.968 60.6971 60.0196C60.6971 60.0711 60.7467 60.1723 60.7983 60.1723C60.8783 60.2097 60.966 60.2273 61.0542 60.2239H61.3598C61.3877 60.2502 61.423 60.2675 61.461 60.2735C61.5125 60.3251 61.5125 60.4779 61.5125 60.581V60.6822C61.4364 60.8376 61.3108 60.9633 61.1554 61.0393C61.0071 61.117 60.854 61.1853 60.6971 61.2437C60.594 61.3965 60.3915 61.448 60.1872 61.5492L59.7269 61.8548C59.7154 61.8639 59.7061 61.8755 59.6997 61.8888C59.6933 61.902 59.6899 61.9165 59.6899 61.9312C59.6899 61.9459 59.6933 61.9604 59.6997 61.9736C59.7061 61.9869 59.7154 61.9985 59.7269 62.0076C59.8149 62.0109 59.9025 61.9939 59.9828 61.9579H60.1356C60.3972 61.9193 60.6535 61.8507 60.8995 61.7536L61.3578 61.6008C61.5006 61.4012 61.6043 61.1763 61.6634 60.9381C61.715 60.7854 61.7665 60.5295 61.8677 60.1742C62.0038 60.0169 62.1235 59.846 62.2249 59.6643C62.3469 59.4714 62.4493 59.2666 62.5304 59.0532C62.526 59.2036 62.5808 59.3497 62.6832 59.46C62.7348 59.6128 62.8876 59.6643 62.9888 59.7656C63.4158 59.7713 63.8313 59.6274 64.1633 59.3588C64.5185 59.1485 64.8298 58.8716 65.0799 58.5433C65.3302 58.2027 65.6214 57.8942 65.947 57.6247C65.9985 57.5235 65.9985 57.5235 65.947 57.4719L65.4886 57.3192C65.2774 57.2736 65.0719 57.2051 64.8756 57.1148C64.7744 57.1148 64.6216 57.0633 64.4688 57.0633C64.4136 57.0628 64.3597 57.081 64.316 57.1148H64.1633C63.9398 57.322 63.7503 57.563 63.6018 57.8291C63.5502 58.0315 63.3975 58.2874 63.2943 58.6445H63.1931C63.0403 58.593 62.9888 58.4917 62.8876 58.339C62.8067 58.2351 62.7541 58.1121 62.7348 57.9818C62.7348 57.7259 62.6832 57.4719 62.6832 57.1664V56.349C62.6809 56.2774 62.6988 56.2066 62.7348 56.1447C62.7348 56.0435 62.836 55.9422 62.836 55.8907C62.9888 55.7379 63.2943 55.5851 63.5502 55.3808C63.703 55.3311 64.0105 55.228 64.3657 55.0752C64.6216 54.9224 64.8756 54.8193 65.0799 54.7181C65.5898 54.4622 65.947 54.2082 66.1513 53.9026C66.1513 53.8511 66.3041 53.7498 66.3041 53.6983C66.3403 53.6669 66.3684 53.6273 66.386 53.5827C66.4036 53.5382 66.4102 53.49 66.4053 53.4424H66.3556C66.2174 53.6008 66.0423 53.7228 65.8457 53.7976ZM63.5541 58.5414C63.6188 58.4517 63.6547 58.3445 63.6572 58.2339C63.7068 58.1843 63.81 58.0296 63.8596 57.9799C63.9368 57.8663 64.0051 57.7469 64.0639 57.6228C64.1155 57.6228 64.1671 57.5713 64.2683 57.5713H64.4211L64.9825 57.724L65.2365 57.8272C65.2365 57.8768 65.1353 57.9799 65.0838 58.0296C65.0322 58.0296 64.9825 58.1327 64.931 58.1843C64.7265 58.3315 64.5037 58.4516 64.2683 58.5414C64.0399 58.6245 63.7966 58.659 63.5541 58.6426V58.5414Z" fill="white"/>
<path d="M60.1849 59.0514C60.1849 58.9998 60.2365 58.9483 60.2861 58.8471V58.6427C60.1835 58.4778 60.0638 58.3242 59.929 58.1844C59.8041 58.0476 59.701 57.8923 59.6234 57.7241H59.5719C59.4584 57.8136 59.3558 57.9162 59.2663 58.0297C59.2663 58.1328 59.1651 58.234 59.1651 58.4384C59.062 58.4899 59.0104 58.5911 58.9092 58.6427C58.8182 58.6832 58.7454 58.756 58.7049 58.8471C58.3496 59.2557 58.1453 59.5613 58.0422 59.6625C57.817 59.9231 57.5123 60.1023 57.1751 60.1724H56.8696C56.8696 60.1724 56.8696 60.1209 56.9708 60.0196C56.996 59.9817 57.0095 59.9372 57.0095 59.8917C57.0095 59.8462 56.996 59.8016 56.9708 59.7637C56.9156 59.7636 56.8619 59.7817 56.818 59.8153C56.7618 59.9404 56.694 60.0599 56.6156 60.1724C56.5125 60.2736 56.4112 60.3252 56.3081 60.4283C55.8601 60.6563 55.3785 60.811 54.8815 60.8867C54.5244 60.9898 53.9114 60.9898 53.3537 60.9898C52.8948 61.0014 52.4355 60.9842 51.9787 60.9382C51.6273 60.9081 51.283 60.8217 50.9589 60.6823C50.919 60.6805 50.8812 60.6638 50.853 60.6355C50.8247 60.6072 50.808 60.5695 50.8061 60.5295C50.7546 60.478 50.7546 60.3252 50.7546 60.2736V59.9681C50.7546 59.9184 50.703 59.8153 50.6514 59.8153C50.6193 59.8182 50.5885 59.8292 50.5618 59.8472C50.5351 59.8652 50.5134 59.8897 50.4987 59.9184C50.4945 60.1091 50.4604 60.2979 50.3975 60.478V61.2419C50.3975 61.2934 50.449 61.4462 50.449 61.4959C50.4987 61.6487 50.6515 61.7518 50.8558 61.853C50.8558 61.9046 51.0086 61.9046 51.316 62.0058C51.6712 62.0058 52.0303 62.0573 52.3855 62.0573C52.7771 62.0659 53.1688 62.0487 53.5581 62.0058C53.8656 61.9561 54.2723 61.9046 54.6295 61.853C55.0472 61.7486 55.4564 61.6126 55.8536 61.4462C56.2456 61.2165 56.5642 60.88 56.7722 60.4761C56.7959 60.5075 56.8265 60.5331 56.8615 60.5509C56.8966 60.5688 56.9353 60.5785 56.9746 60.5792C57.0777 60.5792 57.1293 60.5792 57.179 60.6288H57.2821C57.4078 60.6262 57.5308 60.5914 57.6392 60.5276C57.7734 60.4656 57.8945 60.3788 57.9963 60.2717C58.1268 60.11 58.2461 59.9396 58.3535 59.7618C58.5559 59.5594 58.7087 59.355 58.913 59.3035C58.9333 59.2846 58.9575 59.2704 58.9839 59.2618C59.0103 59.2532 59.0383 59.2505 59.0658 59.2538C59.1877 59.2763 59.3073 59.3102 59.4229 59.355C59.5261 59.355 59.5757 59.4563 59.6273 59.4563C59.7546 59.4276 59.8757 59.3758 59.9844 59.3035C60.0222 59.2 60.0926 59.1116 60.1849 59.0514Z" fill="white"/>
<path d="M48.9665 61.244L48.7125 60.99H48.6094L48.0498 61.6011C48.1362 61.7325 48.2389 61.8525 48.3554 61.9582C48.4069 62.0079 48.5082 62.111 48.6094 62.111C48.6522 62.1298 48.6997 62.1349 48.7455 62.1256C48.7913 62.1164 48.8331 62.0933 48.8653 62.0595C48.9168 62.0079 48.9168 61.9582 48.9665 61.9582C49.0181 61.9067 49.0696 61.7539 49.1708 61.7023C49.2339 61.6442 49.2857 61.5749 49.3236 61.498C49.1827 61.4492 49.0588 61.3611 48.9665 61.244Z" fill="white"/>
<path d="M45.0926 62.7218C44.9925 62.6333 44.9062 62.5303 44.8367 62.4163H44.787L44.0728 63.0293V63.0789C44.1383 63.1953 44.2244 63.2988 44.3267 63.3845L44.5311 63.5888C44.5311 63.6404 44.5826 63.6404 44.6342 63.6404C44.6342 63.692 44.6839 63.692 44.787 63.692C44.7937 63.692 44.8003 63.6906 44.8065 63.688C44.8126 63.6854 44.8182 63.6816 44.8228 63.6768C44.8274 63.6719 44.8311 63.6662 44.8334 63.66C44.8358 63.6537 44.8369 63.6471 44.8367 63.6404L45.3981 63.1305C45.4274 63.1044 45.4458 63.0683 45.4497 63.0293C45.3465 62.9262 45.1938 62.8746 45.0926 62.7218Z" fill="white"/>
<path d="M49.3224 59.6626H49.2212L48.7609 60.1725C48.6548 60.1111 48.5527 60.0428 48.4553 59.9682C48.4553 59.9682 48.3026 59.8154 48.0486 59.6111H47.997C47.8918 59.7145 47.8052 59.8353 47.7411 59.9682C47.6399 60.0713 47.5387 60.1725 47.4355 60.2738C47.4482 60.3508 47.4842 60.4221 47.5387 60.4781C47.5615 60.5301 47.5965 60.5758 47.6407 60.6113C47.6849 60.6469 47.737 60.6713 47.7927 60.6824C47.8958 60.7856 47.997 60.8868 48.0982 60.8868C48.2821 60.7128 48.4526 60.5251 48.6081 60.3253C48.6665 60.418 48.735 60.5038 48.8125 60.5812L49.0168 60.7856C49.0684 60.7856 49.0684 60.8868 49.1696 60.8868C49.2212 60.8868 49.2708 60.9384 49.3224 60.9384L49.3739 60.8868L49.8838 60.3253C49.8907 60.3256 49.8975 60.3244 49.9039 60.3219C49.9103 60.3195 49.9161 60.3157 49.9209 60.3108C49.9257 60.306 49.9295 60.3002 49.932 60.2938C49.9345 60.2874 49.9357 60.2806 49.9354 60.2738V60.1725C49.8115 60.1134 49.6921 60.0451 49.5783 59.9682C49.5267 59.9186 49.4255 59.7639 49.3224 59.6626Z" fill="white"/>
<path d="M5.88257 91.0418V93.8829C5.77567 94.0198 5.60698 94.1685 5.37649 94.3288C5.14934 94.4892 4.85203 94.6278 4.48458 94.7447C4.11713 94.8583 3.66617 94.9151 3.13169 94.9151C2.66737 94.9151 2.24313 94.8382 1.85897 94.6846C1.47482 94.5276 1.14411 94.2988 0.866852 93.9981C0.589593 93.6975 0.375803 93.33 0.225482 92.8958C0.0751606 92.4615 0 91.9654 0 91.4076V90.9265C0 90.3687 0.0701499 89.8726 0.21045 89.4384C0.35409 89.0041 0.557859 88.6367 0.821756 88.336C1.08899 88.0354 1.40801 87.8065 1.7788 87.6495C2.15293 87.4925 2.57049 87.414 3.03148 87.414C3.64946 87.414 4.15722 87.5159 4.55473 87.7197C4.95559 87.9235 5.26291 88.2041 5.4767 88.5615C5.69049 88.9156 5.82411 89.3231 5.87756 89.7841H4.53469C4.49794 89.5302 4.42445 89.3081 4.31422 89.1177C4.20398 88.9239 4.04698 88.7736 3.84321 88.6667C3.64278 88.5565 3.38223 88.5014 3.06154 88.5014C2.79096 88.5014 2.55212 88.5548 2.34501 88.6617C2.1379 88.7686 1.9642 88.9239 1.8239 89.1277C1.6836 89.3315 1.5767 89.5837 1.50321 89.8843C1.43306 90.185 1.39799 90.529 1.39799 90.9165V91.4076C1.39799 91.7984 1.43807 92.1458 1.51824 92.4498C1.59842 92.7504 1.71366 93.0043 1.86398 93.2114C2.01764 93.4152 2.20638 93.5705 2.43019 93.6774C2.65734 93.781 2.91456 93.8328 3.20184 93.8328C3.4624 93.8328 3.67786 93.811 3.84822 93.7676C4.02193 93.7208 4.16056 93.6657 4.26411 93.6023C4.36767 93.5388 4.44784 93.477 4.50462 93.4169V92.0489H3.05653V91.0418H5.88257Z" fill="white"/>
<path d="M6.84964 92.1592V92.054C6.84964 91.6564 6.90642 91.2907 7.02 90.9566C7.13357 90.6192 7.29893 90.3269 7.51606 90.0797C7.73319 89.8325 7.99876 89.6405 8.31276 89.5035C8.62677 89.3632 8.9842 89.2931 9.38505 89.2931C9.79259 89.2931 10.1534 89.3632 10.4674 89.5035C10.7847 89.6405 11.0519 89.8325 11.2691 90.0797C11.4862 90.3269 11.6516 90.6192 11.7651 90.9566C11.8787 91.2907 11.9355 91.6564 11.9355 92.054V92.1592C11.9355 92.5534 11.8787 92.9191 11.7651 93.2565C11.6516 93.5906 11.4862 93.8829 11.2691 94.1334C11.0519 94.3806 10.7864 94.5727 10.4724 94.7096C10.1584 94.8466 9.79927 94.9151 9.39507 94.9151C8.99422 94.9151 8.63512 94.8466 8.31777 94.7096C8.00043 94.5727 7.73319 94.3806 7.51606 94.1334C7.29893 93.8829 7.13357 93.5906 7.02 93.2565C6.90642 92.9191 6.84964 92.5534 6.84964 92.1592ZM8.17246 92.054V92.1592C8.17246 92.3964 8.19584 92.6185 8.24261 92.8256C8.28938 93.0327 8.3612 93.2148 8.45807 93.3718C8.55494 93.5288 8.68021 93.6524 8.83387 93.7426C8.99088 93.8294 9.17794 93.8728 9.39507 93.8728C9.60886 93.8728 9.79259 93.8294 9.94625 93.7426C10.0999 93.6524 10.2252 93.5288 10.3221 93.3718C10.4223 93.2148 10.4958 93.0327 10.5425 92.8256C10.5893 92.6185 10.6127 92.3964 10.6127 92.1592V92.054C10.6127 91.8201 10.5893 91.6013 10.5425 91.3976C10.4958 91.1904 10.4223 91.0084 10.3221 90.8514C10.2252 90.691 10.0982 90.5658 9.94124 90.4756C9.78758 90.382 9.60218 90.3353 9.38505 90.3353C9.17126 90.3353 8.98754 90.382 8.83387 90.4756C8.68021 90.5658 8.55494 90.691 8.45807 90.8514C8.3612 91.0084 8.28938 91.1904 8.24261 91.3976C8.19584 91.6013 8.17246 91.8201 8.17246 92.054Z" fill="white"/>
<path d="M14.6162 93.8127L15.8789 89.3933H17.2619L15.4029 94.8149H14.5611L14.6162 93.8127ZM13.6943 89.3933L14.972 93.8227L15.0171 94.8149H14.1703L12.3063 89.3933H13.6943Z" fill="white"/>
<path d="M20.3234 94.9151C19.9125 94.9151 19.5434 94.8483 19.2161 94.7146C18.8887 94.581 18.6098 94.3956 18.3793 94.1585C18.1521 93.9179 17.9767 93.639 17.8531 93.3217C17.7329 93.001 17.6728 92.6569 17.6728 92.2895V92.089C17.6728 91.6715 17.7329 91.2923 17.8531 90.9516C17.9734 90.6075 18.1438 90.3119 18.3642 90.0647C18.5847 89.8175 18.8486 89.6271 19.1559 89.4935C19.4633 89.3599 19.8023 89.2931 20.1731 89.2931C20.5573 89.2931 20.8963 89.3582 21.1903 89.4885C21.4842 89.6154 21.7298 89.7958 21.9268 90.0296C22.1239 90.2635 22.2726 90.5441 22.3728 90.8714C22.473 91.1955 22.5231 91.5546 22.5231 91.9487V92.5049H18.274V91.593H21.2203V91.4928C21.2137 91.2823 21.1736 91.0902 21.1001 90.9165C21.0266 90.7395 20.913 90.5992 20.7594 90.4956C20.6057 90.3887 20.4069 90.3353 20.1631 90.3353C19.966 90.3353 19.794 90.3787 19.647 90.4656C19.5033 90.5491 19.3831 90.6693 19.2862 90.8263C19.1927 90.98 19.1225 91.1637 19.0758 91.3775C19.029 91.5913 19.0056 91.8285 19.0056 92.089V92.2895C19.0056 92.5166 19.0357 92.7271 19.0958 92.9208C19.1593 93.1146 19.2511 93.2832 19.3714 93.4269C19.495 93.5672 19.642 93.6774 19.8123 93.7576C19.986 93.8344 20.1831 93.8728 20.4036 93.8728C20.6809 93.8728 20.9314 93.8194 21.1552 93.7125C21.3824 93.6023 21.5794 93.4402 21.7465 93.2265L22.4129 93.9179C22.2993 94.085 22.1456 94.2453 21.9519 94.399C21.7615 94.5526 21.531 94.6779 21.2604 94.7748C20.9898 94.8683 20.6775 94.9151 20.3234 94.9151Z" fill="white"/>
<path d="M24.7328 90.5006V94.8149H23.41V89.3933H24.6627L24.7328 90.5006ZM26.3814 89.3582L26.3613 90.5908C26.2878 90.5775 26.2043 90.5674 26.1108 90.5608C26.0206 90.5541 25.9354 90.5507 25.8552 90.5507C25.6515 90.5507 25.4728 90.5791 25.3191 90.6359C25.1654 90.6894 25.0368 90.7679 24.9333 90.8714C24.8331 90.975 24.7562 91.1019 24.7028 91.2522C24.6493 91.3992 24.6193 91.5662 24.6126 91.7533L24.327 91.7182C24.327 91.3742 24.3621 91.0552 24.4322 90.7612C24.5024 90.4672 24.6042 90.21 24.7379 89.9895C24.8715 89.7691 25.0385 89.5987 25.2389 89.4785C25.4427 89.3549 25.6765 89.2931 25.9404 89.2931C26.0139 89.2931 26.0924 89.2997 26.1759 89.3131C26.2628 89.3231 26.3313 89.3382 26.3814 89.3582Z" fill="white"/>
<path d="M28.4057 90.5507V94.8149H27.0829V89.3933H28.3255L28.4057 90.5507ZM28.1952 91.9086H27.8044C27.8077 91.5145 27.8612 91.157 27.9648 90.8364C28.0683 90.5157 28.2136 90.2401 28.4007 90.0096C28.5911 89.7791 28.8166 89.602 29.0771 89.4785C29.3377 89.3549 29.6283 89.2931 29.949 89.2931C30.2095 89.2931 30.4451 89.3298 30.6555 89.4033C30.8659 89.4768 31.0463 89.5937 31.1967 89.754C31.3503 89.9144 31.4672 90.1248 31.5474 90.3854C31.6309 90.6426 31.6727 90.9599 31.6727 91.3374V94.8149H30.3398V91.3274C30.3398 91.0802 30.3031 90.8848 30.2296 90.7411C30.1594 90.5975 30.0559 90.4956 29.9189 90.4355C29.7853 90.3754 29.62 90.3453 29.4229 90.3453C29.2191 90.3453 29.0404 90.3871 28.8867 90.4706C28.7364 90.5507 28.6095 90.6626 28.5059 90.8063C28.4057 90.9499 28.3289 91.1153 28.2754 91.3023C28.222 91.4894 28.1952 91.6915 28.1952 91.9086Z" fill="white"/>
<path d="M34.158 90.5056V94.8149H32.8352V89.3933H34.0828L34.158 90.5056ZM33.9626 91.9086H33.5567C33.5567 91.5312 33.6018 91.1838 33.692 90.8664C33.7855 90.5491 33.9225 90.2735 34.1029 90.0396C34.2832 89.8025 34.5054 89.6188 34.7693 89.4885C35.0365 89.3582 35.3455 89.2931 35.6963 89.2931C35.9401 89.2931 36.1639 89.3298 36.3677 89.4033C36.5715 89.4734 36.7468 89.5853 36.8938 89.739C37.0442 89.8893 37.1594 90.0864 37.2396 90.3303C37.3197 90.5708 37.3598 90.8597 37.3598 91.1971V94.8149H36.037V91.3324C36.037 91.0785 36.0003 90.8798 35.9268 90.7361C35.8566 90.5925 35.7547 90.4923 35.6211 90.4355C35.4875 90.3754 35.3271 90.3453 35.1401 90.3453C34.933 90.3453 34.7543 90.3871 34.6039 90.4706C34.457 90.5507 34.335 90.6626 34.2382 90.8063C34.1446 90.9499 34.0745 91.1153 34.0277 91.3023C33.9843 91.4894 33.9626 91.6915 33.9626 91.9086ZM37.2596 91.6631L36.7134 91.7633C36.7168 91.4226 36.7635 91.1036 36.8537 90.8063C36.9439 90.5056 37.0759 90.2434 37.2496 90.0196C37.4266 89.7925 37.6454 89.6154 37.906 89.4885C38.1699 89.3582 38.4739 89.2931 38.8179 89.2931C39.0852 89.2931 39.3257 89.3315 39.5395 89.4083C39.7566 89.4818 39.942 89.6004 40.0957 89.7641C40.2493 89.9244 40.3662 90.1332 40.4464 90.3904C40.5299 90.6476 40.5717 90.9616 40.5717 91.3324V94.8149H39.2388V91.3274C39.2388 91.0635 39.2021 90.8614 39.1286 90.7211C39.0585 90.5808 38.9566 90.4839 38.8229 90.4305C38.6893 90.3737 38.5323 90.3453 38.3519 90.3453C38.1682 90.3453 38.0079 90.3804 37.8709 90.4505C37.7373 90.5173 37.6237 90.6109 37.5302 90.7311C37.44 90.8514 37.3715 90.9917 37.3247 91.152C37.2813 91.309 37.2596 91.4794 37.2596 91.6631Z" fill="white"/>
<path d="M44.1944 94.9151C43.7836 94.9151 43.4144 94.8483 43.0871 94.7146C42.7597 94.581 42.4808 94.3956 42.2503 94.1585C42.0231 93.9179 41.8477 93.639 41.7241 93.3217C41.6039 93.001 41.5438 92.6569 41.5438 92.2895V92.089C41.5438 91.6715 41.6039 91.2923 41.7241 90.9516C41.8444 90.6075 42.0148 90.3119 42.2352 90.0647C42.4557 89.8175 42.7196 89.6271 43.0269 89.4935C43.3343 89.3599 43.6733 89.2931 44.0441 89.2931C44.4283 89.2931 44.7673 89.3582 45.0613 89.4885C45.3552 89.6154 45.6008 89.7958 45.7979 90.0296C45.9949 90.2635 46.1436 90.5441 46.2438 90.8714C46.344 91.1955 46.3941 91.5546 46.3941 91.9487V92.5049H42.145V91.593H45.0913V91.4928C45.0847 91.2823 45.0446 91.0902 44.9711 90.9165C44.8976 90.7395 44.784 90.5992 44.6304 90.4956C44.4767 90.3887 44.2779 90.3353 44.0341 90.3353C43.837 90.3353 43.665 90.3787 43.518 90.4656C43.3743 90.5491 43.2541 90.6693 43.1572 90.8263C43.0637 90.98 42.9935 91.1637 42.9468 91.3775C42.9 91.5913 42.8766 91.8285 42.8766 92.089V92.2895C42.8766 92.5166 42.9067 92.7271 42.9668 92.9208C43.0303 93.1146 43.1221 93.2832 43.2424 93.4269C43.366 93.5672 43.513 93.6774 43.6833 93.7576C43.857 93.8344 44.0541 93.8728 44.2746 93.8728C44.5519 93.8728 44.8024 93.8194 45.0262 93.7125C45.2534 93.6023 45.4504 93.4402 45.6175 93.2265L46.2839 93.9179C46.1703 94.085 46.0167 94.2453 45.8229 94.399C45.6325 94.5526 45.402 94.6779 45.1314 94.7748C44.8609 94.8683 44.5485 94.9151 44.1944 94.9151Z" fill="white"/>
<path d="M48.5788 90.5507V94.8149H47.256V89.3933H48.4986L48.5788 90.5507ZM48.3683 91.9086H47.9775C47.9809 91.5145 48.0343 91.157 48.1379 90.8364C48.2414 90.5157 48.3867 90.2401 48.5738 90.0096C48.7642 89.7791 48.9897 89.602 49.2502 89.4785C49.5108 89.3549 49.8014 89.2931 50.1221 89.2931C50.3826 89.2931 50.6182 89.3298 50.8286 89.4033C51.0391 89.4768 51.2194 89.5937 51.3698 89.754C51.5234 89.9144 51.6403 90.1248 51.7205 90.3854C51.804 90.6426 51.8458 90.9599 51.8458 91.3374V94.8149H50.5129V91.3274C50.5129 91.0802 50.4762 90.8848 50.4027 90.7411C50.3325 90.5975 50.229 90.4956 50.092 90.4355C49.9584 90.3754 49.7931 90.3453 49.596 90.3453C49.3922 90.3453 49.2135 90.3871 49.0598 90.4706C48.9095 90.5507 48.7826 90.6626 48.679 90.8063C48.5788 90.9499 48.502 91.1153 48.4485 91.3023C48.3951 91.4894 48.3683 91.6915 48.3683 91.9086Z" fill="white"/>
<path d="M55.5788 89.3933V90.3453H52.4721V89.3933H55.5788ZM53.3039 88.0604H54.6317V93.2515C54.6317 93.4119 54.6534 93.5355 54.6969 93.6223C54.7403 93.7092 54.8054 93.7676 54.8923 93.7977C54.9791 93.8277 55.0827 93.8428 55.2029 93.8428C55.2898 93.8428 55.37 93.8378 55.4435 93.8277C55.517 93.8177 55.5788 93.8077 55.6289 93.7977L55.6339 94.7898C55.5236 94.8265 55.3984 94.8566 55.2581 94.88C55.1211 94.9034 54.9658 94.9151 54.7921 94.9151C54.4948 94.9151 54.2342 94.865 54.0104 94.7647C53.7866 94.6612 53.6129 94.4958 53.4893 94.2687C53.3657 94.0382 53.3039 93.7342 53.3039 93.3567V88.0604Z" fill="white"/>
<path d="M58.7806 92.1592V92.054C58.7806 91.6564 58.8374 91.2907 58.951 90.9566C59.0645 90.6192 59.2299 90.3269 59.447 90.0797C59.6641 89.8325 59.9297 89.6405 60.2437 89.5035C60.5577 89.3632 60.9152 89.2931 61.316 89.2931C61.7235 89.2931 62.0843 89.3632 62.3983 89.5035C62.7157 89.6405 62.9829 89.8325 63.2 90.0797C63.4172 90.3269 63.5825 90.6192 63.6961 90.9566C63.8097 91.2907 63.8665 91.6564 63.8665 92.054V92.1592C63.8665 92.5534 63.8097 92.9191 63.6961 93.2565C63.5825 93.5906 63.4172 93.8829 63.2 94.1334C62.9829 94.3806 62.7173 94.5727 62.4033 94.7096C62.0893 94.8466 61.7302 94.9151 61.326 94.9151C60.9252 94.9151 60.5661 94.8466 60.2487 94.7096C59.9314 94.5727 59.6641 94.3806 59.447 94.1334C59.2299 93.8829 59.0645 93.5906 58.951 93.2565C58.8374 92.9191 58.7806 92.5534 58.7806 92.1592ZM60.1034 92.054V92.1592C60.1034 92.3964 60.1268 92.6185 60.1736 92.8256C60.2203 93.0327 60.2922 93.2148 60.389 93.3718C60.4859 93.5288 60.6112 93.6524 60.7648 93.7426C60.9218 93.8294 61.1089 93.8728 61.326 93.8728C61.5398 93.8728 61.7235 93.8294 61.8772 93.7426C62.0309 93.6524 62.1561 93.5288 62.253 93.3718C62.3532 93.2148 62.4267 93.0327 62.4735 92.8256C62.5203 92.6185 62.5436 92.3964 62.5436 92.1592V92.054C62.5436 91.8201 62.5203 91.6013 62.4735 91.3976C62.4267 91.1904 62.3532 91.0084 62.253 90.8514C62.1561 90.691 62.0292 90.5658 61.8722 90.4756C61.7185 90.382 61.5331 90.3353 61.316 90.3353C61.1022 90.3353 60.9185 90.382 60.7648 90.4756C60.6112 90.5658 60.4859 90.691 60.389 90.8514C60.2922 91.0084 60.2203 91.1904 60.1736 91.3976C60.1268 91.6013 60.1034 91.8201 60.1034 92.054Z" fill="white"/>
<path d="M66.5622 94.8149H65.2294V88.8922C65.2294 88.4847 65.3079 88.1423 65.4649 87.865C65.6219 87.5844 65.8457 87.3723 66.1363 87.2286C66.4269 87.085 66.7693 87.0132 67.1635 87.0132C67.2938 87.0132 67.4174 87.0215 67.5343 87.0382C67.6545 87.0549 67.7731 87.0783 67.8901 87.1084L67.865 88.1155C67.8015 88.0988 67.7314 88.0871 67.6545 88.0805C67.5811 88.0738 67.4992 88.0704 67.409 88.0704C67.2286 88.0704 67.075 88.1022 66.948 88.1656C66.8211 88.2291 66.7242 88.3226 66.6574 88.4462C66.5939 88.5665 66.5622 88.7152 66.5622 88.8922V94.8149ZM67.6596 89.3933V90.3453H64.4126V89.3933H67.6596Z" fill="white"/>
<path d="M73.938 92.1542H72.059V91.0719H73.938C74.2453 91.0719 74.4942 91.0217 74.6846 90.9215C74.8783 90.818 75.0203 90.6777 75.1105 90.5006C75.2007 90.3202 75.2458 90.1148 75.2458 89.8843C75.2458 89.6605 75.2007 89.4517 75.1105 89.258C75.0203 89.0642 74.8783 88.9072 74.6846 88.787C74.4942 88.6667 74.2453 88.6066 73.938 88.6066H72.5099V94.8149H71.132V87.5193H73.938C74.5059 87.5193 74.9902 87.6211 75.3911 87.8249C75.7953 88.0253 76.1026 88.3043 76.313 88.6617C76.5268 89.0158 76.6337 89.42 76.6337 89.8743C76.6337 90.3453 76.5268 90.7512 76.313 91.0919C76.1026 91.4326 75.7953 91.6949 75.3911 91.8786C74.9902 92.0623 74.5059 92.1542 73.938 92.1542Z" fill="white"/>
<path d="M80.8427 93.5271V89.3933H82.1756V94.8149H80.9229L80.8427 93.5271ZM81.0131 92.4047L81.424 92.3947C81.424 92.7588 81.3839 93.0945 81.3037 93.4018C81.2235 93.7092 81.0983 93.9764 80.9279 94.2035C80.7609 94.4274 80.5488 94.6027 80.2915 94.7297C80.0343 94.8533 79.7303 94.9151 79.3796 94.9151C79.1124 94.9151 78.8685 94.8783 78.648 94.8048C78.4276 94.728 78.2372 94.6094 78.0768 94.4491C77.9198 94.2854 77.7979 94.0766 77.711 93.8227C77.6242 93.5655 77.5808 93.2565 77.5808 92.8958V89.3933H78.9036V92.9058C78.9036 93.0862 78.9236 93.2365 78.9637 93.3567C79.0071 93.477 79.0656 93.5755 79.1391 93.6524C79.2159 93.7259 79.3044 93.7793 79.4047 93.8127C79.5082 93.8428 79.6185 93.8578 79.7354 93.8578C80.0561 93.8578 80.3083 93.7943 80.492 93.6674C80.679 93.5371 80.8127 93.3634 80.8928 93.1463C80.973 92.9258 81.0131 92.6786 81.0131 92.4047Z" fill="white"/>
<path d="M84.6459 90.5507V94.8149H83.323V89.3933H84.5657L84.6459 90.5507ZM84.4354 91.9086H84.0446C84.0479 91.5145 84.1014 91.157 84.2049 90.8364C84.3085 90.5157 84.4538 90.2401 84.6408 90.0096C84.8313 89.7791 85.0567 89.602 85.3173 89.4785C85.5779 89.3549 85.8685 89.2931 86.1892 89.2931C86.4497 89.2931 86.6852 89.3298 86.8957 89.4033C87.1061 89.4768 87.2865 89.5937 87.4368 89.754C87.5905 89.9144 87.7074 90.1248 87.7876 90.3854C87.8711 90.6426 87.9128 90.9599 87.9128 91.3374V94.8149H86.58V91.3274C86.58 91.0802 86.5432 90.8848 86.4697 90.7411C86.3996 90.5975 86.2961 90.4956 86.1591 90.4355C86.0255 90.3754 85.8601 90.3453 85.663 90.3453C85.4593 90.3453 85.2805 90.3871 85.1269 90.4706C84.9766 90.5507 84.8496 90.6626 84.7461 90.8063C84.6459 90.9499 84.569 91.1153 84.5156 91.3023C84.4621 91.4894 84.4354 91.6915 84.4354 91.9086Z" fill="white"/>
<path d="M89.1455 89.3933H90.4783V95.2157C90.4783 95.5999 90.4082 95.9256 90.2679 96.1928C90.1309 96.46 89.9322 96.6621 89.6716 96.7991C89.411 96.9361 89.092 97.0045 88.7145 97.0045C88.5976 97.0045 88.4807 96.9979 88.3638 96.9845C88.2469 96.9711 88.1316 96.9494 88.0181 96.9193L88.0231 95.8972C88.0966 95.9105 88.1717 95.9205 88.2486 95.9272C88.3254 95.9373 88.4022 95.9423 88.479 95.9423C88.6227 95.9423 88.7429 95.9172 88.8398 95.8671C88.94 95.817 89.0152 95.7385 89.0653 95.6316C89.1187 95.5247 89.1455 95.3861 89.1455 95.2157V89.3933ZM89.0352 87.9752C89.0352 87.7782 89.102 87.6145 89.2357 87.4842C89.3726 87.3539 89.5563 87.2888 89.7868 87.2888C90.0173 87.2888 90.1994 87.3539 90.333 87.4842C90.47 87.6145 90.5384 87.7782 90.5384 87.9752C90.5384 88.169 90.47 88.331 90.333 88.4613C90.1994 88.5916 90.0173 88.6567 89.7868 88.6567C89.5563 88.6567 89.3726 88.5916 89.2357 88.4613C89.102 88.331 89.0352 88.169 89.0352 87.9752Z" fill="white"/>
<path d="M94.6923 93.6624V91.162C94.6923 90.9783 94.6606 90.8196 94.5971 90.686C94.5336 90.5524 94.4368 90.4489 94.3065 90.3754C94.1762 90.3019 94.0109 90.2651 93.8104 90.2651C93.6334 90.2651 93.4781 90.2952 93.3444 90.3553C93.2142 90.4155 93.114 90.5006 93.0438 90.6109C92.9736 90.7178 92.9386 90.8414 92.9386 90.9817H91.6107C91.6107 90.7579 91.6642 90.5457 91.7711 90.3453C91.878 90.1415 92.03 89.9611 92.2271 89.8041C92.4275 89.6438 92.6663 89.5185 92.9436 89.4283C93.2242 89.3382 93.5382 89.2931 93.8856 89.2931C94.2965 89.2931 94.6623 89.3632 94.9829 89.5035C95.307 89.6405 95.5608 89.8476 95.7446 90.1248C95.9316 90.4021 96.0252 90.7512 96.0252 91.1721V93.5371C96.0252 93.8077 96.0419 94.0399 96.0753 94.2336C96.112 94.424 96.1655 94.5894 96.2356 94.7297V94.8149H94.8877C94.8243 94.6779 94.7758 94.5042 94.7424 94.2937C94.709 94.0799 94.6923 93.8695 94.6923 93.6624ZM94.8777 91.5128L94.8877 92.2995H94.0509C93.8438 92.2995 93.6618 92.3212 93.5048 92.3646C93.3478 92.4047 93.2192 92.4648 93.119 92.545C93.0187 92.6218 92.9436 92.7154 92.8935 92.8256C92.8434 92.9325 92.8183 93.0544 92.8183 93.1914C92.8183 93.325 92.8484 93.4453 92.9085 93.5522C92.972 93.659 93.0622 93.7442 93.1791 93.8077C93.2993 93.8678 93.4396 93.8979 93.6 93.8979C93.8338 93.8979 94.0376 93.8511 94.2113 93.7576C94.385 93.6607 94.5203 93.5438 94.6172 93.4068C94.714 93.2699 94.7658 93.1396 94.7725 93.016L95.1533 93.5872C95.1065 93.7242 95.0364 93.8695 94.9429 94.0232C94.8493 94.1768 94.7291 94.3205 94.5821 94.4541C94.4351 94.5877 94.2581 94.6979 94.0509 94.7848C93.8438 94.8716 93.6033 94.9151 93.3294 94.9151C92.9787 94.9151 92.6647 94.8449 92.3874 94.7046C92.1101 94.5643 91.8913 94.3722 91.731 94.1284C91.5707 93.8845 91.4905 93.6073 91.4905 93.2966C91.4905 93.0093 91.5439 92.7555 91.6508 92.535C91.7577 92.3145 91.9164 92.1291 92.1268 91.9788C92.3373 91.8251 92.5978 91.7099 92.9085 91.6331C93.2225 91.5529 93.5816 91.5128 93.9858 91.5128H94.8777Z" fill="white"/>
<path d="M97.2127 87.1184H98.5405V93.6173L98.4103 94.8149H97.2127V87.1184ZM102.028 92.0489V92.1542C102.028 92.5584 101.983 92.9292 101.893 93.2665C101.806 93.6039 101.674 93.8962 101.497 94.1434C101.32 94.3873 101.099 94.5777 100.835 94.7146C100.575 94.8483 100.269 94.9151 99.9185 94.9151C99.5844 94.9151 99.2938 94.8499 99.0466 94.7196C98.8028 94.5894 98.5973 94.4056 98.4303 94.1685C98.2633 93.928 98.1297 93.6457 98.0294 93.3217C97.9292 92.9943 97.8541 92.6369 97.804 92.2494V91.9638C97.8541 91.5729 97.9292 91.2155 98.0294 90.8915C98.1297 90.5674 98.2633 90.2852 98.4303 90.0447C98.5973 89.8041 98.8028 89.6188 99.0466 89.4885C99.2905 89.3582 99.5778 89.2931 99.9085 89.2931C100.263 89.2931 100.572 89.3615 100.835 89.4985C101.103 89.6321 101.323 89.8225 101.497 90.0697C101.674 90.3136 101.806 90.6042 101.893 90.9416C101.983 91.2756 102.028 91.6447 102.028 92.0489ZM100.7 92.1542V92.0489C100.7 91.8185 100.682 91.6013 100.645 91.3976C100.608 91.1904 100.548 91.0084 100.465 90.8514C100.381 90.6944 100.268 90.5708 100.124 90.4806C99.9803 90.3904 99.7999 90.3453 99.5828 90.3453C99.3757 90.3453 99.1986 90.3804 99.0516 90.4505C98.908 90.5207 98.7877 90.6176 98.6909 90.7411C98.5973 90.8647 98.5238 91.0101 98.4704 91.1771C98.4203 91.3441 98.3869 91.5245 98.3702 91.7182V92.4999C98.3936 92.7571 98.4487 92.9893 98.5355 93.1964C98.6224 93.4002 98.751 93.5622 98.9214 93.6824C99.0951 93.8027 99.3189 93.8628 99.5928 93.8628C99.8066 93.8628 99.9853 93.8211 100.129 93.7376C100.273 93.6507 100.386 93.5304 100.47 93.3768C100.553 93.2198 100.612 93.0377 100.645 92.8306C100.682 92.6235 100.7 92.398 100.7 92.1542Z" fill="white"/>
</svg>
