<svg width="102" height="97" viewBox="0 0 102 97" fill="none" xmlns="http://www.w3.org/2000/svg">
<path d="M51.6194 67.7197C70.2318 67.7197 85.4792 52.4723 85.4792 33.8599C85.4792 15.2475 70.2318 0.00012207 51.6194 0.00012207C32.9554 0.00012207 17.708 15.2475 17.708 33.8599C17.708 52.4723 32.9554 67.7197 51.6194 67.7197ZM51.6194 65.4758C42.4908 65.4758 34.0764 61.2438 28.162 54.7678C29.9457 54.2064 31.8325 53.3909 33.8225 52.6671C37.5961 51.4945 40.9095 52.1057 44.4808 53.5341C48.6096 56.0321 52.5876 56.3988 56.77 53.5341C60.7461 51.443 64.9819 51.6989 69.1604 53.5341C70.946 54.3496 72.6801 55.0619 74.3626 55.5222C68.3965 61.6009 60.4405 65.4758 51.6194 65.4758ZM51.6194 2.24216C68.6009 2.24216 82.5726 15.9102 83.0825 32.7981C78.2771 33.0855 73.4795 32.1187 69.1604 29.9927C64.98 28.209 60.7461 27.9034 56.77 29.9927C52.5876 32.8993 48.6096 32.4925 44.4808 29.9927C40.9095 28.5661 37.5961 27.9531 33.8225 29.1257C28.8762 31.0125 24.6939 33.0025 20.1047 32.6453C20.7159 15.8587 34.6379 2.24216 51.6194 2.24216ZM20.1086 35.3381C24.692 35.5424 28.88 33.5544 33.8263 31.6675C37.5999 30.493 40.9134 31.1061 44.4846 32.5346C48.6135 35.0325 52.5915 35.4412 56.7738 32.5346C60.7499 30.4434 64.9857 30.6974 69.1642 32.5346C73.4896 34.6337 78.2778 35.5985 83.0786 35.3381C83.1302 36.3579 82.9755 37.2249 82.9259 38.0919C78.1685 38.3203 73.431 37.3379 69.1566 35.2369C64.9762 33.4512 60.7422 33.1457 56.7662 35.2369C52.5838 38.1435 48.6058 37.7348 44.4769 35.2369C40.9057 33.8084 37.5923 33.1973 33.8187 34.3698C28.8724 36.2567 24.6901 38.2447 20.2021 37.8876C20.2575 37.0721 20.057 36.2567 20.1047 35.3381H20.1086ZM20.7712 40.4371C25.1637 40.4887 29.1856 38.705 33.8263 36.9193C37.5999 35.7468 40.9134 36.3579 44.4846 37.7864C48.6135 40.2843 52.5915 40.693 56.7738 37.7864C60.7499 35.6952 64.9857 35.9511 69.1642 37.7864C73.2964 39.7626 77.8462 40.7076 82.4236 40.5402C82.2192 41.5085 81.9137 42.3239 81.7609 43.2425C77.3975 43.3695 73.0695 42.4239 69.1566 40.4887C64.9762 38.705 60.7422 38.3975 56.7662 40.4887C52.5838 43.3953 48.6058 42.9885 44.4769 40.4887C40.9057 39.0602 37.5923 38.4491 33.8187 39.6216C29.3823 41.2545 25.5055 43.191 21.4778 43.191C21.2773 42.2227 20.9202 41.3557 20.7674 40.4371H20.7712ZM22.3525 45.6908C26.0746 45.4865 29.6439 43.7009 33.8263 42.1712C37.5999 40.9986 40.9134 41.6116 44.4846 43.0382C48.6135 45.538 52.5915 45.9028 56.7738 43.0382C60.7499 40.947 64.9857 41.2029 69.1642 43.0382C72.8863 44.8238 76.8147 45.792 80.7908 45.792C80.3324 46.7106 79.8225 47.5776 79.517 48.4428C75.9151 48.2759 72.3882 47.3553 69.1642 45.7405C64.9838 43.9052 60.7499 43.6512 56.7738 45.7405C52.5915 48.6471 48.6135 48.2403 44.4846 45.7405C40.9134 44.3139 37.5999 43.7009 33.8263 44.8734C30.1538 46.2504 26.8404 47.7801 23.6263 48.2403C23.2622 47.3609 22.8352 46.5089 22.3487 45.6908H22.3525ZM24.902 50.5339C27.6559 49.9744 30.6141 48.6471 33.8263 47.4249C37.5999 46.2504 40.9134 46.8634 44.4846 48.29C48.6135 50.7898 52.5915 51.1546 56.7738 48.29C60.7499 46.2007 64.9857 46.4547 69.1642 48.29C72.1224 49.6669 75.0844 50.6371 78.0885 50.891C77.421 51.6399 76.8394 52.4611 76.3544 53.3393C73.9577 52.9822 71.561 52.1152 69.1642 50.9942C64.9838 49.1589 60.7499 48.8935 56.7738 50.9942C52.5915 53.8493 48.6135 53.4921 44.4846 50.9942C40.9134 49.5657 37.5999 48.9546 33.8263 50.1271C31.2252 51.0954 28.8285 52.1668 26.4833 52.7282C26.03 51.9454 25.4989 51.2103 24.8982 50.5339H24.902Z" fill="#39B349"/>
<path d="M51.515 21.8759C53.7386 21.879 55.8728 21.0006 57.45 19.433C59.0271 17.8655 59.9187 15.7368 59.9293 13.5132C59.9293 8.87249 56.1557 5.15039 51.7174 5.15039C53.4854 5.49699 55.0612 6.48883 56.1384 7.93296C57.2155 9.37709 57.717 11.1703 57.5453 12.9637C57.3735 14.7571 56.5408 16.4225 55.2092 17.6359C53.8775 18.8494 52.1421 19.5241 50.3405 19.5289C46.8227 19.5289 44.0173 17.0309 43.2534 13.6087C43.2038 18.1023 46.9832 21.8759 51.515 21.8759Z" fill="#39B349"/>
<path d="M46.825 11.2694L48.0988 14.0748L48.7119 11.065L51.8228 10.6582L49.1702 9.12854L49.8329 6.11877L47.5393 8.15838L44.837 6.62868L46.1108 9.48375L43.7656 11.6265L46.825 11.2694Z" fill="#39B349"/>
<path d="M19.0703 63.7746L19.2002 64.5271C21.5778 64.1165 24.643 65.9689 27.8857 67.9302C30.4066 69.458 33.0115 71.0297 35.5113 71.66L35.7023 70.919C33.3132 70.3174 30.758 68.7724 28.2848 67.2771C24.9122 65.2394 21.7306 63.3144 19.0703 63.7746Z" fill="#39B349"/>
<path d="M74.854 67.2766C72.3828 68.77 69.8256 70.3169 67.4365 70.9185L67.6275 71.6595C70.1274 71.0293 72.7342 69.4537 75.2531 67.9298C78.4997 65.9684 81.5553 64.1103 83.9406 64.5266L84.0704 63.7741C81.4063 63.3158 78.2228 65.2389 74.854 67.2766Z" fill="#39B349"/>
<path d="M96.1718 47.9561L95.457 49.2826L95.6251 49.3732L96.34 48.0467L96.1718 47.9561Z" fill="#39B349"/>
<path d="M88.2502 67.1508L87.0273 67.61L87.0945 67.7888L88.3174 67.3296L88.2502 67.1508Z" fill="#39B349"/>
<path d="M89.817 33.902L89.626 33.9172L89.7323 35.2464L89.9233 35.2311L89.817 33.902Z" fill="#39B349"/>
<path d="M99.1666 53.1347L98.2289 54.6148L98.1258 54.5689H98.1009C98.9107 53.7478 99.0176 52.6363 99.0176 51.8189V51.4885H98.9603L99.5886 50.1861L99.4168 50.104L98.7617 51.4618L98.691 51.4503C98.398 51.4085 98.1008 51.4046 97.8068 51.4389C98.2423 50.3369 98.2614 49.363 97.8527 48.5895L97.7476 48.3986L98.3607 46.8708L98.1831 46.8001L97.5758 48.3279L97.3428 48.4368C96.6438 48.7377 96.0469 49.2345 95.624 49.8672C95.5619 49.7481 95.4911 49.6338 95.412 49.5253L95.2325 49.2789L94.9518 49.4012C94.0714 49.7831 93.233 50.2988 92.8721 51.4121L92.8338 51.3835L92.7594 51.3262L93.508 49.6895L93.3342 49.6093L92.6028 51.2097L92.5684 51.1849L92.3354 51.4179C91.8219 51.9199 91.465 52.56 91.308 53.2608L91.5772 51.9106L91.3863 51.8743L91.0807 53.4021L91.1762 53.4212L91.0406 53.5281C90.3956 54.0005 89.9047 54.653 89.6293 55.4035C90.0604 53.7574 90.3366 52.0746 90.4543 50.3771C92.4939 49.8481 93.7544 48.2763 94.2012 45.6848L94.2814 45.2169L93.8078 45.2379L93.6493 45.2494C94.1879 44.1723 94.2719 43.2021 93.932 42.1823L93.8231 41.8519H93.8689L94.0733 40.5266L93.9988 40.5151C93.9938 40.2118 93.958 39.9098 93.8919 39.6137L93.8193 39.2757H93.7735L93.8689 37.6581L93.678 37.6467L93.5806 39.2986L93.4717 39.312H93.4488C93.6856 38.4679 93.4736 37.5321 92.8186 36.5218L92.6868 36.3194L92.5417 34.6828L92.3507 34.698L92.4958 36.3309L92.3831 36.3652C92.1214 36.4484 91.8726 36.568 91.6441 36.7205C91.4798 35.6109 90.9967 34.7248 90.2672 34.2225L90.0762 34.0984L89.8852 32.5878L89.6942 32.6126L89.8852 34.0774L89.7229 34.3333C89.2397 35.0972 88.9915 35.7618 88.959 36.413C88.8531 36.3462 88.7434 36.2857 88.6305 36.2316L88.3498 36.0998L88.1588 36.3461C87.4847 37.2323 87.0817 38.0649 87.3109 39.1649L87.2326 39.1554L87.1504 39.1458L86.822 37.8797L86.631 37.9274L86.9404 39.1229H86.8793L86.8086 39.4648C86.6834 40.0246 86.6717 40.6038 86.7742 41.1683L86.5069 40.4273L86.3274 40.4922L86.7876 41.7679L86.8525 41.7431L86.7742 41.9589C86.3579 43.0818 86.3675 44.0596 86.8277 45.0909L86.7055 45.0775L86.2223 45.0355L86.2949 45.5148C86.6978 48.1885 87.7769 49.7163 89.6771 50.316C89.276 55.1075 88.1836 58.8353 85.0574 60.9513C81.3315 60.0767 77.8232 62.4314 73.5244 65.317C70.1995 67.5476 66.4354 70.0723 61.5847 71.9228C58.8213 70.2212 55.6511 69.0448 51.5375 71.2563C47.4239 69.0467 44.2537 70.2212 41.4903 71.9228C36.6396 70.0723 32.8755 67.5476 29.5506 65.317C25.2517 62.4314 21.7435 60.0767 18.0176 60.9513C14.8914 58.8353 13.799 55.1094 13.398 50.316C15.3077 49.7201 16.3772 48.1847 16.7801 45.5148L16.8527 45.0355L16.3695 45.0775L16.2473 45.0909C16.7076 44.0615 16.7171 43.0818 16.3027 41.9589L16.2225 41.7431L16.2893 41.7679L16.7477 40.4922L16.5681 40.4273L16.3008 41.1702C16.4033 40.6051 16.3917 40.0252 16.2664 39.4648L16.1957 39.1229H16.1346L16.444 37.9274L16.253 37.8797L15.9245 39.1458L15.8424 39.1554L15.7641 39.1649C15.9933 38.0745 15.5903 37.2323 14.9162 36.3461L14.7252 36.0998L14.4464 36.2316C14.3329 36.2856 14.2226 36.3462 14.116 36.413C14.0816 35.7618 13.8334 35.0991 13.3521 34.3333L13.1898 34.0755L13.3808 32.6126L13.1898 32.5878L12.9988 34.0984L12.8079 34.2225C12.0764 34.7248 11.5932 35.6109 11.429 36.7185C11.2005 36.5678 10.9525 36.449 10.6918 36.3652L10.5773 36.3309L10.7224 34.698L10.5314 34.6828L10.3882 36.3194L10.2564 36.5218C9.59948 37.5321 9.3894 38.4679 9.62621 39.312H9.60138L9.49254 39.2986L9.39705 37.6467L9.20607 37.6581L9.30156 39.2757H9.25571L9.18316 39.6137C9.11702 39.9098 9.08118 40.2118 9.0762 40.5151L9.00363 40.5266L9.20607 41.8519H9.25191L9.14304 42.1823C8.8031 43.2021 8.88904 44.1723 9.42568 45.2494L9.26718 45.2379L8.79356 45.2169L8.87376 45.6848C9.32064 48.2706 10.5811 49.8481 12.6207 50.3771C12.7384 52.074 13.0146 53.7561 13.4457 55.4016C13.1705 54.6515 12.6795 53.9996 12.0344 53.5281L11.8988 53.4212L11.9962 53.4021L11.6887 51.8743L11.4978 51.9106L11.7689 53.2684C11.6131 52.5646 11.2553 51.9215 10.7396 51.4179L10.5066 51.1849L10.4722 51.2097L9.74079 49.6093L9.567 49.6895L10.3156 51.3262L10.2411 51.3835L10.203 51.4121C9.84965 50.2988 9.00554 49.785 8.12324 49.4012L7.84442 49.2789L7.65345 49.5253C7.57633 49.6317 7.50676 49.7434 7.44527 49.8595C7.03256 49.2187 6.43241 48.7205 5.7265 48.4329L5.50498 48.3336L4.89385 46.8058L4.71817 46.8765L5.32928 48.4043L5.22615 48.5953C4.81746 49.3592 4.83464 50.3408 5.27007 51.4408C4.9765 51.4086 4.68004 51.4138 4.38776 51.4561L4.31519 51.4675L3.66016 50.1097L3.48828 50.1918L4.1166 51.4943H4.05929V51.8246C4.05929 52.642 4.16625 53.7535 4.97598 54.5747H4.95115L4.84802 54.6205L3.91033 53.1405L3.748 53.2436L4.67043 54.6988L4.63986 54.7122L4.73917 55.0368C4.83384 55.3544 4.96724 55.659 5.13639 55.944L4.91677 55.7243L4.78118 55.8599L5.84681 56.9237L5.96522 57.3266C6.24816 58.3377 6.87838 59.2167 7.74511 59.8093C7.68973 59.8341 7.63435 59.859 7.58279 59.8876L7.1531 60.1129L7.47201 60.4777C9.25762 62.5173 11.175 63.2258 13.1688 62.5784L13.6787 63.3958C13.0893 63.9357 12.532 64.5096 12.0096 65.1146L12.3514 65.7429C17.5364 65.0172 22.3757 67.3853 27.0565 69.6751C31.0994 71.6536 34.9437 73.5327 38.9618 73.5633C38.2361 74.0617 37.5181 74.5373 36.7943 74.9345L36.7828 74.8867C34.3307 75.517 31.6761 75.156 28.7046 74.2565C28.9471 72.3277 27.9235 70.6528 25.649 69.2702L25.2231 69.0124L25.0837 69.4898C25.0703 69.5375 25.057 69.5853 25.0455 69.6349C24.6806 69.2287 24.231 68.9076 23.7285 68.6941C23.2259 68.4806 22.6826 68.3799 22.137 68.3993H21.967L22.0567 68.3038L21.0885 67.4024L20.9567 67.5419L21.7779 68.3191C21.2543 67.8979 20.6318 67.6172 19.9694 67.5037L19.639 67.4445L18.6364 66.6252L18.5161 66.7741L19.576 67.6412L19.5397 67.7557C19.5263 67.7939 19.5149 67.8321 19.5053 67.8684C18.7414 67.2516 17.8553 67.1504 16.5872 67.5056L16.3084 67.5839V67.8722C16.3082 67.9898 16.3165 68.1073 16.3332 68.2236C15.613 67.9777 14.8349 67.9571 14.1026 68.1644L13.8105 68.2332L13.8315 68.1988L12.5061 67.4349L12.4106 67.6011L13.736 68.365L13.7665 68.3115L13.8143 68.5999C13.9556 69.4459 14.5534 70.2098 15.5541 70.8362C15.3 70.9878 15.0631 71.1665 14.8474 71.369L14.8169 71.3995L13.4151 70.7464L13.3349 70.9183L14.6718 71.5409L14.5954 71.6115L14.8169 71.8865C15.4032 72.6199 16.1537 73.3551 17.2614 73.4964L17.227 73.5556L17.1793 73.6473L15.5541 73.0878L15.4929 73.2787L17.0857 73.8268L17.0723 73.8517L17.3282 74.0426C17.5716 74.2324 17.8379 74.3908 18.1208 74.5143L18.1017 74.5984L19.3755 74.9039L19.3927 74.8371L19.6696 75.0586C20.4936 75.7488 21.5538 76.0912 22.6258 76.0135C22.5876 76.0823 22.5514 76.1529 22.5189 76.2236L22.3165 76.6666L22.7939 76.7583C25.4465 77.2682 27.3773 76.6685 28.5231 74.9765C30.4482 75.5494 32.2758 75.9314 34.0079 75.9619C33.4113 76.0442 32.8051 76.0255 32.2147 75.9066L31.8767 76.5578C36.1851 80.6408 40.1879 77.9137 44.0589 75.2744C44.5096 74.9689 44.9642 74.6595 45.4187 74.3597C46.4891 74.5834 47.5421 74.8834 48.5698 75.2572C46.9797 76.1604 45.5156 77.2694 44.2155 78.5554L43.9004 78.859L45.73 80.3066L45.9706 80.0736C47.3914 78.6967 49.2955 77.442 51.6311 76.3401C53.6573 77.1727 55.3704 78.33 57.1693 80.0736L57.41 80.3066L59.2433 78.8552L58.9187 78.5516C57.542 77.2439 55.9874 76.1373 54.3009 75.2649C55.4213 74.8974 56.5621 74.5952 57.7174 74.3597C58.1739 74.6576 58.6284 74.9669 59.0791 75.2744C62.9501 77.9137 66.9549 80.6408 71.2614 76.5578L70.9233 75.9066C70.3328 76.0246 69.7268 76.0433 69.1301 75.9619C70.8622 75.9276 72.6899 75.5552 74.6149 74.9765C75.7722 76.6685 77.701 77.2682 80.3441 76.7583L80.8216 76.6666L80.6306 76.2255C80.5981 76.1529 80.5618 76.0822 80.5217 76.0135C81.5937 76.0906 82.6537 75.7482 83.478 75.0586L83.7549 74.8371L83.7721 74.9039L85.0478 74.5984L85.0268 74.5143C85.3097 74.3908 85.5759 74.2324 85.8194 74.0426L86.0772 73.8517L86.0619 73.8249L87.6565 73.2787L87.5935 73.0878L85.9702 73.6454L85.9206 73.5556L85.8881 73.4964C87.0034 73.3551 87.7444 72.6199 88.3307 71.8865L88.5522 71.6115L88.4758 71.539L89.8126 70.9183L89.7324 70.7464L88.3326 71.3995L88.3001 71.369C88.0837 71.1663 87.8454 70.9882 87.5897 70.8381C88.5942 70.2117 89.192 69.4459 89.3333 68.5999L89.381 68.3134L89.4116 68.365L90.737 67.6011L90.6415 67.4349L89.3161 68.1988L89.3371 68.2332L89.0449 68.1644C88.197 67.962 87.4694 67.9735 86.8162 68.2236C86.8314 68.1071 86.8391 67.9898 86.8391 67.8722V67.5934L86.5603 67.5151C85.2923 67.1599 84.4061 67.2611 83.6422 67.878C83.6327 67.8417 83.6212 67.8035 83.6098 67.7653L83.5716 67.6507L84.6315 66.7837L84.5112 66.6347L83.5086 67.454L83.1782 67.5132C82.4687 67.6327 81.807 67.949 81.2684 68.4261L82.1908 67.5514L82.0591 67.412L81.0908 68.3306L81.1806 68.4261H80.9514C80.4069 68.4071 79.8648 68.5073 79.363 68.7197C78.8613 68.9322 78.412 69.2517 78.0467 69.6559C78.0333 69.6044 78.018 69.5528 78.0009 69.5032L77.8481 69.0486L77.4394 69.2969C75.1687 70.6796 74.1451 72.3525 74.3838 74.2833C71.4122 75.1828 68.7577 75.5456 66.3075 74.9135L66.2941 74.9612C65.5703 74.564 64.8523 74.0885 64.1266 73.59C68.137 73.5595 71.989 71.6803 76.0319 69.7018C80.7127 67.4101 85.5539 65.0439 90.737 65.7696L91.0788 65.1413C90.5569 64.5359 89.9995 63.962 89.4097 63.4225L89.9196 62.6052C91.9153 63.2488 93.8308 62.5402 95.6164 60.5044L95.9353 60.1397L95.5056 59.9143C95.454 59.8857 95.3986 59.8609 95.3433 59.836C96.2106 59.2441 96.841 58.3648 97.1232 57.3534L97.2416 56.9504L98.3072 55.8867L98.1716 55.7511L97.9577 55.9669C98.123 55.6821 98.2544 55.3789 98.3492 55.0636L98.4485 54.7389L98.4179 54.7255L99.3404 53.2703L99.1666 53.1347ZM90.5269 49.5329C90.5498 49.1949 90.5708 48.8493 90.5861 48.5036C91.4569 47.2603 92.4958 46.3647 93.3495 46.0725C92.916 47.902 91.9687 49.0689 90.5269 49.5329ZM92.6009 45.532L92.6276 45.5492C91.8659 45.9644 91.191 46.522 90.6395 47.1916C90.6625 46.5289 90.6778 45.8548 90.6892 45.1634C91.2663 44.1988 92.1018 43.4149 93.1012 42.9004L93.1203 42.9157L93.1528 42.8737L93.3266 42.7896C93.5042 43.6586 93.2769 44.5027 92.6047 45.532H92.6009ZM93.2215 40.1198C93.2738 40.4989 93.25 40.8847 93.1516 41.2545C93.0533 41.6243 92.8823 41.9709 92.6486 42.274C91.9136 42.6704 91.2568 43.1971 90.7102 43.8285C90.7102 43.2671 90.7102 42.698 90.7255 42.1212C91.4264 41.0632 92.3144 40.3547 93.2254 40.1198H93.2215ZM92.3545 37.1864C92.8778 38.0974 92.9274 38.8479 92.5455 39.5316H92.5569C91.8594 39.8319 91.2376 40.284 90.737 40.8551C90.737 40.3051 90.7484 39.7474 90.756 39.1859L90.8458 39.2108C91.1323 38.2272 91.6727 37.5168 92.3583 37.1864H92.3545ZM90.164 35.1067C90.6338 35.6071 90.9126 36.392 90.9528 37.3449C90.7535 37.5877 90.5824 37.8523 90.4429 38.1337C90.2784 37.7724 90.0658 37.4352 89.8107 37.1311C89.6503 36.4645 89.7496 35.8706 90.1679 35.1067H90.164ZM88.5942 37.0585C89.2912 37.5498 89.7865 38.2772 89.9883 39.1057C89.9883 39.7092 89.973 40.3051 89.9673 40.8933C89.51 40.2587 88.9024 39.7475 88.1989 39.4056C87.8934 38.5653 87.9927 37.9331 88.598 37.0585H88.5942ZM87.5209 39.9689C88.6114 40.2707 89.4651 41.3287 89.9253 42.2855L89.9559 42.3485C89.9559 42.9386 89.9559 43.5211 89.9387 44.0921C89.4085 43.3859 88.7817 42.7578 88.0767 42.2263C87.6069 41.5739 87.409 40.7645 87.5248 39.9689H87.5209ZM87.372 42.6598C88.4062 43.3751 89.2642 44.3161 89.8814 45.4117L89.9196 45.4805C89.9081 46.0534 89.8948 46.6263 89.8757 47.1725C89.3344 46.4927 88.6799 45.9112 87.9411 45.4537C87.2956 44.4626 87.1218 43.6376 87.3758 42.6598H87.372ZM87.181 45.9407C87.9602 46.2463 88.8788 47.0732 89.8336 48.3394C89.8146 48.7353 89.7923 49.1243 89.7668 49.5062C88.3899 49.0097 87.5725 47.881 87.181 45.9407ZM10.7778 37.1864C11.471 37.5168 12.0038 38.2273 12.2922 39.2184L12.382 39.1917C12.3896 39.7557 12.396 40.3127 12.4011 40.8627C11.9006 40.2914 11.2788 39.8392 10.5811 39.5392H10.5944C10.1972 38.8479 10.2545 38.0974 10.7778 37.1864ZM9.91076 40.1198C10.8217 40.3547 11.7097 41.0632 12.4106 42.1212C12.4106 42.6941 12.4106 43.2671 12.4259 43.8285C11.8799 43.1966 11.223 42.6698 10.4875 42.274C10.2536 41.971 10.0821 41.6245 9.9831 41.2547C9.88409 40.885 9.8595 40.4992 9.91076 40.1198ZM9.80571 42.7935L9.97951 42.8775L10.012 42.9195L10.033 42.9042C11.0316 43.4198 11.8669 44.2035 12.445 45.1673C12.4565 45.8567 12.4698 46.5327 12.4927 47.1954C11.9413 46.5258 11.2664 45.9682 10.5047 45.553L10.5314 45.5358C9.86111 44.5027 9.63193 43.6586 9.80571 42.7896V42.7935ZM9.7828 46.0763C10.6441 46.3685 11.6754 47.2642 12.5462 48.5055C12.5634 48.8531 12.5825 49.1968 12.6054 49.5368C11.1674 49.0689 10.2201 47.902 9.7828 46.0725V46.0763ZM12.1795 37.3488C12.2196 36.3939 12.4985 35.6109 12.9702 35.1105C13.3865 35.8744 13.4858 36.4703 13.3216 37.1349C13.0679 37.44 12.8554 37.7771 12.6894 38.1375C12.5509 37.8544 12.3797 37.5884 12.1795 37.3449V37.3488ZM13.1459 39.1096C13.3469 38.2811 13.8415 37.5537 14.5381 37.0623C15.1435 37.937 15.2428 38.5672 14.9334 39.4094C14.2303 39.7519 13.6228 40.263 13.165 40.8971C13.1599 40.3063 13.1535 39.7092 13.1459 39.1057V39.1096ZM13.1764 42.3561L13.207 42.2931C13.6672 41.3382 14.5209 40.2783 15.6113 39.9766C15.726 40.7726 15.5267 41.5821 15.0556 42.2339C14.351 42.766 13.7243 43.394 13.1936 44.0997C13.1822 43.5306 13.1822 42.9386 13.1822 42.3485L13.1764 42.3561ZM13.2146 45.4881L13.2509 45.4194C13.8681 44.3238 14.7261 43.3827 15.7603 42.6674C16.0143 43.6452 15.8405 44.4721 15.1874 45.469C14.449 45.9272 13.7947 46.5085 13.2528 47.1878C13.2363 46.625 13.2235 46.0559 13.2146 45.4805V45.4881ZM13.3025 48.3527C14.2573 47.0866 15.1759 46.252 15.957 45.9541C15.5636 47.8944 14.7462 49.023 13.3693 49.5196C13.3438 49.1287 13.3216 48.7353 13.3025 48.3394V48.3527ZM25.0436 70.8304C25.1566 71.6888 25.4272 72.5188 25.8419 73.2787C25.3415 73.0916 24.8323 72.8955 24.3141 72.6905L24.272 72.639C23.512 71.7044 22.9728 70.6103 22.6946 69.4382L22.7232 69.4211C22.7061 69.3924 22.6889 69.3638 22.6698 69.337C22.6507 69.3103 22.6526 69.2511 22.645 69.211C23.6533 69.3122 24.4057 69.824 25.0436 70.8171V70.8304ZM20.1833 68.3478C20.9138 68.5508 21.5452 69.0132 21.9593 69.6483C22.1757 70.5364 22.5274 71.386 23.0021 72.1673C22.475 71.9534 21.9403 71.7318 21.3941 71.5084L21.3062 71.4091C20.6474 70.6586 20.0038 69.4592 20.1833 68.3287V68.3478ZM19.3602 68.808L19.3869 68.7832C19.414 69.5468 19.6355 70.2909 20.0305 70.945C19.5212 70.7311 18.9986 70.5166 18.4626 70.3014C17.7102 69.6731 17.206 68.8863 17.0933 68.1816C18.136 67.9238 18.751 68.1033 19.3602 68.7889V68.808ZM14.6699 68.8481C15.0145 68.7776 15.37 68.7798 15.7137 68.8548C16.0574 68.9298 16.3816 69.0758 16.6655 69.2835C16.8596 69.6632 17.1037 70.0152 17.3912 70.3301C17.0683 70.3417 16.7478 70.391 16.4364 70.4771C15.5292 69.994 14.9162 69.4268 14.6699 68.829V68.8481ZM15.6457 71.7127C16.3294 71.199 17.1602 71.0081 18.1723 71.1284L18.1857 71.0157L19.6753 71.6268C18.9829 71.8694 18.352 72.2605 17.8266 72.7727C17.0016 72.8032 16.3562 72.4919 15.6457 71.6917V71.7127ZM18.073 73.653C18.6154 72.9025 19.5874 72.3487 20.8116 72.0947L22.4654 72.7765C21.7044 73.0249 20.9904 73.3993 20.3533 73.8841C19.5015 74.1248 18.751 74.0484 18.073 73.632V73.653ZM23.2828 75.1808C22.2286 75.4234 21.3349 75.2859 20.5022 74.7511C21.2986 74.0675 22.4693 73.4143 23.7373 73.2978C24.3523 73.5423 24.9596 73.7791 25.5592 74.0025C24.7302 74.2578 23.9607 74.6767 23.2962 75.2343L23.2828 75.1808ZM23.4852 76.1357C24.0792 75.4043 25.267 74.7989 26.7987 74.4513C27.1195 74.5621 27.4378 74.669 27.7535 74.7722C26.8445 75.9218 25.4389 76.3783 23.4948 76.1052L23.4852 76.1357ZM28.0171 74.0636C27.6657 73.9491 27.3098 73.8281 26.9495 73.7008C26.134 72.3907 25.733 71.2009 25.7884 70.2632C27.4098 71.3537 28.1431 72.6008 28.0171 74.0331V74.0636ZM75.3788 74.7722C75.6933 74.669 76.0115 74.5621 76.3337 74.4513C77.8615 74.7932 79.055 75.4062 79.649 76.1357C77.6972 76.3783 76.2916 75.9218 75.3826 74.7416L75.3788 74.7722ZM79.8495 75.1808L79.838 75.2343C79.1727 74.6769 78.4026 74.2581 77.5731 74.0025C78.1727 73.7791 78.78 73.5423 79.3969 73.2978C80.6649 73.4124 81.8337 74.0617 82.6301 74.7511C81.8013 75.2553 80.9075 75.3928 79.8533 75.1503L79.8495 75.1808ZM82.7791 73.8918C82.1414 73.4083 81.4275 73.0346 80.6669 72.786L82.3207 72.1042C83.5449 72.3582 84.5169 72.9121 85.0612 73.6626C84.3832 74.0484 83.6346 74.1248 82.7829 73.8612L82.7791 73.8918ZM85.3076 72.7784C84.7812 72.2666 84.1497 71.8756 83.457 71.6325L84.9466 71.0214L84.96 71.1341C85.9721 71.0138 86.8029 71.2028 87.4885 71.7185C86.78 72.4919 86.1345 72.8051 85.3114 72.7497L85.3076 72.7784ZM88.4624 68.8596C88.2142 69.4592 87.5992 70.0264 86.6864 70.4924C86.3748 70.4064 86.0545 70.3565 85.7315 70.3435C86.0209 70.0289 86.2657 69.6761 86.4591 69.295C86.742 69.0805 87.0671 68.9281 87.413 68.8478C87.7588 68.7675 88.1178 68.7611 88.4663 68.829L88.4624 68.8596ZM83.7454 68.7947L83.7721 68.8195C84.3813 68.1339 84.9963 67.9544 86.039 68.1931C85.9263 68.8978 85.424 69.6846 84.6697 70.3129C84.1388 70.5293 83.6155 70.7439 83.0999 70.9565C83.5028 70.2944 83.7265 69.5388 83.7492 68.7641L83.7454 68.7947ZM81.1691 69.6483C81.5883 69.0128 82.2188 68.546 82.949 68.3306C83.1285 69.4592 82.4849 70.6586 81.8261 71.3862L81.7382 71.4855C81.192 71.7108 80.6573 71.9305 80.1302 72.1444C80.6008 71.3697 80.951 70.5281 81.1691 69.6483ZM78.1135 70.7732C78.7457 69.8183 79.4924 69.3084 80.4835 69.1976C80.4835 69.2415 80.4663 69.2855 80.4568 69.3313L80.4129 69.3943L80.4377 69.4115C80.1596 70.5884 79.6191 71.6871 78.8564 72.6256L78.8144 72.6772C78.2988 72.8815 77.7927 73.0782 77.2866 73.2635C77.7196 72.4941 78.0003 71.6486 78.1135 70.7732ZM77.3496 70.2289C77.4432 71.3327 76.8073 72.6523 76.1713 73.6664C75.8123 73.7944 75.4552 73.9147 75.1038 74.0293C74.993 72.5951 75.7321 71.3442 77.3649 70.2289H77.3496ZM97.2988 49.2866C97.465 49.9225 97.2988 50.7475 96.8424 51.6661C96.5473 51.7868 96.2662 51.9392 96.004 52.1207C96.0429 51.7003 96.0281 51.2768 95.9601 50.8602C96.2039 50.1878 96.6856 49.628 97.3141 49.2866H97.2988ZM95.794 53.1252L95.8742 53.2092C96.6381 52.4969 97.4211 52.1417 98.2308 52.1608C98.1735 53.2169 97.8489 53.8795 97.1862 54.313C96.4116 54.2231 95.6267 54.3159 94.8945 54.5842L95.794 53.1252ZM94.9709 50.2147C95.2936 50.8469 95.3643 51.7616 95.1618 52.7375L94.2891 54.1373C94.2035 53.3914 93.9416 52.6766 93.5252 52.0519C93.6417 51.1887 94.0485 50.6654 94.9709 50.2147ZM92.6486 52.199C93.2807 52.8616 93.6321 54.017 93.571 55.2775L92.6314 56.7843C92.5318 55.9296 92.3106 55.0936 91.9745 54.3016C91.9764 53.4174 92.1865 52.7604 92.6486 52.1913V52.199ZM91.18 54.4066L91.2106 54.4715V54.6396H91.2774C91.7075 55.6746 91.9288 56.7845 91.9286 57.9053L91.0253 59.3529C90.8864 58.5381 90.5997 57.7556 90.1793 57.044C90.1449 55.9153 90.4524 55.0979 91.18 54.399V54.4066ZM89.5376 55.7568C89.502 55.9067 89.4746 56.0585 89.4555 56.2113L89.4059 56.1712C89.4517 56.0261 89.4956 55.8886 89.5376 55.753V55.7568ZM88.2008 58.7666C88.1034 60.1034 88.4644 61.2206 89.2894 62.1335L88.81 62.8974C87.9711 62.1868 87.0215 61.6185 85.9989 61.2149C86.8759 60.535 87.6236 59.7032 88.2065 58.7589L88.2008 58.7666ZM51.549 72.0737H51.5872C52.796 71.9801 54.0125 72.3372 55.2252 72.9178C54.0094 73.2169 52.8129 73.5899 51.6425 74.035C50.6457 73.5499 49.2191 73.1737 47.9415 72.9025C49.1446 72.3296 50.3496 71.9858 51.549 72.0737ZM17.1315 61.2091C16.1089 61.6128 15.1593 62.1811 14.3204 62.8916L13.841 62.1277C14.666 61.2149 15.027 60.1015 14.9296 58.7628C15.512 59.7028 16.2577 60.5313 17.1315 61.2091ZM13.7322 56.1636L13.6806 56.2037C13.6623 56.0515 13.6355 55.9003 13.6004 55.7511C13.6424 55.8886 13.6863 56.028 13.7322 56.1636ZM11.853 54.6358H11.9198V54.4696C11.9198 54.4467 11.9408 54.4257 11.9504 54.4028C12.678 55.1018 12.9855 55.9191 12.9453 57.0382C12.5247 57.7491 12.238 58.531 12.0993 59.3452L11.196 57.8976C11.195 56.7757 11.4156 55.6646 11.8453 54.6281L11.853 54.6358ZM10.4875 52.199C10.9497 52.7719 11.1597 53.425 11.1617 54.2997C10.8253 55.0917 10.6041 55.9277 10.5047 56.7824L9.56511 55.2756C9.504 54.0094 9.85538 52.854 10.4875 52.1913V52.199ZM8.16525 50.2147C9.09148 50.675 9.50207 51.2021 9.62047 52.0634C9.20949 52.6873 8.94807 53.3977 8.85658 54.1393L7.98192 52.7375C7.77185 51.754 7.83486 50.8392 8.16525 50.2147ZM5.8239 49.2847C6.45696 49.6212 6.9358 50.189 7.16072 50.8698C7.09369 51.28 7.07894 51.6971 7.1168 52.1111C6.85337 51.9278 6.56945 51.7759 6.27079 51.6585C5.80864 50.7342 5.65584 49.9111 5.8239 49.277V49.2847ZM4.89194 52.1684C5.72077 52.1512 6.54388 52.5141 7.23903 53.2092L7.32304 53.1252L8.23591 54.5919C7.68042 54.3931 7.09564 54.2885 6.50569 54.2825C6.31407 54.2823 6.12266 54.2951 5.93277 54.3207C5.26817 53.8738 4.94732 53.2169 4.89194 52.1608V52.1684ZM5.65584 55.1591C6.59734 54.8936 7.77567 55.098 8.95971 55.7434L9.89358 57.2388C9.10475 56.9334 8.26813 56.7698 7.42235 56.7556C6.53623 56.452 5.9786 55.944 5.65013 55.1514L5.65584 55.1591ZM6.90673 57.5367C8.21158 57.44 9.51314 57.7632 10.6212 58.4591L10.6785 58.4992L11.6524 60.0595C10.8599 59.7512 10.0199 59.5832 9.16978 59.5629C9.07047 59.5629 8.9788 59.5629 8.87758 59.5725C7.9017 59.0702 7.26194 58.4152 6.901 57.5291L6.90673 57.5367ZM8.49181 60.4013C9.39703 60.1989 10.7148 60.4433 12.1509 61.0965L12.3533 61.1881L12.8117 61.9234C11.3087 62.3168 9.88976 61.8184 8.4861 60.386L8.49181 60.4013ZM13.4228 61.4612L12.7315 60.3517C12.8823 59.0148 13.2127 57.9817 13.7035 57.2961C13.7417 57.2426 13.7818 57.1929 13.82 57.1452C14.4139 58.9709 14.2841 60.365 13.4171 61.4459L13.4228 61.4612ZM27.4537 69.0124C23.279 66.9708 18.9821 64.8682 14.3567 64.8682C14.011 64.8682 13.6615 64.8816 13.3101 64.9045C18.8484 59.0282 22.7958 61.6713 29.161 65.9434C32.398 68.1167 36.0495 70.5669 40.7283 72.4251C40.5526 72.5416 40.3769 72.6581 40.2051 72.7765C35.933 73.1489 31.8098 71.1322 27.448 68.9971L27.4537 69.0124ZM43.635 74.6652C40.1535 77.0371 36.8477 79.2887 33.3376 76.7946C35.7592 76.7678 37.8847 75.3031 39.9492 73.8784C42.9035 71.8426 45.9477 69.7438 50.1014 71.3957C47.8727 71.7586 45.7223 73.2234 43.6293 74.6595L43.635 74.6652ZM53.1837 74.8734L53.1608 75.58C54.9619 76.3975 56.6233 77.493 58.0841 78.8266L57.4711 79.3097C55.6416 77.5795 53.875 76.426 51.7762 75.5857L51.6234 75.5246L51.4726 75.5953C49.1236 76.6876 47.1814 77.9366 45.6975 79.3116L45.0768 78.8208C46.4371 77.5197 47.9814 76.4258 49.6602 75.5742L50.3916 75.2095L49.6411 74.8829C48.5722 74.4335 47.4677 74.0739 46.3392 73.8077C46.5187 73.697 46.6982 73.59 46.8796 73.4869C48.3482 73.7581 50.2962 74.2012 51.4535 74.8065L51.6043 74.8848L51.7629 74.8256C53.2303 74.2564 54.7422 73.8093 56.2832 73.4888C56.4589 73.5881 56.6327 73.6932 56.8084 73.8001C55.5743 74.0736 54.3586 74.4244 53.1684 74.8505L53.1837 74.8734ZM69.8195 76.7946C66.3094 79.2887 63.0036 77.0371 59.5222 74.6652C57.4214 73.2386 55.2787 71.7739 53.0558 71.4015C57.2095 69.7438 60.2536 71.8426 63.208 73.8841C65.2571 75.2878 67.3827 76.7602 69.8042 76.7793L69.8195 76.7946ZM89.847 64.9045C84.8225 64.5531 80.1913 66.8142 75.7034 69.0124C71.3416 71.1475 67.2165 73.1661 62.9521 72.7765C62.7783 72.6581 62.6026 72.5416 62.4269 72.4251C67.1058 70.5669 70.7572 68.1167 73.9961 65.9434C80.346 61.6541 84.2839 59.0129 89.8317 64.8892L89.847 64.9045ZM89.7343 61.467C88.8673 60.386 88.7394 58.9843 89.3314 57.1548C89.3715 57.2006 89.4097 57.2502 89.4479 57.3018V57.3133C89.9387 57.9893 90.2691 59.032 90.4218 60.3574L89.7343 61.467ZM90.3455 61.9291L90.8057 61.1939L91.0081 61.1022C92.4443 60.4491 93.7601 60.2065 94.6653 60.407C93.2464 61.8183 91.8255 62.3187 90.3359 61.9081L90.3455 61.9291ZM94.2566 59.5725C93.3106 59.5437 92.3688 59.7094 91.4894 60.0595L92.4615 58.4992L92.5226 58.4591C93.6304 57.7629 94.9321 57.4396 96.237 57.5367C95.8742 58.4152 95.2363 59.0702 94.2566 59.5725ZM95.771 56.7537C94.9078 56.7628 94.0533 56.9271 93.2483 57.2388L94.1821 55.7434C95.3662 55.098 96.5445 54.8936 97.486 55.1591C97.3366 55.5348 97.1051 55.8723 96.8083 56.1469C96.5116 56.4215 96.1572 56.6262 95.771 56.7461V56.7537Z" fill="#39B349"/>
<path d="M6.98164 47.9467L6.81348 48.0372L7.5276 49.3641L7.69576 49.2735L6.98164 47.9467Z" fill="#39B349"/>
<path d="M14.49 34.6633L14.3887 35.9886L14.5791 36.0032L14.6804 34.6779L14.49 34.6633Z" fill="#39B349"/>
<path d="M14.8776 67.1606L14.8105 67.3394L16.0335 67.7983L16.1006 67.6195L14.8776 67.1606Z" fill="#39B349"/>
<path d="M39.076 60.5278C38.822 60.6806 38.5146 60.885 38.3121 61.0377L38.2109 61.0893C38.2109 61.1409 38.2625 61.1905 38.3121 61.2421C38.392 61.354 38.4605 61.4736 38.5165 61.5992L38.6712 61.752C38.6712 61.8532 38.7724 61.8532 38.8736 61.8532C38.9976 61.7503 39.1351 61.6648 39.2823 61.5992C39.4351 61.5476 39.5363 61.3949 39.6394 61.3949V61.2917C39.5363 61.0358 39.2307 60.7303 39.1295 60.5278H39.076Z" fill="#39B349"/>
<path d="M52.6387 59.5611L52.8431 59.7635C52.8708 59.7604 52.8988 59.7635 52.9252 59.7724C52.9515 59.7813 52.9757 59.7959 52.9958 59.8151C53.0971 59.9182 53.1486 59.9182 53.1983 59.9182H53.2498C53.2498 59.8151 53.3511 59.7139 53.4542 59.6107C53.5156 59.5801 53.57 59.5372 53.614 59.4846C53.658 59.4321 53.6907 59.371 53.7101 59.3052C53.7597 59.3567 53.8113 59.5095 53.8629 59.5611C53.9544 59.5995 54.04 59.651 54.1169 59.7138C54.1729 59.7392 54.2245 59.7734 54.2696 59.8151C54.3728 59.8151 54.4224 59.9182 54.5255 59.9182C54.5767 59.8207 54.6461 59.7338 54.7299 59.6623C54.8006 59.5716 54.8526 59.4677 54.8827 59.3567C54.9753 59.2992 55.0606 59.2306 55.1367 59.1524V59.0512C54.9906 58.9837 54.854 58.8977 54.7299 58.7953C54.6331 58.683 54.5106 58.5958 54.3728 58.5413H54.3212C54.1423 58.6858 53.9876 58.8579 53.8629 59.0512H53.8113C53.6604 58.9919 53.5218 58.9051 53.4026 58.7953C53.3099 58.7002 53.2075 58.6151 53.0971 58.5413H52.9443L52.4344 59.2555L52.3828 59.3052C52.4344 59.3567 52.4859 59.5095 52.6387 59.5611Z" fill="#39B349"/>
<path d="M43.3565 59.3053C43.2037 59.3053 42.9993 59.5613 42.8981 59.6109C42.7328 59.6651 42.5616 59.6997 42.3882 59.714C41.9613 59.7053 41.5353 59.6709 41.1125 59.6109C40.639 59.5586 40.1753 59.439 39.7356 59.2557C39.1741 59.1029 38.7158 58.9482 38.3071 58.7954C38.0238 58.6255 37.7514 58.438 37.4916 58.234C37.4916 58.1843 37.3904 58.1328 37.3388 58.0296C37.3388 57.98 37.3904 57.8272 37.3904 57.7241L37.4916 57.5216C37.4977 57.4676 37.5153 57.4155 37.5432 57.3689C37.5435 57.362 37.5423 57.3552 37.5398 57.3488C37.5373 57.3424 37.5335 57.3366 37.5287 57.3318C37.5238 57.327 37.5181 57.3232 37.5117 57.3207C37.5053 57.3182 37.4985 57.317 37.4916 57.3173H37.3388C37.2796 57.5241 37.1752 57.7152 37.0333 57.8769C37.0292 58.042 36.976 58.2022 36.8805 58.3371C36.8805 58.4383 36.8289 58.4899 36.8289 58.5911C36.8075 58.6754 36.7909 58.7608 36.7793 58.847C36.829 58.9482 36.8289 59.0513 36.8805 59.1526C37.0333 59.3053 37.1345 59.3569 37.2873 59.5097C37.7166 59.7196 38.164 59.8903 38.6241 60.0196C39.1043 60.1748 39.5999 60.2772 40.1022 60.3251C40.5606 60.4779 41.0705 60.4779 41.4792 60.5295C41.897 60.5307 42.3056 60.4063 42.6518 60.1724C43.009 59.9776 43.2947 59.6738 43.4672 59.3053C43.5188 59.2557 43.5188 59.2557 43.4672 59.2557C43.4252 59.2571 43.3854 59.2749 43.3565 59.3053Z" fill="#39B349"/>
<path d="M46.3677 57.214C46.4173 57.214 46.4689 57.2655 46.5204 57.2655C46.5463 57.2951 46.5825 57.3136 46.6217 57.3171C46.8543 57.1258 47.0755 56.9211 47.2843 56.7041C47.2804 56.6651 47.262 56.6289 47.2328 56.6028C47.1316 56.5513 47.08 56.5513 47.08 56.4997C46.9543 56.3221 46.7993 56.1671 46.6217 56.0414H46.5701L45.959 56.7041C45.959 56.8072 46.0602 56.8588 46.1118 57.0115C46.1633 57.0612 46.2645 57.1128 46.3677 57.214Z" fill="#39B349"/>
<path d="M46.06 58.9484C46.2907 58.8105 46.5553 58.7398 46.8239 58.7441C46.8755 58.7441 46.9767 58.7956 47.1295 58.9484C47.2285 58.9908 47.3306 59.0253 47.4351 59.0516H47.5382C47.7502 58.9782 47.9304 58.8339 48.0481 58.6429C48.1991 58.4858 48.3353 58.3152 48.4548 58.133C48.5064 58.0298 48.5064 57.9802 48.4548 57.9802H48.3536C48.2604 58.0747 48.158 58.1598 48.0481 58.2342C47.9955 58.3239 47.9213 58.3991 47.8323 58.4528C47.7432 58.5065 47.6421 58.5371 47.5382 58.5416H47.4351C47.3274 58.4267 47.2076 58.3236 47.0779 58.2342C46.9045 58.2485 46.7334 58.2831 46.568 58.3373C46.4668 58.3373 46.1612 58.5416 45.9053 58.6429C45.5998 58.8472 45.3954 59.0515 45.1911 59.1528C45.0327 59.3871 44.9122 59.6449 44.834 59.9167C44.8625 59.9434 44.8985 59.9607 44.9371 59.9663H45.0383C45.4986 60.0179 45.9569 60.0179 46.4153 60.0694C46.3946 60.1281 46.361 60.1813 46.3171 60.2252C46.2731 60.2692 46.2199 60.3027 46.1612 60.3234C46.1612 60.4266 46.0581 60.4762 45.9053 60.629C45.7591 60.6961 45.6224 60.7822 45.4986 60.8849C45.3439 60.8849 45.1911 60.9365 45.0383 60.9365C44.9512 60.9411 44.8642 60.9249 44.7846 60.8894C44.7049 60.8539 44.6348 60.8 44.58 60.7321C44.4376 60.6182 44.3457 60.4529 44.3241 60.2719C44.3369 60.0301 44.3025 59.7882 44.2229 59.5595V58.1311C44.2483 57.6196 44.2993 57.1097 44.3756 56.6033C44.3703 56.5641 44.3521 56.5279 44.3241 56.5001C44.2228 56.5001 44.2229 56.5517 44.1713 56.5517C44.1713 56.5517 44.1216 56.756 44.0185 57.1132C43.9582 57.2231 43.9273 57.3468 43.9288 57.4722V60.3368C43.9288 60.9498 43.9784 61.2554 44.03 61.307C44.0542 61.457 44.1128 61.5994 44.2012 61.723C44.2897 61.8466 44.4056 61.948 44.5399 62.0193C44.643 62.0193 44.6927 62.0709 44.8454 62.0709C45.0677 62.0806 45.2856 62.007 45.4566 61.8646C45.6795 61.7178 45.8705 61.5275 46.018 61.3051L46.9863 59.9281V59.7238C46.9863 59.6722 46.9347 59.6722 46.9347 59.6207C46.4062 59.6142 45.8784 59.5804 45.3534 59.5194C45.3534 59.5194 45.3534 59.4679 45.4566 59.3667C45.623 59.1828 45.8295 59.0397 46.06 58.9484Z" fill="#39B349"/>
<path d="M65.8462 53.7976C65.6571 53.8866 65.4846 54.0074 65.3363 54.1547L63.9078 54.7677L63.1439 55.1745C62.9709 55.2903 62.8308 55.4488 62.7372 55.6348C62.5609 55.9148 62.4397 56.226 62.38 56.5514V58.4898C62.3766 58.6706 62.3237 58.8469 62.2273 58.9997C62.2273 59.1029 62.126 59.2041 62.0229 59.3053C61.9714 59.3053 61.9714 59.3569 61.9217 59.3569H61.8701C61.8701 59.2041 61.7689 59.1029 61.7174 58.9482C61.7174 58.847 61.6142 58.7438 61.5646 58.6426C61.4615 58.5414 61.4118 58.5414 61.2571 58.5414H61.1043C61.0547 58.5911 61.0031 58.5911 61.0031 58.6426C61.0031 58.6942 60.9516 58.7438 60.9019 58.7954C60.8673 58.9701 60.8155 59.1409 60.7472 59.3053C60.7003 59.4549 60.6664 59.6082 60.646 59.7636C60.646 59.9183 60.646 59.968 60.6976 60.0196C60.6976 60.0711 60.7472 60.1723 60.7988 60.1723C60.8787 60.2097 60.9665 60.2273 61.0547 60.2239H61.3602C61.3882 60.2502 61.4235 60.2675 61.4615 60.2735C61.513 60.3251 61.513 60.4779 61.513 60.581V60.6822C61.4369 60.8376 61.3113 60.9633 61.1559 61.0393C61.0076 61.117 60.8545 61.1853 60.6976 61.2437C60.5944 61.3965 60.392 61.448 60.1877 61.5492L59.7274 61.8548C59.7159 61.8639 59.7066 61.8755 59.7002 61.8888C59.6937 61.902 59.6904 61.9165 59.6904 61.9312C59.6904 61.9459 59.6937 61.9604 59.7002 61.9736C59.7066 61.9869 59.7159 61.9985 59.7274 62.0076C59.8154 62.0109 59.9029 61.9939 59.9833 61.9579H60.1361C60.3977 61.9193 60.654 61.8507 60.9 61.7536L61.3583 61.6008C61.5011 61.4012 61.6048 61.1763 61.6639 60.9381C61.7155 60.7854 61.767 60.5295 61.8682 60.1742C62.0043 60.0169 62.124 59.846 62.2254 59.6643C62.3474 59.4714 62.4498 59.2666 62.5309 59.0532C62.5265 59.2036 62.5813 59.3497 62.6837 59.46C62.7352 59.6128 62.888 59.6643 62.9893 59.7656C63.4163 59.7713 63.8318 59.6274 64.1637 59.3588C64.519 59.1485 64.8302 58.8716 65.0804 58.5433C65.3307 58.2027 65.6219 57.8942 65.9475 57.6247C65.999 57.5235 65.999 57.5235 65.9475 57.4719L65.4891 57.3192C65.2779 57.2736 65.0724 57.2051 64.8761 57.1148C64.7749 57.1148 64.6221 57.0633 64.4693 57.0633C64.414 57.0628 64.3602 57.081 64.3165 57.1148H64.1637C63.9403 57.322 63.7508 57.563 63.6023 57.8291C63.5507 58.0315 63.3979 58.2874 63.2948 58.6445H63.1936C63.0408 58.593 62.9893 58.4917 62.888 58.339C62.8072 58.2351 62.7546 58.1121 62.7353 57.9818C62.7353 57.7259 62.6837 57.4719 62.6837 57.1664V56.349C62.6814 56.2774 62.6992 56.2066 62.7353 56.1447C62.7353 56.0435 62.8365 55.9422 62.8365 55.8907C62.9893 55.7379 63.2948 55.5851 63.5507 55.3808C63.7035 55.3311 64.011 55.228 64.3662 55.0752C64.6221 54.9224 64.8761 54.8193 65.0804 54.7181C65.5903 54.4622 65.9474 54.2082 66.1518 53.9026C66.1518 53.8511 66.3046 53.7498 66.3046 53.6983C66.3408 53.6669 66.3689 53.6273 66.3865 53.5827C66.4041 53.5382 66.4107 53.49 66.4058 53.4424H66.3561C66.2179 53.6008 66.0428 53.7228 65.8462 53.7976ZM63.5545 58.5414C63.6193 58.4517 63.6552 58.3445 63.6577 58.2339C63.7073 58.1843 63.8104 58.0296 63.8601 57.9799C63.9373 57.8663 64.0056 57.7469 64.0644 57.6228C64.116 57.6228 64.1676 57.5713 64.2688 57.5713H64.4216L64.983 57.724L65.237 57.8272C65.237 57.8768 65.1358 57.9799 65.0843 58.0296C65.0327 58.0296 64.983 58.1327 64.9315 58.1843C64.727 58.3315 64.5042 58.4516 64.2688 58.5414C64.0403 58.6245 63.7971 58.659 63.5545 58.6426V58.5414Z" fill="#39B349"/>
<path d="M60.1859 59.0513C60.1859 58.9997 60.2375 58.9481 60.2871 58.8469V58.6426C60.1845 58.4777 60.0648 58.3241 59.93 58.1842C59.8051 58.0475 59.702 57.8922 59.6244 57.724H59.5729C59.4594 57.8135 59.3568 57.9161 59.2673 58.0296C59.2673 58.1327 59.1661 58.2339 59.1661 58.4382C59.063 58.4898 59.0114 58.591 58.9102 58.6426C58.8191 58.6831 58.7463 58.7559 58.7058 58.8469C58.3506 59.2556 58.1463 59.5612 58.0432 59.6624C57.818 59.923 57.5133 60.1022 57.1761 60.1723H56.8706C56.8706 60.1723 56.8706 60.1207 56.9718 60.0195C56.997 59.9816 57.0104 59.9371 57.0104 59.8916C57.0104 59.846 56.997 59.8015 56.9718 59.7636C56.9166 59.7635 56.8628 59.7816 56.819 59.8152C56.7628 59.9403 56.695 60.0598 56.6166 60.1723C56.5134 60.2735 56.4122 60.3251 56.3091 60.4282C55.8611 60.6561 55.3795 60.8109 54.8825 60.8865C54.5254 60.9897 53.9124 60.9897 53.3547 60.9897C52.8958 61.0012 52.4365 60.984 51.9797 60.9381C51.6283 60.908 51.2839 60.8215 50.9599 60.6822C50.92 60.6803 50.8822 60.6636 50.8539 60.6354C50.8257 60.6071 50.809 60.5693 50.8071 60.5294C50.7556 60.4779 50.7556 60.3251 50.7556 60.2735V59.968C50.7556 59.9183 50.704 59.8152 50.6524 59.8152C50.6203 59.8181 50.5895 59.829 50.5628 59.8471C50.5361 59.8651 50.5144 59.8896 50.4997 59.9183C50.4955 60.109 50.4613 60.2978 50.3984 60.4779V61.2417C50.3984 61.2933 50.45 61.4461 50.45 61.4957C50.4997 61.6485 50.6524 61.7517 50.8568 61.8529C50.8568 61.9044 51.0095 61.9044 51.317 62.0056C51.6722 62.0056 52.0313 62.0572 52.3865 62.0572C52.7781 62.0658 53.1698 62.0486 53.5591 62.0056C53.8665 61.956 54.2733 61.9044 54.6304 61.8529C55.0482 61.7484 55.4574 61.6125 55.8546 61.4461C56.2466 61.2164 56.5652 60.8799 56.7732 60.4759C56.7969 60.5073 56.8274 60.533 56.8625 60.5508C56.8976 60.5687 56.9362 60.5783 56.9756 60.5791C57.0787 60.5791 57.1303 60.5791 57.1799 60.6287H57.2831C57.4088 60.6261 57.5318 60.5912 57.6402 60.5275C57.7743 60.4655 57.8955 60.3787 57.9973 60.2716C58.1277 60.1099 58.247 59.9395 58.3544 59.7617C58.5569 59.5593 58.7096 59.3549 58.914 59.3034C58.9343 59.2845 58.9585 59.2703 58.9849 59.2617C59.0113 59.2531 59.0392 59.2504 59.0668 59.2537C59.1887 59.2762 59.3083 59.3101 59.4239 59.3549C59.527 59.3549 59.5767 59.4561 59.6282 59.4561C59.7556 59.4275 59.8767 59.3757 59.9854 59.3034C60.0232 59.1999 60.0936 59.1114 60.1859 59.0513Z" fill="#39B349"/>
<path d="M48.9675 61.2441L48.7135 60.9901H48.6103L48.0508 61.6012C48.1372 61.7326 48.2399 61.8526 48.3564 61.9584C48.4079 62.008 48.5091 62.1111 48.6103 62.1111C48.6531 62.1299 48.7007 62.135 48.7464 62.1258C48.7922 62.1165 48.8341 62.0934 48.8662 62.0596C48.9178 62.008 48.9178 61.9584 48.9675 61.9584C49.019 61.9068 49.0706 61.754 49.1718 61.7025C49.2348 61.6443 49.2866 61.575 49.3246 61.4981C49.1837 61.4494 49.0598 61.3612 48.9675 61.2441Z" fill="#39B349"/>
<path d="M45.093 62.7217C44.9929 62.6332 44.9067 62.5302 44.8371 62.4161H44.7875L44.0732 63.0292V63.0788C44.1388 63.1951 44.2248 63.2987 44.3272 63.3844L44.5316 63.5887C44.5316 63.6403 44.5831 63.6403 44.6347 63.6403C44.6347 63.6918 44.6844 63.6918 44.7875 63.6918C44.7942 63.6919 44.8008 63.6905 44.807 63.6879C44.8131 63.6853 44.8187 63.6815 44.8233 63.6766C44.8279 63.6718 44.8315 63.6661 44.8339 63.6599C44.8363 63.6536 44.8374 63.647 44.8371 63.6403L45.3986 63.1304C45.4278 63.1043 45.4462 63.0682 45.4502 63.0292C45.347 62.926 45.1943 62.8745 45.093 62.7217Z" fill="#39B349"/>
<path d="M49.3224 59.6625H49.2212L48.7609 60.1724C48.6548 60.111 48.5527 60.0427 48.4553 59.9681C48.4553 59.9681 48.3026 59.8153 48.0486 59.611H47.997C47.8918 59.7144 47.8052 59.8352 47.7411 59.9681C47.6399 60.0712 47.5387 60.1724 47.4355 60.2736C47.4482 60.3507 47.4842 60.422 47.5387 60.478C47.5615 60.5299 47.5965 60.5756 47.6407 60.6112C47.6849 60.6468 47.737 60.6712 47.7927 60.6823C47.8958 60.7855 47.997 60.8867 48.0982 60.8867C48.2821 60.7126 48.4526 60.5249 48.6081 60.3252C48.6665 60.4179 48.735 60.5037 48.8125 60.5811L49.0168 60.7854C49.0684 60.7854 49.0684 60.8867 49.1696 60.8867C49.2212 60.8867 49.2708 60.9382 49.3224 60.9382L49.3739 60.8867L49.8838 60.3252C49.8907 60.3255 49.8975 60.3243 49.9039 60.3218C49.9103 60.3193 49.9161 60.3155 49.9209 60.3107C49.9257 60.3059 49.9295 60.3001 49.932 60.2937C49.9345 60.2873 49.9357 60.2805 49.9354 60.2736V60.1724C49.8115 60.1133 49.6921 60.045 49.5783 59.9681C49.5267 59.9184 49.4255 59.7637 49.3224 59.6625Z" fill="#39B349"/>
<path d="M5.88257 91.0417V93.8827C5.77567 94.0197 5.60698 94.1683 5.37649 94.3287C5.14934 94.489 4.85203 94.6277 4.48458 94.7446C4.11713 94.8582 3.66617 94.9149 3.13169 94.9149C2.66737 94.9149 2.24313 94.8381 1.85897 94.6845C1.47482 94.5274 1.14411 94.2986 0.866852 93.998C0.589593 93.6973 0.375803 93.3299 0.225482 92.8956C0.0751606 92.4614 0 91.9653 0 91.4075V90.9264C0 90.3686 0.0701499 89.8725 0.21045 89.4382C0.35409 89.004 0.557859 88.6365 0.821756 88.3359C1.08899 88.0352 1.40801 87.8064 1.7788 87.6494C2.15293 87.4924 2.57049 87.4139 3.03148 87.4139C3.64946 87.4139 4.15722 87.5158 4.55473 87.7196C4.95559 87.9233 5.26291 88.2039 5.4767 88.5614C5.69049 88.9155 5.82411 89.323 5.87756 89.784H4.53469C4.49794 89.5301 4.42445 89.308 4.31422 89.1176C4.20398 88.9238 4.04698 88.7735 3.84321 88.6666C3.64278 88.5564 3.38223 88.5012 3.06154 88.5012C2.79096 88.5012 2.55212 88.5547 2.34501 88.6616C2.1379 88.7685 1.9642 88.9238 1.8239 89.1276C1.6836 89.3313 1.5767 89.5836 1.50321 89.8842C1.43306 90.1848 1.39799 90.5289 1.39799 90.9164V91.4075C1.39799 91.7983 1.43807 92.1457 1.51824 92.4497C1.59842 92.7503 1.71366 93.0042 1.86398 93.2113C2.01764 93.4151 2.20638 93.5704 2.43019 93.6773C2.65734 93.7809 2.91456 93.8326 3.20184 93.8326C3.4624 93.8326 3.67786 93.8109 3.84822 93.7675C4.02193 93.7207 4.16056 93.6656 4.26411 93.6021C4.36767 93.5387 4.44784 93.4769 4.50462 93.4167V92.0488H3.05653V91.0417H5.88257Z" fill="#39B349"/>
<path d="M6.84964 92.1591V92.0538C6.84964 91.6563 6.90642 91.2905 7.02 90.9565C7.13358 90.6191 7.29893 90.3268 7.51606 90.0796C7.73319 89.8324 7.99876 89.6403 8.31276 89.5034C8.62677 89.3631 8.9842 89.2929 9.38505 89.2929C9.79259 89.2929 10.1534 89.3631 10.4674 89.5034C10.7847 89.6403 11.0519 89.8324 11.2691 90.0796C11.4862 90.3268 11.6516 90.6191 11.7651 90.9565C11.8787 91.2905 11.9355 91.6563 11.9355 92.0538V92.1591C11.9355 92.5532 11.8787 92.919 11.7651 93.2564C11.6516 93.5904 11.4862 93.8827 11.2691 94.1333C11.0519 94.3805 10.7864 94.5725 10.4724 94.7095C10.1584 94.8465 9.79927 94.9149 9.39507 94.9149C8.99422 94.9149 8.63512 94.8465 8.31777 94.7095C8.00043 94.5725 7.73319 94.3805 7.51606 94.1333C7.29893 93.8827 7.13358 93.5904 7.02 93.2564C6.90642 92.919 6.84964 92.5532 6.84964 92.1591ZM8.17246 92.0538V92.1591C8.17246 92.3962 8.19584 92.6184 8.24261 92.8255C8.28938 93.0326 8.3612 93.2146 8.45807 93.3716C8.55495 93.5286 8.68021 93.6522 8.83387 93.7424C8.99088 93.8293 9.17794 93.8727 9.39507 93.8727C9.60886 93.8727 9.79259 93.8293 9.94625 93.7424C10.0999 93.6522 10.2252 93.5286 10.3221 93.3716C10.4223 93.2146 10.4958 93.0326 10.5425 92.8255C10.5893 92.6184 10.6127 92.3962 10.6127 92.1591V92.0538C10.6127 91.82 10.5893 91.6012 10.5425 91.3974C10.4958 91.1903 10.4223 91.0083 10.3221 90.8513C10.2252 90.6909 10.0982 90.5657 9.94124 90.4755C9.78758 90.3819 9.60218 90.3352 9.38505 90.3352C9.17126 90.3352 8.98754 90.3819 8.83387 90.4755C8.68021 90.5657 8.55495 90.6909 8.45807 90.8513C8.3612 91.0083 8.28938 91.1903 8.24261 91.3974C8.19584 91.6012 8.17246 91.82 8.17246 92.0538Z" fill="#39B349"/>
<path d="M14.6162 93.8126L15.8789 89.3931H17.2619L15.4029 94.8147H14.5611L14.6162 93.8126ZM13.6943 89.3931L14.972 93.8226L15.0171 94.8147H14.1703L12.3063 89.3931H13.6943Z" fill="#39B349"/>
<path d="M20.3234 94.9149C19.9125 94.9149 19.5434 94.8481 19.2161 94.7145C18.8887 94.5809 18.6098 94.3955 18.3793 94.1583C18.1521 93.9178 17.9767 93.6389 17.8531 93.3215C17.7329 93.0009 17.6728 92.6568 17.6728 92.2893V92.0889C17.6728 91.6713 17.7329 91.2922 17.8531 90.9515C17.9734 90.6074 18.1438 90.3118 18.3642 90.0646C18.5847 89.8174 18.8486 89.627 19.1559 89.4934C19.4633 89.3597 19.8023 89.2929 20.1731 89.2929C20.5573 89.2929 20.8963 89.3581 21.1903 89.4884C21.4842 89.6153 21.7298 89.7957 21.9268 90.0295C22.1239 90.2633 22.2726 90.5439 22.3728 90.8713C22.473 91.1953 22.5231 91.5544 22.5231 91.9486V92.5048H18.274V91.5928H21.2203V91.4926C21.2137 91.2822 21.1736 91.0901 21.1001 90.9164C21.0266 90.7394 20.913 90.5991 20.7594 90.4955C20.6057 90.3886 20.4069 90.3352 20.1631 90.3352C19.966 90.3352 19.794 90.3786 19.647 90.4654C19.5033 90.5489 19.3831 90.6692 19.2862 90.8262C19.1927 90.9799 19.1225 91.1636 19.0758 91.3774C19.029 91.5912 19.0056 91.8284 19.0056 92.0889V92.2893C19.0056 92.5165 19.0357 92.7269 19.0958 92.9207C19.1593 93.1144 19.2511 93.2831 19.3714 93.4268C19.495 93.5671 19.642 93.6773 19.8123 93.7575C19.986 93.8343 20.1831 93.8727 20.4036 93.8727C20.6809 93.8727 20.9314 93.8193 21.1552 93.7124C21.3824 93.6021 21.5794 93.4401 21.7465 93.2263L22.4129 93.9178C22.2993 94.0848 22.1456 94.2452 21.9519 94.3988C21.7615 94.5525 21.531 94.6778 21.2604 94.7746C20.9898 94.8682 20.6775 94.9149 20.3234 94.9149Z" fill="#39B349"/>
<path d="M24.7328 90.5005V94.8147H23.41V89.3931H24.6627L24.7328 90.5005ZM26.3814 89.3581L26.3613 90.5907C26.2878 90.5773 26.2043 90.5673 26.1108 90.5606C26.0206 90.554 25.9354 90.5506 25.8552 90.5506C25.6515 90.5506 25.4728 90.579 25.3191 90.6358C25.1654 90.6892 25.0368 90.7678 24.9333 90.8713C24.8331 90.9749 24.7562 91.1018 24.7028 91.2521C24.6493 91.3991 24.6193 91.5661 24.6126 91.7532L24.327 91.7181C24.327 91.374 24.3621 91.055 24.4322 90.7611C24.5024 90.4671 24.6042 90.2099 24.7379 89.9894C24.8715 89.7689 25.0385 89.5986 25.2389 89.4783C25.4427 89.3547 25.6765 89.2929 25.9404 89.2929C26.0139 89.2929 26.0924 89.2996 26.1759 89.313C26.2628 89.323 26.3313 89.338 26.3814 89.3581Z" fill="#39B349"/>
<path d="M28.4057 90.5506V94.8147H27.0829V89.3931H28.3255L28.4057 90.5506ZM28.1952 91.9085H27.8044C27.8077 91.5143 27.8612 91.1569 27.9648 90.8362C28.0683 90.5155 28.2136 90.24 28.4007 90.0095C28.5911 89.779 28.8166 89.6019 29.0771 89.4783C29.3377 89.3547 29.6283 89.2929 29.949 89.2929C30.2095 89.2929 30.4451 89.3297 30.6555 89.4032C30.866 89.4767 31.0463 89.5936 31.1967 89.7539C31.3503 89.9143 31.4672 90.1247 31.5474 90.3853C31.6309 90.6425 31.6727 90.9598 31.6727 91.3373V94.8147H30.3398V91.3273C30.3398 91.0801 30.3031 90.8847 30.2296 90.741C30.1594 90.5974 30.0559 90.4955 29.9189 90.4354C29.7853 90.3752 29.62 90.3452 29.4229 90.3452C29.2191 90.3452 29.0404 90.3869 28.8867 90.4704C28.7364 90.5506 28.6095 90.6625 28.5059 90.8062C28.4057 90.9498 28.3289 91.1152 28.2754 91.3022C28.222 91.4893 28.1952 91.6914 28.1952 91.9085Z" fill="#39B349"/>
<path d="M34.158 90.5055V94.8147H32.8352V89.3931H34.0828L34.158 90.5055ZM33.9626 91.9085H33.5567C33.5567 91.531 33.6018 91.1836 33.692 90.8663C33.7855 90.5489 33.9225 90.2734 34.1029 90.0395C34.2832 89.8024 34.5054 89.6186 34.7693 89.4884C35.0365 89.3581 35.3455 89.2929 35.6963 89.2929C35.9401 89.2929 36.1639 89.3297 36.3677 89.4032C36.5715 89.4733 36.7468 89.5852 36.8938 89.7389C37.0442 89.8892 37.1594 90.0863 37.2396 90.3301C37.3197 90.5707 37.3598 90.8596 37.3598 91.197V94.8147H36.037V91.3323C36.037 91.0784 36.0003 90.8797 35.9268 90.736C35.8566 90.5924 35.7547 90.4922 35.6211 90.4354C35.4875 90.3752 35.3271 90.3452 35.1401 90.3452C34.933 90.3452 34.7543 90.3869 34.6039 90.4704C34.457 90.5506 34.335 90.6625 34.2382 90.8062C34.1446 90.9498 34.0745 91.1152 34.0277 91.3022C33.9843 91.4893 33.9626 91.6914 33.9626 91.9085ZM37.2596 91.663L36.7134 91.7632C36.7168 91.4225 36.7635 91.1035 36.8537 90.8062C36.9439 90.5055 37.0759 90.2433 37.2496 90.0195C37.4266 89.7923 37.6454 89.6153 37.906 89.4884C38.1699 89.3581 38.4739 89.2929 38.8179 89.2929C39.0852 89.2929 39.3257 89.3313 39.5395 89.4082C39.7566 89.4817 39.942 89.6003 40.0957 89.7639C40.2493 89.9243 40.3662 90.1331 40.4464 90.3903C40.5299 90.6475 40.5717 90.9615 40.5717 91.3323V94.8147H39.2388V91.3273C39.2388 91.0634 39.2021 90.8613 39.1286 90.721C39.0585 90.5807 38.9566 90.4838 38.8229 90.4304C38.6893 90.3736 38.5323 90.3452 38.3519 90.3452C38.1682 90.3452 38.0079 90.3803 37.8709 90.4504C37.7373 90.5172 37.6237 90.6107 37.5302 90.731C37.44 90.8513 37.3715 90.9916 37.3247 91.1519C37.2813 91.3089 37.2596 91.4793 37.2596 91.663Z" fill="#39B349"/>
<path d="M44.1944 94.9149C43.7835 94.9149 43.4144 94.8481 43.0871 94.7145C42.7597 94.5809 42.4808 94.3955 42.2503 94.1583C42.0231 93.9178 41.8477 93.6389 41.7241 93.3215C41.6039 93.0009 41.5438 92.6568 41.5438 92.2893V92.0889C41.5438 91.6713 41.6039 91.2922 41.7241 90.9515C41.8444 90.6074 42.0148 90.3118 42.2352 90.0646C42.4557 89.8174 42.7196 89.627 43.0269 89.4934C43.3343 89.3597 43.6733 89.2929 44.0441 89.2929C44.4283 89.2929 44.7673 89.3581 45.0613 89.4884C45.3552 89.6153 45.6008 89.7957 45.7979 90.0295C45.9949 90.2633 46.1436 90.5439 46.2438 90.8713C46.344 91.1953 46.3941 91.5544 46.3941 91.9486V92.5048H42.145V91.5928H45.0913V91.4926C45.0847 91.2822 45.0446 91.0901 44.9711 90.9164C44.8976 90.7394 44.784 90.5991 44.6304 90.4955C44.4767 90.3886 44.2779 90.3352 44.0341 90.3352C43.837 90.3352 43.665 90.3786 43.518 90.4654C43.3743 90.5489 43.2541 90.6692 43.1572 90.8262C43.0637 90.9799 42.9935 91.1636 42.9468 91.3774C42.9 91.5912 42.8766 91.8284 42.8766 92.0889V92.2893C42.8766 92.5165 42.9067 92.7269 42.9668 92.9207C43.0303 93.1144 43.1221 93.2831 43.2424 93.4268C43.366 93.5671 43.513 93.6773 43.6833 93.7575C43.857 93.8343 44.0541 93.8727 44.2746 93.8727C44.5519 93.8727 44.8024 93.8193 45.0262 93.7124C45.2534 93.6021 45.4504 93.4401 45.6175 93.2263L46.2839 93.9178C46.1703 94.0848 46.0167 94.2452 45.8229 94.3988C45.6325 94.5525 45.402 94.6778 45.1314 94.7746C44.8608 94.8682 44.5485 94.9149 44.1944 94.9149Z" fill="#39B349"/>
<path d="M48.5788 90.5506V94.8147H47.256V89.3931H48.4986L48.5788 90.5506ZM48.3683 91.9085H47.9775C47.9809 91.5143 48.0343 91.1569 48.1379 90.8362C48.2414 90.5155 48.3867 90.24 48.5738 90.0095C48.7642 89.779 48.9897 89.6019 49.2502 89.4783C49.5108 89.3547 49.8014 89.2929 50.1221 89.2929C50.3826 89.2929 50.6182 89.3297 50.8286 89.4032C51.0391 89.4767 51.2194 89.5936 51.3698 89.7539C51.5234 89.9143 51.6403 90.1247 51.7205 90.3853C51.804 90.6425 51.8458 90.9598 51.8458 91.3373V94.8147H50.5129V91.3273C50.5129 91.0801 50.4762 90.8847 50.4027 90.741C50.3325 90.5974 50.229 90.4955 50.092 90.4354C49.9584 90.3752 49.7931 90.3452 49.596 90.3452C49.3922 90.3452 49.2135 90.3869 49.0598 90.4704C48.9095 90.5506 48.7826 90.6625 48.679 90.8062C48.5788 90.9498 48.502 91.1152 48.4485 91.3022C48.3951 91.4893 48.3683 91.6914 48.3683 91.9085Z" fill="#39B349"/>
<path d="M55.5788 89.3931V90.3452H52.4721V89.3931H55.5788ZM53.3039 88.0603H54.6317V93.2514C54.6317 93.4117 54.6534 93.5353 54.6969 93.6222C54.7403 93.709 54.8054 93.7675 54.8923 93.7976C54.9791 93.8276 55.0827 93.8427 55.2029 93.8427C55.2898 93.8427 55.37 93.8376 55.4435 93.8276C55.517 93.8176 55.5787 93.8076 55.6289 93.7976L55.6339 94.7897C55.5236 94.8264 55.3984 94.8565 55.2581 94.8799C55.1211 94.9033 54.9658 94.9149 54.7921 94.9149C54.4948 94.9149 54.2342 94.8648 54.0104 94.7646C53.7866 94.6611 53.6129 94.4957 53.4893 94.2686C53.3657 94.0381 53.3039 93.7341 53.3039 93.3566V88.0603Z" fill="#39B349"/>
<path d="M58.7806 92.1591V92.0538C58.7806 91.6563 58.8374 91.2905 58.951 90.9565C59.0645 90.6191 59.2299 90.3268 59.447 90.0796C59.6641 89.8324 59.9297 89.6403 60.2437 89.5034C60.5577 89.3631 60.9152 89.2929 61.316 89.2929C61.7235 89.2929 62.0843 89.3631 62.3983 89.5034C62.7157 89.6403 62.9829 89.8324 63.2 90.0796C63.4172 90.3268 63.5825 90.6191 63.6961 90.9565C63.8097 91.2905 63.8665 91.6563 63.8665 92.0538V92.1591C63.8665 92.5532 63.8097 92.919 63.6961 93.2564C63.5825 93.5904 63.4172 93.8827 63.2 94.1333C62.9829 94.3805 62.7173 94.5725 62.4033 94.7095C62.0893 94.8465 61.7302 94.9149 61.326 94.9149C60.9252 94.9149 60.5661 94.8465 60.2487 94.7095C59.9314 94.5725 59.6641 94.3805 59.447 94.1333C59.2299 93.8827 59.0645 93.5904 58.951 93.2564C58.8374 92.919 58.7806 92.5532 58.7806 92.1591ZM60.1034 92.0538V92.1591C60.1034 92.3962 60.1268 92.6184 60.1736 92.8255C60.2203 93.0326 60.2922 93.2146 60.389 93.3716C60.4859 93.5286 60.6112 93.6522 60.7648 93.7424C60.9218 93.8293 61.1089 93.8727 61.326 93.8727C61.5398 93.8727 61.7235 93.8293 61.8772 93.7424C62.0309 93.6522 62.1561 93.5286 62.253 93.3716C62.3532 93.2146 62.4267 93.0326 62.4735 92.8255C62.5203 92.6184 62.5436 92.3962 62.5436 92.1591V92.0538C62.5436 91.82 62.5203 91.6012 62.4735 91.3974C62.4267 91.1903 62.3532 91.0083 62.253 90.8513C62.1561 90.6909 62.0292 90.5657 61.8722 90.4755C61.7185 90.3819 61.5331 90.3352 61.316 90.3352C61.1022 90.3352 60.9185 90.3819 60.7648 90.4755C60.6112 90.5657 60.4859 90.6909 60.389 90.8513C60.2922 91.0083 60.2203 91.1903 60.1736 91.3974C60.1268 91.6012 60.1034 91.82 60.1034 92.0538Z" fill="#39B349"/>
<path d="M66.5622 94.8147H65.2294V88.8921C65.2294 88.4845 65.3079 88.1421 65.4649 87.8649C65.6219 87.5843 65.8457 87.3722 66.1363 87.2285C66.4269 87.0849 66.7693 87.0131 67.1635 87.0131C67.2938 87.0131 67.4174 87.0214 67.5343 87.0381C67.6546 87.0548 67.7731 87.0782 67.8901 87.1083L67.865 88.1154C67.8015 88.0987 67.7314 88.087 67.6545 88.0803C67.5811 88.0737 67.4992 88.0703 67.409 88.0703C67.2286 88.0703 67.075 88.1021 66.948 88.1655C66.8211 88.229 66.7242 88.3225 66.6574 88.4461C66.5939 88.5664 66.5622 88.715 66.5622 88.8921V94.8147ZM67.6596 89.3931V90.3452H64.4126V89.3931H67.6596Z" fill="#39B349"/>
<path d="M73.938 92.154H72.059V91.0717H73.938C74.2453 91.0717 74.4942 91.0216 74.6846 90.9214C74.8783 90.8179 75.0203 90.6776 75.1105 90.5005C75.2007 90.3201 75.2458 90.1147 75.2458 89.8842C75.2458 89.6604 75.2007 89.4516 75.1105 89.2579C75.0203 89.0641 74.8783 88.9071 74.6846 88.7869C74.4942 88.6666 74.2453 88.6065 73.938 88.6065H72.5099V94.8147H71.132V87.5191H73.938C74.5059 87.5191 74.9902 87.621 75.3911 87.8248C75.7953 88.0252 76.1026 88.3042 76.313 88.6616C76.5268 89.0157 76.6337 89.4199 76.6337 89.8742C76.6337 90.3452 76.5268 90.751 76.313 91.0918C76.1026 91.4325 75.7953 91.6947 75.3911 91.8785C74.9902 92.0622 74.5059 92.154 73.938 92.154Z" fill="#39B349"/>
<path d="M80.8427 93.527V89.3931H82.1756V94.8147H80.9229L80.8427 93.527ZM81.0131 92.4046L81.424 92.3946C81.424 92.7587 81.3839 93.0944 81.3037 93.4017C81.2235 93.709 81.0983 93.9763 80.9279 94.2034C80.7609 94.4272 80.5488 94.6026 80.2915 94.7295C80.0343 94.8531 79.7303 94.9149 79.3796 94.9149C79.1124 94.9149 78.8685 94.8782 78.648 94.8047C78.4276 94.7279 78.2372 94.6093 78.0768 94.4489C77.9198 94.2853 77.7979 94.0765 77.711 93.8226C77.6242 93.5654 77.5808 93.2564 77.5808 92.8956V89.3931H78.9036V92.9057C78.9036 93.086 78.9236 93.2364 78.9637 93.3566C79.0071 93.4769 79.0656 93.5754 79.1391 93.6522C79.2159 93.7257 79.3044 93.7792 79.4047 93.8126C79.5082 93.8427 79.6185 93.8577 79.7354 93.8577C80.0561 93.8577 80.3083 93.7942 80.492 93.6673C80.679 93.537 80.8127 93.3633 80.8928 93.1462C80.973 92.9257 81.0131 92.6785 81.0131 92.4046Z" fill="#39B349"/>
<path d="M84.6459 90.5506V94.8147H83.323V89.3931H84.5657L84.6459 90.5506ZM84.4354 91.9085H84.0446C84.0479 91.5143 84.1014 91.1569 84.2049 90.8362C84.3085 90.5155 84.4538 90.24 84.6408 90.0095C84.8313 89.779 85.0567 89.6019 85.3173 89.4783C85.5778 89.3547 85.8685 89.2929 86.1892 89.2929C86.4497 89.2929 86.6852 89.3297 86.8957 89.4032C87.1061 89.4767 87.2865 89.5936 87.4368 89.7539C87.5905 89.9143 87.7074 90.1247 87.7876 90.3853C87.8711 90.6425 87.9128 90.9598 87.9128 91.3373V94.8147H86.58V91.3273C86.58 91.0801 86.5432 90.8847 86.4697 90.741C86.3996 90.5974 86.296 90.4955 86.1591 90.4354C86.0255 90.3752 85.8601 90.3452 85.663 90.3452C85.4593 90.3452 85.2805 90.3869 85.1269 90.4704C84.9766 90.5506 84.8496 90.6625 84.7461 90.8062C84.6459 90.9498 84.569 91.1152 84.5156 91.3022C84.4621 91.4893 84.4354 91.6914 84.4354 91.9085Z" fill="#39B349"/>
<path d="M89.1455 89.3931H90.4783V95.2156C90.4783 95.5997 90.4082 95.9254 90.2679 96.1927C90.1309 96.4599 89.9321 96.662 89.6716 96.799C89.411 96.9359 89.092 97.0044 88.7145 97.0044C88.5976 97.0044 88.4807 96.9977 88.3638 96.9844C88.2469 96.971 88.1316 96.9493 88.0181 96.9192L88.0231 95.897C88.0966 95.9104 88.1717 95.9204 88.2486 95.9271C88.3254 95.9371 88.4022 95.9421 88.479 95.9421C88.6227 95.9421 88.7429 95.9171 88.8398 95.867C88.94 95.8169 89.0152 95.7384 89.0653 95.6315C89.1187 95.5246 89.1455 95.386 89.1455 95.2156V89.3931ZM89.0352 87.9751C89.0352 87.778 89.102 87.6143 89.2357 87.4841C89.3726 87.3538 89.5563 87.2887 89.7868 87.2887C90.0173 87.2887 90.1994 87.3538 90.333 87.4841C90.47 87.6143 90.5384 87.778 90.5384 87.9751C90.5384 88.1689 90.47 88.3309 90.333 88.4612C90.1994 88.5914 90.0173 88.6566 89.7868 88.6566C89.5563 88.6566 89.3726 88.5914 89.2357 88.4612C89.102 88.3309 89.0352 88.1689 89.0352 87.9751Z" fill="#39B349"/>
<path d="M94.6923 93.6623V91.1619C94.6923 90.9782 94.6606 90.8195 94.5971 90.6859C94.5336 90.5523 94.4368 90.4487 94.3065 90.3752C94.1762 90.3018 94.0109 90.265 93.8104 90.265C93.6334 90.265 93.4781 90.2951 93.3444 90.3552C93.2142 90.4153 93.114 90.5005 93.0438 90.6107C92.9737 90.7176 92.9386 90.8412 92.9386 90.9815H91.6107C91.6107 90.7577 91.6642 90.5456 91.7711 90.3452C91.878 90.1414 92.03 89.961 92.2271 89.804C92.4275 89.6437 92.6663 89.5184 92.9436 89.4282C93.2242 89.338 93.5382 89.2929 93.8856 89.2929C94.2965 89.2929 94.6623 89.3631 94.9829 89.5034C95.307 89.6403 95.5608 89.8475 95.7446 90.1247C95.9316 90.402 96.0252 90.751 96.0252 91.1719V93.537C96.0252 93.8076 96.0419 94.0397 96.0753 94.2335C96.112 94.4239 96.1655 94.5892 96.2356 94.7295V94.8147H94.8877C94.8243 94.6778 94.7758 94.5041 94.7424 94.2936C94.709 94.0798 94.6923 93.8694 94.6923 93.6623ZM94.8777 91.5127L94.8877 92.2994H94.0509C93.8438 92.2994 93.6618 92.3211 93.5048 92.3645C93.3478 92.4046 93.2192 92.4647 93.119 92.5449C93.0187 92.6217 92.9436 92.7152 92.8935 92.8255C92.8434 92.9324 92.8183 93.0543 92.8183 93.1913C92.8183 93.3249 92.8484 93.4451 92.9085 93.552C92.972 93.6589 93.0622 93.7441 93.1791 93.8076C93.2993 93.8677 93.4396 93.8978 93.6 93.8978C93.8338 93.8978 94.0376 93.851 94.2113 93.7575C94.385 93.6606 94.5203 93.5437 94.6172 93.4067C94.714 93.2698 94.7658 93.1395 94.7725 93.0159L95.1533 93.5871C95.1065 93.7241 95.0364 93.8694 94.9429 94.023C94.8493 94.1767 94.7291 94.3203 94.5821 94.454C94.4351 94.5876 94.2581 94.6978 94.0509 94.7847C93.8438 94.8715 93.6033 94.9149 93.3294 94.9149C92.9787 94.9149 92.6647 94.8448 92.3874 94.7045C92.1101 94.5642 91.8913 94.3721 91.731 94.1283C91.5707 93.8844 91.4905 93.6072 91.4905 93.2965C91.4905 93.0092 91.5439 92.7553 91.6508 92.5349C91.7577 92.3144 91.9164 92.129 92.1268 91.9787C92.3373 91.825 92.5978 91.7098 92.9085 91.6329C93.2225 91.5528 93.5816 91.5127 93.9858 91.5127H94.8777Z" fill="#39B349"/>
<path d="M97.2127 87.1183H98.5405V93.6172L98.4103 94.8147H97.2127V87.1183ZM102.028 92.0488V92.154C102.028 92.5582 101.983 92.929 101.893 93.2664C101.806 93.6038 101.674 93.8961 101.497 94.1433C101.32 94.3872 101.099 94.5776 100.835 94.7145C100.575 94.8481 100.269 94.9149 99.9185 94.9149C99.5844 94.9149 99.2938 94.8498 99.0466 94.7195C98.8028 94.5892 98.5973 94.4055 98.4303 94.1683C98.2633 93.9278 98.1297 93.6456 98.0294 93.3215C97.9292 92.9942 97.8541 92.6367 97.804 92.2492V91.9636C97.8541 91.5728 97.9292 91.2154 98.0294 90.8913C98.1297 90.5673 98.2633 90.2851 98.4303 90.0445C98.5973 89.804 98.8028 89.6186 99.0466 89.4884C99.2905 89.3581 99.5778 89.2929 99.9085 89.2929C100.263 89.2929 100.572 89.3614 100.835 89.4984C101.103 89.632 101.323 89.8224 101.497 90.0696C101.674 90.3134 101.806 90.6041 101.893 90.9415C101.983 91.2755 102.028 91.6446 102.028 92.0488ZM100.7 92.154V92.0488C100.7 91.8183 100.682 91.6012 100.645 91.3974C100.608 91.1903 100.548 91.0083 100.465 90.8513C100.381 90.6943 100.268 90.5707 100.124 90.4805C99.9803 90.3903 99.7999 90.3452 99.5828 90.3452C99.3757 90.3452 99.1986 90.3803 99.0516 90.4504C98.908 90.5206 98.7877 90.6174 98.6909 90.741C98.5973 90.8646 98.5238 91.0099 98.4704 91.177C98.4203 91.344 98.3869 91.5244 98.3702 91.7181V92.4998C98.3936 92.757 98.4487 92.9892 98.5355 93.1963C98.6224 93.4 98.751 93.5621 98.9214 93.6823C99.0951 93.8026 99.3189 93.8627 99.5928 93.8627C99.8066 93.8627 99.9853 93.8209 100.129 93.7374C100.273 93.6506 100.386 93.5303 100.47 93.3767C100.553 93.2197 100.612 93.0376 100.645 92.8305C100.682 92.6234 100.7 92.3979 100.7 92.154Z" fill="#39B349"/>
</svg>
