<svg width="105" height="31" viewBox="0 0 105 31" fill="none" xmlns="http://www.w3.org/2000/svg">
<path d="M43.24 10.5336C44.1875 10.5336 44.9981 10.6935 45.6716 11.0131C46.3452 11.3328 46.8589 11.7894 47.2128 12.383C47.5781 12.9767 47.7608 13.6959 47.7608 14.5407C47.7608 15.0316 47.6808 15.5225 47.521 16.0134C47.3726 16.5042 47.1329 16.9495 46.8018 17.349C46.4822 17.7486 46.0483 18.074 45.5004 18.3251C44.9638 18.5648 44.3017 18.6847 43.514 18.6847H41.7159V23H39.7124V10.5336H43.24ZM43.514 16.7497C43.9478 16.7497 44.3131 16.6755 44.6099 16.5271C44.9067 16.3787 45.1351 16.1903 45.2949 15.962C45.4661 15.7337 45.586 15.4996 45.6545 15.2599C45.7344 15.0087 45.7744 14.7861 45.7744 14.592C45.7744 14.3866 45.7401 14.1639 45.6716 13.9242C45.6031 13.6731 45.489 13.439 45.3291 13.2221C45.1693 12.9938 44.9467 12.8111 44.6613 12.6741C44.3759 12.5257 44.0106 12.4515 43.5653 12.4515H41.7159V16.7497H43.514ZM53.9435 10.5336C54.6285 10.5336 55.2563 10.625 55.8271 10.8076C56.398 10.9789 56.8831 11.2357 57.2827 11.5782C57.6823 11.9207 57.9905 12.3431 58.2074 12.8454C58.4357 13.3363 58.5499 13.9014 58.5499 14.5407C58.5499 15.0316 58.4757 15.5225 58.3273 16.0134C58.1789 16.5042 57.9334 16.9495 57.5909 17.349C57.2599 17.7486 56.8203 18.0682 56.2724 18.308C55.7244 18.5477 55.0451 18.6676 54.2346 18.6676H52.4366V23H50.433V10.5336H53.9435ZM54.2175 16.7497C54.6627 16.7497 55.0337 16.6812 55.3305 16.5442C55.6274 16.3958 55.8557 16.2131 56.0155 15.9962C56.1868 15.7793 56.3066 15.551 56.3751 15.3113C56.455 15.0601 56.495 14.8261 56.495 14.6092C56.495 14.4037 56.4607 14.1811 56.3922 13.9413C56.3237 13.6902 56.2096 13.4561 56.0498 13.2392C55.8899 13.0109 55.6616 12.8226 55.3648 12.6741C55.0794 12.5257 54.7198 12.4515 54.286 12.4515H52.4366V16.7497H54.2175ZM56.3751 17.9313L59.5602 23H57.2484L53.9949 17.9826L56.3751 17.9313ZM62.157 23V10.0884H62.1742L68.8868 19.5923L68.0306 19.4039L74.709 10.0884H74.7433V23H72.7569V14.592L72.8939 15.6195L68.3902 21.9897H68.356L63.7496 15.6195L64.0921 14.6777V23H62.157ZM84.9543 13.068C84.5091 12.8397 84.0353 12.6456 83.533 12.4858C83.0307 12.3145 82.5512 12.2289 82.0946 12.2289C81.4781 12.2289 80.9872 12.3659 80.6219 12.6399C80.268 12.9139 80.0911 13.2906 80.0911 13.7701C80.0911 14.1126 80.2166 14.4151 80.4678 14.6777C80.719 14.9288 81.0386 15.1514 81.4268 15.3455C81.8149 15.5282 82.2259 15.7051 82.6597 15.8764C83.0364 16.0134 83.4074 16.1789 83.7728 16.373C84.1495 16.5556 84.4863 16.7839 84.7831 17.0579C85.0799 17.3319 85.3139 17.6744 85.4852 18.0854C85.6678 18.4849 85.7592 18.9815 85.7592 19.5752C85.7592 20.2259 85.5936 20.8252 85.2626 21.3732C84.9315 21.9098 84.4577 22.3379 83.8413 22.6575C83.2248 22.9772 82.4713 23.137 81.5809 23.137C81.0671 23.137 80.5591 23.0799 80.0568 22.9658C79.5659 22.8516 79.0979 22.6975 78.6526 22.5034C78.2074 22.2979 77.7964 22.0696 77.4197 21.8184L78.3102 20.2601C78.5841 20.4656 78.8981 20.654 79.252 20.8252C79.6059 20.9965 79.9712 21.1335 80.3479 21.2362C80.7247 21.3275 81.0786 21.3732 81.4096 21.3732C81.7635 21.3732 82.1117 21.3161 82.4542 21.202C82.8081 21.0878 83.0992 20.8994 83.3275 20.6369C83.5673 20.3743 83.6871 20.0261 83.6871 19.5923C83.6871 19.2384 83.5844 18.9359 83.3789 18.6847C83.1734 18.4336 82.9051 18.2167 82.5741 18.034C82.2544 17.8399 81.9005 17.6687 81.5124 17.5203C81.1242 17.3719 80.7247 17.2063 80.3137 17.0237C79.9141 16.841 79.5431 16.6184 79.2006 16.3558C78.8581 16.0818 78.5784 15.7508 78.3615 15.3626C78.1446 14.9745 78.0362 14.495 78.0362 13.9242C78.0362 13.2392 78.196 12.6456 78.5157 12.1433C78.8353 11.641 79.2748 11.2414 79.8342 10.9446C80.405 10.6478 81.0614 10.488 81.8035 10.4651C82.6825 10.4651 83.4303 10.5736 84.0467 10.7905C84.6746 10.996 85.2283 11.2471 85.7078 11.5439L84.9543 13.068ZM97.8789 22.0239C97.7076 22.1495 97.4394 22.3036 97.074 22.4863C96.7087 22.6689 96.2749 22.8288 95.7726 22.9658C95.2817 23.0913 94.7337 23.1484 94.1287 23.137C93.1583 23.1256 92.285 22.9543 91.5087 22.6233C90.7324 22.2808 90.076 21.8241 89.5394 21.2533C89.0029 20.6711 88.5862 20.009 88.2894 19.2669C88.004 18.5135 87.8613 17.7143 87.8613 16.8696C87.8613 15.922 88.0097 15.0544 88.3065 14.2667C88.6033 13.479 89.0257 12.7997 89.5737 12.2289C90.1216 11.6467 90.7724 11.1958 91.5258 10.8761C92.2793 10.5565 93.1012 10.3966 93.9917 10.3966C94.7794 10.3966 95.4815 10.5051 96.098 10.722C96.7259 10.9275 97.251 11.1615 97.6734 11.4241L96.8857 13.3077C96.566 13.0794 96.1665 12.8568 95.687 12.6399C95.2075 12.423 94.6653 12.3145 94.0602 12.3145C93.5122 12.3145 92.9871 12.4287 92.4848 12.657C91.9825 12.8739 91.543 13.1879 91.1662 13.5988C90.7895 13.9984 90.487 14.4665 90.2586 15.003C90.0417 15.5396 89.9333 16.1218 89.9333 16.7497C89.9333 17.4004 90.0303 17.9998 90.2244 18.5477C90.4299 19.0843 90.7153 19.5523 91.0806 19.9519C91.4573 20.3515 91.9026 20.6654 92.4163 20.8937C92.9414 21.1106 93.5236 21.2191 94.1629 21.2191C94.8137 21.2191 95.3788 21.1221 95.8582 20.928C96.3491 20.7225 96.743 20.4942 97.0398 20.243L97.8789 22.0239Z" fill="black"/>
<path d="M33.8767 21.3967C33.696 21.6797 33.5225 21.9653 33.3389 22.245C32.7306 23.1722 32.0687 24.0592 31.3241 24.8837C30.3898 25.9167 29.3549 26.8309 28.1354 27.5169C27.4172 27.921 26.6588 28.2228 25.8347 28.3345C25.3417 28.4017 24.8613 28.3851 24.3766 28.2196C22.7706 27.6709 21.1668 27.1099 19.5414 26.6234C18.1129 26.1958 16.6642 25.8282 15.2093 25.4989C14.0429 25.2361 12.8566 25.0554 11.6735 24.8757C11.0808 24.7857 10.4746 24.7865 9.87566 24.7337C9.30549 24.6858 8.73153 24.711 8.16778 24.8089C7.67656 24.892 7.23558 25.0912 6.89183 25.4664C6.81557 25.5495 6.76062 25.5198 6.6952 25.4598C6.40748 25.1948 6.11928 24.9304 5.8306 24.6668C4.73249 23.6641 3.63523 22.6614 2.53881 21.6588C2.0506 21.212 1.5636 20.7636 1.0778 20.3134C0.918398 20.1649 0.925266 20.1327 1.11395 20.0094C1.66589 19.652 2.27061 19.4593 2.92448 19.3906C3.79812 19.2985 4.65225 19.4159 5.50456 19.592C7.45209 19.9939 9.26371 20.7801 11.088 21.5398C12.2548 22.0264 13.4129 22.5371 14.5963 22.9792C16.0302 23.513 17.5078 23.9208 19.0126 24.198C20.0293 24.3867 21.0512 24.5645 22.0781 24.6813C23.3699 24.8284 24.6715 24.9061 25.9684 24.7283C26.9805 24.5891 27.9492 24.2732 28.9006 23.9041C30.5633 23.2593 32.1262 22.424 33.6432 21.495C33.709 21.4549 33.7719 21.409 33.8363 21.3656L33.8767 21.3967Z" fill="#6AD0E5"/>
<path d="M0 18.8928C0.542185 17.5915 1.48703 16.7696 2.82876 16.3796C3.82855 16.0904 4.84461 15.8981 5.88126 15.8457C6.84852 15.7973 7.81867 15.7734 8.78702 15.7843C9.44776 15.7908 10.1074 15.8735 10.7674 15.9209C10.8846 15.9292 10.9431 15.9892 10.9843 16.1016C11.679 17.9646 12.9304 19.2788 14.8252 19.9331C16.832 20.6234 18.8373 20.5837 20.8188 19.8246C21.5291 19.5528 22.1486 19.1267 22.6843 18.5809C22.7615 18.5127 22.8618 18.4765 22.9648 18.4796C23.9136 18.5346 24.861 18.6416 25.8098 18.655C27.131 18.6734 28.4264 18.4724 29.6662 17.9863C30.6352 17.6116 31.5277 17.0632 32.2998 16.368C32.7896 15.9249 33.2363 15.4337 33.7011 14.963C33.7187 14.938 33.7323 14.9105 33.7416 14.8813L33.8024 14.9276C33.7116 15.0935 33.6346 15.2688 33.528 15.4235C32.979 16.2216 32.4436 17.0306 31.8624 17.8044C31.2393 18.6333 30.512 19.3732 29.7428 20.0697C29.0263 20.7239 28.2454 21.3039 27.4122 21.8011C25.9981 22.6375 24.4865 23.1746 22.8379 23.3062C21.1893 23.4378 19.6036 23.1667 18.0877 22.5305C16.9498 22.0534 15.8448 21.4982 14.7098 21.0142C13.1039 20.3274 11.4929 19.6511 9.86633 19.0207C8.56942 18.5183 7.23853 18.1066 5.87114 17.8301C5.06112 17.666 4.24459 17.5409 3.41685 17.5619C2.24103 17.5897 1.15775 17.8923 0.247598 18.6795L0 18.8928Z" fill="#39B349"/>
<path d="M25.1214 28.8656C24.7321 29.0615 24.3476 29.2682 23.9525 29.4518C22.7799 29.9966 21.5596 30.4097 20.2906 30.654C19.5577 30.7916 18.8181 30.8908 18.0748 30.9512C17.4689 31.0003 16.8605 31.0123 16.2531 30.9873C15.0785 30.9477 13.9139 30.7575 12.7878 30.4213C12.3573 30.2919 11.9163 30.1682 11.518 29.9655C10.725 29.5632 10.0527 29.0058 9.67675 28.1745C9.55494 27.9048 9.48771 27.6041 9.43529 27.3102C9.38144 27.0077 9.48807 26.8681 9.78446 26.7369C10.2699 26.5226 10.7875 26.4431 11.3073 26.3711C12.9537 26.1434 14.4953 26.5085 15.9961 27.1642C17.1484 27.6673 18.296 28.1886 19.5163 28.516C20.4002 28.751 21.306 28.8942 22.2193 28.9433C23.1851 28.9982 24.1404 28.9071 25.0972 28.8092L25.1214 28.8656Z" fill="#A5D9D6"/>
<path d="M19.6296 7.79492C19.8551 7.92866 20.0911 8.04794 20.3044 8.19867C21.6114 9.12111 22.5382 10.3399 23.1086 11.8328C23.4082 12.6175 23.5727 13.4289 23.5535 14.2697C23.5311 15.2543 23.3175 16.197 22.7945 17.0421C22.2378 17.9428 21.4358 18.5649 20.4551 18.9495C19.6164 19.2754 18.7254 19.4461 17.8255 19.453C16.6002 19.4693 15.4114 19.278 14.3172 18.6892C13.3008 18.1416 12.5486 17.3294 12.0162 16.3105C11.5047 15.3324 11.2749 14.2831 11.2167 13.186C11.14 11.7475 11.448 10.3877 12.0151 9.07629C12.0351 9.02733 12.0728 8.9877 12.1207 8.96532C12.1011 9.11496 12.0845 9.26497 12.0614 9.41389C11.7487 11.4482 12.1857 13.3176 13.3988 14.968C14.3122 16.2111 15.5462 17.0254 17.1062 17.2293C18.2596 17.3804 19.3606 17.2073 20.2871 16.4341C21.0852 15.7676 21.5294 14.89 21.6711 13.8703C21.8489 12.5878 21.5442 11.3835 21.0147 10.2232C20.6557 9.4363 20.2003 8.70796 19.6928 8.01035C19.6545 7.95794 19.6241 7.90191 19.5902 7.8448L19.6296 7.79492Z" fill="url(#paint0_linear_3645_138)"/>
<path d="M16.1441 2.57112C16.1636 2.7298 16.1752 2.89028 16.2041 3.04716C16.3584 3.89679 16.6711 4.70985 17.1258 5.44398C17.8791 6.65582 18.6473 7.85839 19.4305 9.05168C20.1743 10.1863 20.654 11.4105 20.7679 12.7675C20.8474 13.7141 20.6703 14.6058 20.1248 15.3989C19.7995 15.8716 19.3419 16.1825 18.7939 16.3412C17.4808 16.7211 16.2818 16.4666 15.1906 15.6584C15.1331 15.6157 15.0742 15.5752 15.016 15.5337L15.0521 15.4665C15.1224 15.4703 15.1924 15.478 15.2618 15.4896C15.7855 15.602 16.3068 15.7336 16.8497 15.7014C17.4432 15.6653 17.925 15.4169 18.2232 14.8975C18.3478 14.6721 18.4245 14.4234 18.4488 14.167C18.5474 13.1531 18.1791 12.26 17.6586 11.4228C17.0835 10.4971 16.486 9.58555 15.899 8.66709C15.4132 7.90803 15.0518 7.10162 14.9665 6.19002C14.9065 5.54844 15.007 4.92926 15.2054 4.32238C15.3922 3.75539 15.651 3.2147 15.9753 2.71353C16.0114 2.65967 16.0512 2.60979 16.0892 2.55811L16.1441 2.57112Z" fill="url(#paint1_linear_3645_138)"/>
<path d="M14.1977 5.85882C14.2008 5.89792 14.2008 5.9372 14.1977 5.9763C14.0459 6.86801 14.2657 7.70045 14.6915 8.46348C15.2098 9.39242 15.7917 10.2863 16.3542 11.1892C16.8121 11.9223 17.2455 12.6647 17.3919 13.5336C17.5004 14.1806 17.0348 14.8132 16.3871 14.9166C15.5348 15.0532 14.8328 14.7742 14.2628 14.1452C13.3928 13.1834 12.9301 12.0347 12.7808 10.7595C12.5842 9.07796 13.0187 7.55008 13.9577 6.15486C14.0264 6.0522 14.0925 5.9481 14.1601 5.84473L14.1977 5.85882Z" fill="url(#paint2_linear_3645_138)"/>
<path d="M16.5492 0C16.6327 0.266755 16.7076 0.536763 16.8023 0.800265C17.296 2.19983 17.9137 3.53577 18.9316 4.64364C19.5099 5.27221 20.1208 5.87259 20.7223 6.47839C21.3479 7.10949 21.8861 7.79554 22.1319 8.66954C22.1478 8.72484 22.1619 8.78087 22.1919 8.89509C22.0788 8.8228 22.0072 8.78304 21.9454 8.73316C21.2948 8.20579 20.6391 7.68782 20.0037 7.14275C19.5211 6.72852 19.0379 6.30634 18.6041 5.84403C17.4695 4.63677 16.7918 3.2054 16.6136 1.54957C16.5626 1.0775 16.5413 0.602187 16.5098 0.127956C16.5093 0.0870125 16.5115 0.046079 16.5163 0.00542187L16.5492 0Z" fill="url(#paint3_linear_3645_138)"/>
<defs>
<linearGradient id="paint0_linear_3645_138" x1="12.2013" y1="4.89568" x2="19.0118" y2="16.4128" gradientUnits="userSpaceOnUse">
<stop stop-color="#284394"/>
<stop offset="1" stop-color="#1C76B7"/>
</linearGradient>
<linearGradient id="paint1_linear_3645_138" x1="12.8827" y1="4.49081" x2="19.6936" y2="16.0083" gradientUnits="userSpaceOnUse">
<stop stop-color="#284394"/>
<stop offset="1" stop-color="#1C76B7"/>
</linearGradient>
<linearGradient id="paint2_linear_3645_138" x1="11.4174" y1="5.35893" x2="18.2283" y2="16.8764" gradientUnits="userSpaceOnUse">
<stop stop-color="#284394"/>
<stop offset="1" stop-color="#1C76B7"/>
</linearGradient>
<linearGradient id="paint3_linear_3645_138" x1="17.1897" y1="1.94428" x2="24.0007" y2="13.4617" gradientUnits="userSpaceOnUse">
<stop stop-color="#284394"/>
<stop offset="1" stop-color="#1C76B7"/>
</linearGradient>
</defs>
</svg>
