<svg width="122" height="139" viewBox="0 0 122 139" fill="none" xmlns="http://www.w3.org/2000/svg">
<path d="M114.566 70.3429C113.972 71.2734 113.402 72.2121 112.798 73.1318C110.798 76.1797 108.623 79.0957 106.175 81.8062C103.103 85.2023 99.7011 88.2074 95.6919 90.4627C93.3308 91.7912 90.8378 92.7834 88.1285 93.1506C86.5077 93.3716 84.9285 93.317 83.335 92.7727C78.0555 90.9689 72.7832 89.1247 67.4395 87.5253C62.7435 86.1196 57.9809 84.9111 53.1981 83.8286C49.3636 82.9648 45.4636 82.3706 41.5744 81.78C39.6257 81.4842 37.6329 81.4865 35.664 81.3131C33.7896 81.1555 31.9027 81.2386 30.0494 81.5602C28.4345 81.8335 26.9848 82.4883 25.8548 83.7217C25.6041 83.995 25.4235 83.8975 25.2084 83.7003C24.2625 82.8289 23.3151 81.9599 22.366 81.0932C18.7561 77.797 15.1489 74.5007 11.5444 71.2044C9.93949 69.7357 8.33849 68.2615 6.74146 66.7817C6.21743 66.2933 6.24001 66.1876 6.86028 65.7823C8.67477 64.6071 10.6628 63.9738 12.8123 63.748C15.6844 63.445 18.4923 63.8312 21.2942 64.4099C27.6966 65.7313 33.6522 68.3157 39.6494 70.8135C43.4852 72.4129 47.2924 74.0919 51.1828 75.5452C55.8966 77.3002 60.7544 78.6409 65.7011 79.552C69.0437 80.1723 72.4029 80.7569 75.7788 81.1408C80.0257 81.6244 84.3047 81.8799 88.5682 81.2952C91.8953 80.8377 95.0799 79.7992 98.2074 78.586C103.673 76.4661 108.812 73.72 113.799 70.6661C114.015 70.5342 114.222 70.3833 114.433 70.2407L114.566 70.3429Z" fill="#6AD0E5"/>
<path d="M3.2002 62.1083C4.9826 57.8306 8.08874 55.1284 12.4996 53.8463C15.7864 52.8957 19.1266 52.2635 22.5346 52.0912C25.7144 51.932 28.9037 51.8535 32.0871 51.8892C34.2592 51.9106 36.4278 52.1827 38.5976 52.3384C38.9826 52.3657 39.1751 52.5629 39.3106 52.9325C41.5944 59.0568 45.7082 63.3774 51.9371 65.5282C58.5344 67.7978 65.1269 67.6671 71.6411 65.1717C73.976 64.2781 76.0127 62.8771 77.7737 61.0828C78.0276 60.8588 78.3573 60.7398 78.6958 60.7501C81.815 60.9308 84.9295 61.2825 88.0487 61.3264C92.3918 61.387 96.6506 60.7264 100.726 59.1281C103.912 57.8964 106.846 56.0936 109.384 53.8083C110.994 52.3514 112.463 50.7366 113.991 49.1894C114.049 49.1072 114.094 49.0166 114.124 48.9209L114.324 49.073C114.025 49.6184 113.772 50.1947 113.422 50.7033C111.617 53.327 109.857 55.9864 107.946 58.5304C105.898 61.2552 103.507 63.6875 100.978 65.9773C98.6226 68.1279 96.0555 70.0349 93.3163 71.6692C88.6678 74.4188 83.6984 76.1846 78.2787 76.6171C72.859 77.0496 67.6461 76.1584 62.6625 74.0671C58.9218 72.4986 55.2893 70.6734 51.5581 69.0823C46.2786 66.8246 40.9825 64.6013 35.6352 62.529C31.3717 60.8773 26.9965 59.5238 22.5013 58.6148C19.8384 58.0753 17.1541 57.6642 14.4329 57.7331C10.5675 57.8246 7.00623 58.8192 4.01416 61.4072L3.2002 62.1083Z" fill="#39B349"/>
<path d="M85.7854 94.895C84.5056 95.539 83.2413 96.2187 81.9425 96.8224C78.0877 98.6131 74.0761 99.9713 69.9041 100.775C67.4947 101.227 65.0634 101.553 62.62 101.751C60.628 101.913 58.628 101.952 56.6311 101.87C52.7698 101.74 48.9412 101.115 45.2392 100.009C43.8239 99.5839 42.3742 99.1775 41.0648 98.5109C38.4577 97.1884 36.2475 95.356 35.0117 92.623C34.6113 91.7366 34.3902 90.7479 34.2179 89.7819C34.0409 88.7873 34.3914 88.3286 35.3658 87.8973C36.9617 87.1926 38.6633 86.9312 40.372 86.6947C45.7846 85.9461 50.8526 87.1463 55.7863 89.3018C59.5745 90.9559 63.3472 92.6694 67.3588 93.7459C70.2646 94.5185 73.2423 94.9891 76.2447 95.1505C79.4198 95.3311 82.5604 95.0316 85.7057 94.7096L85.7854 94.895Z" fill="#A5D9D6"/>
<path d="M67.7312 25.6245C68.4727 26.0642 69.2486 26.4563 69.9497 26.9518C74.2465 29.9843 77.2932 33.9911 79.1683 38.8987C80.1534 41.4784 80.6941 44.1461 80.6311 46.91C80.5574 50.1469 79.8551 53.2459 78.1357 56.0241C76.3058 58.9852 73.669 61.0302 70.4452 62.2946C67.6879 63.3661 64.7587 63.927 61.8005 63.9498C57.7723 64.0033 53.8641 63.3747 50.2672 61.439C46.9258 59.6388 44.453 56.9687 42.7027 53.619C41.0212 50.4035 40.2655 46.954 40.0742 43.3476C39.8223 38.6183 40.8347 34.148 42.6991 29.8369C42.7647 29.676 42.8886 29.5457 43.0461 29.4721C42.9819 29.9641 42.9272 30.4572 42.8512 30.9468C41.8233 37.6344 43.26 43.7801 47.2478 49.2058C50.2506 53.2922 54.3073 55.9694 59.4359 56.6396C63.2277 57.1363 66.8471 56.5671 69.8927 54.0254C72.5164 51.8342 73.9768 48.9491 74.4426 45.597C75.0272 41.381 74.0255 37.4217 72.2847 33.6073C71.1047 31.0205 69.6075 28.6261 67.9392 26.3327C67.8132 26.1604 67.7134 25.9762 67.6017 25.7885L67.7312 25.6245Z" fill="url(#paint0_linear_3619_17)"/>
<path d="M56.2748 8.4544C56.339 8.97605 56.377 9.50364 56.4721 10.0194C56.9794 12.8125 58.0073 15.4854 59.5021 17.8988C61.9785 21.8827 64.504 25.836 67.0786 29.7589C69.524 33.4889 71.1009 37.5136 71.4752 41.9743C71.7366 45.0864 71.1543 48.0179 69.3612 50.625C68.2918 52.1792 66.7874 53.2011 64.986 53.7228C60.669 54.9717 56.7275 54.1351 53.1401 51.4781C52.9512 51.3379 52.7575 51.2048 52.5662 51.0682L52.685 50.8472C52.916 50.8598 53.1461 50.8852 53.3742 50.9232C55.096 51.2928 56.8095 51.7253 58.5943 51.6195C60.5455 51.5007 62.1294 50.6844 63.1097 48.9768C63.5192 48.2358 63.7716 47.4183 63.8512 46.5753C64.1756 43.2422 62.9648 40.306 61.2537 37.554C59.3631 34.5108 57.3989 31.514 55.4692 28.4946C53.8721 25.9992 52.6838 23.3482 52.4034 20.3514C52.2062 18.2422 52.5365 16.2067 53.1889 14.2116C53.803 12.3476 54.6536 10.5701 55.7199 8.92258C55.8387 8.74553 55.9694 8.58154 56.0942 8.41162L56.2748 8.4544Z" fill="url(#paint1_linear_3619_17)"/>
<path d="M49.8712 19.26C49.8813 19.3885 49.8813 19.5176 49.8712 19.6462C49.3722 22.5776 50.0946 25.3142 51.4944 27.8226C53.1984 30.8765 55.1115 33.8151 56.9605 36.7834C58.466 39.1932 59.8907 41.6339 60.372 44.4905C60.7285 46.6175 59.198 48.697 57.0686 49.0369C54.2666 49.486 51.959 48.5687 50.0851 46.5011C47.225 43.3391 45.704 39.5628 45.2132 35.3705C44.5668 29.8427 45.9951 24.8199 49.0822 20.2332C49.308 19.8957 49.5254 19.5535 49.7477 19.2136L49.8712 19.26Z" fill="url(#paint2_linear_3619_17)"/>
<path d="M57.6063 0.000244141C57.8808 0.877188 58.1268 1.76483 58.4381 2.63108C60.0613 7.23206 62.0921 11.6239 65.4382 15.266C67.3395 17.3324 69.3476 19.3061 71.3249 21.2976C73.3818 23.3724 75.1512 25.6277 75.9592 28.5009C76.0115 28.6827 76.0578 28.8669 76.1564 29.2424C75.7845 29.0048 75.5492 28.8741 75.346 28.7101C73.2071 26.9764 71.0516 25.2736 68.9626 23.4817C67.3763 22.1199 65.7876 20.732 64.3617 19.2122C60.6317 15.2434 58.4037 10.5378 57.8179 5.09436C57.6503 3.54248 57.5802 1.9799 57.4768 0.420892C57.4751 0.286293 57.4822 0.151727 57.4982 0.0180683L57.6063 0.000244141Z" fill="url(#paint3_linear_3619_17)"/>
<path d="M29.9236 109.785C31.0801 109.785 32.0694 109.98 32.8914 110.37C33.7135 110.76 34.3405 111.317 34.7724 112.042C35.2183 112.767 35.4412 113.644 35.4412 114.675C35.4412 115.275 35.3437 115.874 35.1486 116.473C34.9675 117.072 34.6749 117.615 34.2708 118.103C33.8807 118.591 33.3512 118.988 32.6824 119.294C32.0276 119.587 31.2194 119.733 30.258 119.733H28.0635V125H25.6182V109.785H29.9236ZM30.258 117.371C30.7875 117.371 31.2334 117.281 31.5956 117.1C31.9579 116.919 32.2366 116.689 32.4316 116.41C32.6406 116.131 32.7869 115.846 32.8705 115.553C32.9681 115.247 33.0168 114.975 33.0168 114.738C33.0168 114.487 32.975 114.216 32.8914 113.923C32.8078 113.616 32.6685 113.331 32.4734 113.066C32.2784 112.787 32.0067 112.564 31.6583 112.397C31.31 112.216 30.8641 112.126 30.3207 112.126H28.0635V117.371H30.258ZM42.9136 109.785C43.7496 109.785 44.5159 109.896 45.2126 110.119C45.9093 110.328 46.5014 110.642 46.9891 111.06C47.4768 111.478 47.853 111.993 48.1177 112.606C48.3964 113.205 48.5357 113.895 48.5357 114.675C48.5357 115.275 48.4451 115.874 48.264 116.473C48.0829 117.072 47.7833 117.615 47.3653 118.103C46.9612 118.591 46.4248 118.981 45.756 119.273C45.0872 119.566 44.2582 119.712 43.2689 119.712H41.0744V125H38.6291V109.785H42.9136ZM43.248 117.371C43.7914 117.371 44.2442 117.288 44.6065 117.121C44.9688 116.94 45.2474 116.717 45.4425 116.452C45.6515 116.187 45.7978 115.908 45.8814 115.616C45.9789 115.309 46.0277 115.024 46.0277 114.759C46.0277 114.508 45.9859 114.236 45.9023 113.944C45.8187 113.637 45.6794 113.352 45.4843 113.087C45.2892 112.808 45.0106 112.578 44.6483 112.397C44.3 112.216 43.8611 112.126 43.3316 112.126H41.0744V117.371H43.248ZM45.8814 118.814L49.7688 125H46.9473L42.9763 118.876L45.8814 118.814ZM52.8646 125V109.241H52.8855L61.0783 120.841L60.0333 120.611L68.1843 109.241H68.2261V125H65.8017V114.738L65.9689 115.992L60.4722 123.767H60.4304L54.8083 115.992L55.2263 114.843V125H52.8646ZM80.615 112.878C80.0716 112.599 79.4934 112.362 78.8803 112.167C78.2672 111.958 77.682 111.854 77.1247 111.854C76.3723 111.854 75.7732 112.021 75.3273 112.355C74.8954 112.69 74.6794 113.15 74.6794 113.735C74.6794 114.153 74.8327 114.522 75.1392 114.843C75.4457 115.149 75.8359 115.421 76.3096 115.658C76.7833 115.881 77.2849 116.097 77.8144 116.306C78.2742 116.473 78.727 116.675 79.1729 116.912C79.6327 117.135 80.0437 117.413 80.406 117.748C80.7683 118.082 81.0539 118.5 81.2629 119.002C81.4858 119.489 81.5973 120.095 81.5973 120.82C81.5973 121.614 81.3953 122.346 80.9912 123.014C80.5871 123.669 80.0089 124.192 79.2565 124.582C78.5041 124.972 77.5845 125.167 76.4977 125.167C75.8707 125.167 75.2507 125.098 74.6376 124.958C74.0385 124.819 73.4672 124.631 72.9238 124.394C72.3804 124.143 71.8788 123.864 71.419 123.558L72.5058 121.656C72.8402 121.907 73.2234 122.137 73.6553 122.346C74.0872 122.555 74.5331 122.722 74.9929 122.847C75.4527 122.959 75.8846 123.014 76.2887 123.014C76.7206 123.014 77.1456 122.945 77.5636 122.805C77.9955 122.666 78.3508 122.436 78.6295 122.116C78.9221 121.795 79.0684 121.37 79.0684 120.841C79.0684 120.409 78.943 120.04 78.6922 119.733C78.4414 119.427 78.114 119.162 77.7099 118.939C77.3198 118.702 76.8878 118.493 76.4141 118.312C75.9404 118.131 75.4527 117.929 74.9511 117.706C74.4634 117.483 74.0106 117.211 73.5926 116.891C73.1746 116.556 72.8332 116.152 72.5685 115.679C72.3038 115.205 72.1714 114.62 72.1714 113.923C72.1714 113.087 72.3665 112.362 72.7566 111.749C73.1467 111.136 73.6832 110.649 74.3659 110.286C75.0626 109.924 75.8637 109.729 76.7694 109.701C77.8423 109.701 78.7549 109.834 79.5073 110.098C80.2736 110.349 80.9494 110.656 81.5346 111.018L80.615 112.878ZM96.3157 123.809C96.1067 123.962 95.7793 124.15 95.3334 124.373C94.8876 124.596 94.3581 124.791 93.745 124.958C93.1459 125.111 92.4771 125.181 91.7386 125.167C90.5543 125.153 89.4884 124.944 88.5409 124.54C87.5935 124.122 86.7923 123.565 86.1374 122.868C85.4826 122.158 84.974 121.349 84.6117 120.444C84.2634 119.524 84.0892 118.549 84.0892 117.518C84.0892 116.361 84.2704 115.302 84.6326 114.341C84.9949 113.38 85.5104 112.551 86.1792 111.854C86.848 111.143 87.6422 110.593 88.5618 110.203C89.4814 109.813 90.4846 109.618 91.5714 109.618C92.5328 109.618 93.3897 109.75 94.1421 110.015C94.9085 110.265 95.5494 110.551 96.0649 110.872L95.1035 113.171C94.7134 112.892 94.2257 112.62 93.6405 112.355C93.0553 112.091 92.3935 111.958 91.655 111.958C90.9862 111.958 90.3453 112.098 89.7322 112.376C89.1192 112.641 88.5827 113.024 88.1229 113.526C87.6631 114.014 87.2939 114.585 87.0152 115.24C86.7505 115.895 86.6181 116.605 86.6181 117.371C86.6181 118.166 86.7366 118.897 86.9734 119.566C87.2242 120.221 87.5726 120.792 88.0184 121.28C88.4782 121.767 89.0216 122.151 89.6486 122.429C90.2896 122.694 91.0002 122.826 91.7804 122.826C92.5746 122.826 93.2643 122.708 93.8495 122.471C94.4487 122.22 94.9294 121.942 95.2916 121.635L96.3157 123.809Z" fill="white"/>
<path d="M3.48059 129.285C3.8472 129.285 4.1595 129.348 4.41749 129.475C4.68001 129.597 4.87916 129.774 5.01494 130.005C5.15525 130.235 5.2254 130.516 5.2254 130.846C5.2254 131.041 5.19598 131.233 5.13714 131.424C5.0783 131.614 4.98326 131.788 4.852 131.946C4.72527 132.1 4.55554 132.225 4.34281 132.32C4.13008 132.41 3.8721 132.455 3.56885 132.455H2.8492V134.214H2.12275V129.285H3.48059ZM3.56885 131.756C3.74989 131.756 3.90152 131.727 4.02372 131.668C4.14593 131.605 4.24097 131.525 4.30887 131.43C4.38128 131.335 4.43107 131.238 4.45823 131.138C4.48991 131.034 4.50575 130.941 4.50575 130.86C4.50575 130.769 4.48991 130.674 4.45823 130.575C4.43107 130.471 4.38355 130.376 4.31566 130.29C4.24776 130.199 4.15498 130.127 4.0373 130.072C3.91962 130.014 3.77252 129.984 3.596 129.984H2.8492V131.756H3.56885ZM6.63934 134.329C6.37682 134.329 6.16183 134.25 5.99437 134.092C5.8269 133.933 5.73864 133.73 5.72959 133.481V131.369H6.42887V133.229C6.43792 133.374 6.47866 133.494 6.55108 133.589C6.62802 133.68 6.75023 133.727 6.91769 133.732C7.07158 133.732 7.20736 133.687 7.32504 133.596C7.44725 133.501 7.5423 133.374 7.61019 133.216C7.6826 133.053 7.71881 132.867 7.71881 132.659V131.369H8.4181V134.214H7.78671L7.73239 133.555L7.75955 133.664C7.70071 133.791 7.61698 133.906 7.50835 134.01C7.39972 134.11 7.27073 134.187 7.12137 134.241C6.97201 134.3 6.81133 134.329 6.63934 134.329ZM9.78567 131.369L9.84678 132.021L9.81962 131.933C9.91467 131.729 10.0618 131.566 10.2609 131.444C10.4601 131.317 10.6954 131.254 10.967 131.254C11.234 131.254 11.4535 131.333 11.6255 131.491C11.8021 131.65 11.8926 131.856 11.8971 132.109V134.214H11.1978V132.354C11.1933 132.209 11.1503 132.091 11.0688 132.001C10.9874 131.906 10.8606 131.856 10.6886 131.851C10.5347 131.851 10.3944 131.899 10.2677 131.994C10.141 132.084 10.0414 132.209 9.96898 132.367C9.89656 132.526 9.86035 132.709 9.86035 132.917V134.214H9.16107V131.369H9.78567ZM12.7069 135.585L12.2995 135.151C12.4262 135.042 12.5258 134.909 12.5982 134.75C12.6706 134.596 12.7069 134.413 12.7069 134.2V131.369H13.4129V134.227C13.4129 134.553 13.3564 134.827 13.2432 135.049C13.1346 135.271 12.9558 135.449 12.7069 135.585ZM12.6593 130.351C12.6593 130.242 12.7023 130.152 12.7883 130.079C12.8743 130.007 12.9671 129.971 13.0667 129.971C13.1708 129.971 13.2636 130.007 13.345 130.079C13.4265 130.152 13.4672 130.242 13.4672 130.351C13.4672 130.459 13.4265 130.55 13.345 130.622C13.2636 130.69 13.1708 130.724 13.0667 130.724C12.9671 130.724 12.8743 130.69 12.7883 130.622C12.7023 130.55 12.6593 130.459 12.6593 130.351ZM15.3093 134.282C15.0423 134.282 14.8001 134.227 14.5829 134.119C14.3656 134.006 14.1936 133.838 14.0669 133.616C13.9402 133.395 13.8768 133.121 13.8768 132.795C13.8768 132.474 13.9424 132.197 14.0737 131.967C14.2095 131.736 14.386 131.559 14.6032 131.437C14.825 131.31 15.0649 131.247 15.3229 131.247C15.5945 131.247 15.8162 131.306 15.9882 131.424C16.1648 131.537 16.3028 131.67 16.4024 131.824L16.3548 131.933L16.4227 131.369H17.0677V134.214H16.3684V133.501L16.4431 133.671C16.425 133.707 16.3865 133.759 16.3277 133.827C16.2689 133.89 16.1896 133.958 16.0901 134.031C15.995 134.103 15.8819 134.164 15.7506 134.214C15.6239 134.259 15.4768 134.282 15.3093 134.282ZM15.4994 133.711C15.6488 133.711 15.7823 133.684 15.9 133.63C16.0177 133.576 16.1172 133.499 16.1987 133.399C16.2802 133.3 16.3367 133.182 16.3684 133.046V132.455C16.3322 132.329 16.2711 132.22 16.1851 132.13C16.0991 132.035 15.995 131.96 15.8728 131.906C15.7551 131.851 15.6239 131.824 15.479 131.824C15.3161 131.824 15.1667 131.865 15.031 131.946C14.8952 132.023 14.7866 132.132 14.7051 132.272C14.6236 132.412 14.5829 132.575 14.5829 132.761C14.5829 132.938 14.6236 133.098 14.7051 133.243C14.7911 133.388 14.9042 133.503 15.0445 133.589C15.1848 133.671 15.3365 133.711 15.4994 133.711ZM19.5764 134.282C19.3185 134.282 19.0922 134.23 18.8975 134.126C18.7074 134.017 18.5535 133.881 18.4359 133.718L18.5105 133.521V134.214H17.8113V128.939H18.5038V131.987L18.4902 131.736C18.5988 131.591 18.7572 131.473 18.9654 131.383C19.1736 131.292 19.4067 131.247 19.6647 131.247C19.9182 131.247 20.149 131.308 20.3572 131.43C20.5699 131.553 20.7374 131.727 20.8596 131.953C20.9863 132.175 21.0497 132.44 21.0497 132.747C21.0497 133.064 20.9818 133.338 20.846 133.569C20.7102 133.8 20.5292 133.976 20.3029 134.098C20.0811 134.221 19.839 134.282 19.5764 134.282ZM19.4271 133.691C19.5991 133.691 19.753 133.65 19.8888 133.569C20.0291 133.487 20.1399 133.374 20.2214 133.229C20.3029 133.085 20.3436 132.922 20.3436 132.741C20.3436 132.564 20.3029 132.406 20.2214 132.265C20.1399 132.125 20.0291 132.014 19.8888 131.933C19.753 131.847 19.5991 131.804 19.4271 131.804C19.2777 131.804 19.1397 131.831 19.0129 131.885C18.8862 131.939 18.7799 132.014 18.6939 132.109C18.6079 132.204 18.5468 132.315 18.5105 132.442V133.046C18.5468 133.173 18.6079 133.286 18.6939 133.386C18.7799 133.481 18.884 133.555 19.0062 133.61C19.1329 133.664 19.2732 133.691 19.4271 133.691ZM24.8886 129.285C25.1466 129.285 25.3842 129.321 25.6014 129.394C25.8232 129.461 26.011 129.561 26.1649 129.692C26.3233 129.824 26.4455 129.986 26.5315 130.181C26.6221 130.371 26.6673 130.593 26.6673 130.846C26.6673 131.041 26.6379 131.233 26.5791 131.424C26.5202 131.614 26.4252 131.786 26.2939 131.939C26.1627 132.093 25.9907 132.218 25.7779 132.313C25.5652 132.403 25.3004 132.449 24.9836 132.449H24.264V134.214H23.5375V129.285H24.8886ZM24.97 131.756C25.1556 131.756 25.3095 131.727 25.4317 131.668C25.5584 131.609 25.6557 131.537 25.7236 131.451C25.7961 131.36 25.8458 131.265 25.873 131.166C25.9047 131.061 25.9205 130.962 25.9205 130.867C25.9205 130.776 25.9047 130.681 25.873 130.582C25.8458 130.482 25.7961 130.387 25.7236 130.297C25.6557 130.206 25.563 130.131 25.4453 130.072C25.3276 130.014 25.1828 129.984 25.0108 129.984H24.264V131.756H24.97ZM25.8051 132.177L27.0815 134.214H26.2396L24.9429 132.197L25.8051 132.177ZM28.4784 134.329C28.2159 134.329 28.0009 134.25 27.8335 134.092C27.666 133.933 27.5777 133.73 27.5687 133.481V131.369H28.268V133.229C28.277 133.374 28.3178 133.494 28.3902 133.589C28.4671 133.68 28.5893 133.727 28.7568 133.732C28.9107 133.732 29.0465 133.687 29.1641 133.596C29.2863 133.501 29.3814 133.374 29.4493 133.216C29.5217 133.053 29.5579 132.867 29.5579 132.659V131.369H30.2572V134.214H29.6258L29.5715 133.555L29.5986 133.664C29.5398 133.791 29.4561 133.906 29.3474 134.01C29.2388 134.11 29.1098 134.187 28.9605 134.241C28.8111 134.3 28.6504 134.329 28.4784 134.329ZM31.6248 131.369L31.6927 132.184L31.6587 132.075C31.7357 131.903 31.8443 131.756 31.9846 131.634C32.1249 131.512 32.2697 131.419 32.4191 131.356C32.573 131.288 32.702 131.254 32.8061 131.254L32.7721 131.946C32.5549 131.933 32.3648 131.973 32.2018 132.068C32.0434 132.164 31.919 132.29 31.8284 132.449C31.7379 132.607 31.6927 132.777 31.6927 132.958V134.214H31.0002V131.369H31.6248ZM34.3866 134.282C34.1195 134.282 33.8774 134.227 33.6601 134.119C33.4429 134.006 33.2709 133.838 33.1441 133.616C33.0174 133.395 32.954 133.121 32.954 132.795C32.954 132.474 33.0197 132.197 33.1509 131.967C33.2867 131.736 33.4632 131.559 33.6805 131.437C33.9023 131.31 34.1421 131.247 34.4001 131.247C34.6717 131.247 34.8935 131.306 35.0655 131.424C35.242 131.537 35.38 131.67 35.4796 131.824L35.4321 131.933L35.5 131.369H36.145V134.214H35.4457V133.501L35.5203 133.671C35.5022 133.707 35.4638 133.759 35.4049 133.827C35.3461 133.89 35.2669 133.958 35.1673 134.031C35.0723 134.103 34.9591 134.164 34.8279 134.214C34.7011 134.259 34.554 134.282 34.3866 134.282ZM34.5767 133.711C34.726 133.711 34.8595 133.684 34.9772 133.63C35.0949 133.576 35.1945 133.499 35.2759 133.399C35.3574 133.3 35.414 133.182 35.4457 133.046V132.455C35.4095 132.329 35.3484 132.22 35.2624 132.13C35.1764 132.035 35.0723 131.96 34.9501 131.906C34.8324 131.851 34.7011 131.824 34.5563 131.824C34.3933 131.824 34.244 131.865 34.1082 131.946C33.9724 132.023 33.8638 132.132 33.7823 132.272C33.7009 132.412 33.6601 132.575 33.6601 132.761C33.6601 132.938 33.7009 133.098 33.7823 133.243C33.8683 133.388 33.9815 133.503 34.1218 133.589C34.2621 133.671 34.4137 133.711 34.5767 133.711ZM36.8885 128.939H37.5878V134.214H36.8885V128.939ZM40.3141 134.214V129.122H40.3209L42.9415 132.836L42.6292 132.768L45.2363 129.122H45.2499V134.214H44.5302V130.758L44.5777 131.132L42.7582 133.705H42.7447L40.8912 131.132L41.0134 130.792V134.214H40.3141ZM47.0584 134.329C46.7959 134.329 46.5809 134.25 46.4134 134.092C46.246 133.933 46.1577 133.73 46.1487 133.481V131.369H46.848V133.229C46.857 133.374 46.8977 133.494 46.9702 133.589C47.0471 133.68 47.1693 133.727 47.3368 133.732C47.4907 133.732 47.6264 133.687 47.7441 133.596C47.8663 133.501 47.9614 133.374 48.0293 133.216C48.1017 133.053 48.1379 132.867 48.1379 132.659V131.369H48.8372V134.214H48.2058L48.1515 133.555L48.1786 133.664C48.1198 133.791 48.0361 133.906 47.9274 134.01C47.8188 134.11 47.6898 134.187 47.5405 134.241C47.3911 134.3 47.2304 134.329 47.0584 134.329ZM50.2048 131.369L50.2659 132.021L50.2387 131.933C50.3337 131.729 50.4808 131.566 50.68 131.444C50.8791 131.317 51.1145 131.254 51.3861 131.254C51.6531 131.254 51.8726 131.333 52.0446 131.491C52.2211 131.65 52.3117 131.856 52.3162 132.109V134.214H51.6169V132.354C51.6124 132.209 51.5694 132.091 51.4879 132.001C51.4064 131.906 51.2797 131.856 51.1077 131.851C50.9538 131.851 50.8135 131.899 50.6868 131.994C50.5601 132.084 50.4605 132.209 50.3881 132.367C50.3156 132.526 50.2794 132.709 50.2794 132.917V134.214H49.5802V131.369H50.2048ZM53.058 131.369H53.7573V134.214H53.058V131.369ZM53.0173 130.351C53.0173 130.242 53.0603 130.152 53.1463 130.079C53.2323 130.007 53.3251 129.971 53.4247 129.971C53.5288 129.971 53.6215 130.007 53.703 130.079C53.7845 130.152 53.8252 130.242 53.8252 130.351C53.8252 130.459 53.7845 130.55 53.703 130.622C53.6215 130.69 53.5288 130.724 53.4247 130.724C53.3251 130.724 53.2323 130.69 53.1463 130.622C53.0603 130.55 53.0173 130.459 53.0173 130.351ZM56.8226 133.949C56.6958 134.053 56.5419 134.135 56.3609 134.193C56.1844 134.252 56.0056 134.282 55.8246 134.282C55.5123 134.282 55.2362 134.221 54.9963 134.098C54.7609 133.976 54.5776 133.804 54.4464 133.582C54.3151 133.361 54.2495 133.096 54.2495 132.788C54.2495 132.485 54.3196 132.222 54.4599 132.001C54.6002 131.774 54.7858 131.602 55.0166 131.485C55.2475 131.362 55.4919 131.301 55.7499 131.301C55.9852 131.301 56.1934 131.333 56.3745 131.396C56.5555 131.46 56.7117 131.548 56.8429 131.661L56.4967 132.116C56.4197 132.053 56.3224 131.996 56.2048 131.946C56.0916 131.896 55.9603 131.872 55.811 131.872C55.6526 131.872 55.5077 131.912 55.3765 131.994C55.2452 132.071 55.1411 132.179 55.0642 132.32C54.9872 132.455 54.9488 132.612 54.9488 132.788C54.9488 132.956 54.9872 133.112 55.0642 133.257C55.1456 133.397 55.2565 133.508 55.3968 133.589C55.5372 133.671 55.6978 133.711 55.8789 133.711C55.9966 133.711 56.1052 133.696 56.2048 133.664C56.3043 133.628 56.3926 133.578 56.4695 133.515L56.8226 133.949ZM57.2955 131.369H57.9948V134.214H57.2955V131.369ZM57.2548 130.351C57.2548 130.242 57.2978 130.152 57.3838 130.079C57.4698 130.007 57.5626 129.971 57.6621 129.971C57.7662 129.971 57.859 130.007 57.9405 130.079C58.022 130.152 58.0627 130.242 58.0627 130.351C58.0627 130.459 58.022 130.55 57.9405 130.622C57.859 130.69 57.7662 130.724 57.6621 130.724C57.5626 130.724 57.4698 130.69 57.3838 130.622C57.2978 130.55 57.2548 130.459 57.2548 130.351ZM60.4354 134.282C60.2272 134.282 60.0281 134.236 59.838 134.146C59.6479 134.051 59.4963 133.924 59.3831 133.766L59.4238 133.555V135.578H58.7314V131.322H59.3356L59.4306 132.014L59.356 131.817C59.4963 131.654 59.6683 131.519 59.8719 131.41C60.0801 131.301 60.311 131.247 60.5644 131.247C60.8315 131.247 61.0714 131.31 61.2841 131.437C61.4968 131.564 61.6643 131.743 61.7865 131.973C61.9087 132.204 61.9698 132.476 61.9698 132.788C61.9698 133.096 61.9019 133.363 61.7661 133.589C61.6349 133.811 61.4538 133.983 61.223 134.105C60.9921 134.223 60.7296 134.282 60.4354 134.282ZM60.2996 133.732C60.4716 133.732 60.6301 133.691 60.7749 133.61C60.9243 133.528 61.0419 133.417 61.1279 133.277C61.2184 133.132 61.2637 132.971 61.2637 132.795C61.2637 132.609 61.2207 132.446 61.1347 132.306C61.0532 132.161 60.9424 132.048 60.802 131.967C60.6663 131.885 60.5146 131.844 60.3472 131.844C60.1888 131.844 60.0484 131.874 59.9262 131.933C59.804 131.987 59.6999 132.064 59.6139 132.164C59.5279 132.263 59.4668 132.383 59.4306 132.523V133.046C59.4578 133.177 59.5121 133.295 59.5936 133.399C59.675 133.503 59.7769 133.585 59.8991 133.644C60.0213 133.702 60.1548 133.732 60.2996 133.732ZM63.6559 134.282C63.3889 134.282 63.1467 134.227 62.9295 134.119C62.7122 134.006 62.5402 133.838 62.4135 133.616C62.2868 133.395 62.2234 133.121 62.2234 132.795C62.2234 132.474 62.289 132.197 62.4203 131.967C62.5561 131.736 62.7326 131.559 62.9498 131.437C63.1716 131.31 63.4115 131.247 63.6695 131.247C63.9411 131.247 64.1628 131.306 64.3348 131.424C64.5114 131.537 64.6494 131.67 64.749 131.824L64.7015 131.933L64.7693 131.369H65.4143V134.214H64.715V133.501L64.7897 133.671C64.7716 133.707 64.7331 133.759 64.6743 133.827C64.6155 133.89 64.5362 133.958 64.4367 134.031C64.3416 134.103 64.2285 134.164 64.0972 134.214C63.9705 134.259 63.8234 134.282 63.6559 134.282ZM63.846 133.711C63.9954 133.711 64.1289 133.684 64.2466 133.63C64.3643 133.576 64.4638 133.499 64.5453 133.399C64.6268 133.3 64.6833 133.182 64.715 133.046V132.455C64.6788 132.329 64.6177 132.22 64.5317 132.13C64.4457 132.035 64.3416 131.96 64.2194 131.906C64.1017 131.851 63.9705 131.824 63.8257 131.824C63.6627 131.824 63.5133 131.865 63.3776 131.946C63.2418 132.023 63.1332 132.132 63.0517 132.272C62.9702 132.412 62.9295 132.575 62.9295 132.761C62.9295 132.938 62.9702 133.098 63.0517 133.243C63.1377 133.388 63.2508 133.503 63.3911 133.589C63.5315 133.671 63.6831 133.711 63.846 133.711ZM66.1579 128.939H66.8572V134.214H66.1579V128.939ZM72.1498 130.229C71.9778 130.138 71.7922 130.061 71.5931 129.998C71.3939 129.934 71.2016 129.903 71.016 129.903C70.7626 129.903 70.5611 129.962 70.4118 130.079C70.2624 130.192 70.1877 130.349 70.1877 130.548C70.1877 130.688 70.2375 130.81 70.3371 130.914C70.4367 131.018 70.5657 131.109 70.7241 131.186C70.8825 131.263 71.05 131.335 71.2265 131.403C71.3758 131.457 71.5229 131.523 71.6678 131.6C71.8171 131.672 71.9507 131.763 72.0683 131.872C72.1905 131.98 72.2856 132.116 72.3535 132.279C72.4259 132.437 72.4621 132.632 72.4621 132.863C72.4621 133.125 72.3965 133.363 72.2652 133.576C72.1385 133.788 71.9529 133.958 71.7085 134.085C71.4686 134.207 71.1767 134.268 70.8327 134.268C70.6245 134.268 70.4208 134.246 70.2217 134.2C70.0271 134.151 69.8415 134.087 69.665 134.01C69.493 133.929 69.3368 133.84 69.1965 133.745L69.5224 133.182C69.631 133.259 69.7555 133.334 69.8958 133.406C70.0361 133.474 70.1809 133.528 70.3303 133.569C70.4842 133.61 70.629 133.63 70.7648 133.63C70.9142 133.63 71.0613 133.605 71.2061 133.555C71.3509 133.501 71.4709 133.42 71.5659 133.311C71.661 133.198 71.7085 133.051 71.7085 132.87C71.7085 132.716 71.6655 132.587 71.5795 132.483C71.498 132.374 71.3872 132.281 71.2468 132.204C71.1111 132.127 70.964 132.059 70.8056 132.001C70.6517 131.942 70.4955 131.876 70.3371 131.804C70.1787 131.731 70.0316 131.645 69.8958 131.546C69.76 131.442 69.6491 131.315 69.5631 131.166C69.4817 131.012 69.4409 130.824 69.4409 130.602C69.4409 130.34 69.502 130.111 69.6242 129.916C69.751 129.717 69.9252 129.561 70.147 129.448C70.3688 129.335 70.6245 129.271 70.9142 129.258C71.2446 129.258 71.532 129.299 71.7764 129.38C72.0208 129.461 72.2381 129.559 72.4282 129.672L72.1498 130.229ZM74.3886 134.282C74.0582 134.282 73.7753 134.218 73.5399 134.092C73.3046 133.96 73.1235 133.782 72.9968 133.555C72.8701 133.324 72.8067 133.062 72.8067 132.768C72.8067 132.487 72.8769 132.234 73.0172 132.007C73.162 131.777 73.3544 131.593 73.5942 131.457C73.8387 131.322 74.108 131.254 74.4022 131.254C74.7823 131.254 75.0969 131.365 75.3458 131.586C75.5993 131.808 75.769 132.118 75.855 132.517L73.5399 133.318L73.377 132.91L75.2304 132.245L75.0879 132.333C75.0335 132.193 74.9475 132.071 74.8299 131.967C74.7122 131.858 74.5515 131.804 74.3478 131.804C74.1849 131.804 74.0378 131.844 73.9065 131.926C73.7798 132.003 73.678 132.111 73.601 132.252C73.5286 132.388 73.4924 132.548 73.4924 132.734C73.4924 132.924 73.5309 133.091 73.6078 133.236C73.6893 133.377 73.7979 133.487 73.9337 133.569C74.074 133.65 74.2302 133.691 74.4022 133.691C74.5244 133.691 74.6398 133.668 74.7484 133.623C74.8616 133.578 74.9679 133.521 75.0675 133.453L75.3866 133.969C75.2372 134.065 75.0743 134.141 74.8978 134.2C74.7258 134.255 74.556 134.282 74.3886 134.282ZM76.9282 131.369L76.9961 132.184L76.9621 132.075C77.0391 131.903 77.1477 131.756 77.288 131.634C77.4283 131.512 77.5731 131.419 77.7225 131.356C77.8764 131.288 78.0054 131.254 78.1095 131.254L78.0755 131.946C77.8583 131.933 77.6682 131.973 77.5053 132.068C77.3468 132.164 77.2224 132.29 77.1318 132.449C77.0413 132.607 76.9961 132.777 76.9961 132.958V134.214H76.3036V131.369H76.9282ZM79.7629 134.289L78.1539 131.369H78.9821L80.0277 133.569L79.6 133.549L80.5504 131.369H81.3312L79.7901 134.289H79.7629ZM81.6549 131.369H82.3542V134.214H81.6549V131.369ZM81.6142 130.351C81.6142 130.242 81.6572 130.152 81.7431 130.079C81.8291 130.007 81.9219 129.971 82.0215 129.971C82.1256 129.971 82.2184 130.007 82.2999 130.079C82.3813 130.152 82.4221 130.242 82.4221 130.351C82.4221 130.459 82.3813 130.55 82.2999 130.622C82.2184 130.69 82.1256 130.724 82.0215 130.724C81.9219 130.724 81.8291 130.69 81.7431 130.622C81.6572 130.55 81.6142 130.459 81.6142 130.351ZM85.4194 133.949C85.2927 134.053 85.1388 134.135 84.9577 134.193C84.7812 134.252 84.6024 134.282 84.4214 134.282C84.1091 134.282 83.833 134.221 83.5931 134.098C83.3578 133.976 83.1745 133.804 83.0432 133.582C82.9119 133.361 82.8463 133.096 82.8463 132.788C82.8463 132.485 82.9165 132.222 83.0568 132.001C83.1971 131.774 83.3827 131.602 83.6135 131.485C83.8443 131.362 84.0887 131.301 84.3467 131.301C84.5821 131.301 84.7903 131.333 84.9713 131.396C85.1524 131.46 85.3085 131.548 85.4398 131.661L85.0935 132.116C85.0166 132.053 84.9193 131.996 84.8016 131.946C84.6884 131.896 84.5572 131.872 84.4078 131.872C84.2494 131.872 84.1046 131.912 83.9733 131.994C83.8421 132.071 83.738 132.179 83.661 132.32C83.5841 132.455 83.5456 132.612 83.5456 132.788C83.5456 132.956 83.5841 133.112 83.661 133.257C83.7425 133.397 83.8534 133.508 83.9937 133.589C84.134 133.671 84.2947 133.711 84.4757 133.711C84.5934 133.711 84.702 133.696 84.8016 133.664C84.9012 133.628 84.9894 133.578 85.0664 133.515L85.4194 133.949ZM87.2298 134.282C86.8994 134.282 86.6165 134.218 86.3812 134.092C86.1458 133.96 85.9648 133.782 85.838 133.555C85.7113 133.324 85.6479 133.062 85.6479 132.768C85.6479 132.487 85.7181 132.234 85.8584 132.007C86.0032 131.777 86.1956 131.593 86.4355 131.457C86.6799 131.322 86.9492 131.254 87.2434 131.254C87.6236 131.254 87.9382 131.365 88.1871 131.586C88.4406 131.808 88.6103 132.118 88.6963 132.517L86.3812 133.318L86.2182 132.91L88.0717 132.245L87.9291 132.333C87.8748 132.193 87.7888 132.071 87.6711 131.967C87.5534 131.858 87.3928 131.804 87.1891 131.804C87.0261 131.804 86.879 131.844 86.7478 131.926C86.6211 132.003 86.5192 132.111 86.4423 132.252C86.3699 132.388 86.3337 132.548 86.3337 132.734C86.3337 132.924 86.3721 133.091 86.4491 133.236C86.5305 133.377 86.6392 133.487 86.7749 133.569C86.9153 133.65 87.0714 133.691 87.2434 133.691C87.3656 133.691 87.481 133.668 87.5896 133.623C87.7028 133.578 87.8092 133.521 87.9087 133.453L88.2278 133.969C88.0785 134.065 87.9155 134.141 87.739 134.2C87.567 134.255 87.3973 134.282 87.2298 134.282ZM89.9731 134.275C89.7649 134.275 89.5635 134.239 89.3689 134.166C89.1742 134.089 89.0136 133.979 88.8868 133.834L89.1856 133.44C89.3078 133.553 89.43 133.639 89.5522 133.698C89.6789 133.752 89.7988 133.779 89.912 133.779C90.0025 133.779 90.084 133.77 90.1564 133.752C90.2288 133.73 90.2877 133.693 90.3329 133.644C90.3782 133.594 90.4008 133.528 90.4008 133.447C90.4008 133.352 90.3691 133.277 90.3058 133.223C90.2424 133.168 90.1609 133.123 90.0614 133.087C89.9618 133.051 89.8554 133.017 89.7423 132.985C89.5024 132.908 89.3213 132.799 89.1991 132.659C89.0769 132.514 89.0158 132.345 89.0158 132.15C89.0158 132.001 89.052 131.86 89.1245 131.729C89.2014 131.593 89.3168 131.482 89.4707 131.396C89.6246 131.31 89.8147 131.267 90.041 131.267C90.2492 131.267 90.4325 131.292 90.5909 131.342C90.7493 131.387 90.8964 131.467 91.0322 131.58L90.7606 132.001C90.6792 131.919 90.5819 131.858 90.4687 131.817C90.3601 131.772 90.2605 131.747 90.17 131.743C90.0885 131.743 90.0138 131.756 89.9459 131.783C89.8781 131.806 89.8237 131.842 89.783 131.892C89.7423 131.937 89.7219 131.992 89.7219 132.055C89.7174 132.145 89.7468 132.22 89.8102 132.279C89.8781 132.333 89.9641 132.379 90.0682 132.415C90.1723 132.446 90.2741 132.48 90.3737 132.517C90.514 132.557 90.6384 132.614 90.7471 132.686C90.8557 132.754 90.9417 132.838 91.0051 132.938C91.0684 133.037 91.1001 133.164 91.1001 133.318C91.1001 133.485 91.0594 133.644 90.9779 133.793C90.8964 133.938 90.772 134.055 90.6045 134.146C90.437 134.232 90.2266 134.275 89.9731 134.275ZM97.2568 133.84C97.1844 133.89 97.0758 133.951 96.931 134.024C96.7907 134.092 96.6232 134.151 96.4286 134.2C96.2385 134.25 96.028 134.273 95.7972 134.268C95.4125 134.264 95.0662 134.196 94.7584 134.065C94.4552 133.933 94.1972 133.754 93.9845 133.528C93.7717 133.297 93.6065 133.035 93.4889 132.741C93.3757 132.442 93.3191 132.125 93.3191 131.79C93.3191 131.419 93.378 131.08 93.4956 130.772C93.6133 130.459 93.7808 130.188 93.998 129.957C94.2198 129.726 94.4778 129.547 94.772 129.421C95.0707 129.294 95.3966 129.231 95.7496 129.231C96.0529 129.231 96.3267 129.271 96.5711 129.353C96.8155 129.434 97.0215 129.529 97.189 129.638L96.9038 130.317C96.7725 130.226 96.6096 130.14 96.415 130.059C96.2249 129.973 96.0122 129.93 95.7768 129.93C95.546 129.93 95.3265 129.977 95.1183 130.072C94.9146 130.163 94.7335 130.292 94.5751 130.459C94.4212 130.622 94.299 130.815 94.2085 131.037C94.118 131.254 94.0727 131.491 94.0727 131.749C94.0727 132.012 94.1135 132.254 94.1949 132.476C94.2764 132.698 94.3918 132.89 94.5412 133.053C94.6951 133.216 94.8784 133.343 95.0911 133.433C95.3038 133.524 95.5437 133.569 95.8108 133.569C96.0642 133.569 96.286 133.53 96.4761 133.453C96.6707 133.377 96.8291 133.288 96.9513 133.189L97.2568 133.84ZM97.6169 132.761C97.6169 132.476 97.6848 132.22 97.8206 131.994C97.9564 131.763 98.1442 131.582 98.3841 131.451C98.624 131.319 98.8978 131.254 99.2056 131.254C99.5179 131.254 99.7917 131.319 100.027 131.451C100.262 131.582 100.443 131.763 100.57 131.994C100.701 132.22 100.767 132.476 100.767 132.761C100.767 133.046 100.701 133.304 100.57 133.535C100.443 133.766 100.262 133.949 100.027 134.085C99.7917 134.216 99.5156 134.282 99.1988 134.282C98.8955 134.282 98.624 134.221 98.3841 134.098C98.1487 133.976 97.9609 133.802 97.8206 133.576C97.6848 133.345 97.6169 133.073 97.6169 132.761ZM98.323 132.768C98.323 132.944 98.3615 133.105 98.4384 133.25C98.5153 133.39 98.6194 133.503 98.7507 133.589C98.882 133.671 99.0291 133.711 99.192 133.711C99.3595 133.711 99.5088 133.671 99.6401 133.589C99.7713 133.503 99.8732 133.39 99.9456 133.25C100.023 133.105 100.061 132.944 100.061 132.768C100.061 132.591 100.023 132.433 99.9456 132.293C99.8732 132.152 99.7713 132.039 99.6401 131.953C99.5088 131.867 99.3595 131.824 99.192 131.824C99.0245 131.824 98.8752 131.867 98.7439 131.953C98.6127 132.039 98.5086 132.154 98.4316 132.299C98.3592 132.44 98.323 132.596 98.323 132.768ZM101.891 131.369L101.952 131.98L101.925 131.933C102.033 131.72 102.183 131.555 102.373 131.437C102.563 131.315 102.783 131.254 103.031 131.254C103.185 131.254 103.323 131.279 103.446 131.328C103.572 131.378 103.676 131.448 103.758 131.539C103.839 131.629 103.891 131.743 103.914 131.878L103.88 131.899C103.993 131.7 104.143 131.543 104.328 131.43C104.518 131.313 104.72 131.254 104.932 131.254C105.209 131.254 105.428 131.333 105.591 131.491C105.758 131.65 105.844 131.854 105.849 132.102V134.214H105.156V132.367C105.152 132.227 105.118 132.109 105.055 132.014C104.996 131.919 104.889 131.867 104.736 131.858C104.573 131.858 104.428 131.908 104.301 132.007C104.179 132.107 104.084 132.236 104.016 132.394C103.948 132.553 103.912 132.723 103.907 132.904V134.214H103.208V132.367C103.203 132.227 103.17 132.109 103.106 132.014C103.043 131.919 102.932 131.867 102.773 131.858C102.611 131.858 102.468 131.908 102.346 132.007C102.224 132.107 102.129 132.238 102.061 132.401C101.997 132.56 101.966 132.727 101.966 132.904V134.214H101.266V131.369H101.891ZM108.298 134.282C108.09 134.282 107.891 134.236 107.701 134.146C107.51 134.051 107.359 133.924 107.246 133.766L107.286 133.555V135.578H106.594V131.322H107.198L107.293 132.014L107.219 131.817C107.359 131.654 107.531 131.519 107.735 131.41C107.943 131.301 108.174 131.247 108.427 131.247C108.694 131.247 108.934 131.31 109.147 131.437C109.359 131.564 109.527 131.743 109.649 131.973C109.771 132.204 109.832 132.476 109.832 132.788C109.832 133.096 109.765 133.363 109.629 133.589C109.497 133.811 109.316 133.983 109.086 134.105C108.855 134.223 108.592 134.282 108.298 134.282ZM108.162 133.732C108.334 133.732 108.493 133.691 108.638 133.61C108.787 133.528 108.905 133.417 108.991 133.277C109.081 133.132 109.126 132.971 109.126 132.795C109.126 132.609 109.083 132.446 108.997 132.306C108.916 132.161 108.805 132.048 108.665 131.967C108.529 131.885 108.377 131.844 108.21 131.844C108.051 131.844 107.911 131.874 107.789 131.933C107.667 131.987 107.563 132.064 107.477 132.164C107.391 132.263 107.329 132.383 107.293 132.523V133.046C107.32 133.177 107.375 133.295 107.456 133.399C107.538 133.503 107.639 133.585 107.762 133.644C107.884 133.702 108.017 133.732 108.162 133.732ZM111.519 134.282C111.251 134.282 111.009 134.227 110.792 134.119C110.575 134.006 110.403 133.838 110.276 133.616C110.149 133.395 110.086 133.121 110.086 132.795C110.086 132.474 110.152 132.197 110.283 131.967C110.419 131.736 110.595 131.559 110.812 131.437C111.034 131.31 111.274 131.247 111.532 131.247C111.804 131.247 112.025 131.306 112.197 131.424C112.374 131.537 112.512 131.67 112.612 131.824L112.564 131.933L112.632 131.369H113.277V134.214H112.578V133.501L112.652 133.671C112.634 133.707 112.596 133.759 112.537 133.827C112.478 133.89 112.399 133.958 112.299 134.031C112.204 134.103 112.091 134.164 111.96 134.214C111.833 134.259 111.686 134.282 111.519 134.282ZM111.709 133.711C111.858 133.711 111.992 133.684 112.109 133.63C112.227 133.576 112.326 133.499 112.408 133.399C112.489 133.3 112.546 133.182 112.578 133.046V132.455C112.541 132.329 112.48 132.22 112.394 132.13C112.308 132.035 112.204 131.96 112.082 131.906C111.964 131.851 111.833 131.824 111.688 131.824C111.525 131.824 111.376 131.865 111.24 131.946C111.104 132.023 110.996 132.132 110.914 132.272C110.833 132.412 110.792 132.575 110.792 132.761C110.792 132.938 110.833 133.098 110.914 133.243C111 133.388 111.113 133.503 111.254 133.589C111.394 133.671 111.546 133.711 111.709 133.711ZM114.645 131.369L114.706 132.021L114.679 131.933C114.774 131.729 114.921 131.566 115.12 131.444C115.319 131.317 115.555 131.254 115.826 131.254C116.093 131.254 116.313 131.333 116.485 131.491C116.661 131.65 116.752 131.856 116.757 132.109V134.214H116.057V132.354C116.053 132.209 116.01 132.091 115.928 132.001C115.847 131.906 115.72 131.856 115.548 131.851C115.394 131.851 115.254 131.899 115.127 131.994C115 132.084 114.901 132.209 114.828 132.367C114.756 132.526 114.72 132.709 114.72 132.917V134.214H114.02V131.369H114.645ZM117.63 135.578L119.511 131.369H120.149L118.316 135.578H117.63ZM118.35 134.234L116.971 131.369H117.759L118.886 133.881L118.35 134.234Z" fill="white"/>
<defs>
<linearGradient id="paint0_linear_3619_17" x1="43.311" y1="16.0934" x2="65.7005" y2="53.9553" gradientUnits="userSpaceOnUse">
<stop stop-color="#284394"/>
<stop offset="1" stop-color="#1C76B7"/>
</linearGradient>
<linearGradient id="paint1_linear_3619_17" x1="45.553" y1="14.7653" x2="67.9436" y2="52.6284" gradientUnits="userSpaceOnUse">
<stop stop-color="#284394"/>
<stop offset="1" stop-color="#1C76B7"/>
</linearGradient>
<linearGradient id="paint2_linear_3619_17" x1="40.7311" y1="17.6166" x2="63.1216" y2="55.4797" gradientUnits="userSpaceOnUse">
<stop stop-color="#284394"/>
<stop offset="1" stop-color="#1C76B7"/>
</linearGradient>
<linearGradient id="paint3_linear_3619_17" x1="59.712" y1="6.39196" x2="82.1026" y2="44.255" gradientUnits="userSpaceOnUse">
<stop stop-color="#284394"/>
<stop offset="1" stop-color="#1C76B7"/>
</linearGradient>
</defs>
</svg>
