<svg width="223" height="253" viewBox="0 0 223 253" fill="none" xmlns="http://www.w3.org/2000/svg">
<path d="M209.053 128.419C207.97 130.115 206.931 131.826 205.831 133.502C202.186 139.057 198.22 144.372 193.759 149.312C188.16 155.502 181.959 160.979 174.652 165.09C170.349 167.511 165.805 169.32 160.867 169.989C157.913 170.392 155.035 170.292 152.13 169.3C142.508 166.013 132.898 162.651 123.159 159.736C114.6 157.174 105.919 154.972 97.2022 152.999C90.2133 151.424 83.1052 150.341 76.0167 149.265C72.4648 148.725 68.8328 148.73 65.2441 148.414C61.8278 148.126 58.3888 148.278 55.0109 148.864C52.0676 149.362 49.4254 150.556 47.3657 152.804C46.9087 153.302 46.5795 153.124 46.1875 152.765C44.4636 151.176 42.7368 149.593 41.007 148.013C34.4274 142.005 27.8529 135.997 21.2834 129.989C18.3582 127.313 15.4401 124.626 12.5294 121.928C11.5742 121.038 11.6154 120.846 12.7459 120.107C16.0531 117.965 19.6764 116.811 23.5943 116.399C28.8289 115.847 33.9466 116.551 39.0535 117.606C50.7227 120.014 61.5775 124.724 72.5081 129.277C79.4992 132.192 86.4383 135.252 93.529 137.901C102.121 141.1 110.974 143.543 119.99 145.204C126.083 146.334 132.205 147.4 138.358 148.1C146.099 148.981 153.898 149.447 161.668 148.381C167.733 147.547 173.537 145.654 179.237 143.443C189.2 139.579 198.564 134.574 207.654 129.008C208.048 128.768 208.425 128.493 208.811 128.233L209.053 128.419Z" fill="#6AD0E5"/>
<path d="M6.0752 113.413C9.32385 105.616 14.9852 100.691 23.0245 98.3541C29.015 96.6215 35.103 95.4693 41.3144 95.1552C47.11 94.865 52.9229 94.7221 58.725 94.7871C62.684 94.826 66.6366 95.322 70.5913 95.6057C71.293 95.6555 71.6438 96.015 71.8907 96.6886C76.0533 107.851 83.5512 115.726 94.9042 119.646C106.928 123.782 118.944 123.544 130.817 118.996C135.073 117.367 138.785 114.814 141.994 111.544C142.457 111.135 143.058 110.918 143.675 110.937C149.36 111.266 155.037 111.907 160.722 111.988C168.638 112.098 176.4 110.894 183.828 107.981C189.634 105.736 194.982 102.45 199.608 98.2848C202.543 95.6295 205.22 92.6863 208.005 89.8664C208.11 89.7165 208.192 89.5514 208.247 89.377L208.611 89.6542C208.068 90.6483 207.606 91.6987 206.967 92.6256C203.678 97.4076 200.47 102.255 196.988 106.892C193.254 111.858 188.896 116.291 184.288 120.464C179.994 124.384 175.315 127.86 170.323 130.838C161.85 135.85 152.793 139.068 142.915 139.857C133.037 140.645 123.536 139.021 114.452 135.209C107.635 132.35 101.014 129.024 94.2133 126.124C84.5908 122.009 74.9379 117.956 65.192 114.179C57.4212 111.169 49.4469 108.702 41.2538 107.045C36.4003 106.062 31.5078 105.313 26.5482 105.438C19.503 105.605 13.0122 107.418 7.55875 112.135L6.0752 113.413Z" fill="#39B349"/>
<path d="M156.598 173.168C154.265 174.342 151.961 175.581 149.594 176.681C142.568 179.945 135.257 182.42 127.653 183.885C123.261 184.709 118.83 185.303 114.376 185.665C110.746 185.959 107.1 186.031 103.461 185.881C96.4232 185.644 89.4451 184.504 82.6977 182.49C80.1183 181.714 77.476 180.974 75.0893 179.759C70.3377 177.348 66.3093 174.009 64.0569 169.027C63.3271 167.412 62.9242 165.61 62.6102 163.849C62.2875 162.036 62.9264 161.2 64.7023 160.414C67.611 159.13 70.7123 158.653 73.8267 158.222C83.6918 156.858 92.9288 159.045 101.921 162.974C108.826 165.989 115.702 169.112 123.013 171.074C128.31 172.482 133.737 173.34 139.209 173.634C144.996 173.963 150.72 173.417 156.453 172.83L156.598 173.168Z" fill="#A5D9D6"/>
<path d="M123.689 46.9149C125.04 47.7163 126.455 48.431 127.733 49.3341C135.564 54.8611 141.117 62.1641 144.535 71.1087C146.33 75.8106 147.315 80.6727 147.201 85.7103C147.066 91.6099 145.786 97.2582 142.653 102.322C139.317 107.719 134.511 111.446 128.636 113.751C123.61 115.704 118.271 116.726 112.88 116.767C105.538 116.865 98.4145 115.719 91.8588 112.191C85.7686 108.91 81.2617 104.044 78.0715 97.9382C75.0069 92.0777 73.6295 85.7905 73.2808 79.2174C72.8217 70.5976 74.6669 62.45 78.065 54.5926C78.1846 54.2992 78.4104 54.0618 78.6974 53.9277C78.5804 54.8243 78.4808 55.7231 78.3422 56.6154C76.4688 68.8043 79.0872 80.0057 86.3555 89.8946C91.8284 97.3427 99.2224 102.222 108.57 103.444C115.481 104.349 122.078 103.312 127.629 98.6789C132.411 94.6853 135.072 89.4268 135.921 83.3172C136.987 75.633 135.161 68.4167 131.988 61.4646C129.838 56.7497 127.109 52.3857 124.068 48.2057C123.838 47.8917 123.657 47.556 123.453 47.2138L123.689 46.9149Z" fill="url(#paint0_linear_359_554)"/>
<path d="M102.811 15.6218C102.928 16.5725 102.998 17.5341 103.171 18.4741C104.096 23.5649 105.969 28.4366 108.694 32.8353C113.207 40.0964 117.81 47.3019 122.502 54.4518C126.96 61.2502 129.834 68.5856 130.516 76.7159C130.992 82.388 129.931 87.731 126.663 92.4827C124.714 95.3155 121.972 97.1781 118.689 98.1289C110.82 100.405 103.636 98.8804 97.098 94.0377C96.7537 93.7822 96.4007 93.5396 96.052 93.2905L96.2685 92.8877C96.6895 92.9108 97.1088 92.9571 97.5247 93.0263C100.663 93.6999 103.786 94.4882 107.039 94.2954C110.595 94.0789 113.482 92.591 115.269 89.4788C116.015 88.1281 116.475 86.6381 116.62 85.1018C117.212 79.0268 115.005 73.6752 111.886 68.6592C108.44 63.1127 104.86 57.6507 101.343 52.1474C98.4321 47.5993 96.2664 42.7675 95.7553 37.3054C95.3957 33.4612 95.9978 29.7512 97.1868 26.1149C98.3062 22.7177 99.8565 19.478 101.8 16.4751C102.016 16.1524 102.255 15.8535 102.482 15.5438L102.811 15.6218Z" fill="url(#paint1_linear_359_554)"/>
<path d="M91.1401 35.3151C91.1586 35.5493 91.1586 35.7847 91.1401 36.019C90.2305 41.3619 91.5473 46.3497 94.0986 50.9216C97.2043 56.4876 100.691 61.8436 104.061 67.2537C106.805 71.6458 109.402 76.0943 110.279 81.3008C110.929 85.1775 108.139 88.9676 104.258 89.5871C99.1513 90.4057 94.9454 88.7337 91.53 84.9653C86.317 79.2022 83.5448 72.3194 82.6503 64.6786C81.4721 54.6034 84.0754 45.4487 89.7021 37.0889C90.1135 36.4738 90.5099 35.85 90.9149 35.2306L91.1401 35.3151Z" fill="url(#paint2_linear_359_554)"/>
<path d="M105.239 0.212296C105.74 1.81063 106.188 3.42846 106.756 5.00731C109.714 13.3932 113.415 21.3978 119.514 28.0359C122.979 31.8022 126.639 35.3995 130.243 39.0294C133.992 42.8108 137.217 46.9214 138.69 52.1582C138.785 52.4896 138.869 52.8253 139.049 53.5097C138.371 53.0765 137.943 52.8383 137.572 52.5394C133.674 49.3796 129.745 46.276 125.938 43.01C123.046 40.5281 120.151 37.9984 117.552 35.2284C110.754 27.9948 106.693 19.4183 105.625 9.49694C105.32 6.66845 105.192 3.82046 105.003 0.978977C105 0.733655 105.013 0.488391 105.042 0.244782L105.239 0.212296Z" fill="url(#paint3_linear_359_554)"/>
<path d="M67.2531 206.276C68.8728 206.276 70.2582 206.549 71.4095 207.096C72.5608 207.642 73.4389 208.423 74.0438 209.437C74.6682 210.452 74.9804 211.681 74.9804 213.125C74.9804 213.964 74.8438 214.803 74.5706 215.642C74.317 216.482 73.9072 217.243 73.3413 217.926C72.7949 218.609 72.0534 219.165 71.1168 219.594C70.1997 220.004 69.0679 220.209 67.7215 220.209H64.6481V227.585H61.2235V206.276H67.2531ZM67.7215 216.901C68.463 216.901 69.0874 216.774 69.5947 216.521C70.1021 216.267 70.4924 215.945 70.7655 215.555C71.0582 215.164 71.2631 214.764 71.3802 214.355C71.5168 213.925 71.5851 213.545 71.5851 213.213C71.5851 212.862 71.5266 212.481 71.4095 212.072C71.2924 211.642 71.0973 211.242 70.8241 210.871C70.5509 210.481 70.1704 210.169 69.6826 209.935C69.1947 209.681 68.5703 209.554 67.8093 209.554H64.6481V216.901H67.7215ZM85.5485 206.276C86.7193 206.276 87.7925 206.432 88.7682 206.744C89.7438 207.037 90.5731 207.476 91.2561 208.062C91.9391 208.647 92.4659 209.369 92.8367 210.228C93.227 211.067 93.4221 212.033 93.4221 213.125C93.4221 213.964 93.2953 214.803 93.0416 215.642C92.7879 216.482 92.3684 217.243 91.783 217.926C91.2171 218.609 90.4658 219.155 89.5292 219.565C88.5925 219.974 87.4315 220.179 86.0461 220.179H82.9727V227.585H79.5481V206.276H85.5485ZM86.0168 216.901C86.7778 216.901 87.412 216.784 87.9193 216.55C88.4267 216.296 88.8169 215.984 89.0901 215.613C89.3828 215.242 89.5877 214.852 89.7048 214.442C89.8414 214.013 89.9097 213.613 89.9097 213.242C89.9097 212.891 89.8512 212.511 89.7341 212.101C89.617 211.672 89.4219 211.272 89.1487 210.901C88.8755 210.51 88.4852 210.189 87.9779 209.935C87.49 209.681 86.8754 209.554 86.1339 209.554H82.9727V216.901H86.0168ZM89.7048 218.921L95.149 227.585H91.1976L85.6363 219.009L89.7048 218.921ZM99.5877 227.585V205.515H99.617L111.091 221.76L109.627 221.438L121.043 205.515H121.101V227.585H117.706V213.213L117.94 214.969L110.242 225.858H110.183L102.31 214.969L102.895 213.359V227.585H99.5877ZM138.555 210.608C137.794 210.218 136.984 209.886 136.125 209.613C135.267 209.32 134.447 209.174 133.667 209.174C132.613 209.174 131.774 209.408 131.149 209.876C130.545 210.345 130.242 210.989 130.242 211.808C130.242 212.394 130.457 212.911 130.886 213.359C131.315 213.789 131.862 214.169 132.525 214.501C133.189 214.813 133.891 215.116 134.633 215.408C135.277 215.642 135.911 215.925 136.535 216.257C137.179 216.569 137.755 216.96 138.262 217.428C138.769 217.896 139.169 218.482 139.462 219.184C139.774 219.867 139.93 220.716 139.93 221.731C139.93 222.843 139.648 223.867 139.082 224.804C138.516 225.721 137.706 226.453 136.652 226.999C135.598 227.546 134.311 227.819 132.789 227.819C131.91 227.819 131.042 227.721 130.184 227.526C129.344 227.331 128.544 227.068 127.783 226.736C127.022 226.385 126.32 225.994 125.676 225.565L127.198 222.901C127.666 223.253 128.203 223.575 128.808 223.867C129.413 224.16 130.037 224.394 130.681 224.57C131.325 224.726 131.93 224.804 132.496 224.804C133.101 224.804 133.696 224.706 134.281 224.511C134.886 224.316 135.384 223.994 135.774 223.545C136.184 223.097 136.389 222.501 136.389 221.76C136.389 221.155 136.213 220.638 135.862 220.209C135.511 219.779 135.052 219.409 134.486 219.096C133.94 218.765 133.335 218.472 132.671 218.218C132.008 217.965 131.325 217.682 130.623 217.369C129.94 217.057 129.305 216.677 128.72 216.228C128.135 215.76 127.657 215.194 127.286 214.53C126.915 213.867 126.73 213.047 126.73 212.072C126.73 210.901 127.003 209.886 127.549 209.027C128.096 208.169 128.847 207.486 129.803 206.979C130.779 206.471 131.901 206.198 133.169 206.159C134.672 206.159 135.95 206.344 137.003 206.715C138.077 207.066 139.023 207.496 139.843 208.003L138.555 210.608ZM160.646 225.916C160.354 226.131 159.895 226.394 159.271 226.707C158.646 227.019 157.905 227.292 157.046 227.526C156.207 227.741 155.271 227.838 154.236 227.819C152.578 227.799 151.085 227.507 149.758 226.941C148.431 226.355 147.309 225.575 146.392 224.599C145.475 223.604 144.763 222.472 144.255 221.204C143.767 219.916 143.524 218.55 143.524 217.106C143.524 215.486 143.777 214.003 144.285 212.657C144.792 211.311 145.514 210.149 146.451 209.174C147.387 208.179 148.499 207.408 149.787 206.861C151.075 206.315 152.48 206.042 154.002 206.042C155.349 206.042 156.549 206.227 157.602 206.598C158.676 206.949 159.573 207.349 160.295 207.798L158.949 211.018C158.402 210.628 157.719 210.247 156.9 209.876C156.08 209.506 155.153 209.32 154.119 209.32C153.183 209.32 152.285 209.515 151.426 209.906C150.568 210.276 149.817 210.813 149.173 211.515C148.529 212.198 148.012 212.998 147.621 213.916C147.251 214.833 147.065 215.828 147.065 216.901C147.065 218.013 147.231 219.038 147.563 219.974C147.914 220.892 148.402 221.692 149.026 222.375C149.67 223.058 150.431 223.594 151.309 223.984C152.207 224.355 153.202 224.541 154.295 224.541C155.407 224.541 156.373 224.375 157.193 224.043C158.032 223.692 158.705 223.301 159.212 222.872L160.646 225.916Z" fill="black"/>
<path d="M5.52802 235.645C6.20299 235.645 6.77795 235.762 7.25293 235.995C7.73623 236.22 8.10288 236.545 8.35286 236.97C8.61118 237.395 8.74034 237.911 8.74034 238.52C8.74034 238.878 8.68618 239.232 8.57785 239.582C8.46952 239.932 8.29453 240.253 8.05288 240.545C7.81956 240.828 7.50708 241.057 7.11543 241.232C6.72379 241.399 6.24882 241.482 5.69052 241.482H4.36559V244.719H3.02817V235.645H5.52802ZM5.69052 240.195C6.02383 240.195 6.30298 240.14 6.52797 240.032C6.75295 239.915 6.92794 239.77 7.05294 239.595C7.18626 239.42 7.27792 239.241 7.32792 239.057C7.38625 238.866 7.41542 238.695 7.41542 238.545C7.41542 238.378 7.38625 238.203 7.32792 238.02C7.27792 237.828 7.19043 237.653 7.06544 237.495C6.94044 237.328 6.76962 237.195 6.55297 237.095C6.33631 236.986 6.06549 236.932 5.74051 236.932H4.36559V240.195H5.69052ZM11.3435 244.932C10.8602 244.932 10.4644 244.786 10.156 244.494C9.84773 244.203 9.68524 243.828 9.66858 243.369V239.482H10.956V242.907C10.9727 243.174 11.0477 243.394 11.181 243.569C11.3226 243.736 11.5476 243.824 11.8559 243.832C12.1393 243.832 12.3893 243.749 12.6059 243.582C12.8309 243.407 13.0059 243.174 13.1309 242.882C13.2642 242.582 13.3309 242.24 13.3309 241.857V239.482H14.6183V244.719H13.4559L13.3559 243.507L13.4059 243.707C13.2975 243.94 13.1434 244.153 12.9434 244.344C12.7434 244.528 12.5059 244.669 12.2309 244.769C11.9559 244.878 11.6601 244.932 11.3435 244.932ZM17.1361 239.482L17.2486 240.682L17.1986 240.52C17.3736 240.145 17.6444 239.845 18.011 239.62C18.3777 239.386 18.811 239.27 19.311 239.27C19.8026 239.27 20.2067 239.415 20.5234 239.707C20.8484 239.999 21.015 240.378 21.0234 240.845V244.719H19.7359V241.295C19.7276 241.028 19.6484 240.811 19.4984 240.645C19.3485 240.47 19.1151 240.378 18.7985 240.37C18.5152 240.37 18.2569 240.457 18.0235 240.632C17.7902 240.799 17.6069 241.028 17.4736 241.32C17.3402 241.611 17.2736 241.949 17.2736 242.332V244.719H15.9861V239.482H17.1361ZM22.5142 247.244L21.7642 246.444C21.9975 246.244 22.1808 245.998 22.3142 245.707C22.4475 245.423 22.5142 245.086 22.5142 244.694V239.482H23.8141V244.744C23.8141 245.344 23.7099 245.848 23.5016 246.257C23.3016 246.665 22.9725 246.994 22.5142 247.244ZM22.4267 237.607C22.4267 237.407 22.5058 237.241 22.6642 237.107C22.8225 236.974 22.9933 236.907 23.1766 236.907C23.3683 236.907 23.5391 236.974 23.6891 237.107C23.8391 237.241 23.9141 237.407 23.9141 237.607C23.9141 237.807 23.8391 237.974 23.6891 238.107C23.5391 238.232 23.3683 238.295 23.1766 238.295C22.9933 238.295 22.8225 238.232 22.6642 238.107C22.5058 237.974 22.4267 237.807 22.4267 237.607ZM27.3055 244.844C26.8138 244.844 26.368 244.744 25.968 244.544C25.5681 244.336 25.2514 244.028 25.0181 243.619C24.7848 243.211 24.6681 242.707 24.6681 242.107C24.6681 241.515 24.7889 241.007 25.0306 240.582C25.2806 240.157 25.6056 239.832 26.0055 239.607C26.4138 239.374 26.8555 239.257 27.3305 239.257C27.8304 239.257 28.2387 239.366 28.5554 239.582C28.8804 239.79 29.1345 240.036 29.3178 240.32L29.2303 240.52L29.3553 239.482H30.5428V244.719H29.2553V243.407L29.3928 243.719C29.3595 243.786 29.2887 243.882 29.1803 244.007C29.072 244.124 28.9262 244.249 28.7429 244.382C28.5679 244.515 28.3596 244.628 28.1179 244.719C27.8846 244.803 27.6138 244.844 27.3055 244.844ZM27.6554 243.794C27.9304 243.794 28.1762 243.744 28.3929 243.644C28.6095 243.544 28.7929 243.403 28.9429 243.219C29.0929 243.036 29.197 242.819 29.2553 242.569V241.482C29.1887 241.249 29.0762 241.049 28.9179 240.882C28.7595 240.707 28.5679 240.57 28.3429 240.47C28.1262 240.37 27.8846 240.32 27.6179 240.32C27.318 240.32 27.043 240.395 26.793 240.545C26.543 240.686 26.343 240.886 26.193 241.145C26.043 241.403 25.968 241.703 25.968 242.045C25.968 242.369 26.043 242.665 26.193 242.932C26.3513 243.199 26.5597 243.411 26.818 243.569C27.0763 243.719 27.3555 243.794 27.6554 243.794ZM35.1615 244.844C34.6865 244.844 34.2699 244.749 33.9116 244.557C33.5616 244.357 33.2783 244.107 33.0616 243.807L33.1991 243.444V244.719H31.9117V235.007H33.1866V240.62L33.1616 240.157C33.3616 239.89 33.6533 239.674 34.0366 239.507C34.4199 239.341 34.849 239.257 35.324 239.257C35.7906 239.257 36.2156 239.37 36.5989 239.595C36.9906 239.82 37.2989 240.14 37.5239 240.557C37.7572 240.965 37.8739 241.453 37.8739 242.02C37.8739 242.603 37.7489 243.107 37.4989 243.532C37.2489 243.957 36.9156 244.282 36.4989 244.507C36.0906 244.732 35.6448 244.844 35.1615 244.844ZM34.8865 243.757C35.2032 243.757 35.4865 243.682 35.7365 243.532C35.9948 243.382 36.199 243.174 36.3489 242.907C36.4989 242.64 36.5739 242.34 36.5739 242.007C36.5739 241.682 36.4989 241.39 36.3489 241.132C36.199 240.874 35.9948 240.67 35.7365 240.52C35.4865 240.361 35.2032 240.282 34.8865 240.282C34.6115 240.282 34.3574 240.332 34.1241 240.432C33.8908 240.532 33.6949 240.67 33.5366 240.845C33.3783 241.02 33.2658 241.224 33.1991 241.457V242.569C33.2658 242.803 33.3783 243.011 33.5366 243.194C33.6949 243.369 33.8866 243.507 34.1116 243.607C34.3449 243.707 34.6032 243.757 34.8865 243.757ZM44.9415 235.645C45.4164 235.645 45.8539 235.712 46.2539 235.845C46.6622 235.97 47.008 236.153 47.2913 236.395C47.583 236.636 47.808 236.936 47.9663 237.295C48.1329 237.645 48.2163 238.053 48.2163 238.52C48.2163 238.878 48.1621 239.232 48.0538 239.582C47.9454 239.932 47.7705 240.249 47.5288 240.532C47.2872 240.815 46.9705 241.045 46.5789 241.22C46.1872 241.386 45.6997 241.47 45.1164 241.47H43.7915V244.719H42.4541V235.645H44.9415ZM45.0914 240.195C45.4331 240.195 45.7164 240.14 45.9414 240.032C46.1747 239.924 46.3539 239.79 46.4789 239.632C46.6122 239.465 46.7039 239.291 46.7539 239.107C46.8122 238.916 46.8413 238.732 46.8413 238.557C46.8413 238.391 46.8122 238.216 46.7539 238.032C46.7039 237.849 46.6122 237.674 46.4789 237.507C46.3539 237.341 46.1831 237.203 45.9664 237.095C45.7497 236.986 45.4831 236.932 45.1664 236.932H43.7915V240.195H45.0914ZM46.6289 240.97L48.9787 244.719H47.4288L45.0414 241.007L46.6289 240.97ZM51.5506 244.932C51.0673 244.932 50.6715 244.786 50.3632 244.494C50.0549 244.203 49.8924 243.828 49.8757 243.369V239.482H51.1631V242.907C51.1798 243.174 51.2548 243.394 51.3881 243.569C51.5298 243.736 51.7548 243.824 52.0631 243.832C52.3464 243.832 52.5964 243.749 52.813 243.582C53.038 243.407 53.213 243.174 53.338 242.882C53.4713 242.582 53.538 242.24 53.538 241.857V239.482H54.8254V244.719H53.663L53.563 243.507L53.613 243.707C53.5047 243.94 53.3505 244.153 53.1505 244.344C52.9505 244.528 52.713 244.669 52.4381 244.769C52.1631 244.878 51.8673 244.932 51.5506 244.932ZM57.3432 239.482L57.4682 240.982L57.4057 240.782C57.5474 240.465 57.7474 240.195 58.0057 239.97C58.264 239.745 58.5306 239.574 58.8056 239.457C59.089 239.332 59.3264 239.27 59.5181 239.27L59.4556 240.545C59.0556 240.52 58.7056 240.595 58.4057 240.77C58.114 240.945 57.8849 241.178 57.7182 241.47C57.5515 241.761 57.4682 242.074 57.4682 242.407V244.719H56.1933V239.482H57.3432ZM62.4279 244.844C61.9362 244.844 61.4904 244.744 61.0904 244.544C60.6905 244.336 60.3738 244.028 60.1405 243.619C59.9072 243.211 59.7905 242.707 59.7905 242.107C59.7905 241.515 59.9113 241.007 60.153 240.582C60.403 240.157 60.728 239.832 61.1279 239.607C61.5362 239.374 61.9779 239.257 62.4529 239.257C62.9528 239.257 63.3611 239.366 63.6778 239.582C64.0028 239.79 64.2569 240.036 64.4402 240.32L64.3527 240.52L64.4777 239.482H65.6652V244.719H64.3777V243.407L64.5152 243.719C64.4819 243.786 64.4111 243.882 64.3027 244.007C64.1944 244.124 64.0486 244.249 63.8653 244.382C63.6903 244.515 63.482 244.628 63.2403 244.719C63.007 244.803 62.7362 244.844 62.4279 244.844ZM62.7778 243.794C63.0528 243.794 63.2986 243.744 63.5153 243.644C63.7319 243.544 63.9153 243.403 64.0653 243.219C64.2153 243.036 64.3194 242.819 64.3777 242.569V241.482C64.3111 241.249 64.1986 241.049 64.0403 240.882C63.8819 240.707 63.6903 240.57 63.4653 240.47C63.2486 240.37 63.007 240.32 62.7403 240.32C62.4404 240.32 62.1654 240.395 61.9154 240.545C61.6654 240.686 61.4654 240.886 61.3154 241.145C61.1654 241.403 61.0904 241.703 61.0904 242.045C61.0904 242.369 61.1654 242.665 61.3154 242.932C61.4737 243.199 61.6821 243.411 61.9404 243.569C62.1987 243.719 62.4779 243.794 62.7778 243.794ZM67.0341 235.007H68.3215V244.719H67.0341V235.007ZM73.3409 244.719V235.345H73.3534L78.1781 242.182L77.6032 242.057L82.4029 235.345H82.4279V244.719H81.103V238.357L81.1905 239.045L77.8406 243.782H77.8156L74.4033 239.045L74.6283 238.42V244.719H73.3409ZM85.7575 244.932C85.2742 244.932 84.8784 244.786 84.5701 244.494C84.2618 244.203 84.0993 243.828 84.0826 243.369V239.482H85.3701V242.907C85.3867 243.174 85.4617 243.394 85.595 243.569C85.7367 243.736 85.9617 243.824 86.27 243.832C86.5533 243.832 86.8033 243.749 87.02 243.582C87.245 243.407 87.4199 243.174 87.5449 242.882C87.6783 242.582 87.7449 242.24 87.7449 241.857V239.482H89.0323V244.719H87.8699L87.7699 243.507L87.8199 243.707C87.7116 243.94 87.5574 244.153 87.3574 244.344C87.1575 244.528 86.92 244.669 86.645 244.769C86.37 244.878 86.0742 244.932 85.7575 244.932ZM91.5501 239.482L91.6626 240.682L91.6126 240.52C91.7876 240.145 92.0584 239.845 92.4251 239.62C92.7917 239.386 93.225 239.27 93.725 239.27C94.2167 239.27 94.6208 239.415 94.9374 239.707C95.2624 239.999 95.4291 240.378 95.4374 240.845V244.719H94.15V241.295C94.1417 241.028 94.0625 240.811 93.9125 240.645C93.7625 240.47 93.5292 240.378 93.2125 240.37C92.9292 240.37 92.6709 240.457 92.4376 240.632C92.2043 240.799 92.0209 241.028 91.8876 241.32C91.7543 241.611 91.6876 241.949 91.6876 242.332V244.719H90.4002V239.482H91.5501ZM96.8032 239.482H98.0906V244.719H96.8032V239.482ZM96.7282 237.607C96.7282 237.407 96.8074 237.241 96.9657 237.107C97.124 236.974 97.2949 236.907 97.4782 236.907C97.6698 236.907 97.8407 236.974 97.9907 237.107C98.1406 237.241 98.2156 237.407 98.2156 237.607C98.2156 237.807 98.1406 237.974 97.9907 238.107C97.8407 238.232 97.6698 238.295 97.4782 238.295C97.2949 238.295 97.124 238.232 96.9657 238.107C96.8074 237.974 96.7282 237.807 96.7282 237.607ZM103.734 244.232C103.501 244.424 103.217 244.574 102.884 244.682C102.559 244.79 102.23 244.844 101.897 244.844C101.322 244.844 100.813 244.732 100.372 244.507C99.9383 244.282 99.6009 243.965 99.3592 243.557C99.1175 243.149 98.9967 242.661 98.9967 242.095C98.9967 241.536 99.1259 241.053 99.3842 240.645C99.6425 240.228 99.9842 239.911 100.409 239.695C100.834 239.47 101.284 239.357 101.759 239.357C102.192 239.357 102.576 239.415 102.909 239.532C103.242 239.649 103.53 239.811 103.771 240.02L103.134 240.857C102.992 240.74 102.813 240.636 102.597 240.545C102.388 240.453 102.147 240.407 101.872 240.407C101.58 240.407 101.313 240.482 101.072 240.632C100.83 240.774 100.638 240.974 100.497 241.232C100.355 241.482 100.284 241.77 100.284 242.095C100.284 242.403 100.355 242.69 100.497 242.957C100.647 243.215 100.851 243.419 101.109 243.569C101.367 243.719 101.663 243.794 101.997 243.794C102.213 243.794 102.413 243.765 102.597 243.707C102.78 243.64 102.942 243.549 103.084 243.432L103.734 244.232ZM104.605 239.482H105.892V244.719H104.605V239.482ZM104.53 237.607C104.53 237.407 104.609 237.241 104.767 237.107C104.925 236.974 105.096 236.907 105.28 236.907C105.471 236.907 105.642 236.974 105.792 237.107C105.942 237.241 106.017 237.407 106.017 237.607C106.017 237.807 105.942 237.974 105.792 238.107C105.642 238.232 105.471 238.295 105.28 238.295C105.096 238.295 104.925 238.232 104.767 238.107C104.609 237.974 104.53 237.807 104.53 237.607ZM110.385 244.844C110.002 244.844 109.635 244.761 109.286 244.594C108.936 244.419 108.656 244.186 108.448 243.894L108.523 243.507V247.232H107.248V239.395H108.361L108.536 240.67L108.398 240.307C108.656 240.007 108.973 239.757 109.348 239.557C109.731 239.357 110.156 239.257 110.623 239.257C111.115 239.257 111.556 239.374 111.948 239.607C112.34 239.84 112.648 240.17 112.873 240.595C113.098 241.02 113.21 241.52 113.21 242.095C113.21 242.661 113.085 243.153 112.835 243.569C112.594 243.978 112.26 244.294 111.835 244.519C111.41 244.736 110.927 244.844 110.385 244.844ZM110.135 243.832C110.452 243.832 110.744 243.757 111.01 243.607C111.285 243.457 111.502 243.253 111.66 242.994C111.827 242.728 111.91 242.432 111.91 242.107C111.91 241.765 111.831 241.465 111.673 241.207C111.523 240.94 111.319 240.732 111.06 240.582C110.81 240.432 110.531 240.357 110.223 240.357C109.931 240.357 109.673 240.411 109.448 240.52C109.223 240.62 109.031 240.761 108.873 240.945C108.715 241.128 108.602 241.349 108.536 241.607V242.569C108.586 242.811 108.686 243.028 108.836 243.219C108.986 243.411 109.173 243.561 109.398 243.669C109.623 243.778 109.869 243.832 110.135 243.832ZM116.315 244.844C115.823 244.844 115.377 244.744 114.977 244.544C114.577 244.336 114.261 244.028 114.027 243.619C113.794 243.211 113.677 242.707 113.677 242.107C113.677 241.515 113.798 241.007 114.04 240.582C114.29 240.157 114.615 239.832 115.015 239.607C115.423 239.374 115.865 239.257 116.34 239.257C116.84 239.257 117.248 239.366 117.564 239.582C117.889 239.79 118.144 240.036 118.327 240.32L118.239 240.52L118.364 239.482H119.552V244.719H118.264V243.407L118.402 243.719C118.369 243.786 118.298 243.882 118.189 244.007C118.081 244.124 117.935 244.249 117.752 244.382C117.577 244.515 117.369 244.628 117.127 244.719C116.894 244.803 116.623 244.844 116.315 244.844ZM116.665 243.794C116.94 243.794 117.185 243.744 117.402 243.644C117.619 243.544 117.802 243.403 117.952 243.219C118.102 243.036 118.206 242.819 118.264 242.569V241.482C118.198 241.249 118.085 241.049 117.927 240.882C117.769 240.707 117.577 240.57 117.352 240.47C117.135 240.37 116.894 240.32 116.627 240.32C116.327 240.32 116.052 240.395 115.802 240.545C115.552 240.686 115.352 240.886 115.202 241.145C115.052 241.403 114.977 241.703 114.977 242.045C114.977 242.369 115.052 242.665 115.202 242.932C115.36 243.199 115.569 243.411 115.827 243.569C116.085 243.719 116.365 243.794 116.665 243.794ZM120.921 235.007H122.208V244.719H120.921V235.007ZM131.952 237.382C131.636 237.216 131.294 237.074 130.927 236.957C130.561 236.841 130.207 236.782 129.865 236.782C129.398 236.782 129.028 236.891 128.753 237.107C128.478 237.316 128.34 237.603 128.34 237.97C128.34 238.228 128.432 238.453 128.615 238.645C128.798 238.836 129.036 239.003 129.328 239.145C129.619 239.286 129.927 239.42 130.252 239.545C130.527 239.645 130.798 239.765 131.065 239.907C131.34 240.04 131.586 240.207 131.802 240.407C132.027 240.607 132.202 240.857 132.327 241.157C132.461 241.449 132.527 241.807 132.527 242.232C132.527 242.715 132.406 243.153 132.165 243.544C131.932 243.936 131.59 244.249 131.14 244.482C130.698 244.707 130.161 244.819 129.527 244.819C129.144 244.819 128.769 244.778 128.403 244.694C128.044 244.603 127.703 244.486 127.378 244.344C127.061 244.194 126.773 244.032 126.515 243.857L127.115 242.819C127.315 242.961 127.544 243.099 127.803 243.232C128.061 243.357 128.328 243.457 128.603 243.532C128.886 243.607 129.153 243.644 129.402 243.644C129.677 243.644 129.948 243.599 130.215 243.507C130.482 243.407 130.702 243.257 130.877 243.057C131.052 242.849 131.14 242.578 131.14 242.245C131.14 241.961 131.061 241.724 130.902 241.532C130.752 241.332 130.548 241.161 130.29 241.02C130.04 240.878 129.769 240.753 129.477 240.645C129.194 240.536 128.907 240.415 128.615 240.282C128.323 240.149 128.053 239.99 127.803 239.807C127.553 239.615 127.348 239.382 127.19 239.107C127.04 238.824 126.965 238.478 126.965 238.07C126.965 237.586 127.078 237.166 127.303 236.807C127.536 236.441 127.857 236.153 128.265 235.945C128.673 235.737 129.144 235.62 129.677 235.595C130.286 235.595 130.815 235.67 131.265 235.82C131.715 235.97 132.115 236.149 132.465 236.357L131.952 237.382ZM136.074 244.844C135.466 244.844 134.945 244.728 134.512 244.494C134.078 244.253 133.745 243.924 133.512 243.507C133.278 243.082 133.162 242.599 133.162 242.057C133.162 241.54 133.291 241.074 133.549 240.657C133.816 240.232 134.17 239.895 134.612 239.645C135.062 239.395 135.557 239.27 136.099 239.27C136.799 239.27 137.378 239.474 137.836 239.882C138.303 240.29 138.616 240.861 138.774 241.595L134.512 243.069L134.212 242.319L137.624 241.095L137.361 241.257C137.261 240.999 137.103 240.774 136.887 240.582C136.67 240.382 136.374 240.282 135.999 240.282C135.699 240.282 135.428 240.357 135.187 240.507C134.953 240.649 134.766 240.849 134.624 241.107C134.491 241.357 134.424 241.653 134.424 241.995C134.424 242.344 134.495 242.653 134.637 242.919C134.787 243.178 134.987 243.382 135.237 243.532C135.495 243.682 135.782 243.757 136.099 243.757C136.324 243.757 136.537 243.715 136.737 243.632C136.945 243.549 137.141 243.444 137.324 243.319L137.911 244.269C137.636 244.444 137.336 244.586 137.012 244.694C136.695 244.794 136.382 244.844 136.074 244.844ZM140.75 239.482L140.875 240.982L140.812 240.782C140.954 240.465 141.154 240.195 141.412 239.97C141.67 239.745 141.937 239.574 142.212 239.457C142.495 239.332 142.733 239.27 142.924 239.27L142.862 240.545C142.462 240.52 142.112 240.595 141.812 240.77C141.52 240.945 141.291 241.178 141.125 241.47C140.958 241.761 140.875 242.074 140.875 242.407V244.719H139.6V239.482H140.75ZM145.969 244.857L143.006 239.482H144.531L146.456 243.532L145.669 243.494L147.418 239.482H148.856L146.019 244.857H145.969ZM149.452 239.482H150.739V244.719H149.452V239.482ZM149.377 237.607C149.377 237.407 149.456 237.241 149.614 237.107C149.773 236.974 149.943 236.907 150.127 236.907C150.318 236.907 150.489 236.974 150.639 237.107C150.789 237.241 150.864 237.407 150.864 237.607C150.864 237.807 150.789 237.974 150.639 238.107C150.489 238.232 150.318 238.295 150.127 238.295C149.943 238.295 149.773 238.232 149.614 238.107C149.456 237.974 149.377 237.807 149.377 237.607ZM156.383 244.232C156.149 244.424 155.866 244.574 155.533 244.682C155.208 244.79 154.878 244.844 154.545 244.844C153.97 244.844 153.462 244.732 153.02 244.507C152.587 244.282 152.249 243.965 152.008 243.557C151.766 243.149 151.645 242.661 151.645 242.095C151.645 241.536 151.774 241.053 152.033 240.645C152.291 240.228 152.633 239.911 153.058 239.695C153.483 239.47 153.933 239.357 154.408 239.357C154.841 239.357 155.224 239.415 155.558 239.532C155.891 239.649 156.178 239.811 156.42 240.02L155.783 240.857C155.641 240.74 155.462 240.636 155.245 240.545C155.037 240.453 154.795 240.407 154.52 240.407C154.228 240.407 153.962 240.482 153.72 240.632C153.479 240.774 153.287 240.974 153.145 241.232C153.004 241.482 152.933 241.77 152.933 242.095C152.933 242.403 153.004 242.69 153.145 242.957C153.295 243.215 153.499 243.419 153.758 243.569C154.016 243.719 154.312 243.794 154.645 243.794C154.862 243.794 155.062 243.765 155.245 243.707C155.428 243.64 155.591 243.549 155.733 243.432L156.383 244.232ZM159.716 244.844C159.107 244.844 158.587 244.728 158.153 244.494C157.72 244.253 157.387 243.924 157.153 243.507C156.92 243.082 156.803 242.599 156.803 242.057C156.803 241.54 156.932 241.074 157.191 240.657C157.457 240.232 157.812 239.895 158.253 239.645C158.703 239.395 159.199 239.27 159.741 239.27C160.441 239.27 161.02 239.474 161.478 239.882C161.945 240.29 162.257 240.861 162.415 241.595L158.153 243.069L157.853 242.319L161.266 241.095L161.003 241.257C160.903 240.999 160.745 240.774 160.528 240.582C160.311 240.382 160.016 240.282 159.641 240.282C159.341 240.282 159.07 240.357 158.828 240.507C158.595 240.649 158.407 240.849 158.266 241.107C158.132 241.357 158.066 241.653 158.066 241.995C158.066 242.344 158.137 242.653 158.278 242.919C158.428 243.178 158.628 243.382 158.878 243.532C159.136 243.682 159.424 243.757 159.741 243.757C159.966 243.757 160.178 243.715 160.378 243.632C160.586 243.549 160.782 243.444 160.966 243.319L161.553 244.269C161.278 244.444 160.978 244.586 160.653 244.694C160.336 244.794 160.024 244.844 159.716 244.844ZM164.766 244.832C164.383 244.832 164.012 244.765 163.654 244.632C163.295 244.49 163 244.286 162.766 244.019L163.316 243.294C163.541 243.503 163.766 243.661 163.991 243.769C164.225 243.869 164.445 243.919 164.654 243.919C164.82 243.919 164.97 243.903 165.104 243.869C165.237 243.828 165.345 243.761 165.429 243.669C165.512 243.578 165.554 243.457 165.554 243.307C165.554 243.132 165.495 242.994 165.379 242.894C165.262 242.794 165.112 242.711 164.929 242.644C164.745 242.578 164.55 242.515 164.341 242.457C163.9 242.315 163.566 242.115 163.341 241.857C163.116 241.59 163.004 241.278 163.004 240.92C163.004 240.645 163.07 240.386 163.204 240.145C163.345 239.895 163.558 239.69 163.841 239.532C164.125 239.374 164.475 239.295 164.891 239.295C165.274 239.295 165.612 239.341 165.904 239.432C166.195 239.515 166.466 239.661 166.716 239.87L166.216 240.645C166.066 240.495 165.887 240.382 165.679 240.307C165.479 240.224 165.295 240.178 165.129 240.17C164.979 240.17 164.841 240.195 164.716 240.245C164.591 240.286 164.491 240.353 164.416 240.445C164.341 240.528 164.304 240.628 164.304 240.745C164.295 240.911 164.35 241.049 164.466 241.157C164.591 241.257 164.75 241.34 164.941 241.407C165.133 241.465 165.32 241.528 165.504 241.595C165.762 241.67 165.991 241.774 166.191 241.907C166.391 242.032 166.549 242.186 166.666 242.369C166.783 242.553 166.841 242.786 166.841 243.069C166.841 243.378 166.766 243.669 166.616 243.944C166.466 244.211 166.237 244.428 165.929 244.594C165.62 244.753 165.233 244.832 164.766 244.832ZM178.176 244.032C178.043 244.124 177.843 244.236 177.576 244.369C177.318 244.494 177.009 244.603 176.651 244.694C176.301 244.786 175.914 244.828 175.489 244.819C174.78 244.811 174.143 244.686 173.576 244.444C173.018 244.203 172.543 243.874 172.151 243.457C171.76 243.032 171.456 242.549 171.239 242.007C171.031 241.457 170.926 240.874 170.926 240.257C170.926 239.574 171.035 238.949 171.251 238.382C171.468 237.807 171.776 237.307 172.176 236.882C172.585 236.457 173.06 236.128 173.601 235.895C174.151 235.662 174.751 235.545 175.401 235.545C175.959 235.545 176.464 235.62 176.914 235.77C177.364 235.92 177.743 236.095 178.051 236.295L177.526 237.545C177.284 237.378 176.984 237.22 176.626 237.07C176.276 236.911 175.884 236.832 175.451 236.832C175.026 236.832 174.622 236.92 174.239 237.095C173.864 237.261 173.53 237.499 173.239 237.807C172.955 238.107 172.73 238.461 172.564 238.87C172.397 239.27 172.314 239.707 172.314 240.182C172.314 240.665 172.389 241.111 172.539 241.52C172.689 241.928 172.901 242.282 173.176 242.582C173.46 242.882 173.797 243.115 174.189 243.282C174.58 243.449 175.022 243.532 175.514 243.532C175.98 243.532 176.389 243.461 176.739 243.319C177.097 243.178 177.389 243.015 177.614 242.832L178.176 244.032ZM178.839 242.045C178.839 241.52 178.964 241.049 179.214 240.632C179.464 240.207 179.81 239.874 180.251 239.632C180.693 239.391 181.197 239.27 181.764 239.27C182.339 239.27 182.843 239.391 183.276 239.632C183.709 239.874 184.043 240.207 184.276 240.632C184.518 241.049 184.639 241.52 184.639 242.045C184.639 242.569 184.518 243.044 184.276 243.469C184.043 243.894 183.709 244.232 183.276 244.482C182.843 244.724 182.335 244.844 181.751 244.844C181.193 244.844 180.693 244.732 180.251 244.507C179.818 244.282 179.472 243.961 179.214 243.544C178.964 243.119 178.839 242.619 178.839 242.045ZM180.139 242.057C180.139 242.382 180.21 242.678 180.351 242.944C180.493 243.203 180.685 243.411 180.926 243.569C181.168 243.719 181.439 243.794 181.739 243.794C182.047 243.794 182.322 243.719 182.564 243.569C182.805 243.411 182.993 243.203 183.126 242.944C183.268 242.678 183.339 242.382 183.339 242.057C183.339 241.732 183.268 241.44 183.126 241.182C182.993 240.924 182.805 240.715 182.564 240.557C182.322 240.399 182.047 240.32 181.739 240.32C181.43 240.32 181.155 240.399 180.914 240.557C180.672 240.715 180.48 240.928 180.339 241.195C180.205 241.453 180.139 241.74 180.139 242.057ZM186.708 239.482L186.82 240.607L186.77 240.52C186.97 240.128 187.245 239.824 187.595 239.607C187.945 239.382 188.349 239.27 188.807 239.27C189.091 239.27 189.345 239.316 189.57 239.407C189.803 239.499 189.995 239.628 190.145 239.795C190.295 239.961 190.391 240.17 190.432 240.42L190.37 240.457C190.578 240.09 190.853 239.803 191.195 239.595C191.545 239.378 191.916 239.27 192.307 239.27C192.816 239.27 193.22 239.415 193.52 239.707C193.828 239.999 193.986 240.374 193.995 240.832V244.719H192.72V241.32C192.711 241.061 192.649 240.845 192.532 240.67C192.424 240.495 192.228 240.399 191.945 240.382C191.645 240.382 191.378 240.474 191.145 240.657C190.92 240.84 190.745 241.078 190.62 241.37C190.495 241.661 190.428 241.974 190.42 242.307V244.719H189.132V241.32C189.124 241.061 189.062 240.845 188.945 240.67C188.828 240.495 188.624 240.399 188.332 240.382C188.032 240.382 187.77 240.474 187.545 240.657C187.32 240.84 187.145 241.082 187.02 241.382C186.903 241.674 186.845 241.982 186.845 242.307V244.719H185.558V239.482H186.708ZM198.504 244.844C198.12 244.844 197.754 244.761 197.404 244.594C197.054 244.419 196.774 244.186 196.566 243.894L196.641 243.507V247.232H195.366V239.395H196.479L196.654 240.67L196.516 240.307C196.774 240.007 197.091 239.757 197.466 239.557C197.849 239.357 198.274 239.257 198.741 239.257C199.233 239.257 199.674 239.374 200.066 239.607C200.458 239.84 200.766 240.17 200.991 240.595C201.216 241.02 201.328 241.52 201.328 242.095C201.328 242.661 201.203 243.153 200.953 243.569C200.712 243.978 200.378 244.294 199.953 244.519C199.528 244.736 199.045 244.844 198.504 244.844ZM198.254 243.832C198.57 243.832 198.862 243.757 199.128 243.607C199.403 243.457 199.62 243.253 199.778 242.994C199.945 242.728 200.028 242.432 200.028 242.107C200.028 241.765 199.949 241.465 199.791 241.207C199.641 240.94 199.437 240.732 199.178 240.582C198.928 240.432 198.649 240.357 198.341 240.357C198.049 240.357 197.791 240.411 197.566 240.52C197.341 240.62 197.149 240.761 196.991 240.945C196.833 241.128 196.72 241.349 196.654 241.607V242.569C196.704 242.811 196.804 243.028 196.954 243.219C197.104 243.411 197.291 243.561 197.516 243.669C197.741 243.778 197.987 243.832 198.254 243.832ZM204.433 244.844C203.941 244.844 203.495 244.744 203.095 244.544C202.695 244.336 202.379 244.028 202.145 243.619C201.912 243.211 201.795 242.707 201.795 242.107C201.795 241.515 201.916 241.007 202.158 240.582C202.408 240.157 202.733 239.832 203.133 239.607C203.541 239.374 203.983 239.257 204.458 239.257C204.958 239.257 205.366 239.366 205.683 239.582C206.008 239.79 206.262 240.036 206.445 240.32L206.358 240.52L206.483 239.482H207.67V244.719H206.383V243.407L206.52 243.719C206.487 243.786 206.416 243.882 206.308 244.007C206.199 244.124 206.053 244.249 205.87 244.382C205.695 244.515 205.487 244.628 205.245 244.719C205.012 244.803 204.741 244.844 204.433 244.844ZM204.783 243.794C205.058 243.794 205.303 243.744 205.52 243.644C205.737 243.544 205.92 243.403 206.07 243.219C206.22 243.036 206.324 242.819 206.383 242.569V241.482C206.316 241.249 206.203 241.049 206.045 240.882C205.887 240.707 205.695 240.57 205.47 240.47C205.253 240.37 205.012 240.32 204.745 240.32C204.445 240.32 204.17 240.395 203.92 240.545C203.67 240.686 203.47 240.886 203.32 241.145C203.17 241.403 203.095 241.703 203.095 242.045C203.095 242.369 203.17 242.665 203.32 242.932C203.479 243.199 203.687 243.411 203.945 243.569C204.203 243.719 204.483 243.794 204.783 243.794ZM210.189 239.482L210.301 240.682L210.251 240.52C210.426 240.145 210.697 239.845 211.064 239.62C211.43 239.386 211.864 239.27 212.364 239.27C212.855 239.27 213.259 239.415 213.576 239.707C213.901 239.999 214.068 240.378 214.076 240.845V244.719H212.789V241.295C212.78 241.028 212.701 240.811 212.551 240.645C212.401 240.47 212.168 240.378 211.851 240.37C211.568 240.37 211.31 240.457 211.076 240.632C210.843 240.799 210.66 241.028 210.526 241.32C210.393 241.611 210.326 241.949 210.326 242.332V244.719H209.039V239.482H210.189ZM215.684 247.232L219.146 239.482H220.321L216.947 247.232H215.684ZM217.009 244.757L214.472 239.482H215.922L217.996 244.107L217.009 244.757Z" fill="black"/>
<defs>
<linearGradient id="paint0_linear_359_554" x1="79.1804" y1="29.5433" x2="119.988" y2="98.5512" gradientUnits="userSpaceOnUse">
<stop stop-color="#284394"/>
<stop offset="1" stop-color="#1C76B7"/>
</linearGradient>
<linearGradient id="paint1_linear_359_554" x1="83.2696" y1="27.1242" x2="124.079" y2="96.1342" gradientUnits="userSpaceOnUse">
<stop stop-color="#284394"/>
<stop offset="1" stop-color="#1C76B7"/>
</linearGradient>
<linearGradient id="paint2_linear_359_554" x1="74.481" y1="32.3198" x2="115.291" y2="101.33" gradientUnits="userSpaceOnUse">
<stop stop-color="#284394"/>
<stop offset="1" stop-color="#1C76B7"/>
</linearGradient>
<linearGradient id="paint3_linear_359_554" x1="109.077" y1="11.862" x2="149.887" y2="80.872" gradientUnits="userSpaceOnUse">
<stop stop-color="#284394"/>
<stop offset="1" stop-color="#1C76B7"/>
</linearGradient>
</defs>
</svg>
