<svg width="26" height="26" viewBox="0 0 26 26" fill="none" xmlns="http://www.w3.org/2000/svg">
<path d="M18.9942 1.75549H19.869C19.9007 1.77114 19.9339 1.78345 19.9682 1.79224C20.9654 1.94305 21.8949 2.38829 22.6375 3.07088C23.38 3.75347 23.9018 4.64228 24.1358 5.62336C24.1749 5.79132 24.2075 5.96104 24.2431 6.12959V7.0044C24.2064 7.17353 24.172 7.34267 24.1329 7.51122C23.9113 8.46477 23.3881 9.23752 22.7052 9.92046C18.4672 14.1546 14.2307 18.3903 9.99582 22.6275C9.91301 22.7097 9.83019 22.792 9.74446 22.8707C9.12625 23.4352 8.4264 23.8511 7.6029 24.0406C7.43494 24.0797 7.26581 24.1141 7.09667 24.1508H6.22186C6.19054 24.1347 6.15746 24.1222 6.12329 24.1135C5.13286 23.9645 4.20902 23.5246 3.46899 22.8497C2.72896 22.1747 2.2061 21.2952 1.96674 20.3226C1.923 20.1413 1.88742 19.9575 1.8501 19.7744V18.8996C1.86359 18.8822 1.87368 18.8624 1.87984 18.8413C2.01981 17.6877 2.59544 16.7685 3.40377 15.9666C4.702 14.6777 5.99149 13.3807 7.28563 12.0871C10.2748 9.09872 13.2645 6.11092 16.2549 3.12371C16.767 2.60053 17.3966 2.20723 18.0914 1.97653C18.3842 1.88672 18.6921 1.82839 18.9942 1.75549ZM8.39432 14.8754C8.46314 15.934 9.07318 16.8309 10.19 17.3453C11.2771 17.8469 12.3024 17.6469 13.1551 16.8257C14.4329 15.5922 15.6845 14.3278 16.9267 13.0541C17.5682 12.3939 17.8441 11.5797 17.6307 10.6629C17.3705 9.54779 16.6719 8.79311 15.5894 8.43619C14.5723 8.10143 13.6648 8.3697 12.9148 9.10105C11.6603 10.3229 10.428 11.568 9.19857 12.8109C8.68884 13.3264 8.39432 13.9505 8.39432 14.8754ZM20.4388 5.1527C20.4336 5.22838 20.451 5.30389 20.4886 5.36974C20.5263 5.43558 20.5826 5.48881 20.6504 5.52272C20.7183 5.55664 20.7946 5.56971 20.8699 5.56031C20.9452 5.55091 21.016 5.51944 21.0734 5.46988C21.1308 5.42031 21.1723 5.35487 21.1926 5.28178C21.2129 5.2087 21.2111 5.13124 21.1875 5.05917C21.1638 4.98709 21.1194 4.92363 21.0597 4.87676C21.0001 4.82989 20.9279 4.80171 20.8523 4.79578C20.7502 4.7887 20.6495 4.82224 20.5721 4.8891C20.4946 4.95595 20.4467 5.0507 20.4388 5.1527ZM18.5142 5.75108C18.5889 5.74913 18.6613 5.72523 18.7225 5.68236C18.7837 5.63948 18.8309 5.57954 18.8582 5.51001C18.8855 5.44048 18.8918 5.36444 18.8761 5.29139C18.8605 5.21834 18.8237 5.15151 18.7703 5.09925C18.7169 5.04698 18.6493 5.0116 18.576 4.99752C18.5026 4.98344 18.4267 4.99127 18.3578 5.02006C18.2889 5.04884 18.2299 5.09729 18.1884 5.15936C18.1468 5.22143 18.1244 5.29437 18.1241 5.36908C18.1247 5.41983 18.1353 5.46995 18.1553 5.51658C18.1754 5.5632 18.2045 5.60539 18.2409 5.64073C18.2773 5.67608 18.3204 5.70387 18.3676 5.7225C18.4148 5.74114 18.4652 5.75026 18.516 5.74933L18.5142 5.75108ZM21.008 7.49489C21.0083 7.42004 20.9866 7.34677 20.9455 7.28423C20.9044 7.22168 20.8458 7.17262 20.777 7.14319C20.7081 7.11376 20.6322 7.10526 20.5586 7.11875C20.485 7.13224 20.4169 7.16711 20.363 7.21903C20.3091 7.27094 20.2717 7.33759 20.2555 7.41064C20.2392 7.4837 20.2448 7.55992 20.2716 7.62979C20.2985 7.69967 20.3453 7.76009 20.4062 7.80352C20.4672 7.84695 20.5396 7.87145 20.6144 7.87397C20.6653 7.87498 20.716 7.86592 20.7635 7.84731C20.811 7.82871 20.8543 7.80093 20.8911 7.76556C20.9278 7.73018 20.9572 7.68791 20.9775 7.64117C20.9979 7.59442 21.0089 7.54412 21.0098 7.49314L21.008 7.49489ZM5.46718 18.0335C5.39071 18.0311 5.31524 18.0515 5.25034 18.092C5.18544 18.1325 5.13401 18.1914 5.10258 18.2611C5.07114 18.3309 5.0611 18.4084 5.07373 18.4839C5.08637 18.5593 5.1211 18.6293 5.17355 18.685C5.22599 18.7408 5.29378 18.7797 5.36834 18.7968C5.4429 18.814 5.52088 18.8086 5.5924 18.7815C5.66393 18.7543 5.72578 18.7065 5.77014 18.6442C5.8145 18.5819 5.83937 18.5078 5.8416 18.4313C5.84412 18.329 5.80622 18.2299 5.73612 18.1555C5.66603 18.081 5.56938 18.0372 5.46718 18.0335ZM7.58482 20.9175C7.65945 20.9149 7.73165 20.8903 7.79242 20.8469C7.85319 20.8035 7.89983 20.7432 7.92653 20.6735C7.95323 20.6037 7.9588 20.5277 7.94255 20.4548C7.92631 20.3819 7.88896 20.3154 7.83517 20.2636C7.78138 20.2118 7.71353 20.177 7.64008 20.1635C7.56663 20.15 7.49084 20.1584 7.42216 20.1878C7.35347 20.2171 7.29494 20.266 7.25386 20.3283C7.21278 20.3907 7.19097 20.4638 7.19115 20.5384C7.19315 20.6409 7.23573 20.7384 7.30954 20.8094C7.38335 20.8805 7.48237 20.9194 7.58482 20.9175ZM5.65322 20.7391C5.65501 20.6634 5.63439 20.5889 5.59395 20.5249C5.5535 20.4609 5.49504 20.4104 5.42592 20.3795C5.3568 20.3487 5.28011 20.339 5.20549 20.3516C5.13087 20.3643 5.06165 20.3987 5.00654 20.4506C4.95143 20.5024 4.91289 20.5694 4.89577 20.6432C4.87865 20.7169 4.88371 20.794 4.91032 20.8649C4.93693 20.9357 4.98389 20.9971 5.0453 21.0414C5.10672 21.0856 5.17984 21.1107 5.25547 21.1135C5.3578 21.1163 5.45708 21.0785 5.53162 21.0083C5.60615 20.9382 5.64987 20.8414 5.65322 20.7391ZM18.3305 8.05885C18.4054 8.05666 18.4781 8.03236 18.5392 7.98901C18.6004 7.94566 18.6474 7.88519 18.6743 7.81521C18.7012 7.74523 18.7068 7.66886 18.6905 7.59569C18.6741 7.52253 18.6364 7.45584 18.5823 7.40401C18.5281 7.35218 18.4598 7.31752 18.386 7.30438C18.3122 7.29125 18.2361 7.30023 18.1674 7.3302C18.0987 7.36017 18.0403 7.40979 17.9997 7.47281C17.9591 7.53584 17.9381 7.60946 17.9392 7.68443C17.9386 7.7352 17.9485 7.78554 17.9682 7.83234C17.9879 7.87914 18.017 7.9214 18.0536 7.9565C18.0903 7.9916 18.1338 8.0188 18.1815 8.0364C18.2291 8.05401 18.2798 8.06165 18.3305 8.05885ZM8.15171 18.2237C8.1509 18.1489 8.12802 18.076 8.08594 18.0142C8.04386 17.9523 7.98446 17.9043 7.91519 17.8761C7.84592 17.8479 7.76986 17.8408 7.69656 17.8557C7.62326 17.8705 7.55598 17.9067 7.50318 17.9597C7.45037 18.0127 7.41439 18.08 7.39974 18.1534C7.38509 18.2267 7.39243 18.3028 7.42084 18.372C7.44924 18.4411 7.49745 18.5004 7.55941 18.5423C7.62138 18.5842 7.69433 18.6068 7.76912 18.6074C7.81986 18.6089 7.87035 18.5999 7.91751 18.5811C7.96466 18.5624 8.00747 18.5341 8.04331 18.4982C8.07915 18.4622 8.10725 18.4193 8.12589 18.3721C8.14453 18.3249 8.15332 18.2744 8.15171 18.2237Z" fill="#39B349"/>
<path d="M5.32389 0.85791H6.19871C6.21606 0.871613 6.23585 0.881904 6.25703 0.888237C7.39371 1.02588 8.30877 1.58284 9.10078 2.38009C9.88111 3.16588 10.6638 3.94932 11.4488 4.73044C11.4984 4.78001 11.5444 4.83367 11.5654 4.85466C9.35195 7.06815 7.14721 9.27288 4.95122 11.4689C4.93977 11.4632 4.92933 11.4557 4.92031 11.4467C4.02566 10.5538 3.12752 9.67025 2.24745 8.76743C1.70188 8.21565 1.30743 7.53279 1.10202 6.78451C1.04078 6.56173 0.999375 6.33369 0.949219 6.10799V5.23317C0.964609 5.20137 0.976913 5.16817 0.985961 5.13402C1.32656 3.14527 2.47257 1.82313 4.33768 1.10986C4.6532 0.989133 4.99496 0.93956 5.32389 0.85791ZM7.11436 7.40855C7.21431 7.40637 7.30953 7.36551 7.37997 7.29455C7.4504 7.22359 7.49057 7.12807 7.492 7.0281C7.49344 6.92813 7.45603 6.8315 7.38767 6.75854C7.3193 6.68559 7.22529 6.642 7.12544 6.63696C7.07363 6.63434 7.02182 6.64219 6.97311 6.66004C6.9244 6.67789 6.87979 6.70537 6.84194 6.74084C6.80409 6.77632 6.77378 6.81905 6.75281 6.8665C6.73184 6.91395 6.72065 6.96514 6.71991 7.01701C6.71916 7.06888 6.72888 7.12037 6.74847 7.1684C6.76807 7.21643 6.79715 7.26002 6.83396 7.29657C6.87078 7.33311 6.91458 7.36186 6.96276 7.3811C7.01093 7.40034 7.06249 7.40968 7.11436 7.40855ZM7.30098 4.71469C7.30017 4.64006 7.27738 4.56731 7.23545 4.50556C7.19352 4.44381 7.13432 4.39578 7.06525 4.36749C6.99618 4.3392 6.9203 4.33189 6.8471 4.34649C6.7739 4.36108 6.70662 4.39693 6.65368 4.44955C6.60074 4.50217 6.56449 4.56922 6.54945 4.64234C6.53441 4.71545 6.54125 4.79137 6.56913 4.86061C6.597 4.92985 6.64467 4.98934 6.70616 5.03164C6.76766 5.07394 6.84027 5.09718 6.9149 5.09845C6.96547 5.09868 7.01558 5.08892 7.06238 5.06975C7.10917 5.05057 7.15172 5.02235 7.18759 4.9867C7.22345 4.95105 7.25193 4.90867 7.27139 4.862C7.29085 4.81532 7.30091 4.76526 7.30098 4.71469ZM4.80658 7.20909C4.88111 7.20748 4.95351 7.18397 5.01476 7.14149C5.07601 7.09901 5.1234 7.03944 5.15103 6.97021C5.17865 6.90098 5.18528 6.82514 5.1701 6.75217C5.15491 6.67919 5.11858 6.61229 5.06564 6.55983C5.01269 6.50736 4.94547 6.47163 4.87236 6.45711C4.79925 6.44259 4.72348 6.44991 4.6545 6.47816C4.58552 6.50641 4.52638 6.55434 4.48446 6.61597C4.44254 6.67761 4.41968 6.75022 4.41875 6.82475C4.4189 6.87548 4.42906 6.92567 4.44865 6.97246C4.46824 7.01925 4.49687 7.06171 4.53289 7.09742C4.56892 7.13312 4.61165 7.16137 4.65861 7.18053C4.70558 7.19969 4.75586 7.2094 4.80658 7.20909ZM4.61996 4.13848C4.54447 4.13679 4.47017 4.15748 4.40642 4.19794C4.34266 4.23839 4.2923 4.29681 4.26169 4.36583C4.23107 4.43485 4.22156 4.51139 4.23435 4.5858C4.24715 4.66022 4.28168 4.72918 4.33359 4.78401C4.38551 4.83884 4.45248 4.87708 4.52609 4.89392C4.59969 4.91076 4.67664 4.90544 4.74722 4.87864C4.81781 4.85183 4.87889 4.80474 4.92277 4.74329C4.96665 4.68184 4.99136 4.60878 4.9938 4.53331C4.99551 4.48276 4.98716 4.43237 4.96924 4.38507C4.95132 4.33776 4.92418 4.29449 4.8894 4.25776C4.85463 4.22103 4.8129 4.19157 4.76664 4.17109C4.72039 4.15062 4.67053 4.13953 4.61996 4.13848Z" fill="#22838F"/>
<path d="M25.1406 19.7998V20.6308C25.1255 20.6778 25.1128 20.7255 25.1027 20.7737C24.775 22.7257 23.6517 24.0356 21.8402 24.7676C21.4903 24.9105 21.0961 24.9577 20.7228 25.0487H19.8917C19.8679 25.0334 19.842 25.0218 19.8147 25.0143C18.9017 24.9104 18.0474 24.5116 17.3816 23.8782C16.4088 22.9567 15.4751 21.9944 14.5238 21.0484C14.5157 21.0403 14.518 21.0216 14.5238 21.0554L21.1439 14.4371C21.1554 14.4431 21.166 14.4508 21.1754 14.4599C22.0613 15.3464 22.9548 16.2253 23.829 17.1234C24.4232 17.7213 24.8394 18.4727 25.031 19.2935C25.0695 19.4644 25.1039 19.6312 25.1406 19.7998ZM18.9691 18.4975C18.893 18.4987 18.8189 18.5225 18.7562 18.5657C18.6936 18.6089 18.6451 18.6697 18.6169 18.7405C18.5887 18.8112 18.582 18.8887 18.5977 18.9632C18.6134 19.0376 18.6508 19.1058 18.7052 19.1591C18.7595 19.2125 18.8284 19.2485 18.9032 19.2628C18.978 19.277 19.0553 19.2688 19.1255 19.2392C19.1957 19.2097 19.2555 19.16 19.2975 19.0965C19.3395 19.033 19.3618 18.9585 19.3616 18.8824C19.3583 18.78 19.3156 18.6829 19.2425 18.6112C19.1694 18.5395 19.0715 18.4988 18.9691 18.4975ZM21.6711 19.0848C21.6738 19.0086 21.6539 18.9333 21.6138 18.8685C21.5738 18.8036 21.5154 18.7521 21.4461 18.7204C21.3768 18.6887 21.2996 18.6783 21.2243 18.6905C21.1491 18.7026 21.0791 18.7368 21.0233 18.7887C20.9675 18.8406 20.9283 18.9079 20.9107 18.9821C20.8932 19.0562 20.898 19.134 20.9245 19.2054C20.9511 19.2768 20.9982 19.3388 21.06 19.3835C21.1218 19.4281 21.1954 19.4534 21.2716 19.4563C21.3223 19.4584 21.3729 19.4505 21.4206 19.433C21.4682 19.4154 21.5119 19.3886 21.549 19.354C21.5862 19.3195 21.6161 19.2779 21.6371 19.2316C21.658 19.1854 21.6696 19.1355 21.6711 19.0848ZM19.158 21.5792C19.2342 21.5824 19.3095 21.563 19.3747 21.5235C19.4398 21.4839 19.4917 21.426 19.5239 21.3569C19.5561 21.2879 19.5671 21.2109 19.5556 21.1355C19.544 21.0602 19.5104 20.99 19.459 20.9338C19.4076 20.8776 19.3407 20.8379 19.2667 20.8197C19.1927 20.8015 19.115 20.8056 19.0433 20.8315C18.9717 20.8574 18.9094 20.904 18.8642 20.9654C18.819 21.0267 18.793 21.1 18.7895 21.1762C18.7868 21.2269 18.7942 21.2777 18.8114 21.3255C18.8286 21.3734 18.855 21.4173 18.8894 21.4548C18.9237 21.4923 18.9651 21.5227 19.0112 21.544C19.0573 21.5653 19.1072 21.5773 19.158 21.5792ZM21.4693 21.0041C21.3938 21.0058 21.3206 21.0299 21.2587 21.0731C21.1969 21.1164 21.1492 21.177 21.1217 21.2473C21.0943 21.3177 21.0882 21.3945 21.1043 21.4683C21.1204 21.542 21.158 21.6094 21.2123 21.6618C21.2666 21.7142 21.3352 21.7494 21.4095 21.763C21.4838 21.7765 21.5604 21.7678 21.6297 21.7379C21.699 21.708 21.7579 21.6582 21.799 21.5949C21.8401 21.5316 21.8615 21.4575 21.8606 21.382C21.8601 21.3314 21.8495 21.2814 21.8295 21.2349C21.8095 21.1884 21.7804 21.1464 21.744 21.1112C21.7076 21.076 21.6646 21.0485 21.6174 21.0301C21.5703 21.0117 21.5199 21.0029 21.4693 21.0041Z" fill="#22838F"/>
<path d="M14.9585 9.08948C15.7166 9.14022 16.3698 9.58813 16.7378 10.4058C17.0878 11.1826 16.9466 11.9221 16.3599 12.5258C15.1299 13.7896 13.8871 15.0412 12.618 16.2659C11.7939 17.0608 10.6351 17.0002 9.81861 16.1843C9.00211 15.3683 8.94729 14.1897 9.74687 13.365C10.9716 12.1041 12.222 10.8724 13.4707 9.6377C13.8352 9.27669 14.2883 9.08832 14.9585 9.08948Z" fill="#39B349"/>
</svg>
