<svg width="14" height="15" viewBox="0 0 14 15" fill="none" xmlns="http://www.w3.org/2000/svg">
<path fill-rule="evenodd" clip-rule="evenodd" d="M13.7301 1.18985C13.6681 0.984142 13.5699 0.79113 13.4401 0.619849C13.3228 0.454695 13.1731 0.315187 13.0001 0.209849C12.814 0.0990562 12.6057 0.0307612 12.3901 0.00984874C12.1749 -0.0100726 11.9579 0.0102745 11.7501 0.0698487L1.17012 3.14985C0.832108 3.25815 0.537707 3.47194 0.330122 3.75985C0.119989 4.05075 0.00791164 4.40099 0.0101222 4.75985V9.18985H0.000122191C-0.0043078 9.55063 0.111831 9.90257 0.330122 10.1898C0.534626 10.4743 0.825852 10.6849 1.16012 10.7898L2.31012 11.0198L2.47012 11.0698C2.49116 11.7495 2.72167 12.4062 3.13012 12.9498C3.55645 13.5267 4.15714 13.9509 4.84331 14.1598C5.52949 14.3688 6.26469 14.3512 6.94012 14.1098C7.58279 13.8865 8.14132 13.4711 8.54012 12.9198L11.7001 13.9198C11.8488 13.9675 12.004 13.9911 12.1601 13.9898C12.5917 13.9821 13.0033 13.8065 13.3076 13.5003C13.6119 13.1942 13.785 12.7815 13.7901 12.3498V1.66985C13.7896 1.50801 13.7695 1.34683 13.7301 1.18985ZM6.78012 13.0198C6.37699 13.2126 5.92543 13.2803 5.4835 13.2144C5.04157 13.1484 4.62945 12.9518 4.30012 12.6498C3.94241 12.3284 3.69708 11.9009 3.60012 11.4298L7.40012 12.5898C7.21951 12.7675 7.00981 12.9129 6.78012 13.0198ZM12.6801 12.5198C12.652 12.59 12.6114 12.6544 12.5601 12.7098C12.511 12.7642 12.4492 12.8055 12.3801 12.8298C12.3109 12.8447 12.2393 12.8447 12.1701 12.8298H12.0001L7.73012 11.5298L3.33012 10.1598L1.46012 9.66985C1.34975 9.63632 1.25436 9.56567 1.19012 9.46985C1.1152 9.37267 1.07632 9.2525 1.08012 9.12985V4.74985C1.08151 4.63107 1.11997 4.5157 1.19012 4.41985C1.25755 4.3207 1.35606 4.24682 1.47012 4.20985L12.0001 1.10985C12.0698 1.1 12.1405 1.1 12.2101 1.10985C12.28 1.12259 12.3475 1.14621 12.4101 1.17985C12.4722 1.21545 12.5266 1.26304 12.5701 1.31985C12.608 1.37559 12.6382 1.43612 12.6601 1.49985C12.67 1.55608 12.67 1.61361 12.6601 1.66985V12.2998C12.6772 12.3685 12.6839 12.4392 12.6801 12.5098V12.5198Z" fill="white"/>
</svg>
