<svg width="13" height="14" viewBox="0 0 13 14" fill="none" xmlns="http://www.w3.org/2000/svg">
<path d="M0 1.4C0 0.626801 0.612606 0 1.36829 0H5.59099C5.95393 0 6.30196 0.147497 6.55851 0.410053L10.054 3.98646C9.98233 4.04379 9.9133 4.10619 9.84741 4.17364L8.45333 5.6H6.84147C6.08577 5.6 5.47318 4.9732 5.47318 4.2V1.05H1.36829C1.17937 1.05 1.02622 1.2067 1.02622 1.4V12.6C1.02622 12.7933 1.17937 12.95 1.36829 12.95H9.57806C9.76696 12.95 9.92014 12.7933 9.92014 12.6V10.6045L10.9464 9.55451V12.6C10.9464 13.3732 10.3338 14 9.57806 14H1.36829C0.612606 14 0 13.3732 0 12.6V1.4ZM6.84147 4.55H9.15341L6.4994 1.83446V4.2C6.4994 4.3933 6.65258 4.55 6.84147 4.55ZM6.29238 8.80033L10.3306 4.66862C10.9412 4.0438 11.9313 4.0438 12.542 4.66862C13.1527 5.29346 13.1527 6.30651 12.542 6.93133L8.50388 11.063C8.2684 11.304 7.9734 11.4748 7.65041 11.5574L6.39794 11.8778C6.32029 11.8977 6.24367 11.9045 6.16978 11.8999C6.16567 11.8999 6.1615 11.9 6.15733 11.9H2.56555C2.28217 11.9 2.05244 11.6649 2.05244 11.375C2.05244 11.0851 2.28217 10.85 2.56555 10.85H5.52175L5.80916 9.67358C5.88996 9.34304 6.05696 9.0412 6.29238 8.80033Z" fill="white"/>
</svg>
