<svg width="14" height="15" viewBox="0 0 14 15" fill="none" xmlns="http://www.w3.org/2000/svg">
<path d="M10.5999 1.10005V0.500049C10.6043 0.433244 10.5944 0.366266 10.5708 0.3036C10.5472 0.240933 10.5106 0.184024 10.4632 0.136683C10.4159 0.0893422 10.359 0.0526615 10.2963 0.0290973C10.2336 0.00553306 10.1667 -0.00437086 10.0999 4.8599e-05C9.97032 0.00933607 9.84847 0.0649965 9.75664 0.156828C9.66481 0.24866 9.60915 0.370511 9.59986 0.500049V1.00005H5.29986V0.500049C5.30428 0.433244 5.29438 0.366266 5.27081 0.3036C5.24725 0.240933 5.21057 0.184024 5.16323 0.136683C5.11588 0.0893422 5.05897 0.0526615 4.99631 0.0290973C4.93364 0.00553306 4.86666 -0.00437086 4.79986 4.8599e-05C4.67032 0.00933607 4.54847 0.0649965 4.45664 0.156828C4.36481 0.24866 4.30915 0.370511 4.29986 0.500049V1.00005C3.82901 1.01952 3.3671 1.13497 2.94246 1.33932C2.51782 1.54367 2.1394 1.83261 1.83041 2.18842C1.52141 2.54423 1.28836 2.95941 1.14554 3.4085C1.00272 3.85759 0.95315 4.33112 0.99986 4.80005V10.4C0.948362 10.9118 1.01127 11.4286 1.18403 11.913C1.35679 12.3975 1.63508 12.8375 1.99876 13.2011C2.36245 13.5648 2.80243 13.8431 3.28688 14.0159C3.77132 14.1886 4.28812 14.2515 4.79986 14.2H10.0999C10.6116 14.2515 11.1284 14.1886 11.6128 14.0159C12.0973 13.8431 12.5373 13.5648 12.901 13.2011C13.2646 12.8375 13.5429 12.3975 13.7157 11.913C13.8885 11.4286 13.9514 10.9118 13.8999 10.4V4.80005C13.8999 2.60005 12.6999 1.20005 10.5999 1.10005ZM4.29986 2.10005V2.60005C4.29544 2.66685 4.30534 2.73383 4.32891 2.7965C4.35247 2.85916 4.38915 2.91607 4.43649 2.96341C4.48384 3.01076 4.54075 3.04744 4.60341 3.071C4.66608 3.09456 4.73306 3.10447 4.79986 3.10005C4.86666 3.10447 4.93364 3.09456 4.99631 3.071C5.05897 3.04744 5.11588 3.01076 5.16323 2.96341C5.21057 2.91607 5.24725 2.85916 5.27081 2.7965C5.29438 2.73383 5.30428 2.66685 5.29986 2.60005V2.00005H9.59986V2.50005C9.59986 2.63266 9.65254 2.75983 9.74631 2.8536C9.84007 2.94737 9.96725 3.00005 10.0999 3.00005C10.2325 3.00005 10.3596 2.94737 10.4534 2.8536C10.5472 2.75983 10.5999 2.63266 10.5999 2.50005V2.10005C10.9345 2.10825 11.2636 2.18694 11.5658 2.33098C11.8679 2.47502 12.1363 2.68118 12.3533 2.93598C12.5704 3.19079 12.7313 3.48852 12.8254 3.80972C12.9196 4.13092 12.945 4.46838 12.8999 4.80005H1.99986C1.99986 3.10005 2.79986 2.20005 4.29986 2.10005ZM10.0999 13.3H4.79986C2.89986 13.3 1.99986 12.4 1.99986 10.5V5.70005H12.8999V10.4C12.8999 12.4 11.9999 13.3 10.0999 13.3Z" fill="white"/>
<path d="M9.89941 7.79985C9.80052 7.79985 9.70385 7.82918 9.62163 7.88412C9.53941 7.93906 9.47532 8.01715 9.43747 8.10851C9.39963 8.19987 9.38973 8.30041 9.40902 8.3974C9.42831 8.49439 9.47594 8.58348 9.54586 8.65341C9.61579 8.72333 9.70488 8.77095 9.80187 8.79025C9.89886 8.80954 9.99939 8.79964 10.0908 8.76179C10.1821 8.72395 10.2602 8.65986 10.3151 8.57764C10.3701 8.49541 10.3994 8.39874 10.3994 8.29985C10.4038 8.23305 10.3939 8.16607 10.3704 8.1034C10.3468 8.04074 10.3101 7.98383 10.2628 7.93649C10.2154 7.88915 10.1585 7.85247 10.0959 7.8289C10.0332 7.80534 9.96622 7.79543 9.89941 7.79985Z" fill="white"/>
<path d="M9.89941 9.79985C9.80052 9.79985 9.70385 9.82918 9.62163 9.88412C9.53941 9.93906 9.47532 10.0171 9.43747 10.1085C9.39963 10.1999 9.38973 10.3004 9.40902 10.3974C9.42831 10.4944 9.47594 10.5835 9.54586 10.6534C9.61579 10.7233 9.70488 10.771 9.80187 10.7902C9.89886 10.8095 9.99939 10.7996 10.0908 10.7618C10.1821 10.7239 10.2602 10.6599 10.3151 10.5776C10.3701 10.4954 10.3994 10.3987 10.3994 10.2999C10.4038 10.233 10.3939 10.1661 10.3704 10.1034C10.3468 10.0407 10.3101 9.98383 10.2628 9.93649C10.2154 9.88915 10.1585 9.85247 10.0959 9.8289C10.0332 9.80534 9.96622 9.79543 9.89941 9.79985Z" fill="white"/>
<path d="M7.5 8.7998C7.5668 8.80422 7.63378 8.79432 7.69645 8.77076C7.75912 8.74719 7.81602 8.71051 7.86337 8.66317C7.91071 8.61583 7.94739 8.55892 7.97095 8.49625C7.99452 8.43359 8.00442 8.36661 8 8.2998C7.99071 8.17027 7.93505 8.04842 7.84322 7.95658C7.75139 7.86475 7.62954 7.80909 7.5 7.7998C7.36739 7.7998 7.24021 7.85248 7.14645 7.94625C7.05268 8.04002 7 8.1672 7 8.2998C7 8.43241 7.05268 8.55959 7.14645 8.65336C7.24021 8.74713 7.36739 8.7998 7.5 8.7998Z" fill="white"/>
<path d="M7.5 9.7998C7.40111 9.7998 7.30444 9.82913 7.22221 9.88407C7.13999 9.93901 7.0759 10.0171 7.03806 10.1085C7.00022 10.1998 6.99031 10.3004 7.00961 10.3973C7.0289 10.4943 7.07652 10.5834 7.14645 10.6534C7.21637 10.7233 7.30546 10.7709 7.40246 10.7902C7.49945 10.8095 7.59998 10.7996 7.69134 10.7617C7.78271 10.7239 7.86079 10.6598 7.91574 10.5776C7.97068 10.4954 8 10.3987 8 10.2998C7.99071 10.1703 7.93505 10.0484 7.84322 9.95658C7.75139 9.86475 7.62954 9.80909 7.5 9.7998Z" fill="white"/>
<path d="M5 7.7998C4.86739 7.7998 4.74021 7.85248 4.64645 7.94625C4.55268 8.04002 4.5 8.1672 4.5 8.2998C4.5 8.43241 4.55268 8.55959 4.64645 8.65336C4.74021 8.74713 4.86739 8.7998 5 8.7998C5.13261 8.7998 5.25979 8.74713 5.35355 8.65336C5.44732 8.55959 5.5 8.43241 5.5 8.2998C5.5 8.1672 5.44732 8.04002 5.35355 7.94625C5.25979 7.85248 5.13261 7.7998 5 7.7998Z" fill="white"/>
<path d="M5 9.7998C4.86739 9.7998 4.74021 9.85248 4.64645 9.94625C4.55268 10.04 4.5 10.1672 4.5 10.2998C4.5 10.4324 4.55268 10.5596 4.64645 10.6534C4.74021 10.7471 4.86739 10.7998 5 10.7998C5.13261 10.7998 5.25979 10.7471 5.35355 10.6534C5.44732 10.5596 5.5 10.4324 5.5 10.2998C5.5 10.1672 5.44732 10.04 5.35355 9.94625C5.25979 9.85248 5.13261 9.7998 5 9.7998Z" fill="white"/>
</svg>
