<svg width="13" height="13" viewBox="0 0 13 13" fill="none" xmlns="http://www.w3.org/2000/svg">
<path d="M9.7 12.6099H3C2.20435 12.6099 1.44129 12.2939 0.87868 11.7312C0.31607 11.1686 0 10.4056 0 9.60993V5.30993C0.0502656 4.42852 0.44541 3.60231 1.1 3.00993L4.2 0.609926C4.69947 0.228901 5.30594 0.014283 5.9339 -0.00365854C6.56185 -0.0216001 7.17959 0.15804 7.7 0.509926L11.3 3.00993C11.6698 3.29928 11.9761 3.66171 12.1998 4.07462C12.4235 4.48752 12.5597 4.94207 12.6 5.40993V9.60993C12.6192 10.0005 12.5581 10.3909 12.4204 10.7569C12.2828 11.1229 12.0715 11.4569 11.7998 11.738C11.528 12.0192 11.2014 12.2416 10.8402 12.3916C10.4791 12.5416 10.091 12.6159 9.7 12.6099ZM4.9 1.40993L1.8 3.80993C1.34659 4.18538 1.0592 4.72423 1 5.30993V9.60993C1 10.1404 1.21071 10.6491 1.58579 11.0241C1.96086 11.3992 2.46957 11.6099 3 11.6099H9.8C10.3304 11.6099 10.8391 11.3992 11.2142 11.0241C11.5893 10.6491 11.8 10.1404 11.8 9.60993V5.40993C11.7426 4.79537 11.4572 4.22457 11 3.80993L7.2 1.30993C6.85303 1.08762 6.44586 0.977913 6.03417 0.995813C5.62248 1.01371 5.22637 1.15834 4.9 1.40993Z" fill="white"/>
<path d="M6.29985 10.3098C6.23305 10.3142 6.16607 10.3043 6.1034 10.2807C6.04074 10.2572 5.98383 10.2205 5.93649 10.1731C5.88915 10.1258 5.85247 10.0689 5.8289 10.0062C5.80534 9.94355 5.79543 9.87657 5.79985 9.80977V8.00977C5.79985 7.87716 5.85253 7.74998 5.9463 7.65621C6.04007 7.56244 6.16725 7.50977 6.29985 7.50977C6.43246 7.50977 6.55964 7.56244 6.65341 7.65621C6.74717 7.74998 6.79985 7.87716 6.79985 8.00977V9.80977C6.80427 9.87657 6.79437 9.94355 6.7708 10.0062C6.74724 10.0689 6.71056 10.1258 6.66322 10.1731C6.61588 10.2205 6.55897 10.2572 6.4963 10.2807C6.43364 10.3043 6.36666 10.3142 6.29985 10.3098Z" fill="white"/>
</svg>
