<svg width="14" height="14" viewBox="0 0 14 14" fill="none" xmlns="http://www.w3.org/2000/svg">
<path d="M1.55556 3.11111C2.41467 3.11111 3.11111 2.41467 3.11111 1.55556C3.11111 0.696446 2.41467 0 1.55556 0C0.696446 0 0 0.696446 0 1.55556C0 2.41467 0.696446 3.11111 1.55556 3.11111ZM12.4444 3.11111C13.3036 3.11111 14 2.41467 14 1.55556C14 0.696446 13.3036 0 12.4444 0C11.5853 0 10.8889 0.696446 10.8889 1.55556C10.8889 2.41467 11.5853 3.11111 12.4444 3.11111ZM14 12.4444C14 13.3036 13.3036 14 12.4444 14C11.5853 14 10.8889 13.3036 10.8889 12.4444C10.8889 11.5853 11.5853 10.8889 12.4444 10.8889C13.3036 10.8889 14 11.5853 14 12.4444ZM1.55556 14C2.41467 14 3.11111 13.3036 3.11111 12.4444C3.11111 11.5853 2.41467 10.8889 1.55556 10.8889C0.696446 10.8889 0 11.5853 0 12.4444C0 13.3036 0.696446 14 1.55556 14ZM3.85663 1.94444C3.87784 1.81798 3.88889 1.68806 3.88889 1.55556C3.88889 1.28284 3.84211 1.02105 3.75611 0.777778H7.38889C8.46277 0.777778 9.33333 1.64834 9.33333 2.72222V4.66667H11.2778C12.3517 4.66667 13.2222 5.53723 13.2222 6.61111V10.2439C12.9789 10.1579 12.7171 10.1111 12.4444 10.1111C12.3119 10.1111 12.182 10.1222 12.0556 10.1434V6.61111C12.0556 6.18154 11.7073 5.83333 11.2778 5.83333H9.33333V7.38889C9.33333 8.46277 8.46277 9.33333 7.38889 9.33333H5.83333V11.2778C5.83333 11.7073 6.18154 12.0556 6.61111 12.0556H10.1434C10.1222 12.182 10.1111 12.3119 10.1111 12.4444C10.1111 12.7171 10.1579 12.9789 10.2439 13.2222H6.61111C5.53723 13.2222 4.66667 12.3517 4.66667 11.2778V9.33333H2.72222C1.64834 9.33333 0.777778 8.46277 0.777778 7.38889V3.75611C1.02105 3.84211 1.28284 3.88889 1.55556 3.88889C1.68806 3.88889 1.81798 3.87784 1.94444 3.85663V7.38889C1.94444 7.81846 2.29267 8.16667 2.72222 8.16667H4.66667V6.61111C4.66667 5.53723 5.53723 4.66667 6.61111 4.66667H8.16667V2.72222C8.16667 2.29267 7.81846 1.94444 7.38889 1.94444H3.85663ZM7.38889 8.16667C7.81846 8.16667 8.16667 7.81846 8.16667 7.38889V5.83333H6.61111C6.18154 5.83333 5.83333 6.18154 5.83333 6.61111V8.16667H7.38889Z" fill="white"/>
</svg>
