<svg width="14" height="14" viewBox="0 0 14 14" fill="none" xmlns="http://www.w3.org/2000/svg">
<path d="M2.275 0C1.01855 0 0 1.01855 0 2.275V10.325C0 11.5814 1.01855 12.6 2.275 12.6H6.31526C6.10771 12.2758 5.94006 11.9234 5.81945 11.55H2.275C1.59845 11.55 1.05 11.0015 1.05 10.325V2.275C1.05 1.59845 1.59845 1.05 2.275 1.05H10.325C11.0015 1.05 11.55 1.59845 11.55 2.275V5.81945C11.9234 5.94006 12.2758 6.10771 12.6 6.31526V2.275C12.6 1.01855 11.5814 0 10.325 0H2.275ZM10.15 5.6C10.2563 5.6 10.3617 5.60364 10.4662 5.61078C10.488 5.55303 10.5 5.49045 10.5 5.425C10.5 5.13506 10.2649 4.9 9.975 4.9H6.825C6.53506 4.9 6.3 5.13506 6.3 5.425C6.3 5.71494 6.53506 5.95 6.825 5.95H8.39692C8.93648 5.72453 9.52868 5.6 10.15 5.6ZM2.625 2.1C2.33505 2.1 2.1 2.33505 2.1 2.625C2.1 2.91495 2.33505 3.15 2.625 3.15H9.975C10.2649 3.15 10.5 2.91495 10.5 2.625C10.5 2.33505 10.2649 2.1 9.975 2.1H2.625ZM2.1 5.425C2.1 4.55515 2.80515 3.85 3.675 3.85C4.54485 3.85 5.25 4.55515 5.25 5.425C5.25 6.29482 4.54485 7 3.675 7C2.80515 7 2.1 6.29482 2.1 5.425ZM3.675 4.9C3.38505 4.9 3.15 5.13506 3.15 5.425C3.15 5.71494 3.38505 5.95 3.675 5.95C3.96495 5.95 4.2 5.71494 4.2 5.425C4.2 5.13506 3.96495 4.9 3.675 4.9ZM3.675 7.7C2.80515 7.7 2.1 8.40518 2.1 9.275C2.1 10.1448 2.80515 10.85 3.675 10.85C4.54485 10.85 5.25 10.1448 5.25 9.275C5.25 8.40518 4.54485 7.7 3.675 7.7ZM3.15 9.275C3.15 8.98506 3.38505 8.75 3.675 8.75C3.96495 8.75 4.2 8.98506 4.2 9.275C4.2 9.56494 3.96495 9.8 3.675 9.8C3.38505 9.8 3.15 9.56494 3.15 9.275ZM14 10.15C14 8.02368 12.2763 6.3 10.15 6.3C8.02368 6.3 6.3 8.02368 6.3 10.15C6.3 12.2763 8.02368 14 10.15 14C12.2763 14 14 12.2763 14 10.15ZM10.5004 10.5L10.5008 12.2524C10.5008 12.4458 10.3441 12.6024 10.1508 12.6024C9.9575 12.6024 9.80077 12.4458 9.80077 12.2524L9.80042 10.5H8.04692C7.85379 10.5 7.69727 10.3433 7.69727 10.15C7.69727 9.95673 7.85379 9.8 8.04692 9.8H9.80035L9.8 8.04951C9.8 7.85617 9.95673 7.69951 10.15 7.69951C10.3433 7.69951 10.5 7.85617 10.5 8.04951L10.5003 9.8H12.2476C12.4407 9.8 12.5973 9.95673 12.5973 10.15C12.5973 10.3433 12.4407 10.5 12.2476 10.5H10.5004Z" fill="white"/>
</svg>
