<svg width="14" height="15" viewBox="0 0 14 15" fill="none" xmlns="http://www.w3.org/2000/svg">
<path d="M5.00057 6.90014H4.80057C3.90224 6.86369 3.05387 6.477 2.43709 5.82285C1.82032 5.16869 1.48415 4.29906 1.50057 3.40013C1.49657 2.95253 1.58178 2.50861 1.75123 2.09429C1.92068 1.67998 2.17097 1.30357 2.48749 0.98705C2.80401 0.67053 3.18042 0.42024 3.59473 0.250791C4.00904 0.0813425 4.45297 -0.00386796 4.90057 0.000134747C5.34818 -0.00386796 5.7921 0.0813425 6.20642 0.250791C6.62073 0.42024 6.99714 0.67053 7.31366 0.98705C7.63018 1.30357 7.88047 1.67998 8.04992 2.09429C8.21937 2.50861 8.30458 2.95253 8.30057 3.40013C8.317 4.29906 7.98083 5.16869 7.36406 5.82285C6.74728 6.477 5.89891 6.86369 5.00057 6.90014ZM4.90057 1.00013C4.26647 1.00792 3.66053 1.26327 3.21212 1.71168C2.76371 2.16009 2.50836 2.76603 2.50057 3.40013C2.49394 3.70876 2.54817 4.01567 2.66018 4.30333C2.77219 4.59099 2.93977 4.85376 3.15336 5.07663C3.36695 5.29951 3.62235 5.47812 3.90499 5.60226C4.18762 5.7264 4.49195 5.79364 4.80057 5.80013H5.00057C5.61876 5.77189 6.2024 5.50693 6.63058 5.06014C7.05875 4.61335 7.29865 4.01897 7.30057 3.40013C7.31325 3.08157 7.25984 2.76383 7.14371 2.46691C7.02759 2.16999 6.85126 1.90033 6.62582 1.67489C6.40038 1.44945 6.13071 1.27312 5.8338 1.157C5.53688 1.04087 5.21914 0.987461 4.90057 1.00013Z" fill="white"/>
<path d="M9.8998 6.89985C9.75437 6.91107 9.61031 6.86509 9.49825 6.77171C9.3862 6.67834 9.315 6.54492 9.2998 6.39985C9.2998 6.09985 9.3998 5.89985 9.6998 5.89985H9.9998C10.4622 5.88162 10.8991 5.683 11.2169 5.34655C11.5347 5.0101 11.708 4.56257 11.6998 4.09985C11.7011 3.8631 11.6555 3.62844 11.5655 3.40946C11.4755 3.19047 11.343 2.99151 11.1756 2.8241C11.0081 2.65669 10.8092 2.52416 10.5902 2.43417C10.3712 2.34418 10.1366 2.29853 9.8998 2.29985C9.833 2.30427 9.76602 2.29437 9.70336 2.2708C9.64069 2.24724 9.58378 2.21056 9.53644 2.16322C9.4891 2.11588 9.45242 2.05897 9.42885 1.9963C9.40529 1.93364 9.39538 1.86666 9.3998 1.79985C9.39538 1.73305 9.40529 1.66607 9.42885 1.6034C9.45242 1.54074 9.4891 1.48383 9.53644 1.43649C9.58378 1.38915 9.64069 1.35247 9.70336 1.3289C9.76602 1.30534 9.833 1.29543 9.8998 1.29985C10.6424 1.29985 11.3546 1.59485 11.8797 2.11995C12.4048 2.64506 12.6998 3.35725 12.6998 4.09985C12.6845 4.83766 12.3846 5.54098 11.8627 6.0628C11.3409 6.58461 10.6376 6.88453 9.8998 6.89985Z" fill="white"/>
<path d="M5 14.0998C3.72649 14.1382 2.47127 13.7895 1.4 13.0998C0.978643 12.8554 0.628049 12.5057 0.382613 12.0849C0.137177 11.6642 0.00532783 11.1869 0 10.6998C0.0174056 10.2153 0.154334 9.74271 0.398594 9.32398C0.642854 8.90525 0.986866 8.55341 1.4 8.2998C2.49218 7.66093 3.73469 7.32422 5 7.32422C6.26531 7.32422 7.50782 7.66093 8.6 8.2998C9.02136 8.54419 9.37195 8.89391 9.61739 9.31466C9.86282 9.7354 9.99467 10.2127 10 10.6998C9.98259 11.1843 9.84567 11.6569 9.60141 12.0756C9.35715 12.4943 9.01313 12.8462 8.6 13.0998C7.52873 13.7895 6.27351 14.1382 5 14.0998ZM2 9.1998C1.72753 9.35409 1.4951 9.5702 1.32141 9.83074C1.14772 10.0913 1.03763 10.3889 1 10.6998C1.00692 11.019 1.10466 11.3296 1.28176 11.5953C1.45887 11.8609 1.70801 12.0706 2 12.1998C2.92564 12.7401 3.9782 13.0249 5.05 13.0249C6.1218 13.0249 7.17436 12.7401 8.1 12.1998C8.37247 12.0455 8.60491 11.8294 8.77859 11.5689C8.95228 11.3083 9.06237 11.0107 9.1 10.6998C9.09308 10.3806 8.99535 10.07 8.81824 9.80431C8.64113 9.53865 8.39199 9.32896 8.1 9.1998C7.1761 8.65443 6.12286 8.36676 5.05 8.36676C3.97714 8.36676 2.9239 8.65443 2 9.1998Z" fill="white"/>
<path d="M11.1002 12.9001C10.9898 12.8814 10.8859 12.8348 10.7985 12.7648C10.711 12.6949 10.6428 12.6038 10.6002 12.5001C10.5002 12.2001 10.7002 12.0001 11.0002 11.9001C11.3918 11.7949 11.7634 11.626 12.1002 11.4001C12.2824 11.3043 12.435 11.1605 12.5414 10.9842C12.6478 10.808 12.704 10.606 12.704 10.4001C12.704 10.1943 12.6478 9.99231 12.5414 9.81607C12.435 9.63983 12.2824 9.49601 12.1002 9.40014C11.7634 9.17433 11.3918 9.00541 11.0002 8.90014C10.9335 8.88815 10.8698 8.86297 10.8129 8.82606C10.756 8.78916 10.707 8.74128 10.6689 8.68523C10.6307 8.62917 10.6041 8.56607 10.5906 8.49961C10.5771 8.43315 10.577 8.36466 10.5903 8.29816C10.6036 8.23167 10.6301 8.16849 10.6681 8.11232C10.7061 8.05616 10.7549 8.00815 10.8117 7.97108C10.8685 7.93402 10.9321 7.90866 10.9988 7.89648C11.0655 7.8843 11.134 7.88554 11.2002 7.90014C11.7493 8.00944 12.2638 8.24956 12.7002 8.60014C12.9905 8.80667 13.231 9.07549 13.404 9.38693C13.577 9.69837 13.6782 10.0445 13.7002 10.4001C13.6905 10.7585 13.5945 11.1091 13.4204 11.4225C13.2464 11.7358 12.9993 12.0026 12.7002 12.2001C12.2406 12.5116 11.7342 12.7479 11.2002 12.9001H11.1002Z" fill="white"/>
</svg>
