<svg width="12" height="14" viewBox="0 0 12 14" fill="none" xmlns="http://www.w3.org/2000/svg">
<path d="M3.24 6.11997C3.23867 6.05085 3.25114 5.98215 3.27667 5.9179C3.30221 5.85366 3.3403 5.79515 3.38872 5.74579C3.43714 5.69644 3.49492 5.65724 3.55867 5.63049C3.62242 5.60373 3.69086 5.58996 3.76 5.58997H5.48V3.99997C5.45789 3.92258 5.45405 3.84112 5.46878 3.762C5.4835 3.68287 5.5164 3.60824 5.56487 3.54399C5.61333 3.47974 5.67606 3.42761 5.74809 3.39172C5.82013 3.35583 5.89951 3.33714 5.98 3.33714C6.06048 3.33714 6.13987 3.35583 6.2119 3.39172C6.28394 3.42761 6.34666 3.47974 6.39513 3.54399C6.4436 3.60824 6.47649 3.68287 6.49122 3.762C6.50595 3.84112 6.50211 3.92258 6.48 3.99997V5.58997H8.24C8.37882 5.59259 8.51108 5.64959 8.60832 5.7487C8.70556 5.84781 8.76002 5.98112 8.76 6.11997C8.76 6.25788 8.70521 6.39015 8.60769 6.48767C8.51017 6.58519 8.37791 6.63997 8.24 6.63997H6.52V8.21997C6.48896 8.32863 6.42337 8.42422 6.33315 8.49228C6.24294 8.56033 6.133 8.59714 6.02 8.59714C5.90699 8.59714 5.79706 8.56033 5.70685 8.49228C5.61663 8.42422 5.55104 8.32863 5.52 8.21997V6.63997H3.76C3.62209 6.63997 3.48982 6.58519 3.3923 6.48767C3.29478 6.39015 3.24 6.25788 3.24 6.11997ZM1.76 1.78997C2.31085 1.22267 2.96995 0.771685 3.69825 0.463719C4.42656 0.155752 5.20926 -0.00292969 6 -0.00292969C6.79074 -0.00292969 7.57344 0.155752 8.30174 0.463719C9.03005 0.771685 9.68914 1.22267 10.24 1.78997C11.3699 2.94003 12.0029 4.48777 12.0029 6.09997C12.0029 7.71218 11.3699 9.25991 10.24 10.41L9.42 11.24L7.08 13.56C6.79195 13.8433 6.40407 14.0022 6 14.0022C5.59593 14.0022 5.20805 13.8433 4.92 13.56L2.52 11.18C2.21 10.88 1.96 10.62 1.76 10.41C0.630144 9.25991 -0.00292969 7.71218 -0.00292969 6.09997C-0.00292969 4.48777 0.630144 2.94003 1.76 1.78997ZM9.51 2.52997C9.05307 2.06556 8.50829 1.69672 7.90739 1.44496C7.3065 1.19319 6.66151 1.06353 6.01 1.06353C5.35849 1.06353 4.7135 1.19319 4.1126 1.44496C3.51171 1.69672 2.96692 2.06556 2.51 2.52997C1.57791 3.48455 1.05612 4.7658 1.05612 6.09997C1.05612 7.43414 1.57791 8.7154 2.51 9.66997L3.51 10.67L5.64 12.77C5.73559 12.8652 5.86504 12.9187 6 12.9187C6.13495 12.9187 6.26441 12.8652 6.36 12.77L8.7 10.49L9.51 9.66997C10.4421 8.7154 10.9639 7.43414 10.9639 6.09997C10.9639 4.7658 10.4421 3.48455 9.51 2.52997Z" fill="white"/>
</svg>
