<svg width="16" height="15" viewBox="0 0 16 15" fill="none" xmlns="http://www.w3.org/2000/svg">
<path opacity="0.9" d="M13.6719 6.31372C13.6719 4.86332 13.0957 3.47232 12.0701 2.44673C11.0445 1.42114 9.65353 0.844971 8.20312 0.844971C6.75272 0.844971 5.36172 1.42114 4.33613 2.44673C3.31055 3.47232 2.73438 4.86332 2.73438 6.31372" stroke="#3E3E3E" stroke-linecap="round" stroke-linejoin="round"/>
<path opacity="0.9" d="M13.6719 11.0986V11.4404C13.6719 11.803 13.5278 12.1508 13.2714 12.4072C13.015 12.6636 12.6673 12.8076 12.3047 12.8076H9.91211M1.36719 9.34727V8.06484C1.36723 7.75997 1.46918 7.46385 1.65683 7.22356C1.84448 6.98328 2.10706 6.8126 2.40283 6.73867L3.59229 6.44062C3.65273 6.42557 3.7158 6.42448 3.77673 6.43744C3.83765 6.4504 3.89482 6.47706 3.94391 6.5154C3.99299 6.55375 4.0327 6.60277 4.06002 6.65875C4.08733 6.71473 4.10154 6.77619 4.10156 6.83848V10.5729C4.10167 10.6354 4.08753 10.697 4.06022 10.7531C4.03291 10.8092 3.99315 10.8584 3.94397 10.8968C3.89479 10.9353 3.83748 10.962 3.77642 10.9749C3.71535 10.9878 3.65214 10.9867 3.5916 10.9715L2.40215 10.6741C2.1065 10.6001 1.84407 10.4293 1.65656 10.1891C1.46905 9.94878 1.3672 9.65273 1.36719 9.34795V9.34727ZM15.0391 9.34727V8.06484C15.039 7.75997 14.9371 7.46385 14.7494 7.22356C14.5618 6.98328 14.2992 6.8126 14.0034 6.73867L12.814 6.44062C12.7535 6.42557 12.6904 6.42448 12.6295 6.43744C12.5686 6.4504 12.5114 6.47706 12.4623 6.5154C12.4133 6.55375 12.3736 6.60277 12.3462 6.65875C12.3189 6.71473 12.3047 6.77619 12.3047 6.83848V10.5729C12.3046 10.6353 12.3187 10.6968 12.346 10.7529C12.3733 10.809 12.413 10.8581 12.4621 10.8965C12.5112 10.9349 12.5684 10.9616 12.6294 10.9746C12.6903 10.9876 12.7535 10.9866 12.814 10.9715L14.0034 10.6741C14.2992 10.6002 14.5618 10.4295 14.7494 10.1892C14.9371 9.94894 15.039 9.65283 15.0391 9.34795V9.34727Z" stroke="#3E3E3E"/>
<path opacity="0.9" d="M9.22852 13.8333H7.17773C6.90578 13.8333 6.64497 13.7252 6.45267 13.5329C6.26038 13.3406 6.15234 13.0798 6.15234 12.8079C6.15234 12.5359 6.26038 12.2751 6.45267 12.0828C6.64497 11.8905 6.90578 11.7825 7.17773 11.7825H9.22852C9.50047 11.7825 9.76128 11.8905 9.95358 12.0828C10.1459 12.2751 10.2539 12.5359 10.2539 12.8079C10.2539 13.0798 10.1459 13.3406 9.95358 13.5329C9.76128 13.7252 9.50047 13.8333 9.22852 13.8333Z" stroke="#3E3E3E"/>
</svg>
