<svg width="13" height="13" viewBox="0 0 13 13" fill="none" xmlns="http://www.w3.org/2000/svg">
<path d="M10.66 2.89077H9.44V1.62077C9.4401 1.40376 9.3966 1.18893 9.31208 0.989054C9.22756 0.789175 9.10374 0.608316 8.94797 0.457212C8.79221 0.306109 8.60767 0.187843 8.40531 0.109434C8.20296 0.0310259 7.98691 -0.00592618 7.77 0.000771842H5.24C4.81116 0.0033948 4.40063 0.174915 4.09739 0.478157C3.79414 0.781399 3.62262 1.19193 3.62 1.62077V2.89077H2.35C2.04139 2.89077 1.73581 2.95156 1.45069 3.06965C1.16558 3.18775 0.906517 3.36085 0.688299 3.57907C0.470082 3.79729 0.296983 4.05635 0.178885 4.34147C0.0607859 4.62658 0 4.93217 0 5.24077V10.6508C0 10.9594 0.0607859 11.265 0.178885 11.5501C0.296983 11.8352 0.470082 12.0943 0.688299 12.3125C0.906517 12.5307 1.16558 12.7038 1.45069 12.8219C1.73581 12.94 2.04139 13.0008 2.35 13.0008H10.66C11.2833 13.0008 11.881 12.7532 12.3217 12.3125C12.7624 11.8718 13.01 11.274 13.01 10.6508V5.24077C13.01 4.93217 12.9492 4.62658 12.8311 4.34147C12.713 4.05635 12.5399 3.79729 12.3217 3.57907C12.1035 3.36085 11.8444 3.18775 11.5593 3.06965C11.2742 2.95156 10.9686 2.89077 10.66 2.89077ZM5.24 0.930772L7.77 0.890772C7.95393 0.890753 8.13048 0.963129 8.26147 1.09225C8.39246 1.22137 8.46737 1.39686 8.47 1.58077V2.89077H4.54V1.62077C4.54263 1.43686 4.61754 1.26137 4.74853 1.13225C4.87952 1.00313 5.05607 0.930753 5.24 0.930772ZM10.66 12.0708L2.35 12.0308C1.97339 12.0308 1.61221 11.8812 1.34591 11.6149C1.07961 11.3486 0.93 10.9874 0.93 10.6108V7.85077C1.33336 8.1551 1.82472 8.32005 2.33 8.32077H10.68C11.1853 8.32005 11.6766 8.1551 12.08 7.85077V10.6508C12.08 10.8372 12.0433 11.0219 11.9719 11.1942C11.9005 11.3665 11.796 11.523 11.6641 11.6549C11.5322 11.7867 11.3757 11.8913 11.2034 11.9627C11.0311 12.034 10.8465 12.0708 10.66 12.0708ZM10.68 7.39077L2.31 7.35077C1.95067 7.34587 1.60699 7.20297 1.3501 6.95167C1.09321 6.70037 0.942801 6.35991 0.93 6.00077V5.24077C0.93 4.86416 1.07961 4.50298 1.34591 4.23668C1.61221 3.97038 1.97339 3.82077 2.35 3.82077H10.66C11.0366 3.82077 11.3978 3.97038 11.6641 4.23668C11.9304 4.50298 12.08 4.86416 12.08 5.24077V6.00077C12.0774 6.37034 11.9287 6.72387 11.6664 6.98426C11.4042 7.24466 11.0496 7.39078 10.68 7.39077Z" fill="white"/>
</svg>
