<svg width="14" height="14" viewBox="0 0 14 14" fill="none" xmlns="http://www.w3.org/2000/svg">
<path d="M10.3327 6.66507C12.3581 6.66507 14 8.30703 14 10.3325C14 12.358 12.3581 14 10.3327 14C8.30732 14 6.66544 12.358 6.66544 10.3325C6.66544 8.30703 8.30732 6.66507 10.3327 6.66507ZM6.68024 7.99823C6.48241 8.30716 6.32272 8.64283 6.20776 8.99864L1.50025 8.99884C1.22406 8.99884 1.00017 9.22276 1.00017 9.49895V10.104C1.00017 10.5412 1.19086 10.9566 1.52236 11.2416C2.36123 11.9629 3.62545 12.3336 5.33188 12.3336C5.73115 12.3336 6.10628 12.3134 6.45747 12.273C6.62343 12.6065 6.83267 12.9158 7.07691 13.1935C6.54202 13.2873 5.95992 13.3339 5.33188 13.3339C3.40521 13.3339 1.91241 12.896 0.870325 12C0.31782 11.5251 0 10.8326 0 10.104V9.49895C0 8.6703 0.671686 7.99862 1.50025 7.99862L6.68024 7.99823ZM8.72779 8.64297L8.68164 8.68157L8.64304 8.72772C8.56429 8.84148 8.56429 8.99318 8.64304 9.10693L8.68164 9.15308L9.86151 10.3329L8.68338 11.5111L8.64477 11.5573C8.56602 11.671 8.56602 11.8227 8.64477 11.9364L8.68338 11.9826L8.72952 12.0212C8.8432 12.0999 8.99496 12.0999 9.10865 12.0212L9.15486 11.9826L10.3329 10.8044L11.5125 11.9841L11.5587 12.0227C11.6723 12.1015 11.8241 12.1015 11.9378 12.0227L11.984 11.9841L12.0225 11.938C12.1013 11.8242 12.1013 11.6724 12.0225 11.5587L11.984 11.5126L10.8043 10.3329L11.9858 9.15314L12.0244 9.10693C12.1031 8.99324 12.1031 8.84148 12.0244 8.72778L11.9858 8.68157L11.9397 8.64303C11.826 8.56428 11.6742 8.56428 11.5605 8.64303L11.5143 8.68157L10.3329 9.86156L9.15312 8.68157L9.10691 8.64297C9.0095 8.57548 8.88408 8.56582 8.77859 8.61403L8.72779 8.64297ZM5.33188 0C7.17312 0 8.66577 1.49271 8.66577 3.33406C8.66577 5.17542 7.17312 6.66813 5.33188 6.66813C3.4906 6.66813 1.99797 5.17542 1.99797 3.33406C1.99797 1.49271 3.4906 0 5.33188 0ZM5.33188 1.00022C4.04298 1.00022 2.99813 2.04512 2.99813 3.33406C2.99813 4.62301 4.04298 5.66792 5.33188 5.66792C6.62077 5.66792 7.66561 4.62301 7.66561 3.33406C7.66561 2.04512 6.62077 1.00022 5.33188 1.00022Z" fill="white"/>
</svg>
