<svg width="15" height="15" viewBox="0 0 15 15" fill="none" xmlns="http://www.w3.org/2000/svg">
<path d="M5.21383 14.3812H9.19273C12.5085 14.3812 13.8348 13.0549 13.8348 9.73912V8.76022C13.8348 5.44446 12.5085 4.11816 9.19273 4.11816H5.21383C1.89808 4.11816 0.571777 5.44446 0.571777 8.76022V9.73912C0.571777 13.0549 1.89808 14.3812 5.21383 14.3812Z" stroke="#3E3E3E" stroke-linecap="round" stroke-linejoin="round"/>
<path d="M0.745361 6.79224L5.77493 8.3398C6.73305 8.6346 7.75767 8.6346 8.71579 8.3398L13.7454 6.79224" stroke="#3E3E3E"/>
<path d="M10.2454 3.79224V2.79224C10.2454 1.68767 9.34993 0.792236 8.24536 0.792236H6.24536C5.14079 0.792236 4.24536 1.68767 4.24536 2.79224V3.79224" stroke="#3E3E3E"/>
</svg>
