<svg width="14" height="14" viewBox="0 0 14 14" fill="none" xmlns="http://www.w3.org/2000/svg">
<path d="M7.33209 8.03207V7.99866H1.49953C0.671358 7.99866 0 8.67001 0 9.49826V9.88342C0 10.4787 0.212379 11.0545 0.598965 11.5072C1.64336 12.7304 3.23433 13.3339 5.33199 13.3339C5.57036 13.3339 5.80214 13.3261 6.02745 13.3105C6.00845 13.2099 5.99851 13.106 5.99851 12.9998V12.31C5.78447 12.3258 5.5623 12.3337 5.33199 12.3337C3.50609 12.3337 2.19526 11.8364 1.35956 10.8577C1.12762 10.5861 1.00019 10.2406 1.00019 9.88342V9.49826C1.00019 9.22247 1.22375 8.99889 1.49953 8.99889H6.13727C6.35151 8.50851 6.79493 8.14109 7.33209 8.03207ZM5.33199 0C7.17326 0 8.66594 1.49272 8.66594 3.33408C8.66594 5.17544 7.17326 6.66817 5.33199 6.66817C3.49067 6.66817 1.99801 5.17544 1.99801 3.33408C1.99801 1.49272 3.49067 0 5.33199 0ZM5.33199 1.00022C4.04306 1.00022 2.99819 2.04513 2.99819 3.33408C2.99819 4.62303 4.04306 5.66794 5.33199 5.66794C6.62089 5.66794 7.66575 4.62303 7.66575 3.33408C7.66575 2.04513 6.62089 1.00022 5.33199 1.00022ZM7.99888 8.66554H7.66549C7.11312 8.66554 6.6653 9.11338 6.6653 9.66577V12.9998C6.6653 13.5522 7.11312 14 7.66549 14H12.9998C13.5522 14 14 13.5522 14 12.9998V9.66577C14 9.11338 13.5522 8.66554 12.9998 8.66554H12.6664V7.83196C12.6664 7.18748 12.144 6.66503 11.4995 6.66503H9.16577C8.52131 6.66503 7.99888 7.18748 7.99888 7.83196V8.66554ZM8.99907 7.83196C8.99907 7.73994 9.07368 7.66526 9.16577 7.66526H11.4995C11.5916 7.66526 11.6662 7.73994 11.6662 7.83196V8.66554H8.99907V7.83196Z" fill="white"/>
</svg>
