<svg width="13" height="14" viewBox="0 0 13 14" fill="none" xmlns="http://www.w3.org/2000/svg">
<path fill-rule="evenodd" clip-rule="evenodd" d="M3.5 0C3.77614 0 4 0.223858 4 0.5V1H8.5V0.5C8.5 0.223858 8.72386 0 9 0C9.27614 0 9.5 0.223858 9.5 0.5V1C11.1569 1 12.5 2.34315 12.5 4V11C12.5 12.6569 11.1569 14 9.5 14H3C1.34315 14 0 12.6569 0 11V4C0 2.34315 1.34315 1 3 1V0.5C3 0.223858 3.22386 0 3.5 0ZM8.5 2V2.5C8.5 2.77614 8.72386 3 9 3C9.27614 3 9.5 2.77614 9.5 2.5V2C10.6046 2 11.5 2.89543 11.5 4V11C11.5 12.1046 10.6046 13 9.5 13H3C1.89543 13 1 12.1046 1 11V4C1 2.89543 1.89543 2 3 2V2.5C3 2.77614 3.22386 3 3.5 3C3.77614 3 4 2.77614 4 2.5V2H8.5ZM6.51589 6.03178C6.80081 6.03178 7.03178 5.80081 7.03178 5.51589C7.03178 5.23097 6.80081 5 6.51589 5C6.23097 5 6 5.23097 6 5.51589C6 5.80081 6.23097 6.03178 6.51589 6.03178ZM6.17742 6.65129C6.26725 6.56146 6.3891 6.51099 6.51615 6.51099C6.6432 6.51099 6.76505 6.56146 6.85488 6.65129C6.94472 6.74113 6.99519 6.86298 6.99519 6.99003V10.3065C6.99519 10.4335 6.94472 10.5554 6.85488 10.6452C6.76505 10.735 6.6432 10.7855 6.51615 10.7855C6.3891 10.7855 6.26725 10.735 6.17742 10.6452C6.08758 10.5554 6.03711 10.4335 6.03711 10.3065V6.99003C6.03711 6.86298 6.08758 6.74113 6.17742 6.65129Z" fill="white"/>
</svg>
