<svg width="14" height="15" viewBox="0 0 14 15" fill="none" xmlns="http://www.w3.org/2000/svg">
<path d="M10.9 8.5H9.2L7.4 6.5H8.1C8.42607 6.54686 8.75857 6.51709 9.07112 6.41304C9.38368 6.309 9.66769 6.13356 9.90062 5.90062C10.1336 5.66769 10.309 5.38368 10.413 5.07112C10.5171 4.75857 10.5469 4.42607 10.5 4.1V2.4C10.5 0.7 9.7 0 8.1 0H4.9C3.2 0 2.5 0.8 2.5 2.4V4C2.5 5.7 3.2 6.5 4.9 6.5H5.6L3.7 8.5H2.3C0.7 8.5 0 9.2 0 10.8V12.3C0 13.9 0.7 14.6 2.3 14.6H3.8C5.4 14.6 6.1 13.9 6.1 12.3V10.8C6.15671 10.367 6.0701 9.92725 5.85342 9.54805C5.63673 9.16885 5.30188 8.871 4.9 8.7L6.5 7L8.1 8.8C7.4 9.1 7.1 9.8 7.1 10.8V12.3C7.1 13.9 7.8 14.6 9.4 14.6H10.9C12.5 14.6 13.2 13.9 13.2 12.3V10.8C13.2 9.2 12.5 8.5 10.9 8.5ZM3.5 4.1V2.4C3.5 1.3 3.8 1 4.9 1H8.1C9.2 1 9.5 1.3 9.5 2.4V4C9.5 5.2 9.2 5.5 8.1 5.5H4.9C3.8 5.5 3.5 5.2 3.5 4.1ZM5.1 12.4C5.1 13.4 4.8 13.7 3.8 13.7H2.3C1.3 13.7 1 13.4 1 12.4V10.9C1 9.9 1.3 9.6 2.3 9.6H3.8C4.8 9.6 5.1 9.9 5.1 10.9V12.4ZM12.2 12.4C12.2 13.4 11.9 13.7 10.9 13.7H9.4C8.4 13.7 8.1 13.4 8.1 12.4V10.9C8.1 9.9 8.4 9.6 9.4 9.6H10.9C11.9 9.6 12.2 9.9 12.2 10.9V12.4Z" fill="white"/>
</svg>
