<svg width="14" height="16" viewBox="0 0 14 16" fill="none" xmlns="http://www.w3.org/2000/svg">
<path d="M2.88188 15.1126H4.42147C5.70446 15.1126 6.21766 14.5994 6.21766 13.3164V11.7768C6.21766 10.4938 5.70446 9.98059 4.42147 9.98059H2.88188C1.59889 9.98059 1.08569 10.4938 1.08569 11.7768V13.3164C1.08569 14.5994 1.59889 15.1126 2.88188 15.1126Z" stroke="#3E3E3E" stroke-linecap="round" stroke-linejoin="round"/>
<path d="M5.46972 6.96217H8.64599C10.021 6.96217 10.571 6.41216 10.571 5.03712V3.38708C10.571 2.01205 10.021 1.46204 8.64599 1.46204H5.46972C4.09469 1.46204 3.54468 2.01205 3.54468 3.38708V5.03712C3.54468 6.41216 4.09469 6.96217 5.46972 6.96217Z" stroke="#3E3E3E" stroke-linecap="round" stroke-linejoin="round"/>
<path d="M9.98442 15.1126H11.524C12.807 15.1126 13.3202 14.5994 13.3202 13.3164V11.7768C13.3202 10.4938 12.807 9.98059 11.524 9.98059H9.98442C8.70143 9.98059 8.18823 10.4938 8.18823 11.7768V13.3164C8.18823 14.5994 8.70143 15.1126 9.98442 15.1126Z" stroke="#3E3E3E" stroke-linecap="round" stroke-linejoin="round"/>
<path d="M7.36956 6.86633L4.46265 10.0603" stroke="#3E3E3E"/>
<path d="M6.74617 6.86633L9.65308 10.0603" stroke="#3E3E3E"/>
</svg>
