<svg width="17" height="17" viewBox="0 0 17 17" fill="none" xmlns="http://www.w3.org/2000/svg">
<path d="M5.99585 10.4557C5.99585 11.3112 6.65237 12.0009 7.46804 12.0009H9.13255C9.84212 12.0009 10.4191 11.3974 10.4191 10.6547C10.4191 9.84564 10.0676 9.56048 9.5437 9.3748L6.87121 8.44639C6.34732 8.26071 5.99585 7.97555 5.99585 7.16651C5.99585 6.42378 6.57279 5.82031 7.28236 5.82031H8.94687C9.76254 5.82031 10.4191 6.50999 10.4191 7.36545" stroke="#3E3E3E" stroke-linecap="round" stroke-linejoin="round"/>
<path d="M8.20288 4.9314V12.8892" stroke="#3E3E3E" stroke-linecap="round" stroke-linejoin="round"/>
<path d="M8.20304 15.5415C11.8655 15.5415 14.8345 12.5724 14.8345 8.90995C14.8345 5.24747 11.8655 2.27844 8.20304 2.27844C4.54056 2.27844 1.57153 5.24747 1.57153 8.90995C1.57153 12.5724 4.54056 15.5415 8.20304 15.5415Z" stroke="#3E3E3E" stroke-linecap="round" stroke-linejoin="round"/>
</svg>
