<svg width="14" height="14" viewBox="0 0 14 14" fill="none" xmlns="http://www.w3.org/2000/svg">
<path d="M3.85005 1.05C3.27011 1.05 2.8 1.52012 2.8 2.1C2.8 2.67988 3.27011 3.15 3.85005 3.15C4.42999 3.15 4.9001 2.67988 4.9001 2.1C4.9001 1.52012 4.42999 1.05 3.85005 1.05ZM1.75 2.1C1.75 0.940184 2.69024 0 3.85005 0C5.00986 0 5.95007 0.940184 5.95007 2.1C5.95007 3.25982 5.00986 4.2 3.85005 4.2C2.69024 4.2 1.75 3.25982 1.75 2.1ZM1.23749 4.9C0.554043 4.9 5.40923e-08 5.45404 5.40923e-08 6.13746V6.38904C-6.94591e-06 6.53485 -4.19319e-05 7.3752 0.490602 8.19189C0.873369 8.82896 1.52359 9.40107 2.57269 9.65748C2.71677 9.27311 2.97946 8.94677 3.31619 8.72284C2.19348 8.60272 1.66296 8.10432 1.39066 7.65114C1.05182 7.08715 1.05 6.48683 1.05 6.3875V6.13746C1.05 6.03393 1.13394 5.95 1.23749 5.95H4.22166C4.26889 5.57132 4.39172 5.21612 4.5746 4.9H1.23749ZM9.4255 4.9C9.60841 5.21612 9.73119 5.57132 9.77844 5.95H12.7625C12.8661 5.95 12.95 6.03393 12.95 6.13746V6.3875C12.95 6.48683 12.9482 7.08715 12.6094 7.65114C12.3371 8.10432 11.8065 8.60272 10.6838 8.72284C11.0205 8.94677 11.2832 9.27311 11.4273 9.65748C12.4764 9.40107 13.1266 8.82896 13.5094 8.19189C14.0001 7.3752 14 6.53485 14 6.38904V6.13746C14 5.45404 13.446 4.9 12.7625 4.9H9.4255ZM9.1 2.1C9.1 1.52012 9.57012 1.05 10.1501 1.05C10.73 1.05 11.2001 1.52012 11.2001 2.1C11.2001 2.67988 10.73 3.15 10.1501 3.15C9.57012 3.15 9.1 2.67988 9.1 2.1ZM10.1501 0C8.99024 0 8.05 0.940184 8.05 2.1C8.05 3.25982 8.99024 4.2 10.1501 4.2C11.3098 4.2 12.2501 3.25982 12.2501 2.1C12.2501 0.940184 11.3098 0 10.1501 0ZM7.00007 5.25C6.42012 5.25 5.95 5.72012 5.95 6.3C5.95 6.87988 6.42012 7.35 7.00007 7.35C7.58002 7.35 8.05007 6.87988 8.05007 6.3C8.05007 5.72012 7.58002 5.25 7.00007 5.25ZM4.9 6.3C4.9 5.14018 5.84024 4.2 7.00007 4.2C8.15983 4.2 9.10007 5.14018 9.10007 6.3C9.10007 7.45983 8.15983 8.4 7.00007 8.4C5.84024 8.4 4.9 7.45983 4.9 6.3ZM3.15 10.3375C3.15 9.65405 3.70404 9.1 4.38749 9.1H9.61254C10.2959 9.1 10.85 9.65405 10.85 10.3375V10.589C10.85 10.7348 10.8501 11.5752 10.3594 12.3919C9.84046 13.2557 8.8298 14 7 14C5.17018 14 4.15957 13.2557 3.64059 12.3919C3.14996 11.5752 3.14999 10.7348 3.15 10.589V10.3375ZM4.38749 10.15C4.28394 10.15 4.2 10.2339 4.2 10.3375V10.5875C4.2 10.6868 4.20182 11.2872 4.54066 11.8511C4.85293 12.3709 5.50482 12.95 7 12.95C8.4952 12.95 9.14704 12.3709 9.45938 11.8511C9.79818 11.2872 9.8 10.6868 9.8 10.5875V10.3375C9.8 10.2339 9.71607 10.15 9.61254 10.15H4.38749Z" fill="white"/>
</svg>
