<svg width="14" height="14" viewBox="0 0 14 14" fill="none" xmlns="http://www.w3.org/2000/svg">
<path d="M7.33333 6.5H11.8097C12.0366 6.2686 12.3304 6.10307 12.6597 6.03473C12.5039 2.67558 9.73107 0 6.33333 0C2.83553 0 0 2.83553 0 6.33333C0 9.71933 2.65715 12.4847 6 12.6581V11.6667V11.6564C3.20977 11.4844 1 9.16693 1 6.33333C1 3.44357 3.29827 1.09061 6.16667 1.00255V5.33333C6.16667 5.97767 6.689 6.5 7.33333 6.5ZM7.33333 5.5C7.24127 5.5 7.16667 5.4254 7.16667 5.33333V1.06472C9.44487 1.42219 11.2445 3.22183 11.6019 5.5H7.33333ZM13 6.66667C12.4477 6.66667 12 7.1144 12 7.66667V13C12 13.5523 12.4477 14 13 14C13.5523 14 14 13.5523 14 13V7.66667C14 7.1144 13.5523 6.66667 13 6.66667ZM7.66667 10.6667C7.1144 10.6667 6.66667 11.1144 6.66667 11.6667V13C6.66667 13.5523 7.1144 14 7.66667 14C8.21893 14 8.66667 13.5523 8.66667 13V11.6667C8.66667 11.1144 8.21893 10.6667 7.66667 10.6667ZM9.33333 9.66667C9.33333 9.1144 9.78107 8.66667 10.3333 8.66667C10.8856 8.66667 11.3333 9.1144 11.3333 9.66667V13C11.3333 13.5523 10.8856 14 10.3333 14C9.78107 14 9.33333 13.5523 9.33333 13V9.66667Z" fill="white"/>
</svg>
