<svg width="16" height="16" viewBox="0 0 16 16" fill="none" xmlns="http://www.w3.org/2000/svg">
<path d="M7.86562 8.91154C8.83557 8.91154 9.62187 8.12525 9.62187 7.1553C9.62187 6.18535 8.83557 5.39905 7.86562 5.39905C6.89567 5.39905 6.10938 6.18535 6.10938 7.1553C6.10938 8.12525 6.89567 8.91154 7.86562 8.91154Z" stroke="#3E3E3E" stroke-linecap="round" stroke-linejoin="round"/>
<path d="M11.1093 12.9553C11.1093 11.499 9.65933 10.3115 7.86558 10.3115C6.07183 10.3115 4.62183 11.4928 4.62183 12.9553" stroke="#3E3E3E" stroke-linecap="round" stroke-linejoin="round"/>
<path d="M13.8281 8.14282C13.8281 11.4241 11.1719 14.0803 7.89062 14.0803C4.60938 14.0803 1.95312 11.4241 1.95312 8.14282C1.95312 4.86157 4.60938 2.20532 7.89062 2.20532C8.70937 2.20532 9.49063 2.36782 10.2031 2.66782C10.1219 2.91782 10.0781 3.18032 10.0781 3.45532C10.0781 3.92407 10.2094 4.36782 10.4406 4.74282C10.5656 4.95532 10.7281 5.14905 10.9156 5.31155C11.3531 5.71155 11.9344 5.95532 12.5781 5.95532C12.8531 5.95532 13.1156 5.91156 13.3594 5.82406C13.6594 6.53656 13.8281 7.32407 13.8281 8.14282Z" stroke="#3E3E3E" stroke-linecap="round" stroke-linejoin="round"/>
<path d="M15.0781 3.45532C15.0781 3.65532 15.0531 3.84907 15.0031 4.03657C14.9469 4.28657 14.8469 4.53032 14.7156 4.74282C14.4156 5.24907 13.9344 5.64281 13.3594 5.82406C13.1156 5.91156 12.8531 5.95532 12.5781 5.95532C11.9344 5.95532 11.3531 5.71155 10.9156 5.31155C10.7281 5.14905 10.5656 4.95532 10.4406 4.74282C10.2094 4.36782 10.0781 3.92407 10.0781 3.45532C10.0781 3.18032 10.1219 2.91782 10.2031 2.66782C10.3219 2.30532 10.5219 1.98034 10.7844 1.71159C11.2406 1.24284 11.8781 0.955322 12.5781 0.955322C13.3156 0.955322 13.9844 1.27408 14.4344 1.78658C14.8344 2.23033 15.0781 2.81782 15.0781 3.45532Z" stroke="#3E3E3E" stroke-miterlimit="10" stroke-linecap="round" stroke-linejoin="round"/>
<path d="M13.5095 3.44275H11.647" stroke="#3E3E3E" stroke-miterlimit="10" stroke-linecap="round" stroke-linejoin="round"/>
<path d="M12.5781 2.53027V4.39902" stroke="#3E3E3E" stroke-miterlimit="10" stroke-linecap="round" stroke-linejoin="round"/>
</svg>
