<svg width="17" height="18" viewBox="0 0 17 18" fill="none" xmlns="http://www.w3.org/2000/svg">
<g opacity="0.9">
<path d="M8.20288 7.34778C9.01636 7.34778 9.67944 6.68469 9.67944 5.87122C9.67944 5.05774 9.01636 4.39465 8.20288 4.39465C7.3894 4.39465 6.72632 5.05774 6.72632 5.87122C6.72632 6.68469 7.3894 7.34778 8.20288 7.34778Z" stroke="#3E3E3E" stroke-linecap="round" stroke-linejoin="round"/>
<path d="M4.64136 13.965C5.45483 13.965 6.11792 13.3019 6.11792 12.4884C6.11792 11.6749 5.45483 11.0118 4.64136 11.0118C3.82788 11.0118 3.16479 11.6749 3.16479 12.4884C3.16479 13.3019 3.82104 13.965 4.64136 13.965Z" stroke="#3E3E3E" stroke-linecap="round" stroke-linejoin="round"/>
<path d="M11.7644 13.965C12.5779 13.965 13.241 13.3019 13.241 12.4884C13.241 11.6749 12.5779 11.0118 11.7644 11.0118C10.9509 11.0118 10.2878 11.6749 10.2878 12.4884C10.2878 13.3019 10.9509 13.965 11.7644 13.965Z" stroke="#3E3E3E" stroke-linecap="round" stroke-linejoin="round"/>
</g>
</svg>
