<svg width="14" height="14" viewBox="0 0 14 14" fill="none" xmlns="http://www.w3.org/2000/svg">
<path d="M9.06919 0C6.06919 0 4.56919 1.2 4.36919 3.9C4.36477 3.9668 4.37467 4.03378 4.39824 4.09645C4.4218 4.15912 4.45848 4.21602 4.50582 4.26337C4.55317 4.31071 4.61007 4.34739 4.67274 4.37095C4.73541 4.39452 4.80238 4.40442 4.86919 4.4C4.93599 4.40442 5.00297 4.39452 5.06564 4.37095C5.1283 4.34739 5.18521 4.31071 5.23255 4.26337C5.2799 4.21602 5.31658 4.15912 5.34014 4.09645C5.3637 4.03378 5.37361 3.9668 5.36919 3.9C5.56919 1.7 6.56919 0.9 9.16919 0.9C11.9692 0.9 12.9692 1.9 12.9692 4.7V9.2C12.9692 12 11.9692 13 9.06919 13C6.56919 13 5.56919 12.2 5.36919 10C5.3599 9.87046 5.30424 9.74861 5.21241 9.65678C5.12058 9.56495 4.99873 9.50929 4.86919 9.5C4.73965 9.50929 4.6178 9.56495 4.52597 9.65678C4.43414 9.74861 4.37848 9.87046 4.36919 10C4.56919 12.7 6.06919 13.9 9.16919 13.9C12.4692 13.9 13.9692 12.5 13.9692 9.1V4.8C13.9692 1.4 12.5692 0 9.06919 0Z" fill="white"/>
<path d="M1.66945 7.49986H8.96945C9.10205 7.49986 9.22923 7.44718 9.323 7.35341C9.41677 7.25964 9.46945 7.13247 9.46945 6.99986C9.46945 6.86725 9.41677 6.74007 9.323 6.6463C9.22923 6.55254 9.10205 6.49986 8.96945 6.49986H1.66945L3.06945 5.09986C3.11541 5.0539 3.15187 4.99933 3.17674 4.93928C3.20162 4.87922 3.21442 4.81486 3.21442 4.74986C3.21442 4.68486 3.20162 4.62049 3.17674 4.56044C3.15187 4.50039 3.11541 4.44582 3.06945 4.39986C3.02348 4.35389 2.96892 4.31744 2.90886 4.29256C2.84881 4.26769 2.78445 4.25488 2.71945 4.25488C2.65444 4.25488 2.59008 4.26769 2.53003 4.29256C2.46997 4.31744 2.41541 4.35389 2.36945 4.39986L0.0694456 6.59986C-0.030961 6.85707 -0.030961 7.14264 0.0694456 7.39986L2.36945 9.69986C2.46945 9.69986 2.66945 9.79986 2.76945 9.79986C2.91041 9.81482 3.05211 9.77939 3.16945 9.69986C3.21728 9.65497 3.2554 9.60075 3.28146 9.54055C3.30752 9.48035 3.32096 9.41545 3.32096 9.34986C3.32096 9.28426 3.30752 9.21936 3.28146 9.15916C3.2554 9.09897 3.21728 9.04475 3.16945 8.99986L1.66945 7.49986Z" fill="white"/>
</svg>
